<?xml version='1.0' encoding='ascii'?>
<svg xmlns="http://www.w3.org/2000/svg" version="1.1" width="1080" height="1080">
    <g id="ViewLayer_LineSet" xmlns:inkscape="http://www.inkscape.org/namespaces/inkscape" inkscape:groupmode="lineset" inkscape:label="ViewLayer_LineSet">
        <g xmlns:inkscape="http://www.inkscape.org/namespaces/inkscape" inkscape:groupmode="layer" id="strokes" inkscape:label="strokes">
            <path fill="black" stroke-width="3.0" stroke-linecap="butt" stroke-opacity="1.0" stroke="rgb(0, 0, 0)" stroke-linejoin="round" d=" M 792.231, 448.023 797.854, 439.753 802.764, 432.531 802.865, 432.382 812.068, 436.293 821.272, 440.203 824.311, 441.494 821.640, 451.131 821.022, 453.360 819.300, 459.570 810.102, 455.646 808.001, 454.750 798.802, 450.826 792.662, 448.207 792.231, 448.023 " />
            <path fill="black" stroke-width="3.0" stroke-linecap="butt" stroke-opacity="1.0" stroke="rgb(0, 0, 0)" stroke-linejoin="round" d=" M 224.170, 459.676 224.169, 459.647 223.999, 449.649 223.852, 441.060 223.980, 441.048 233.939, 440.152 238.940, 439.702 247.585, 438.924 251.412, 448.163 253.949, 454.286 254.828, 456.411 254.396, 456.457 244.452, 457.516 234.509, 458.575 231.255, 458.922 225.015, 459.586 224.376, 459.654 224.170, 459.676 " />
            <path fill="black" stroke-width="3.0" stroke-linecap="butt" stroke-opacity="1.0" stroke="rgb(0, 0, 0)" stroke-linejoin="round" d=" M 269.261, 749.880 269.323, 749.656 271.994, 740.019 273.353, 735.119 274.471, 731.086 275.056, 731.095 285.055, 731.255 294.618, 731.407 294.666, 734.220 294.837, 744.218 294.948, 750.764 284.954, 750.420 274.960, 750.076 269.261, 749.880 " />
            <path fill="black" stroke-width="3.0" stroke-linecap="butt" stroke-opacity="1.0" stroke="rgb(0, 0, 0)" stroke-linejoin="round" d=" M 250.708, 553.242 260.502, 551.222 270.296, 549.203 273.393, 548.564 271.373, 538.770 269.353, 528.976 267.333, 519.182 265.313, 509.388 263.293, 499.595 261.273, 489.801 259.253, 480.007 257.233, 470.213 255.213, 460.419 254.396, 456.457 253.949, 454.286 253.108, 450.213 251.088, 440.419 250.462, 437.383 250.451, 437.328 240.657, 439.348 238.940, 439.702 229.146, 441.722 227.767, 442.006 229.787, 451.800 231.255, 458.922 233.275, 468.715 235.295, 478.509 237.315, 488.303 239.335, 498.097 241.355, 507.891 243.375, 517.685 245.395, 527.479 247.415, 537.272 249.435, 547.066 250.708, 553.242 " />
            <path fill="black" stroke-width="3.0" stroke-linecap="butt" stroke-opacity="1.0" stroke="rgb(0, 0, 0)" stroke-linejoin="round" d=" M 518.337, 463.853 528.337, 463.853 538.337, 463.853 541.498, 463.853 541.498, 453.853 541.498, 443.853 541.498, 433.853 541.498, 423.853 541.498, 413.853 541.498, 403.853 541.498, 393.853 541.498, 383.853 541.498, 373.853 541.498, 363.853 541.498, 353.853 541.498, 343.853 541.498, 333.853 541.498, 323.853 541.498, 313.853 541.498, 305.481 541.498, 296.617 534.200, 296.617 533.725, 296.617 523.725, 296.617 518.337, 296.617 518.337, 305.941 518.337, 315.941 518.337, 325.941 518.337, 335.941 518.337, 345.941 518.337, 355.941 518.337, 365.941 518.337, 375.941 518.337, 385.941 518.337, 395.941 518.337, 405.941 518.337, 415.941 518.337, 425.941 518.337, 435.941 518.337, 445.941 518.337, 455.941 518.337, 463.853 " />
            <path fill="black" stroke-width="3.0" stroke-linecap="butt" stroke-opacity="1.0" stroke="rgb(0, 0, 0)" stroke-linejoin="round" d=" M 344.267, 554.833 353.161, 559.403 362.056, 563.974 364.868, 565.419 369.438, 556.524 374.008, 547.630 378.578, 538.735 383.149, 529.841 387.719, 520.946 392.289, 512.052 396.860, 503.157 401.430, 494.263 406.000, 485.368 410.571, 476.474 415.141, 467.579 419.711, 458.685 424.282, 449.790 428.852, 440.896 433.422, 432.001 437.993, 423.107 442.563, 414.212 447.133, 405.318 451.703, 396.423 456.274, 387.529 460.844, 378.634 465.414, 369.740 469.985, 360.845 474.555, 351.951 479.125, 343.056 483.696, 334.161 488.266, 325.267 492.836, 316.372 497.407, 307.478 500.925, 300.630 504.334, 293.997 495.439, 289.426 486.545, 284.856 483.733, 283.411 481.101, 288.534 476.530, 297.428 471.960, 306.323 467.390, 315.217 462.819, 324.112 458.249, 333.006 453.679, 341.901 449.108, 350.795 444.538, 359.690 439.968, 368.584 435.398, 377.479 430.827, 386.373 426.257, 395.268 421.687, 404.162 417.116, 413.057 412.546, 421.951 407.976, 430.846 403.405, 439.740 398.835, 448.635 394.265, 457.529 389.694, 466.424 385.124, 475.318 380.554, 484.213 375.983, 493.107 371.413, 502.002 366.843, 510.896 362.273, 519.791 357.702, 528.685 353.132, 537.580 348.562, 546.474 344.267, 554.833 " />
            <path fill="black" stroke-width="3.0" stroke-linecap="butt" stroke-opacity="1.0" stroke="rgb(0, 0, 0)" stroke-linejoin="round" d=" M 702.528, 564.289 711.300, 559.489 720.073, 554.688 722.846, 553.170 718.045, 544.398 713.245, 535.626 708.444, 526.853 703.643, 518.081 698.843, 509.309 694.042, 500.536 689.242, 491.764 684.441, 482.992 679.640, 474.219 674.840, 465.447 670.039, 456.674 665.238, 447.902 660.438, 439.130 655.637, 430.358 650.836, 421.585 646.036, 412.813 641.235, 404.041 636.434, 395.268 631.634, 386.496 626.833, 377.724 622.033, 368.951 617.232, 360.179 612.431, 351.406 607.631, 342.634 602.830, 333.862 598.029, 325.090 593.229, 316.317 588.428, 307.545 583.627, 298.773 579.119, 290.535 576.351, 285.476 567.579, 290.277 558.806, 295.078 556.033, 296.595 559.827, 303.529 564.628, 312.301 569.428, 321.073 574.229, 329.846 579.030, 338.618 583.830, 347.390 588.631, 356.163 593.432, 364.935 598.232, 373.707 603.033, 382.480 607.834, 391.252 612.634, 400.024 617.435, 408.797 622.236, 417.569 627.036, 426.341 631.837, 435.114 636.637, 443.886 641.438, 452.658 646.239, 461.431 651.039, 470.203 655.840, 478.975 660.641, 487.748 665.441, 496.520 670.242, 505.292 675.043, 514.065 679.843, 522.837 684.644, 531.609 689.445, 540.382 694.245, 549.154 699.046, 557.926 702.528, 564.289 " />
            <path fill="black" stroke-width="3.0" stroke-linecap="butt" stroke-opacity="1.0" stroke="rgb(0, 0, 0)" stroke-linejoin="round" d=" M 290.238, 334.490 294.889, 343.343 299.539, 352.195 301.010, 354.994 305.623, 352.571 314.475, 347.920 323.328, 343.269 332.181, 338.618 341.033, 333.967 349.886, 329.316 358.739, 324.665 367.591, 320.014 376.444, 315.363 385.296, 310.712 394.149, 306.062 403.002, 301.411 411.854, 296.760 420.707, 292.109 429.560, 287.458 438.412, 282.807 447.265, 278.156 456.118, 273.505 465.792, 268.423 473.407, 264.422 468.756, 255.569 464.105, 246.717 462.635, 243.918 457.571, 246.578 448.718, 251.229 439.866, 255.880 431.013, 260.531 422.160, 265.182 413.308, 269.833 404.455, 274.484 395.602, 279.135 386.750, 283.786 377.897, 288.436 369.044, 293.087 360.192, 297.738 351.339, 302.389 342.487, 307.040 333.634, 311.691 324.781, 316.342 315.929, 320.993 307.076, 325.644 298.223, 330.294 296.008, 331.459 290.238, 334.490 " />
            <path fill="black" stroke-width="3.0" stroke-linecap="butt" stroke-opacity="1.0" stroke="rgb(0, 0, 0)" stroke-linejoin="round" d=" M 596.777, 251.063 592.671, 260.181 588.564, 269.299 587.265, 272.181 595.157, 275.736 604.275, 279.843 613.393, 283.950 622.510, 288.057 631.628, 292.164 640.746, 296.271 649.864, 300.378 658.982, 304.485 668.099, 308.592 677.217, 312.698 686.335, 316.805 695.452, 320.912 704.570, 325.019 713.688, 329.126 722.806, 333.233 731.923, 337.340 741.041, 341.447 750.159, 345.554 759.277, 349.661 761.198, 350.526 764.825, 352.160 768.932, 343.042 773.039, 333.924 774.337, 331.042 771.835, 329.915 762.717, 325.808 753.599, 321.701 744.481, 317.594 735.364, 313.487 726.246, 309.380 717.128, 305.273 708.010, 301.166 698.893, 297.059 689.775, 292.952 680.657, 288.845 671.539, 284.738 662.422, 280.631 653.304, 276.525 644.186, 272.418 635.069, 268.311 625.951, 264.204 616.833, 260.097 607.715, 255.990 604.956, 254.747 596.777, 251.063 " />
            <path fill="black" stroke-width="3.0" stroke-linecap="butt" stroke-opacity="1.0" stroke="rgb(0, 0, 0)" stroke-linejoin="round" d=" M 629.499, 631.134 629.357, 621.135 629.215, 611.136 629.073, 601.137 628.943, 591.999 625.534, 582.599 622.124, 573.198 620.988, 570.065 614.865, 562.159 608.741, 554.253 602.618, 546.346 597.290, 539.467 589.457, 533.250 581.625, 527.032 576.090, 522.639 566.377, 520.259 556.665, 517.878 549.282, 516.069 539.283, 515.930 529.284, 515.791 519.285, 515.652 509.286, 515.513 508.742, 515.506 499.615, 519.593 490.489, 523.681 481.363, 527.769 479.374, 528.659 472.586, 536.002 465.798, 543.345 459.010, 550.688 457.058, 552.799 452.463, 561.681 447.868, 570.563 443.273, 579.444 440.941, 583.950 438.927, 593.745 436.913, 603.540 434.899, 613.335 434.035, 617.537 436.276, 627.283 438.518, 637.028 440.597, 646.069 445.110, 654.993 449.623, 663.917 454.136, 672.841 454.676, 673.908 461.896, 680.828 469.115, 687.747 476.143, 694.482 485.347, 698.393 494.551, 702.303 503.754, 706.214 507.281, 707.712 517.276, 708.032 527.271, 708.351 533.473, 708.549 533.473, 708.765 533.470, 718.765 533.467, 728.765 533.466, 731.542 523.478, 731.059 513.489, 730.577 503.501, 730.094 500.744, 729.961 491.546, 726.037 482.347, 722.114 473.149, 718.190 465.783, 715.047 462.763, 713.759 455.495, 706.891 448.226, 700.023 440.958, 693.154 437.073, 689.483 432.395, 680.645 427.717, 671.806 423.039, 662.968 418.925, 655.196 416.647, 645.459 414.369, 635.721 412.091, 625.984 410.524, 619.287 412.389, 609.463 414.255, 599.638 416.120, 589.814 417.985, 579.989 418.566, 576.925 423.152, 568.038 427.738, 559.152 432.324, 550.266 436.910, 541.379 438.109, 539.055 444.982, 531.790 451.854, 524.526 458.726, 517.261 465.598, 509.997 466.429, 509.118 475.682, 505.324 484.934, 501.531 494.186, 497.737 503.439, 493.943 507.325, 492.349 517.324, 492.488 527.323, 492.627 537.322, 492.766 547.321, 492.905 549.483, 492.935 559.235, 495.146 568.988, 497.357 578.740, 499.568 581.329, 500.155 589.500, 505.920 597.671, 511.686 605.842, 517.451 609.639, 520.130 615.959, 527.880 622.279, 535.630 628.599, 543.379 634.918, 551.129 640.035, 557.403 643.431, 566.809 646.826, 576.215 650.222, 585.621 651.670, 589.633 651.806, 599.632 651.942, 609.631 652.078, 619.630 652.214, 629.629 652.263, 633.254 648.957, 642.691 645.651, 652.129 642.345, 661.567 639.039, 671.004 636.652, 677.820 629.376, 684.680 622.100, 691.540 614.824, 698.401 608.175, 704.671 600.122, 710.599 593.859, 715.210 585.806, 721.138 578.426, 726.571 568.482, 727.630 558.538, 728.690 548.594, 729.749 538.651, 730.808 535.408, 731.153 535.411, 721.153 535.414, 711.153 535.415, 708.618 535.415, 708.161 545.374, 707.265 555.334, 706.368 565.294, 705.472 569.873, 705.060 577.839, 699.014 585.804, 692.969 593.067, 687.457 600.465, 680.728 607.862, 673.999 615.260, 667.270 617.297, 665.417 620.650, 655.996 624.003, 646.575 627.357, 637.154 629.499, 631.134 " />
            <path fill="black" stroke-width="3.0" stroke-linecap="butt" stroke-opacity="1.0" stroke="rgb(0, 0, 0)" stroke-linejoin="round" d=" M 362.186, 648.219 358.776, 638.819 356.489, 632.511 350.366, 624.605 344.242, 616.699 339.518, 610.599 331.685, 604.382 324.336, 598.548 314.623, 596.167 305.137, 593.843 295.138, 593.704 285.139, 593.565 276.105, 593.439 266.979, 597.527 257.852, 601.615 255.074, 602.859 248.286, 610.202 241.497, 617.545 239.092, 620.147 234.497, 629.028 229.902, 637.910 227.551, 642.455 225.537, 652.250 223.522, 662.045 222.605, 666.508 224.846, 676.253 227.087, 685.999 227.304, 686.941 231.817, 695.865 236.330, 704.788 237.387, 706.878 244.606, 713.797 251.826, 720.716 252.760, 721.611 261.964, 725.522 271.168, 729.432 275.059, 731.086 275.056, 731.095 273.954, 735.073 271.282, 744.710 269.849, 749.880 269.323, 749.656 260.125, 745.732 250.927, 741.808 241.704, 737.874 241.504, 737.685 234.235, 730.816 226.967, 723.948 222.667, 719.884 217.989, 711.046 213.311, 702.208 209.218, 694.476 206.940, 684.739 204.662, 675.002 202.993, 667.867 204.858, 658.042 206.723, 648.218 208.588, 638.393 208.953, 636.475 213.539, 627.588 218.124, 618.702 222.710, 609.815 223.435, 608.411 230.307, 601.147 237.179, 593.882 244.051, 586.618 244.421, 586.227 253.673, 582.433 262.926, 578.639 272.178, 574.846 274.726, 573.801 284.725, 573.940 294.724, 574.078 304.723, 574.217 305.967, 574.235 315.719, 576.446 325.472, 578.657 329.566, 579.585 337.737, 585.350 345.908, 591.116 350.545, 594.387 356.865, 602.137 363.185, 609.887 369.504, 617.637 373.070, 622.008 376.465, 631.414 379.861, 640.820 381.692, 645.892 381.828, 655.891 381.963, 665.890 382.099, 675.889 382.131, 678.216 378.825, 687.654 375.519, 697.092 372.213, 706.529 370.562, 711.242 363.287, 718.102 356.011, 724.962 349.460, 731.139 341.407, 737.068 334.696, 742.008 327.415, 747.368 317.471, 748.428 307.527, 749.487 297.583, 750.546 295.537, 750.764 295.366, 740.765 295.256, 734.299 295.207, 731.407 305.166, 730.511 315.126, 729.614 319.884, 729.186 327.849, 723.141 335.815, 717.095 336.494, 716.580 343.891, 709.851 351.289, 703.122 353.846, 700.796 357.199, 691.375 360.552, 681.954 362.584, 676.245 362.442, 666.246 362.300, 656.247 362.186, 648.219 " />
            <path fill="black" stroke-width="3.0" stroke-linecap="butt" stroke-opacity="1.0" stroke="rgb(0, 0, 0)" stroke-linejoin="round" d=" M 833.441, 700.796 836.794, 691.375 840.147, 681.954 842.180, 676.245 842.037, 666.246 841.895, 656.247 841.781, 648.219 838.372, 638.819 836.084, 632.511 829.961, 624.605 823.838, 616.699 819.113, 610.599 811.280, 604.382 803.931, 598.548 794.218, 596.167 784.733, 593.842 774.734, 593.704 764.735, 593.565 755.700, 593.439 746.574, 597.527 737.447, 601.615 734.669, 602.859 727.881, 610.202 721.093, 617.545 718.688, 620.147 714.092, 629.028 709.497, 637.910 707.146, 642.455 705.132, 652.250 703.118, 662.045 702.200, 666.508 704.441, 676.253 706.682, 685.999 706.899, 686.941 711.412, 695.865 715.925, 704.788 716.982, 706.878 724.201, 713.797 731.421, 720.716 732.355, 721.612 741.559, 725.522 750.763, 729.432 754.654, 731.086 754.597, 731.294 752.670, 738.242 749.999, 747.879 749.444, 749.880 748.792, 749.602 739.593, 745.678 730.905, 741.972 721.707, 738.048 721.299, 737.874 714.031, 731.006 706.763, 724.137 702.262, 719.884 697.584, 711.046 692.906, 702.208 688.813, 694.476 686.536, 684.739 684.258, 675.002 682.589, 667.867 684.453, 658.042 686.319, 648.218 688.184, 638.393 688.548, 636.475 693.134, 627.588 697.720, 618.702 702.306, 609.815 703.030, 608.411 709.902, 601.147 716.774, 593.882 723.646, 586.618 724.016, 586.227 733.268, 582.433 742.521, 578.639 751.773, 574.845 754.321, 573.801 764.320, 573.940 774.319, 574.078 784.318, 574.217 785.562, 574.235 795.315, 576.446 805.067, 578.657 809.162, 579.585 817.332, 585.350 825.503, 591.116 830.140, 594.387 836.460, 602.137 842.780, 609.887 849.100, 617.637 852.665, 622.008 856.060, 631.414 859.456, 640.820 861.287, 645.892 861.423, 655.891 861.559, 665.890 861.695, 675.889 861.726, 678.216 858.420, 687.654 855.114, 697.092 851.808, 706.529 850.158, 711.242 842.882, 718.102 835.606, 724.962 829.055, 731.139 821.002, 737.068 816.937, 740.060 808.884, 745.989 807.010, 747.368 797.066, 748.428 787.122, 749.487 777.178, 750.546 775.132, 750.764 774.961, 740.765 774.889, 736.551 774.802, 731.407 784.762, 730.511 794.721, 729.615 799.479, 729.186 807.445, 723.141 815.410, 717.095 816.089, 716.580 823.486, 709.851 830.884, 703.122 833.441, 700.796 " />
            <path fill="black" stroke-width="3.0" stroke-linecap="butt" stroke-opacity="1.0" stroke="rgb(0, 0, 0)" stroke-linejoin="round" d=" M 591.957, 242.230 591.815, 232.231 591.673, 222.232 591.615, 218.156 588.206, 208.755 586.721, 204.663 580.598, 196.756 574.475, 188.850 572.143, 185.840 564.311, 179.623 559.102, 175.488 549.390, 173.108 542.611, 171.446 532.612, 171.308 522.613, 171.169 517.672, 171.100 508.546, 175.188 499.607, 179.192 492.819, 186.535 486.030, 193.878 485.879, 194.041 481.284, 202.923 476.688, 211.805 475.965, 213.204 473.950, 222.999 471.936, 232.794 471.716, 233.865 473.957, 243.611 475.753, 251.417 480.266, 260.341 484.413, 268.543 491.633, 275.462 497.619, 281.199 506.823, 285.110 516.027, 289.020 516.774, 289.338 516.707, 289.579 514.036, 299.216 512.299, 305.482 511.936, 305.327 502.738, 301.404 500.925, 300.630 491.727, 296.706 488.122, 295.169 481.101, 288.534 473.833, 281.665 471.770, 279.716 467.091, 270.877 465.792, 268.423 461.114, 259.584 460.217, 257.890 457.939, 248.153 457.571, 246.578 455.293, 236.841 454.870, 235.033 456.735, 225.208 458.600, 215.384 459.989, 208.067 464.575, 199.181 469.161, 190.294 472.429, 183.961 479.301, 176.697 486.173, 169.432 490.456, 164.905 499.708, 161.111 508.961, 157.317 516.488, 154.231 526.487, 154.370 536.486, 154.508 543.324, 154.603 553.076, 156.815 562.829, 159.026 563.595, 159.200 571.766, 164.965 579.937, 170.730 581.616, 171.914 587.936, 179.664 594.255, 187.414 600.575, 195.164 600.964, 195.641 604.360, 205.047 607.755, 214.452 608.371, 216.156 608.506, 226.155 608.642, 236.155 608.748, 243.923 605.442, 253.361 604.956, 254.747 601.650, 264.185 598.811, 272.292 595.157, 275.736 587.882, 282.596 580.684, 289.383 579.119, 290.535 571.066, 296.463 563.013, 302.392 561.747, 303.324 559.827, 303.529 549.883, 304.588 541.498, 305.481 534.364, 306.241 534.200, 296.617 534.081, 289.614 544.040, 288.717 554.000, 287.821 555.278, 287.706 563.244, 281.660 569.546, 276.877 576.943, 270.148 584.451, 263.319 587.804, 253.898 591.157, 244.477 591.957, 242.230 " />
            <path fill="black" stroke-width="3.0" stroke-linecap="butt" stroke-opacity="1.0" stroke="rgb(0, 0, 0)" stroke-linejoin="round" d=" M 900.320, 412.834 903.673, 403.413 907.026, 393.992 908.724, 389.221 908.582, 379.222 908.440, 369.223 908.341, 362.267 904.932, 352.867 902.862, 347.160 896.739, 339.254 890.616, 331.348 886.540, 326.085 878.707, 319.868 871.938, 314.495 862.226, 312.115 853.474, 309.970 843.475, 309.831 833.476, 309.692 825.552, 309.582 816.426, 313.670 807.299, 317.758 805.326, 318.642 798.537, 325.985 791.749, 333.328 789.955, 335.268 785.360, 344.150 780.765, 353.032 778.855, 356.723 776.841, 366.518 774.826, 376.313 774.098, 379.856 776.339, 389.602 778.617, 399.508 783.130, 408.432 787.643, 417.356 788.314, 418.682 795.534, 425.602 802.764, 432.531 803.100, 432.853 797.478, 441.123 792.662, 448.207 792.467, 448.494 785.198, 441.625 777.930, 434.757 774.158, 431.192 769.480, 422.354 764.802, 413.515 761.223, 406.755 758.945, 397.018 756.668, 387.281 755.236, 381.164 757.101, 371.339 758.966, 361.514 760.831, 351.690 760.968, 350.972 761.198, 350.526 765.784, 341.640 770.370, 332.753 771.835, 329.915 774.896, 323.982 781.768, 316.717 788.641, 309.453 795.080, 302.646 804.332, 298.852 813.584, 295.058 822.837, 291.264 824.226, 290.695 834.225, 290.834 844.224, 290.972 854.272, 291.112 864.025, 293.323 873.777, 295.534 876.969, 296.258 885.140, 302.023 893.311, 307.788 897.145, 310.494 903.465, 318.244 909.785, 325.994 916.105, 333.743 918.809, 337.059 922.204, 346.465 925.600, 355.870 927.101, 360.029 927.237, 370.028 927.373, 380.027 927.509, 390.026 927.523, 391.117 924.218, 400.555 920.912, 409.993 917.606, 419.430 916.397, 422.880 909.122, 429.740 901.846, 436.600 896.102, 442.016 888.049, 447.945 879.996, 453.873 874.900, 457.625 864.956, 458.684 855.012, 459.743 845.068, 460.802 844.241, 460.890 834.247, 460.547 830.487, 460.417 820.493, 460.074 819.536, 460.041 821.368, 453.429 824.040, 443.793 824.546, 441.965 834.545, 442.124 843.923, 442.274 853.883, 441.378 863.843, 440.481 867.657, 440.138 875.622, 434.092 883.632, 428.014 891.029, 421.285 898.427, 414.556 900.320, 412.834 " />
            <path fill="black" stroke-width="3.0" stroke-linecap="butt" stroke-opacity="1.0" stroke="rgb(0, 0, 0)" stroke-linejoin="round" d=" M 289.500, 388.007 289.358, 378.008 289.216, 368.009 289.117, 361.053 285.708, 351.653 283.638, 345.946 277.515, 338.040 271.391, 330.134 267.316, 324.871 259.483, 318.654 252.714, 313.281 243.002, 310.901 234.250, 308.756 224.251, 308.617 214.252, 308.478 206.328, 308.368 197.202, 312.456 188.075, 316.544 186.101, 317.428 179.313, 324.771 172.525, 332.114 170.731, 334.054 166.136, 342.936 161.541, 351.818 159.631, 355.509 157.617, 365.304 155.602, 375.099 154.874, 378.642 157.115, 388.388 159.393, 398.294 163.906, 407.218 168.419, 416.142 169.090, 417.468 176.310, 424.388 183.530, 431.307 183.876, 431.639 193.080, 435.549 202.283, 439.460 205.322, 440.751 215.321, 440.910 223.980, 441.048 224.699, 441.060 224.870, 451.058 225.015, 459.586 225.017, 459.676 224.376, 459.654 224.169, 459.647 214.175, 459.303 204.181, 458.960 200.312, 458.826 191.113, 454.903 181.915, 450.979 173.243, 447.279 165.974, 440.411 158.706, 433.543 154.934, 429.978 150.256, 421.140 145.577, 412.301 141.999, 405.541 139.721, 395.804 137.444, 386.067 136.012, 379.949 137.877, 370.125 139.742, 360.300 141.607, 350.476 141.744, 349.758 146.330, 340.871 150.916, 331.985 155.502, 323.098 155.672, 322.768 162.544, 315.503 169.417, 308.239 175.856, 301.432 185.108, 297.638 194.360, 293.844 203.613, 290.050 205.002, 289.481 215.001, 289.620 225.000, 289.758 235.048, 289.898 244.801, 292.109 254.553, 294.320 257.745, 295.044 265.916, 300.809 274.087, 306.574 277.921, 309.280 284.241, 317.030 290.561, 324.779 296.008, 331.459 299.585, 335.845 302.980, 345.250 305.623, 352.571 307.877, 358.815 308.013, 368.814 308.149, 378.813 308.285, 388.812 308.299, 389.903 304.993, 399.341 301.687, 408.779 298.382, 418.216 297.173, 421.666 289.897, 428.526 282.622, 435.386 276.878, 440.802 268.825, 446.731 260.771, 452.659 255.675, 456.411 253.108, 450.213 249.282, 440.974 248.433, 438.924 250.462, 437.383 258.428, 431.338 264.408, 426.800 271.805, 420.071 279.202, 413.342 281.096, 411.620 284.449, 402.199 287.802, 392.778 289.500, 388.007 " />
            <path fill="black" stroke-width="3.0" stroke-linecap="butt" stroke-opacity="1.0" stroke="rgb(0, 0, 0)" stroke-linejoin="round" d=" M 732.949, 859.377 733.976, 869.325 735.003, 879.272 736.030, 889.219 737.057, 899.166 738.084, 909.113 739.111, 919.060 740.138, 929.007 741.030, 937.647 731.030, 937.558 721.031, 937.470 711.031, 937.381 707.557, 937.350 706.512, 927.405 705.467, 917.460 704.422, 907.514 703.376, 897.569 702.331, 887.624 701.286, 877.679 700.241, 867.733 699.960, 865.058 695.721, 856.001 691.481, 846.944 687.242, 837.887 683.003, 828.830 682.110, 826.924 675.302, 819.599 668.494, 812.274 661.686, 804.950 654.878, 797.625 648.070, 790.300 641.262, 782.976 634.563, 775.769 626.204, 770.280 617.845, 764.790 609.486, 759.301 601.127, 753.812 593.735, 748.958 583.848, 747.459 573.961, 745.960 564.074, 744.461 554.187, 742.962 544.490, 741.491 534.519, 742.251 524.548, 743.010 514.577, 743.769 504.606, 744.528 494.635, 745.287 484.664, 746.046 474.692, 746.805 471.538, 747.045 462.815, 751.935 454.093, 756.826 445.370, 761.716 436.647, 766.606 427.925, 771.496 420.887, 775.442 414.785, 783.364 408.683, 791.287 402.582, 799.209 396.480, 807.132 390.378, 815.055 384.688, 822.442 380.909, 831.700 377.129, 840.958 373.350, 850.217 369.570, 859.475 365.791, 868.733 362.011, 877.991 360.767, 881.038 359.641, 890.974 358.514, 900.910 357.387, 910.847 356.260, 920.783 355.133, 930.719 354.006, 940.656 353.794, 942.521 343.938, 944.213 334.083, 945.904 324.227, 947.595 320.802, 948.183 321.778, 938.231 322.754, 928.279 323.729, 918.326 324.705, 908.374 325.681, 898.422 326.657, 888.469 327.633, 878.517 328.103, 873.717 331.873, 864.455 335.643, 855.193 339.413, 845.930 343.183, 836.668 346.953, 827.406 350.723, 818.144 354.493, 808.882 355.981, 805.224 362.174, 797.372 366.852, 791.440 373.044, 783.588 379.237, 775.736 380.913, 773.611 387.106, 765.759 393.298, 757.907 399.491, 750.055 400.263, 749.075 409.138, 744.466 418.012, 739.857 426.887, 735.248 435.762, 730.639 444.636, 726.030 453.511, 721.421 462.385, 716.812 465.783, 715.047 468.330, 713.724 478.301, 712.965 488.272, 712.206 498.244, 711.447 508.215, 710.688 518.186, 709.929 528.157, 709.170 533.473, 708.765 535.415, 708.618 541.283, 708.171 551.194, 709.498 561.106, 710.825 571.017, 712.152 580.929, 713.479 590.840, 714.806 593.859, 715.210 597.446, 715.690 606.101, 720.699 614.757, 725.707 623.412, 730.716 632.067, 735.725 640.722, 740.733 649.484, 745.803 656.473, 752.954 663.463, 760.106 670.453, 767.257 677.443, 774.408 680.781, 777.824 687.771, 784.975 694.761, 792.126 696.083, 793.479 703.073, 800.630 707.821, 805.488 712.047, 814.551 716.273, 823.614 720.499, 832.677 724.725, 841.740 728.951, 850.804 732.949, 859.377 " />
            <path fill="black" stroke-width="3.0" stroke-linecap="butt" stroke-opacity="1.0" stroke="rgb(0, 0, 0)" stroke-linejoin="round" d=" M 703.455, 781.336 698.265, 789.884 696.083, 793.479 690.893, 802.026 686.254, 809.667 680.093, 801.790 673.932, 793.913 672.288, 791.812 677.478, 783.264 680.781, 777.824 685.971, 769.276 689.489, 763.481 698.364, 758.872 707.238, 754.263 716.113, 749.654 724.987, 745.045 730.905, 741.972 735.582, 739.543 745.553, 738.784 751.925, 738.299 752.670, 738.242 762.642, 737.483 772.613, 736.724 774.103, 736.611 774.889, 736.551 784.861, 735.792 784.983, 735.782 794.895, 737.109 804.806, 738.436 814.718, 739.763 816.937, 740.060 823.015, 740.874 831.671, 745.883 840.326, 750.891 848.981, 755.900 857.636, 760.909 858.253, 761.266 865.243, 768.417 872.233, 775.568 879.223, 782.720 886.213, 789.871 893.203, 797.022 897.758, 801.683 901.984, 810.746 906.210, 819.809 910.436, 828.872 914.774, 838.175 915.801, 848.122 916.828, 858.069 917.855, 868.016 918.882, 877.963 919.909, 887.911 920.246, 891.177 910.246, 891.088 900.247, 890.999 897.579, 890.976 896.534, 881.030 895.489, 871.085 894.444, 861.140 893.398, 851.195 892.435, 842.022 888.195, 832.965 883.956, 823.908 880.347, 816.198 873.539, 808.874 866.731, 801.549 859.923, 794.224 853.115, 786.900 848.150, 781.558 839.791, 776.069 831.432, 770.579 823.073, 765.090 820.503, 763.402 810.615, 761.903 800.729, 760.404 790.841, 758.905 787.155, 758.346 777.184, 759.105 767.213, 759.864 757.242, 760.623 747.271, 761.382 737.754, 762.107 729.031, 766.997 720.309, 771.887 711.586, 776.778 703.455, 781.336 " />
            <path fill="black" stroke-width="3.0" stroke-linecap="butt" stroke-opacity="1.0" stroke="rgb(0, 0, 0)" stroke-linejoin="round" d=" M 373.612, 764.591 379.904, 772.363 380.913, 773.611 387.205, 781.383 390.812, 785.839 384.559, 793.642 378.305, 801.446 376.637, 803.527 370.345, 795.755 366.852, 791.440 360.560, 783.668 359.436, 782.280 351.010, 776.893 342.585, 771.507 334.160, 766.121 326.742, 761.379 316.855, 759.880 306.968, 758.381 297.081, 756.881 293.395, 756.323 283.424, 757.082 273.453, 757.841 263.482, 758.600 253.510, 759.359 243.994, 760.083 235.271, 764.974 226.548, 769.864 217.826, 774.754 209.695, 779.313 203.593, 787.235 197.491, 795.158 191.389, 803.080 185.182, 811.140 181.402, 820.398 177.623, 829.656 173.843, 838.914 170.064, 848.173 168.983, 850.819 167.856, 860.755 166.730, 870.692 165.603, 880.628 164.476, 890.564 164.261, 892.454 154.405, 894.145 144.550, 895.837 141.920, 896.288 142.896, 886.336 143.872, 876.383 144.847, 866.431 145.823, 856.479 146.799, 846.527 146.864, 845.862 150.634, 836.599 154.404, 827.337 158.174, 818.075 161.944, 808.813 165.742, 799.480 171.935, 791.628 178.127, 783.776 184.320, 775.924 190.512, 768.072 195.729, 761.458 204.603, 756.849 213.478, 752.240 222.352, 747.631 231.227, 743.022 240.102, 738.413 241.504, 737.685 241.822, 737.520 251.793, 736.760 261.764, 736.001 271.735, 735.242 273.353, 735.119 273.954, 735.073 283.925, 734.314 291.223, 733.759 294.666, 734.220 295.256, 734.299 305.168, 735.626 315.079, 736.953 324.991, 738.280 329.255, 738.851 334.696, 742.008 343.345, 747.027 351.994, 752.046 360.643, 757.065 369.293, 762.085 373.612, 764.591 " />
            <path fill="black" stroke-width="3.0" stroke-linecap="butt" stroke-opacity="1.0" stroke="rgb(0, 0, 0)" stroke-linejoin="round" d=" M 787.857, 555.433 797.663, 557.394 807.469, 559.356 810.569, 559.976 812.531, 550.171 814.492, 540.365 816.454, 530.559 818.416, 520.754 820.378, 510.948 822.339, 501.142 824.301, 491.337 826.263, 481.531 828.225, 471.725 830.187, 461.920 830.487, 460.417 831.480, 455.452 821.675, 453.491 821.368, 453.429 821.022, 453.360 811.216, 451.398 808.769, 450.909 808.001, 454.750 806.039, 464.555 804.077, 474.361 802.115, 484.167 800.153, 493.973 798.192, 503.778 796.230, 513.584 794.268, 523.390 792.306, 533.195 790.344, 543.001 788.383, 552.807 787.857, 555.433 " />
            <path fill="black" stroke-width="3.0" stroke-linecap="butt" stroke-opacity="1.0" stroke="rgb(0, 0, 0)" stroke-linejoin="round" d=" M 748.660, 750.076 748.792, 749.602 751.463, 739.965 751.925, 738.299 753.870, 731.282 754.597, 731.294 764.595, 731.453 774.017, 731.603 774.103, 736.611 774.273, 746.609 774.347, 750.960 764.353, 750.616 754.359, 750.272 748.660, 750.076 " />
            <path fill="black" stroke-width="3.0" stroke-linecap="butt" stroke-opacity="1.0" stroke="rgb(0, 0, 0)" stroke-linejoin="round" d=" M 511.828, 305.717 511.936, 305.327 514.607, 295.691 516.303, 289.573 516.707, 289.579 526.706, 289.739 533.610, 289.849 533.725, 296.617 533.893, 306.476 523.899, 306.132 518.337, 305.941 511.828, 305.717 " />
        </g>
    </g>
</svg>
