<?xml version='1.0' encoding='ascii'?>
<svg xmlns="http://www.w3.org/2000/svg" version="1.1" width="1080" height="1080">
    <g id="ViewLayer_LineSet" xmlns:inkscape="http://www.inkscape.org/namespaces/inkscape" inkscape:groupmode="lineset" inkscape:label="ViewLayer_LineSet">
        <g xmlns:inkscape="http://www.inkscape.org/namespaces/inkscape" inkscape:groupmode="layer" id="strokes" inkscape:label="strokes">
            <path fill="black" stroke-width="3.0" stroke-linecap="butt" stroke-opacity="1.0" stroke="rgb(0, 0, 0)" stroke-linejoin="round" d=" M 325.156, 551.589 333.500, 557.101 341.844, 562.613 350.188, 568.125 358.532, 573.637 366.875, 579.149 375.219, 584.661 383.563, 590.173 387.143, 592.538 389.969, 594.405 395.502, 586.075 396.496, 584.578 394.889, 583.517 386.545, 578.005 378.201, 572.493 369.857, 566.981 361.514, 561.469 353.170, 555.957 344.826, 550.445 341.200, 548.050 332.856, 542.538 331.684, 541.763 326.151, 550.093 325.463, 551.128 325.156, 551.589 " />
            <path fill="black" stroke-width="3.0" stroke-linecap="butt" stroke-opacity="1.0" stroke="rgb(0, 0, 0)" stroke-linejoin="round" d=" M 400.009, 438.296 400.288, 438.494 408.439, 444.288 410.290, 445.605 418.441, 451.399 426.591, 457.193 429.397, 459.187 434.482, 461.387 439.375, 460.698 448.462, 456.525 457.550, 452.352 466.638, 448.178 475.725, 444.005 484.813, 439.832 493.900, 435.658 501.250, 432.283 510.253, 427.930 510.813, 427.659 520.515, 425.234 520.902, 425.137 530.138, 424.141 538.270, 424.769 546.440, 426.835 555.647, 430.739 559.220, 432.253 568.179, 436.696 577.138, 441.139 586.097, 445.581 587.310, 446.183 594.883, 452.713 597.334, 454.826 603.145, 462.125 607.607, 471.075 612.068, 480.024 616.529, 488.974 620.991, 497.924 625.452, 506.873 626.074, 508.121 627.703, 512.299 627.885, 515.968 627.365, 520.079 625.610, 524.891 623.417, 528.480 619.692, 532.034 617.060, 533.448 614.026, 534.569 608.900, 535.169 605.659, 534.830 602.636, 534.072 599.852, 532.826 596.925, 531.115 594.840, 528.639 589.555, 520.150 584.270, 511.661 579.745, 504.392 576.577, 501.164 567.718, 496.524 558.860, 491.884 550.001, 487.244 547.508, 485.938 542.471, 485.046 534.747, 485.241 525.767, 489.641 516.787, 494.041 507.807, 498.440 498.827, 502.840 489.847, 507.239 480.866, 511.639 471.886, 516.039 462.906, 520.438 453.926, 524.838 444.946, 529.237 440.195, 531.565 438.546, 532.669 432.032, 540.256 425.517, 547.843 419.003, 555.431 412.489, 563.018 405.975, 570.605 399.460, 578.192 394.889, 583.517 388.374, 591.104 387.143, 592.538 382.268, 598.216 378.903, 605.444 377.133, 613.043 377.638, 619.994 378.832, 626.171 381.526, 631.402 384.624, 635.956 389.216, 640.355 393.487, 643.445 398.175, 645.667 402.925, 647.167 407.899, 647.845 412.381, 647.774 417.653, 646.125 420.727, 644.883 422.261, 644.263 428.142, 640.154 434.160, 634.373 441.372, 627.445 447.758, 621.310 449.448, 618.445 449.779, 616.706 449.751, 615.191 449.116, 613.578 447.946, 612.223 446.374, 611.419 444.070, 611.320 441.211, 612.393 434.190, 619.514 427.169, 626.635 421.647, 632.237 417.976, 634.798 414.854, 636.157 411.712, 636.687 408.784, 636.785 405.895, 636.307 402.649, 635.476 399.207, 634.345 395.633, 631.769 392.078, 628.172 390.230, 624.881 388.414, 621.092 387.883, 618.117 387.668, 615.104 388.949, 608.981 391.250, 604.006 397.723, 596.384 404.197, 588.762 410.671, 581.140 417.144, 573.518 423.618, 565.896 430.091, 558.274 436.565, 550.652 443.038, 543.031 445.305, 540.362 445.991, 540.007 454.989, 535.642 463.986, 531.277 472.983, 526.913 481.980, 522.548 490.978, 518.183 499.975, 513.819 508.972, 509.454 517.969, 505.089 526.966, 500.725 535.964, 496.360 537.887, 495.427 542.249, 495.710 544.744, 496.044 553.552, 500.780 562.359, 505.516 570.497, 509.893 572.408, 512.095 577.587, 520.650 582.765, 529.204 586.038, 534.613 589.383, 538.618 593.638, 541.460 597.159, 543.192 602.193, 544.887 608.059, 545.773 616.245, 544.972 621.093, 543.291 625.642, 540.851 631.726, 535.122 635.312, 529.253 637.762, 522.330 638.467, 514.881 637.949, 509.442 635.549, 503.286 631.064, 494.349 626.579, 485.411 622.094, 476.473 617.609, 467.536 613.123, 458.598 611.765, 455.891 605.762, 447.894 605.491, 447.532 597.774, 441.172 593.026, 437.259 584.121, 432.708 581.511, 431.373 572.607, 426.822 569.587, 425.279 563.736, 422.288 554.551, 418.333 549.718, 416.251 540.443, 413.904 530.476, 413.093 530.079, 413.061 520.131, 414.086 519.347, 414.167 509.646, 416.592 509.259, 416.689 500.256, 421.042 499.695, 421.313 490.601, 425.471 481.507, 429.629 472.412, 433.788 463.318, 437.946 454.223, 442.104 445.129, 446.262 440.062, 448.579 438.503, 449.265 436.369, 449.465 436.337, 449.468 436.442, 449.363 428.292, 443.569 420.141, 437.775 411.991, 431.981 407.054, 428.471 401.227, 436.598 400.009, 438.296 " />
            <path fill="black" stroke-width="3.0" stroke-linecap="butt" stroke-opacity="1.0" stroke="rgb(0, 0, 0)" stroke-linejoin="round" d=" M 436.337, 449.468 430.526, 457.606 429.397, 459.187 435.224, 451.061 436.369, 449.465 436.442, 449.363 " />
            <path fill="black" stroke-width="3.0" stroke-linecap="butt" stroke-opacity="1.0" stroke="rgb(0, 0, 0)" stroke-linejoin="round" d=" M 434.659, 633.294 429.670, 626.768 422.884, 634.113 422.312, 634.732 420.542, 642.331 420.727, 644.883 421.047, 649.282 422.241, 655.459 424.935, 660.690 428.033, 665.244 432.625, 669.643 436.896, 672.733 441.584, 674.955 446.334, 676.455 451.308, 677.133 455.790, 677.062 461.062, 675.413 465.655, 673.672 467.389, 672.703 472.243, 669.993 479.390, 663.000 486.537, 656.006 489.004, 653.591 496.152, 646.598 498.012, 644.777 499.347, 642.228 499.678, 640.490 499.651, 638.974 499.016, 637.361 497.846, 636.007 496.274, 635.202 493.969, 635.103 491.194, 636.223 484.134, 643.305 477.074, 650.387 470.014, 657.470 465.545, 661.952 461.385, 664.086 458.263, 665.445 455.121, 665.975 452.194, 666.073 449.304, 665.595 446.058, 664.764 442.616, 663.633 439.042, 661.057 435.487, 657.460 433.639, 654.169 431.823, 650.380 431.292, 647.405 431.077, 644.392 432.358, 638.269 434.160, 634.373 434.659, 633.294 " />
            <path fill="black" stroke-width="3.0" stroke-linecap="butt" stroke-opacity="1.0" stroke="rgb(0, 0, 0)" stroke-linejoin="round" d=" M 499.308, 640.376 490.738, 645.530 482.169, 650.684 476.341, 654.189 469.588, 661.564 468.972, 662.237 467.188, 669.951 467.389, 672.703 467.696, 676.878 468.891, 683.050 471.541, 688.634 474.616, 693.366 479.208, 697.765 483.479, 700.855 488.187, 702.917 492.975, 704.117 497.976, 704.574 502.460, 704.483 507.733, 702.834 512.341, 700.972 513.495, 700.133 519.411, 695.832 526.285, 688.569 529.462, 685.213 536.336, 677.951 543.211, 670.688 544.111, 669.738 545.010, 668.278 545.341, 666.540 545.313, 665.024 544.679, 663.411 543.509, 662.057 541.936, 661.252 539.632, 661.153 536.856, 662.273 530.128, 669.671 524.396, 675.974 517.603, 683.444 512.216, 689.367 508.055, 691.507 504.933, 692.866 501.792, 693.396 498.864, 693.494 495.970, 693.056 492.712, 692.315 489.261, 691.260 485.687, 688.685 482.132, 685.084 480.279, 681.835 478.432, 678.296 477.883, 675.467 477.786, 672.514 479.094, 666.304 485.242, 658.417 489.004, 653.591 495.153, 645.705 499.308, 640.376 " />
            <path fill="black" stroke-width="3.0" stroke-linecap="butt" stroke-opacity="1.0" stroke="rgb(0, 0, 0)" stroke-linejoin="round" d=" M 513.568, 695.449 513.495, 700.133 513.454, 702.808 514.890, 708.592 517.377, 714.250 520.314, 719.069 524.777, 723.599 528.956, 726.812 533.602, 729.010 538.353, 730.348 543.339, 730.950 547.824, 730.989 553.142, 729.494 557.802, 727.767 565.123, 723.464 570.646, 718.930 578.848, 713.209 587.049, 707.488 595.251, 701.767 603.453, 696.046 611.655, 690.325 613.237, 689.221 614.526, 688.322 608.015, 680.733 607.769, 680.446 607.009, 680.971 598.781, 686.655 590.553, 692.339 582.326, 698.023 574.098, 703.707 565.870, 709.391 564.261, 710.502 558.014, 715.637 553.793, 718.181 550.633, 719.449 547.477, 719.888 544.548, 719.901 541.667, 719.379 538.433, 718.543 535.014, 717.388 531.516, 714.711 528.066, 711.009 526.309, 707.707 524.565, 704.116 524.098, 701.273 524.088, 698.318 524.633, 691.901 529.462, 685.213 532.249, 681.353 524.396, 675.974 524.147, 675.804 517.603, 683.444 515.637, 685.739 513.568, 695.449 " />
            <path fill="black" stroke-width="3.0" stroke-linecap="butt" stroke-opacity="1.0" stroke="rgb(0, 0, 0)" stroke-linejoin="round" d=" M 661.467, 666.925 652.832, 671.970 652.394, 672.225 652.830, 673.017 654.602, 676.233 655.031, 679.577 654.774, 683.495 653.355, 687.061 651.677, 689.726 648.255, 692.730 645.610, 694.134 642.586, 695.513 638.212, 696.535 635.676, 696.143 633.074, 695.408 630.696, 693.763 628.077, 691.534 625.958, 688.847 619.933, 680.866 613.908, 672.885 607.882, 664.904 601.997, 657.110 601.353, 654.960 600.899, 652.701 601.396, 647.963 602.353, 645.112 604.257, 642.579 608.608, 639.021 612.947, 636.529 617.111, 635.723 625.261, 638.184 631.219, 644.780 635.431, 649.443 630.583, 640.696 625.658, 631.809 617.638, 625.836 617.123, 625.453 616.423, 625.513 614.058, 625.715 608.239, 627.186 601.648, 631.210 595.910, 636.270 592.980, 640.462 591.204, 645.598 590.440, 652.421 591.458, 658.358 592.915, 662.304 598.941, 670.285 604.966, 678.266 607.009, 680.971 613.034, 688.952 613.237, 689.221 616.876, 694.041 619.873, 698.070 623.373, 701.778 626.686, 703.881 631.920, 705.848 637.858, 706.934 644.795, 706.080 649.958, 704.398 654.192, 701.538 660.295, 695.809 663.562, 690.389 665.144, 685.344 665.281, 680.460 665.353, 677.874 664.311, 672.774 661.467, 666.925 " />
            <path fill="black" stroke-width="3.0" stroke-linecap="butt" stroke-opacity="1.0" stroke="rgb(0, 0, 0)" stroke-linejoin="round" d=" M 696.379, 640.775 687.583, 645.271 688.092, 646.851 688.986, 649.626 689.439, 653.679 688.551, 657.345 687.132, 660.911 685.454, 663.576 682.032, 666.580 679.387, 667.984 676.363, 669.363 671.989, 670.385 669.201, 670.497 666.599, 669.510 663.717, 668.369 661.098, 666.141 658.979, 663.454 652.888, 655.522 646.798, 647.591 640.707, 639.660 634.617, 631.729 628.526, 623.797 622.435, 615.866 618.119, 610.246 616.754, 606.033 616.867, 601.780 618.421, 596.604 621.833, 593.054 628.106, 588.648 632.489, 586.958 633.799, 586.745 633.914, 586.726 632.509, 576.825 632.468, 576.536 632.211, 576.571 628.193, 577.110 622.043, 579.778 614.151, 585.542 609.210, 590.891 606.405, 599.152 606.155, 607.793 608.785, 615.566 614.875, 623.497 616.423, 625.513 622.514, 633.444 628.604, 641.375 631.219, 644.780 637.310, 652.712 643.400, 660.643 649.644, 668.774 652.641, 672.803 652.830, 673.017 656.142, 676.762 660.211, 678.992 665.281, 680.460 665.697, 680.581 671.635, 680.784 678.573, 679.929 683.735, 678.248 687.969, 675.388 694.072, 669.659 697.339, 664.239 699.048, 659.194 699.572, 654.609 699.887, 651.850 699.223, 646.624 696.379, 640.775 " />
            <path fill="black" stroke-width="3.0" stroke-linecap="butt" stroke-opacity="1.0" stroke="rgb(0, 0, 0)" stroke-linejoin="round" d=" M 718.985, 620.777 721.192, 624.739 722.146, 628.704 721.722, 632.451 720.803, 634.933 719.125, 637.597 715.703, 640.602 713.059, 642.006 710.034, 643.384 705.661, 644.407 702.746, 644.014 700.144, 643.027 698.397, 641.634 695.652, 639.153 693.450, 636.194 687.329, 628.286 681.208, 620.378 675.088, 612.470 669.595, 605.373 663.475, 597.465 659.346, 592.131 653.226, 584.223 652.552, 583.352 647.676, 579.496 641.903, 577.226 636.220, 576.547 632.197, 576.482 632.211, 576.571 633.753, 586.451 633.799, 586.745 633.801, 586.759 636.084, 586.947 639.228, 587.277 642.535, 588.537 645.226, 590.735 651.336, 598.651 657.447, 606.567 663.557, 614.483 669.667, 622.399 675.778, 630.315 681.888, 638.231 685.038, 642.311 687.573, 646.194 688.092, 646.851 690.696, 650.153 693.882, 653.013 699.369, 654.602 699.572, 654.609 705.306, 654.805 712.244, 653.951 717.406, 652.270 721.641, 649.410 727.743, 643.680 731.010, 638.261 732.367, 632.978 732.319, 628.704 732.285, 625.587 730.975, 620.484 727.696, 614.851 726.193, 612.926 720.039, 605.044 717.745, 602.105 711.592, 594.222 705.681, 586.651 704.082, 584.602 703.539, 583.907 695.271, 589.532 694.828, 589.834 695.326, 590.472 701.480, 598.354 707.633, 606.237 713.787, 614.119 718.985, 620.777 " />
            <path fill="black" stroke-width="3.0" stroke-linecap="butt" stroke-opacity="1.0" stroke="rgb(0, 0, 0)" stroke-linejoin="round" d=" M 756.304, 594.449 757.224, 598.140 757.604, 602.193 756.643, 605.713 754.932, 609.498 752.670, 611.798 749.248, 614.875 746.604, 616.280 743.579, 617.658 739.206, 618.680 736.271, 618.573 733.815, 617.805 730.933, 616.664 728.168, 614.947 726.193, 612.926 725.684, 612.406 716.861, 617.069 719.857, 621.098 723.358, 625.058 727.428, 627.287 732.319, 628.704 732.914, 628.876 738.851, 629.371 745.789, 628.225 750.951, 626.544 755.186, 623.683 761.288, 617.881 765.139, 612.826 767.140, 607.562 768.052, 600.364 767.461, 595.138 764.864, 588.625 763.739, 587.111 757.779, 579.081 756.700, 577.627 753.750, 573.652 752.993, 572.633 752.676, 572.205 752.627, 572.238 744.371, 577.881 744.262, 577.956 745.523, 579.682 751.419, 587.759 756.304, 594.449 " />
            <path fill="black" stroke-width="3.0" stroke-linecap="butt" stroke-opacity="1.0" stroke="rgb(0, 0, 0)" stroke-linejoin="round" d=" M 709.753, 607.509 717.745, 602.105 717.936, 601.975 716.013, 597.605 715.288, 593.418 715.796, 589.599 716.843, 585.886 718.549, 583.256 721.506, 580.295 724.179, 578.141 727.012, 576.404 731.229, 574.857 733.983, 574.406 736.686, 575.068 740.050, 575.704 742.921, 577.596 745.523, 579.682 746.048, 580.104 753.750, 573.652 753.857, 573.562 752.993, 572.633 752.627, 572.238 750.504, 569.954 746.547, 566.450 741.871, 564.879 736.232, 563.970 730.314, 564.492 723.532, 566.185 718.613, 568.483 714.539, 572.276 709.254, 578.268 706.306, 583.826 705.681, 586.651 705.152, 589.042 705.141, 596.507 706.217, 601.832 709.753, 607.509 " />
            <path fill="black" stroke-width="3.0" stroke-linecap="butt" stroke-opacity="1.0" stroke="rgb(0, 0, 0)" stroke-linejoin="round" d=" M 660.158, 609.784 669.217, 605.550 669.595, 605.373 669.823, 605.266 668.762, 601.329 669.084, 597.571 669.947, 593.831 671.024, 591.785 672.542, 589.845 674.996, 588.129 677.830, 586.392 682.046, 584.844 684.704, 584.469 687.245, 585.012 690.202, 585.941 692.975, 587.974 695.283, 590.500 695.326, 590.472 703.633, 584.903 704.082, 584.602 704.208, 584.518 700.927, 580.717 697.149, 577.021 692.929, 575.093 685.828, 573.779 679.921, 574.329 674.349, 576.173 669.430, 578.471 665.576, 581.826 661.589, 585.973 659.354, 592.087 659.346, 592.131 658.429, 597.332 658.711, 604.719 660.158, 609.784 " />
            <path fill="black" stroke-width="3.0" stroke-linecap="butt" stroke-opacity="1.0" stroke="rgb(0, 0, 0)" stroke-linejoin="round" d=" M 801.835, 547.459 800.901, 548.083 792.587, 553.640 790.700, 554.901 782.386, 560.458 774.072, 566.015 765.758, 571.572 757.445, 577.129 756.700, 577.627 755.004, 578.760 760.532, 587.094 761.525, 588.591 763.739, 587.111 772.053, 581.554 780.367, 575.997 788.681, 570.440 796.995, 564.883 805.309, 559.326 808.356, 557.289 802.828, 548.956 801.835, 547.459 " />
            <path fill="black" stroke-width="3.0" stroke-linecap="butt" stroke-opacity="1.0" stroke="rgb(0, 0, 0)" stroke-linejoin="round" d=" M 722.138, 431.388 713.519, 436.459 704.900, 441.530 696.281, 446.601 692.155, 449.029 692.072, 449.128 691.987, 448.624 683.295, 443.680 674.602, 438.736 665.909, 433.793 657.217, 428.849 648.524, 423.906 639.832, 418.962 631.139, 414.018 629.150, 412.887 623.428, 411.349 618.012, 410.354 611.500, 410.076 601.519, 410.706 601.270, 410.722 597.142, 411.651 588.178, 416.084 579.214, 420.517 570.251, 424.950 569.587, 425.279 569.297, 425.422 573.029, 434.700 573.320, 435.424 581.511, 431.373 590.474, 426.940 599.438, 422.507 601.165, 421.653 604.301, 421.068 612.534, 420.807 618.128, 421.134 621.489, 421.955 624.590, 422.304 633.254, 427.298 641.918, 432.292 650.581, 437.285 659.245, 442.279 667.909, 447.273 676.573, 452.267 685.237, 457.261 688.628, 459.216 693.280, 459.841 697.435, 458.428 706.054, 453.357 714.673, 448.286 716.521, 447.199 725.140, 442.128 727.122, 440.962 727.418, 440.788 722.520, 432.070 722.138, 431.388 " />
            <path fill="black" stroke-width="3.0" stroke-linecap="butt" stroke-opacity="1.0" stroke="rgb(0, 0, 0)" stroke-linejoin="round" d=" M 334.878, 557.425 340.469, 549.134 341.200, 548.050 346.792, 539.759 352.383, 531.468 357.974, 523.177 363.566, 514.887 369.157, 506.596 374.748, 498.305 380.340, 490.014 385.931, 481.724 391.523, 473.433 397.114, 465.142 402.705, 456.852 408.297, 448.561 410.290, 445.605 415.882, 437.314 416.405, 436.538 408.093, 430.978 406.208, 429.717 400.616, 438.008 400.288, 438.494 394.697, 446.785 389.105, 455.076 383.514, 463.367 377.923, 471.657 372.331, 479.948 366.740, 488.239 361.149, 496.530 355.557, 504.820 349.966, 513.111 344.374, 521.402 338.783, 529.693 333.192, 537.983 327.600, 546.274 324.680, 550.604 325.463, 551.128 333.775, 556.688 334.878, 557.425 " />
            <path fill="black" stroke-width="3.0" stroke-linecap="butt" stroke-opacity="1.0" stroke="rgb(0, 0, 0)" stroke-linejoin="round" d=" M 805.198, 554.323 800.901, 548.083 795.229, 539.848 789.556, 531.612 783.884, 523.377 778.212, 515.141 772.539, 506.905 766.867, 498.670 761.195, 490.434 755.523, 482.198 749.851, 473.963 744.178, 465.727 738.506, 457.492 732.834, 449.256 727.122, 440.962 722.492, 434.240 714.278, 439.944 712.414, 441.237 716.521, 447.199 722.193, 455.435 727.865, 463.671 733.538, 471.906 739.210, 480.142 744.882, 488.377 750.554, 496.613 756.227, 504.849 761.899, 513.084 767.571, 521.320 773.243, 529.556 778.916, 537.791 784.588, 546.027 790.700, 554.901 795.121, 561.321 803.335, 555.617 805.198, 554.323 " />
            <path fill="black" stroke-width="3.0" stroke-linecap="butt" stroke-opacity="1.0" stroke="rgb(0, 0, 0)" stroke-linejoin="round" d=" M 810.550, 138.432 800.550, 138.442 790.550, 138.451 780.550, 138.461 770.550, 138.471 760.550, 138.481 750.550, 138.491 740.550, 138.500 730.550, 138.510 720.550, 138.520 710.550, 138.530 700.550, 138.540 690.550, 138.550 680.550, 138.559 670.550, 138.569 660.550, 138.579 650.550, 138.589 640.550, 138.599 630.550, 138.609 620.550, 138.618 610.550, 138.628 600.550, 138.638 590.550, 138.648 580.550, 138.658 570.550, 138.667 560.550, 138.677 550.550, 138.687 540.550, 138.697 530.550, 138.707 520.550, 138.717 510.550, 138.726 500.550, 138.736 490.550, 138.746 480.550, 138.756 470.550, 138.766 460.550, 138.775 450.550, 138.785 440.550, 138.795 430.550, 138.805 420.550, 138.815 410.550, 138.825 400.550, 138.834 390.550, 138.844 380.550, 138.854 370.550, 138.864 360.550, 138.874 350.550, 138.883 340.550, 138.893 330.550, 138.903 320.550, 138.913 310.550, 138.923 300.550, 138.933 290.550, 138.942 280.550, 138.952 270.550, 138.962 260.550, 138.972 250.550, 138.982 240.550, 138.992 230.550, 139.001 220.550, 139.011 210.550, 139.021 194.512, 139.037 185.747, 143.851 176.982, 148.666 172.974, 150.868 165.187, 157.142 157.400, 163.416 150.598, 168.896 149.164, 178.792 148.621, 182.537 148.565, 192.537 148.508, 202.537 148.452, 212.537 148.395, 222.537 148.339, 232.537 148.282, 242.536 148.226, 252.536 148.169, 262.536 148.113, 272.536 148.056, 282.536 148.000, 292.536 147.943, 302.536 147.887, 312.535 147.830, 322.535 147.774, 332.535 147.718, 342.535 147.661, 352.535 147.605, 362.535 147.548, 372.534 147.492, 382.534 147.435, 392.534 147.379, 402.534 147.322, 412.534 147.266, 422.534 147.209, 432.533 147.153, 442.533 147.096, 452.533 147.040, 462.533 146.983, 472.533 146.927, 482.533 146.870, 492.532 146.814, 502.532 146.758, 512.532 146.701, 522.532 146.645, 532.532 146.588, 542.532 146.532, 552.531 146.475, 562.531 146.419, 572.531 146.362, 582.531 146.306, 592.531 146.249, 602.531 146.193, 612.531 146.136, 622.530 146.080, 632.530 146.023, 642.530 145.967, 652.530 145.910, 662.530 145.854, 672.530 145.798, 682.529 145.741, 692.529 145.685, 702.529 145.628, 712.529 145.572, 722.529 145.515, 732.529 145.459, 742.529 145.402, 752.528 145.346, 762.528 145.289, 772.528 145.233, 782.528 145.176, 792.528 145.120, 802.528 145.063, 812.527 145.007, 822.527 144.950, 832.527 144.894, 842.527 144.838, 852.527 144.781, 862.527 144.725, 872.526 144.668, 882.526 144.612, 892.526 144.555, 902.526 144.499, 912.526 144.442, 922.526 144.386, 932.525 144.329, 942.525 144.273, 952.525 144.216, 962.525 144.160, 972.525 144.103, 982.525 144.047, 992.525 143.982, 1004.081 149.664, 1012.310 155.347, 1020.538 156.583, 1022.329 163.346, 1029.695 170.109, 1037.061 175.092, 1042.488 184.035, 1046.964 192.977, 1051.439 195.516, 1052.710 205.516, 1052.691 215.516, 1052.672 225.516, 1052.654 235.516, 1052.635 245.516, 1052.616 255.516, 1052.598 265.516, 1052.579 275.516, 1052.560 285.516, 1052.541 295.516, 1052.523 305.516, 1052.504 315.516, 1052.485 325.516, 1052.466 335.516, 1052.448 345.516, 1052.429 355.516, 1052.410 365.516, 1052.392 375.516, 1052.373 385.516, 1052.354 395.516, 1052.335 405.516, 1052.317 415.516, 1052.298 425.515, 1052.279 435.515, 1052.261 445.515, 1052.242 455.515, 1052.223 465.515, 1052.204 475.515, 1052.186 485.515, 1052.167 495.515, 1052.148 505.515, 1052.129 515.515, 1052.111 525.515, 1052.092 535.515, 1052.073 545.515, 1052.055 555.515, 1052.036 565.515, 1052.017 575.515, 1051.998 585.515, 1051.980 595.515, 1051.961 605.515, 1051.942 615.515, 1051.923 625.515, 1051.905 635.515, 1051.886 645.515, 1051.867 655.515, 1051.849 665.515, 1051.830 675.515, 1051.811 685.515, 1051.792 695.515, 1051.774 705.515, 1051.755 715.515, 1051.736 725.515, 1051.717 735.515, 1051.699 745.515, 1051.680 755.515, 1051.661 765.515, 1051.643 772.010, 1051.630 778.422, 1048.183 786.270, 1041.984 794.117, 1035.786 795.846, 1034.421 801.485, 1026.162 807.125, 1017.904 812.764, 1009.646 814.365, 1007.303 817.463, 997.795 820.561, 988.287 823.659, 978.779 826.373, 970.451 816.390, 969.856 808.536, 969.389 805.297, 978.849 802.058, 988.310 798.819, 997.771 798.053, 1000.010 792.531, 1008.348 787.010, 1016.685 784.292, 1020.790 777.053, 1027.688 773.602, 1030.977 772.726, 1033.776 762.726, 1033.795 752.726, 1033.814 742.726, 1033.833 732.726, 1033.851 722.726, 1033.870 712.726, 1033.889 702.726, 1033.908 692.726, 1033.926 682.726, 1033.945 672.726, 1033.964 662.726, 1033.982 652.726, 1034.001 642.727, 1034.020 632.727, 1034.039 622.727, 1034.057 612.727, 1034.076 602.727, 1034.095 592.727, 1034.114 582.727, 1034.132 572.727, 1034.151 562.727, 1034.170 552.727, 1034.188 542.727, 1034.207 532.727, 1034.226 522.727, 1034.245 512.727, 1034.263 502.727, 1034.282 492.727, 1034.301 482.727, 1034.319 472.727, 1034.338 462.727, 1034.357 452.727, 1034.376 442.727, 1034.394 432.727, 1034.413 422.727, 1034.432 412.727, 1034.451 402.727, 1034.469 392.727, 1034.488 382.727, 1034.507 372.727, 1034.525 362.727, 1034.544 352.727, 1034.563 342.727, 1034.582 332.727, 1034.600 322.727, 1034.619 312.727, 1034.638 302.727, 1034.657 292.727, 1034.675 282.727, 1034.694 272.727, 1034.713 262.727, 1034.731 252.727, 1034.750 242.727, 1034.769 232.727, 1034.788 222.727, 1034.806 212.727, 1034.825 202.727, 1034.844 196.233, 1034.856 186.724, 1031.759 185.419, 1031.333 178.817, 1023.822 172.215, 1016.311 170.191, 1014.007 164.372, 1005.875 161.342, 1001.642 161.378, 991.642 161.415, 981.642 161.451, 971.642 161.487, 961.642 161.523, 951.642 161.533, 948.974 161.569, 938.974 161.605, 928.974 161.627, 922.827 161.663, 912.827 161.699, 902.827 161.735, 892.827 161.771, 882.827 161.808, 872.827 161.844, 862.827 161.880, 852.827 161.916, 842.827 161.952, 832.827 161.988, 822.827 162.024, 812.827 162.060, 802.827 162.096, 792.827 162.133, 782.827 162.169, 772.827 162.205, 762.828 162.241, 752.828 162.277, 742.828 162.313, 732.828 162.349, 722.828 162.385, 712.828 162.422, 702.828 162.458, 692.828 162.494, 682.828 162.530, 672.828 162.566, 662.828 162.602, 652.828 162.638, 642.828 162.674, 632.828 162.710, 622.828 162.747, 612.829 162.783, 602.829 162.819, 592.829 162.855, 582.829 162.891, 572.829 162.927, 562.829 162.963, 552.829 162.999, 542.829 163.036, 532.829 163.072, 522.829 163.108, 512.829 163.144, 502.829 163.180, 492.829 163.216, 482.829 163.252, 472.829 163.288, 462.830 163.324, 452.830 163.361, 442.830 163.397, 432.830 163.433, 422.830 163.469, 412.830 163.505, 402.830 163.541, 392.830 163.577, 382.830 163.613, 372.830 163.649, 362.830 163.686, 352.830 163.722, 342.830 163.758, 332.830 163.794, 322.830 163.830, 312.831 163.866, 302.831 163.902, 292.831 163.938, 282.831 163.975, 272.831 164.011, 262.831 164.047, 252.831 164.083, 242.831 164.119, 232.831 164.155, 222.831 164.191, 212.831 164.227, 202.831 164.263, 192.831 164.298, 183.195 163.820, 177.344 171.661, 171.138 178.931, 165.384 187.244, 159.826 194.878, 154.723 204.878, 154.714 214.878, 154.704 224.878, 154.694 234.878, 154.684 244.878, 154.674 254.878, 154.664 264.878, 154.655 274.878, 154.645 280.641, 154.639 290.641, 154.629 296.341, 154.624 306.341, 154.614 316.341, 154.604 326.341, 154.594 336.341, 154.584 346.341, 154.575 356.341, 154.565 366.341, 154.555 376.341, 154.545 386.341, 154.535 396.341, 154.526 406.341, 154.516 416.341, 154.506 426.341, 154.496 436.341, 154.486 446.341, 154.476 456.341, 154.467 466.341, 154.457 476.341, 154.447 486.341, 154.437 496.341, 154.427 506.341, 154.418 516.341, 154.408 526.341, 154.398 536.341, 154.388 546.341, 154.378 556.341, 154.368 566.341, 154.359 576.341, 154.349 586.341, 154.339 596.341, 154.329 606.341, 154.319 616.341, 154.310 626.341, 154.300 636.341, 154.290 646.341, 154.280 656.341, 154.270 666.341, 154.260 676.341, 154.251 686.341, 154.241 696.341, 154.231 706.341, 154.221 716.341, 154.211 726.341, 154.201 736.341, 154.192 746.341, 154.182 756.341, 154.172 766.341, 154.162 776.341, 154.152 786.341, 154.143 796.341, 154.133 810.915, 154.118 818.038, 155.445 825.620, 161.966 833.201, 168.487 837.045, 171.793 839.226, 181.552 840.643, 187.893 840.643, 197.893 840.643, 207.893 840.643, 217.893 840.643, 227.893 840.643, 237.893 840.643, 247.893 840.643, 257.893 840.643, 267.893 840.643, 277.893 840.643, 287.893 840.643, 297.893 840.643, 307.893 840.643, 317.893 840.643, 327.893 840.643, 337.893 840.643, 347.893 840.643, 357.893 840.643, 367.893 840.643, 377.893 840.643, 387.893 840.643, 397.893 840.643, 407.893 840.643, 417.893 840.643, 427.893 840.643, 437.893 840.643, 447.893 840.643, 457.893 840.643, 467.893 840.643, 477.893 840.643, 487.893 840.643, 497.893 840.643, 507.893 840.643, 517.893 840.643, 527.893 840.643, 537.893 840.643, 547.893 840.643, 557.893 840.643, 567.893 840.643, 577.893 840.643, 587.893 840.643, 597.893 840.643, 607.893 840.643, 617.893 840.643, 627.893 840.643, 637.893 840.643, 647.893 840.643, 657.893 840.643, 667.893 840.643, 677.893 840.643, 687.893 840.643, 697.893 840.643, 707.893 840.643, 717.893 840.643, 727.893 840.643, 737.893 840.643, 747.893 840.643, 757.893 840.643, 767.893 840.643, 777.893 840.643, 787.893 840.643, 797.893 840.643, 807.893 840.643, 817.893 840.643, 827.893 840.643, 837.893 840.643, 847.893 840.643, 862.585 836.449, 871.663 834.138, 876.666 827.254, 883.919 820.613, 890.916 812.273, 896.434 809.867, 898.025 799.867, 898.011 789.867, 897.996 779.867, 897.981 769.867, 897.966 759.867, 897.952 749.867, 897.937 739.867, 897.922 729.867, 897.907 719.867, 897.893 709.867, 897.878 699.867, 897.863 689.867, 897.848 679.867, 897.834 669.867, 897.819 659.867, 897.804 649.867, 897.790 639.867, 897.775 629.867, 897.760 619.867, 897.745 609.867, 897.731 599.867, 897.716 589.867, 897.701 579.867, 897.686 569.867, 897.672 559.867, 897.657 549.867, 897.642 539.867, 897.627 529.867, 897.613 519.867, 897.598 509.867, 897.583 499.867, 897.568 489.867, 897.554 479.867, 897.539 469.867, 897.524 459.867, 897.509 449.867, 897.495 439.867, 897.480 429.867, 897.465 419.867, 897.450 409.867, 897.436 399.867, 897.421 389.867, 897.406 379.867, 897.391 369.867, 897.377 359.867, 897.362 349.867, 897.347 339.867, 897.332 329.867, 897.318 319.867, 897.303 309.867, 897.288 299.867, 897.273 293.450, 897.264 283.450, 897.249 276.120, 897.238 266.120, 897.224 256.120, 897.209 246.120, 897.194 236.120, 897.179 226.120, 897.165 216.120, 897.150 206.120, 897.135 199.906, 897.126 190.693, 901.015 183.252, 904.157 174.973, 909.765 166.869, 915.254 161.627, 922.827 155.935, 931.048 151.250, 937.815 158.027, 945.169 161.533, 948.974 161.883, 949.354 167.575, 941.132 173.267, 932.910 177.502, 926.794 185.686, 921.048 188.886, 918.801 197.690, 914.060 199.999, 912.817 209.999, 912.831 219.999, 912.846 229.999, 912.861 239.999, 912.876 249.999, 912.890 259.999, 912.905 269.999, 912.920 279.999, 912.935 289.999, 912.949 299.999, 912.964 309.999, 912.979 319.999, 912.993 329.999, 913.008 339.999, 913.023 349.999, 913.038 359.999, 913.052 369.999, 913.067 379.999, 913.082 389.999, 913.097 399.999, 913.111 409.999, 913.126 419.999, 913.141 429.999, 913.156 439.999, 913.170 449.999, 913.185 459.999, 913.200 469.999, 913.215 479.999, 913.229 489.999, 913.244 499.998, 913.259 509.998, 913.274 519.998, 913.288 529.998, 913.303 539.998, 913.318 549.998, 913.333 559.998, 913.347 569.998, 913.362 579.998, 913.377 589.998, 913.392 599.998, 913.406 609.998, 913.421 619.998, 913.436 629.998, 913.451 639.998, 913.465 649.998, 913.480 659.998, 913.495 669.998, 913.510 679.998, 913.524 689.998, 913.539 699.998, 913.554 709.998, 913.569 719.998, 913.583 729.998, 913.598 739.998, 913.613 749.998, 913.628 759.998, 913.642 769.998, 913.657 779.998, 913.672 789.998, 913.687 799.998, 913.701 809.960, 913.716 818.891, 909.218 827.822, 904.720 829.343, 903.954 836.316, 896.786 843.289, 889.618 846.549, 886.267 850.253, 876.978 853.958, 867.690 856.313, 861.782 856.313, 851.782 856.313, 841.782 856.313, 831.782 856.313, 821.782 856.313, 811.782 856.313, 801.782 856.313, 791.782 856.313, 781.782 856.313, 771.782 856.313, 761.782 856.313, 751.782 856.313, 741.782 856.313, 731.782 856.313, 721.782 856.313, 711.782 856.313, 701.782 856.313, 698.610 856.313, 688.610 856.313, 681.438 856.313, 671.438 856.313, 661.438 856.313, 651.438 856.313, 641.438 856.313, 631.438 856.313, 621.438 856.313, 611.438 856.313, 601.438 856.313, 591.438 856.313, 581.438 856.313, 571.644 856.313, 561.644 856.313, 554.513 856.313, 544.513 856.313, 534.513 856.313, 524.513 856.313, 514.513 856.313, 504.513 856.313, 494.513 856.313, 484.513 856.313, 474.513 856.313, 464.513 856.313, 454.513 856.313, 445.997 856.313, 435.997 856.313, 428.784 856.313, 418.784 856.313, 408.784 856.313, 398.784 856.313, 388.784 856.313, 378.784 856.313, 368.784 856.313, 358.784 856.313, 348.784 856.313, 338.784 856.313, 328.784 856.313, 320.339 856.313, 310.339 856.313, 303.104 856.313, 293.104 856.313, 283.104 856.313, 273.104 856.313, 263.104 856.313, 253.104 856.313, 243.104 856.313, 233.104 856.313, 223.104 856.313, 213.104 856.313, 203.104 856.313, 193.104 856.313, 187.090 853.309, 177.552 850.305, 168.014 847.937, 160.499 840.262, 154.089 832.587, 147.679 825.120, 141.443 815.327, 139.419 810.550, 138.432 " />
            <path fill="black" stroke-width="3.0" stroke-linecap="butt" stroke-opacity="1.0" stroke="rgb(0, 0, 0)" stroke-linejoin="round" d=" M 296.376, 145.634 286.384, 145.245 280.699, 145.024 280.641, 154.639 280.580, 164.639 280.519, 174.639 280.458, 184.639 280.397, 194.638 280.336, 204.638 280.275, 214.638 280.214, 224.638 280.154, 234.638 280.093, 244.638 280.032, 254.637 279.971, 264.637 279.910, 274.637 279.849, 284.637 279.788, 294.637 279.728, 304.636 279.667, 314.636 279.606, 324.636 279.545, 334.636 279.484, 344.636 279.423, 354.635 279.362, 364.635 279.301, 374.635 279.241, 384.635 279.180, 394.635 279.119, 404.635 279.058, 414.634 278.997, 424.634 278.936, 434.634 278.875, 444.634 278.814, 454.634 278.754, 464.633 278.693, 474.633 278.632, 484.633 278.571, 494.633 278.510, 504.633 278.449, 514.633 278.388, 524.632 278.328, 534.632 278.267, 544.632 278.206, 554.632 278.145, 564.632 278.084, 574.631 278.023, 584.631 277.962, 594.631 277.901, 604.631 277.841, 614.631 277.780, 624.630 277.719, 634.630 277.658, 644.630 277.597, 654.630 277.536, 664.630 277.475, 674.630 277.414, 684.629 277.354, 694.629 277.293, 704.629 277.232, 714.629 277.171, 724.629 277.110, 734.628 277.049, 744.628 276.988, 754.628 276.928, 764.628 276.867, 774.628 276.806, 784.628 276.745, 794.627 276.684, 804.627 276.623, 814.627 276.562, 824.627 276.501, 834.627 276.441, 844.626 276.380, 854.626 276.319, 864.626 276.258, 874.626 276.197, 884.626 276.120, 897.238 276.060, 907.214 285.976, 905.921 293.420, 904.950 293.450, 897.264 293.489, 887.264 293.528, 877.264 293.567, 867.264 293.606, 857.264 293.645, 847.264 293.684, 837.264 293.723, 827.264 293.762, 817.264 293.801, 807.264 293.840, 797.265 293.879, 787.265 293.917, 777.265 293.956, 767.265 293.995, 757.265 294.034, 747.265 294.073, 737.265 294.112, 727.265 294.151, 717.265 294.190, 707.265 294.229, 697.265 294.268, 687.265 294.307, 677.265 294.346, 667.266 294.385, 657.266 294.423, 647.266 294.462, 637.266 294.501, 627.266 294.540, 617.266 294.579, 607.266 294.618, 597.266 294.657, 587.266 294.696, 577.266 294.735, 567.266 294.774, 557.266 294.813, 547.266 294.852, 537.267 294.891, 527.267 294.930, 517.267 294.968, 507.267 295.007, 497.267 295.046, 487.267 295.085, 477.267 295.124, 467.267 295.163, 457.267 295.202, 447.267 295.241, 437.267 295.280, 427.267 295.319, 417.267 295.358, 407.268 295.397, 397.268 295.436, 387.268 295.475, 377.268 295.513, 367.268 295.552, 357.268 295.591, 347.268 295.630, 337.268 295.669, 327.268 295.708, 317.268 295.747, 307.268 295.786, 297.268 295.825, 287.268 295.864, 277.269 295.903, 267.269 295.942, 257.269 295.981, 247.269 296.020, 237.269 296.058, 227.269 296.097, 217.269 296.136, 207.269 296.175, 197.269 296.214, 187.269 296.253, 177.269 296.292, 167.269 296.341, 154.624 296.376, 145.634 " />
            <path fill="black" stroke-width="3.0" stroke-linecap="butt" stroke-opacity="1.0" stroke="rgb(0, 0, 0)" stroke-linejoin="round" d=" M 952.289, 303.321 942.291, 303.119 936.612, 303.004 936.599, 304.141 936.482, 314.140 936.412, 320.084 936.295, 330.083 936.178, 340.083 936.061, 350.082 935.944, 360.081 935.827, 370.081 935.710, 380.080 935.593, 390.079 935.476, 400.079 935.359, 410.078 935.242, 420.077 935.129, 429.801 935.012, 439.800 934.942, 445.747 934.825, 455.747 934.708, 465.746 934.591, 475.745 934.474, 485.745 934.357, 495.744 934.240, 505.743 934.123, 515.743 934.006, 525.742 933.889, 535.741 933.772, 545.741 933.658, 555.512 933.541, 565.511 933.472, 571.398 933.355, 581.398 933.238, 591.397 933.121, 601.396 933.004, 611.396 932.887, 621.395 932.770, 631.394 932.653, 641.393 932.536, 651.393 932.419, 661.392 932.302, 671.391 932.173, 682.417 932.056, 692.417 931.987, 698.369 931.973, 699.587 941.950, 698.911 949.333, 698.410 949.408, 688.410 949.483, 678.410 949.558, 668.410 949.633, 658.411 949.707, 648.411 949.782, 638.411 949.857, 628.412 949.932, 618.412 950.007, 608.412 950.081, 598.412 950.156, 588.413 950.231, 578.413 950.306, 568.413 950.381, 558.414 950.456, 548.414 950.530, 538.414 950.605, 528.414 950.680, 518.415 950.755, 508.415 950.830, 498.415 950.904, 488.415 950.979, 478.416 951.054, 468.416 951.129, 458.416 951.204, 448.417 951.224, 445.696 951.299, 435.696 951.341, 430.010 951.416, 420.011 951.491, 410.011 951.566, 400.011 951.641, 390.011 951.715, 380.012 951.790, 370.012 951.865, 360.012 951.940, 350.013 952.015, 340.013 952.089, 330.013 952.164, 320.034 952.239, 310.034 952.281, 304.343 952.289, 303.321 " />
            <path fill="black" stroke-width="3.0" stroke-linecap="butt" stroke-opacity="1.0" stroke="rgb(0, 0, 0)" stroke-linejoin="round" d=" M 951.651, 445.694 951.682, 435.694 951.700, 430.015 951.341, 430.010 941.342, 429.881 935.129, 429.801 925.129, 429.672 915.130, 429.543 905.131, 429.414 895.132, 429.285 885.133, 429.156 875.134, 429.027 865.134, 428.898 856.313, 428.784 847.752, 428.673 847.952, 438.671 848.098, 446.024 856.313, 445.997 866.313, 445.966 876.313, 445.934 886.313, 445.902 896.313, 445.870 906.313, 445.838 916.313, 445.807 926.313, 445.775 934.942, 445.747 944.942, 445.716 951.224, 445.696 951.651, 445.694 " />
            <path fill="black" stroke-width="3.0" stroke-linecap="butt" stroke-opacity="1.0" stroke="rgb(0, 0, 0)" stroke-linejoin="round" d=" M 952.947, 320.031 952.978, 310.032 952.996, 304.352 952.281, 304.343 942.282, 304.214 936.599, 304.141 926.599, 304.012 916.600, 303.883 906.601, 303.753 896.602, 303.624 886.603, 303.495 876.604, 303.366 866.604, 303.237 856.313, 303.104 849.047, 303.010 849.247, 313.009 849.394, 320.361 856.313, 320.339 866.313, 320.307 876.313, 320.275 886.313, 320.243 896.313, 320.212 906.313, 320.180 916.313, 320.148 926.313, 320.116 936.412, 320.084 946.412, 320.052 952.164, 320.034 952.947, 320.031 " />
            <path fill="black" stroke-width="3.0" stroke-linecap="butt" stroke-opacity="1.0" stroke="rgb(0, 0, 0)" stroke-linejoin="round" d=" M 946.469, 571.357 946.500, 561.357 946.518, 555.678 936.519, 555.549 933.658, 555.512 923.659, 555.383 913.660, 555.254 903.660, 555.125 893.661, 554.995 883.662, 554.866 873.663, 554.737 863.664, 554.608 856.313, 554.513 846.314, 554.384 842.570, 554.336 842.770, 564.334 842.917, 571.686 852.916, 571.655 856.313, 571.644 866.313, 571.612 876.313, 571.580 886.313, 571.548 896.313, 571.517 906.313, 571.485 916.313, 571.453 926.313, 571.421 933.472, 571.398 943.472, 571.366 946.469, 571.357 " />
            <path fill="black" stroke-width="3.0" stroke-linecap="butt" stroke-opacity="1.0" stroke="rgb(0, 0, 0)" stroke-linejoin="round" d=" M 949.060, 698.315 949.091, 688.315 949.109, 682.636 939.110, 682.507 932.173, 682.417 922.174, 682.288 912.175, 682.159 902.176, 682.030 892.177, 681.901 882.178, 681.772 872.178, 681.643 862.179, 681.514 856.313, 681.438 846.314, 681.309 845.161, 681.294 845.361, 691.292 845.507, 698.645 855.507, 698.613 856.313, 698.610 866.313, 698.578 876.313, 698.547 886.313, 698.515 896.313, 698.483 906.313, 698.451 916.313, 698.419 926.313, 698.388 931.987, 698.369 941.987, 698.338 949.060, 698.315 " />
        </g>
    </g>
</svg>
