<?xml version='1.0' encoding='ascii'?>
<svg xmlns="http://www.w3.org/2000/svg" version="1.1" width="1200" height="1200">
    <g id="ViewLayer_LineSet" xmlns:inkscape="http://www.inkscape.org/namespaces/inkscape" inkscape:groupmode="lineset" inkscape:label="ViewLayer_LineSet">
        <g xmlns:inkscape="http://www.inkscape.org/namespaces/inkscape" inkscape:groupmode="layer" id="strokes" inkscape:label="strokes">
             <path fill="black" stroke-width="6.0" stroke-linecap="butt" stroke-opacity="1.0" stroke="rgb(0, 0, 0)" stroke-linejoin="round" d=" M 810.550, 138.432 800.550, 138.442 790.550, 138.451 780.550, 138.461 770.550, 138.471 760.550, 138.481 750.550, 138.491 740.550, 138.500 730.550, 138.510 720.550, 138.520 710.550, 138.530 700.550, 138.540 690.550, 138.550 680.550, 138.559 670.550, 138.569 660.550, 138.579 650.550, 138.589 640.550, 138.599 630.550, 138.609 620.550, 138.618 610.550, 138.628 600.550, 138.638 590.550, 138.648 580.550, 138.658 570.550, 138.667 560.550, 138.677 550.550, 138.687 540.550, 138.697 530.550, 138.707 520.550, 138.717 510.550, 138.726 500.550, 138.736 490.550, 138.746 480.550, 138.756 470.550, 138.766 460.550, 138.775 450.550, 138.785 440.550, 138.795 430.550, 138.805 420.550, 138.815 410.550, 138.825 400.550, 138.834 390.550, 138.844 380.550, 138.854 370.550, 138.864 360.550, 138.874 350.550, 138.883 340.550, 138.893 330.550, 138.903 320.550, 138.913 310.550, 138.923 300.550, 138.933 290.550, 138.942 280.550, 138.952 270.550, 138.962 260.550, 138.972 250.550, 138.982 240.550, 138.992 230.550, 139.001 220.550, 139.011 210.550, 139.021 194.512, 139.037 185.747, 143.851 176.982, 148.666 172.974, 150.868 165.187, 157.142 157.400, 163.416 150.598, 168.896 149.164, 178.792 148.621, 182.537 148.565, 192.537 148.508, 202.537 148.452, 212.537 148.395, 222.537 148.339, 232.537 148.282, 242.536 148.226, 252.536 148.169, 262.536 148.113, 272.536 148.056, 282.536 148.000, 292.536 147.943, 302.536 147.887, 312.535 147.830, 322.535 147.774, 332.535 147.718, 342.535 147.661, 352.535 147.605, 362.535 147.548, 372.534 147.492, 382.534 147.435, 392.534 147.379, 402.534 147.322, 412.534 147.266, 422.534 147.209, 432.533 147.153, 442.533 147.096, 452.533 147.040, 462.533 146.983, 472.533 146.927, 482.533 146.870, 492.532 146.814, 502.532 146.758, 512.532 146.701, 522.532 146.645, 532.532 146.588, 542.532 146.532, 552.531 146.475, 562.531 146.419, 572.531 146.362, 582.531 146.306, 592.531 146.249, 602.531 146.193, 612.531 146.136, 622.530 146.080, 632.530 146.023, 642.530 145.967, 652.530 145.910, 662.530 145.854, 672.530 145.798, 682.529 145.741, 692.529 145.685, 702.529 145.628, 712.529 145.572, 722.529 145.515, 732.529 145.459, 742.529 145.402, 752.528 145.346, 762.528 145.289, 772.528 145.233, 782.528 145.176, 792.528 145.120, 802.528 145.063, 812.527 145.007, 822.527 144.950, 832.527 144.894, 842.527 144.838, 852.527 144.781, 862.527 144.725, 872.526 144.668, 882.526 144.612, 892.526 144.555, 902.526 144.499, 912.526 144.442, 922.526 144.386, 932.525 144.329, 942.525 144.273, 952.525 144.216, 962.525 144.160, 972.525 144.103, 982.525 144.047, 992.525 143.982, 1004.081 149.664, 1012.310 155.347, 1020.538 156.583, 1022.329 163.346, 1029.695 170.109, 1037.061 175.092, 1042.488 184.035, 1046.964 192.977, 1051.439 195.516, 1052.710 205.516, 1052.691 215.516, 1052.672 225.516, 1052.654 235.516, 1052.635 245.516, 1052.616 255.516, 1052.598 265.516, 1052.579 275.516, 1052.560 285.516, 1052.541 295.516, 1052.523 305.516, 1052.504 315.516, 1052.485 325.516, 1052.466 335.516, 1052.448 345.516, 1052.429 355.516, 1052.410 365.516, 1052.392 375.516, 1052.373 385.516, 1052.354 395.516, 1052.335 405.516, 1052.317 415.516, 1052.298 425.515, 1052.279 435.515, 1052.261 445.515, 1052.242 455.515, 1052.223 465.515, 1052.204 475.515, 1052.186 485.515, 1052.167 495.515, 1052.148 505.515, 1052.129 515.515, 1052.111 525.515, 1052.092 535.515, 1052.073 545.515, 1052.055 555.515, 1052.036 565.515, 1052.017 575.515, 1051.998 585.515, 1051.980 595.515, 1051.961 605.515, 1051.942 615.515, 1051.923 625.515, 1051.905 635.515, 1051.886 645.515, 1051.867 655.515, 1051.849 665.515, 1051.830 675.515, 1051.811 685.515, 1051.792 695.515, 1051.774 705.515, 1051.755 715.515, 1051.736 725.515, 1051.717 735.515, 1051.699 745.515, 1051.680 755.515, 1051.661 765.515, 1051.643 772.010, 1051.630 778.422, 1048.183 786.270, 1041.984 794.117, 1035.786 795.846, 1034.421 801.485, 1026.162 807.125, 1017.904 812.764, 1009.646 814.365, 1007.303 817.463, 997.795 820.561, 988.287 823.659, 978.779 826.373, 970.451 816.390, 969.856 808.536, 969.389 805.297, 978.849 802.058, 988.310 798.819, 997.771 798.053, 1000.010 792.531, 1008.348 787.010, 1016.685 784.292, 1020.790 777.053, 1027.688 773.602, 1030.977 772.726, 1033.776 762.726, 1033.795 752.726, 1033.814 742.726, 1033.833 732.726, 1033.851 722.726, 1033.870 712.726, 1033.889 702.726, 1033.908 692.726, 1033.926 682.726, 1033.945 672.726, 1033.964 662.726, 1033.982 652.726, 1034.001 642.727, 1034.020 632.727, 1034.039 622.727, 1034.057 612.727, 1034.076 602.727, 1034.095 592.727, 1034.114 582.727, 1034.132 572.727, 1034.151 562.727, 1034.170 552.727, 1034.188 542.727, 1034.207 532.727, 1034.226 522.727, 1034.245 512.727, 1034.263 502.727, 1034.282 492.727, 1034.301 482.727, 1034.319 472.727, 1034.338 462.727, 1034.357 452.727, 1034.376 442.727, 1034.394 432.727, 1034.413 422.727, 1034.432 412.727, 1034.451 402.727, 1034.469 392.727, 1034.488 382.727, 1034.507 372.727, 1034.525 362.727, 1034.544 352.727, 1034.563 342.727, 1034.582 332.727, 1034.600 322.727, 1034.619 312.727, 1034.638 302.727, 1034.657 292.727, 1034.675 282.727, 1034.694 272.727, 1034.713 262.727, 1034.731 252.727, 1034.750 242.727, 1034.769 232.727, 1034.788 222.727, 1034.806 212.727, 1034.825 202.727, 1034.844 196.233, 1034.856 186.724, 1031.759 185.419, 1031.333 178.817, 1023.822 172.215, 1016.311 170.191, 1014.007 164.372, 1005.875 161.342, 1001.642 161.378, 991.642 161.415, 981.642 161.451, 971.642 161.487, 961.642 161.523, 951.642 161.533, 948.974 161.569, 938.974 161.605, 928.974 161.627, 922.827 161.663, 912.827 161.699, 902.827 161.735, 892.827 161.771, 882.827 161.808, 872.827 161.844, 862.827 161.880, 852.827 161.916, 842.827 161.952, 832.827 161.988, 822.827 162.024, 812.827 162.060, 802.827 162.096, 792.827 162.133, 782.827 162.169, 772.827 162.205, 762.828 162.241, 752.828 162.277, 742.828 162.313, 732.828 162.349, 722.828 162.385, 712.828 162.422, 702.828 162.458, 692.828 162.494, 682.828 162.530, 672.828 162.566, 662.828 162.602, 652.828 162.638, 642.828 162.674, 632.828 162.710, 622.828 162.747, 612.829 162.783, 602.829 162.819, 592.829 162.855, 582.829 162.891, 572.829 162.927, 562.829 162.963, 552.829 162.999, 542.829 163.036, 532.829 163.072, 522.829 163.108, 512.829 163.144, 502.829 163.180, 492.829 163.216, 482.829 163.252, 472.829 163.288, 462.830 163.324, 452.830 163.361, 442.830 163.397, 432.830 163.433, 422.830 163.469, 412.830 163.505, 402.830 163.541, 392.830 163.577, 382.830 163.613, 372.830 163.649, 362.830 163.686, 352.830 163.722, 342.830 163.758, 332.830 163.794, 322.830 163.830, 312.831 163.866, 302.831 163.902, 292.831 163.938, 282.831 163.975, 272.831 164.011, 262.831 164.047, 252.831 164.083, 242.831 164.119, 232.831 164.155, 222.831 164.191, 212.831 164.227, 202.831 164.263, 192.831 164.298, 183.195 163.820, 177.344 171.661, 171.138 178.931, 165.384 187.244, 159.826 194.878, 154.723 204.878, 154.714 214.878, 154.704 224.878, 154.694 234.878, 154.684 244.878, 154.674 254.878, 154.664 264.878, 154.655 274.878, 154.645 280.641, 154.639 290.641, 154.629 296.341, 154.624 306.341, 154.614 316.341, 154.604 326.341, 154.594 336.341, 154.584 346.341, 154.575 356.341, 154.565 366.341, 154.555 376.341, 154.545 386.341, 154.535 396.341, 154.526 406.341, 154.516 416.341, 154.506 426.341, 154.496 436.341, 154.486 446.341, 154.476 456.341, 154.467 466.341, 154.457 476.341, 154.447 486.341, 154.437 496.341, 154.427 506.341, 154.418 516.341, 154.408 526.341, 154.398 536.341, 154.388 546.341, 154.378 556.341, 154.368 566.341, 154.359 576.341, 154.349 586.341, 154.339 596.341, 154.329 606.341, 154.319 616.341, 154.310 626.341, 154.300 636.341, 154.290 646.341, 154.280 656.341, 154.270 666.341, 154.260 676.341, 154.251 686.341, 154.241 696.341, 154.231 706.341, 154.221 716.341, 154.211 726.341, 154.201 736.341, 154.192 746.341, 154.182 756.341, 154.172 766.341, 154.162 776.341, 154.152 786.341, 154.143 796.341, 154.133 810.915, 154.118 818.038, 155.445 825.620, 161.966 833.201, 168.487 837.045, 171.793 839.226, 181.552 840.643, 187.893 840.643, 197.893 840.643, 207.893 840.643, 217.893 840.643, 227.893 840.643, 237.893 840.643, 247.893 840.643, 257.893 840.643, 267.893 840.643, 277.893 840.643, 287.893 840.643, 297.893 840.643, 307.893 840.643, 317.893 840.643, 327.893 840.643, 337.893 840.643, 347.893 840.643, 357.893 840.643, 367.893 840.643, 377.893 840.643, 387.893 840.643, 397.893 840.643, 407.893 840.643, 417.893 840.643, 427.893 840.643, 437.893 840.643, 447.893 840.643, 457.893 840.643, 467.893 840.643, 477.893 840.643, 487.893 840.643, 497.893 840.643, 507.893 840.643, 517.893 840.643, 527.893 840.643, 537.893 840.643, 547.893 840.643, 557.893 840.643, 567.893 840.643, 577.893 840.643, 587.893 840.643, 597.893 840.643, 607.893 840.643, 617.893 840.643, 627.893 840.643, 637.893 840.643, 647.893 840.643, 657.893 840.643, 667.893 840.643, 677.893 840.643, 687.893 840.643, 697.893 840.643, 707.893 840.643, 717.893 840.643, 727.893 840.643, 737.893 840.643, 747.893 840.643, 757.893 840.643, 767.893 840.643, 777.893 840.643, 787.893 840.643, 797.893 840.643, 807.893 840.643, 817.893 840.643, 827.893 840.643, 837.893 840.643, 847.893 840.643, 862.585 836.449, 871.663 834.138, 876.666 827.254, 883.919 820.613, 890.916 812.273, 896.434 809.867, 898.025 799.867, 898.011 789.867, 897.996 779.867, 897.981 769.867, 897.966 759.867, 897.952 749.867, 897.937 739.867, 897.922 729.867, 897.907 719.867, 897.893 709.867, 897.878 699.867, 897.863 689.867, 897.848 679.867, 897.834 669.867, 897.819 659.867, 897.804 649.867, 897.790 639.867, 897.775 629.867, 897.760 619.867, 897.745 609.867, 897.731 599.867, 897.716 589.867, 897.701 579.867, 897.686 569.867, 897.672 559.867, 897.657 549.867, 897.642 539.867, 897.627 529.867, 897.613 519.867, 897.598 509.867, 897.583 499.867, 897.568 489.867, 897.554 479.867, 897.539 469.867, 897.524 459.867, 897.509 449.867, 897.495 439.867, 897.480 429.867, 897.465 419.867, 897.450 409.867, 897.436 399.867, 897.421 389.867, 897.406 379.867, 897.391 369.867, 897.377 359.867, 897.362 349.867, 897.347 339.867, 897.332 329.867, 897.318 319.867, 897.303 309.867, 897.288 299.867, 897.273 293.450, 897.264 283.450, 897.249 276.120, 897.238 266.120, 897.224 256.120, 897.209 246.120, 897.194 236.120, 897.179 226.120, 897.165 216.120, 897.150 206.120, 897.135 199.906, 897.126 190.693, 901.015 183.252, 904.157 174.973, 909.765 166.869, 915.254 161.627, 922.827 155.935, 931.048 151.250, 937.815 158.027, 945.169 161.533, 948.974 161.883, 949.354 167.575, 941.132 173.267, 932.910 177.502, 926.794 185.686, 921.048 188.886, 918.801 197.690, 914.060 199.999, 912.817 209.999, 912.831 219.999, 912.846 229.999, 912.861 239.999, 912.876 249.999, 912.890 259.999, 912.905 269.999, 912.920 279.999, 912.935 289.999, 912.949 299.999, 912.964 309.999, 912.979 319.999, 912.993 329.999, 913.008 339.999, 913.023 349.999, 913.038 359.999, 913.052 369.999, 913.067 379.999, 913.082 389.999, 913.097 399.999, 913.111 409.999, 913.126 419.999, 913.141 429.999, 913.156 439.999, 913.170 449.999, 913.185 459.999, 913.200 469.999, 913.215 479.999, 913.229 489.999, 913.244 499.998, 913.259 509.998, 913.274 519.998, 913.288 529.998, 913.303 539.998, 913.318 549.998, 913.333 559.998, 913.347 569.998, 913.362 579.998, 913.377 589.998, 913.392 599.998, 913.406 609.998, 913.421 619.998, 913.436 629.998, 913.451 639.998, 913.465 649.998, 913.480 659.998, 913.495 669.998, 913.510 679.998, 913.524 689.998, 913.539 699.998, 913.554 709.998, 913.569 719.998, 913.583 729.998, 913.598 739.998, 913.613 749.998, 913.628 759.998, 913.642 769.998, 913.657 779.998, 913.672 789.998, 913.687 799.998, 913.701 809.960, 913.716 818.891, 909.218 827.822, 904.720 829.343, 903.954 836.316, 896.786 843.289, 889.618 846.549, 886.267 850.253, 876.978 853.958, 867.690 856.313, 861.782 856.313, 851.782 856.313, 841.782 856.313, 831.782 856.313, 821.782 856.313, 811.782 856.313, 801.782 856.313, 791.782 856.313, 781.782 856.313, 771.782 856.313, 761.782 856.313, 751.782 856.313, 741.782 856.313, 731.782 856.313, 721.782 856.313, 711.782 856.313, 701.782 856.313, 698.610 856.313, 688.610 856.313, 681.438 856.313, 671.438 856.313, 661.438 856.313, 651.438 856.313, 641.438 856.313, 631.438 856.313, 621.438 856.313, 611.438 856.313, 601.438 856.313, 591.438 856.313, 581.438 856.313, 571.644 856.313, 561.644 856.313, 554.513 856.313, 544.513 856.313, 534.513 856.313, 524.513 856.313, 514.513 856.313, 504.513 856.313, 494.513 856.313, 484.513 856.313, 474.513 856.313, 464.513 856.313, 454.513 856.313, 445.997 856.313, 435.997 856.313, 428.784 856.313, 418.784 856.313, 408.784 856.313, 398.784 856.313, 388.784 856.313, 378.784 856.313, 368.784 856.313, 358.784 856.313, 348.784 856.313, 338.784 856.313, 328.784 856.313, 320.339 856.313, 310.339 856.313, 303.104 856.313, 293.104 856.313, 283.104 856.313, 273.104 856.313, 263.104 856.313, 253.104 856.313, 243.104 856.313, 233.104 856.313, 223.104 856.313, 213.104 856.313, 203.104 856.313, 193.104 856.313, 187.090 853.309, 177.552 850.305, 168.014 847.937, 160.499 840.262, 154.089 832.587, 147.679 825.120, 141.443 815.327, 139.419 810.550, 138.432 " />
            <path fill="black" stroke-width="6.0" stroke-linecap="butt" stroke-opacity="1.0" stroke="rgb(0, 0, 0)" stroke-linejoin="round" d=" M 296.376, 145.634 286.384, 145.245 280.699, 145.024 280.641, 154.639 280.580, 164.639 280.519, 174.639 280.458, 184.639 280.397, 194.638 280.336, 204.638 280.275, 214.638 280.214, 224.638 280.154, 234.638 280.093, 244.638 280.032, 254.637 279.971, 264.637 279.910, 274.637 279.849, 284.637 279.788, 294.637 279.728, 304.636 279.667, 314.636 279.606, 324.636 279.545, 334.636 279.484, 344.636 279.423, 354.635 279.362, 364.635 279.301, 374.635 279.241, 384.635 279.180, 394.635 279.119, 404.635 279.058, 414.634 278.997, 424.634 278.936, 434.634 278.875, 444.634 278.814, 454.634 278.754, 464.633 278.693, 474.633 278.632, 484.633 278.571, 494.633 278.510, 504.633 278.449, 514.633 278.388, 524.632 278.328, 534.632 278.267, 544.632 278.206, 554.632 278.145, 564.632 278.084, 574.631 278.023, 584.631 277.962, 594.631 277.901, 604.631 277.841, 614.631 277.780, 624.630 277.719, 634.630 277.658, 644.630 277.597, 654.630 277.536, 664.630 277.475, 674.630 277.414, 684.629 277.354, 694.629 277.293, 704.629 277.232, 714.629 277.171, 724.629 277.110, 734.628 277.049, 744.628 276.988, 754.628 276.928, 764.628 276.867, 774.628 276.806, 784.628 276.745, 794.627 276.684, 804.627 276.623, 814.627 276.562, 824.627 276.501, 834.627 276.441, 844.626 276.380, 854.626 276.319, 864.626 276.258, 874.626 276.197, 884.626 276.120, 897.238 276.060, 907.214 285.976, 905.921 293.420, 904.950 293.450, 897.264 293.489, 887.264 293.528, 877.264 293.567, 867.264 293.606, 857.264 293.645, 847.264 293.684, 837.264 293.723, 827.264 293.762, 817.264 293.801, 807.264 293.840, 797.265 293.879, 787.265 293.917, 777.265 293.956, 767.265 293.995, 757.265 294.034, 747.265 294.073, 737.265 294.112, 727.265 294.151, 717.265 294.190, 707.265 294.229, 697.265 294.268, 687.265 294.307, 677.265 294.346, 667.266 294.385, 657.266 294.423, 647.266 294.462, 637.266 294.501, 627.266 294.540, 617.266 294.579, 607.266 294.618, 597.266 294.657, 587.266 294.696, 577.266 294.735, 567.266 294.774, 557.266 294.813, 547.266 294.852, 537.267 294.891, 527.267 294.930, 517.267 294.968, 507.267 295.007, 497.267 295.046, 487.267 295.085, 477.267 295.124, 467.267 295.163, 457.267 295.202, 447.267 295.241, 437.267 295.280, 427.267 295.319, 417.267 295.358, 407.268 295.397, 397.268 295.436, 387.268 295.475, 377.268 295.513, 367.268 295.552, 357.268 295.591, 347.268 295.630, 337.268 295.669, 327.268 295.708, 317.268 295.747, 307.268 295.786, 297.268 295.825, 287.268 295.864, 277.269 295.903, 267.269 295.942, 257.269 295.981, 247.269 296.020, 237.269 296.058, 227.269 296.097, 217.269 296.136, 207.269 296.175, 197.269 296.214, 187.269 296.253, 177.269 296.292, 167.269 296.341, 154.624 296.376, 145.634 " />
            <path fill="black" stroke-width="6.0" stroke-linecap="butt" stroke-opacity="1.0" stroke="rgb(0, 0, 0)" stroke-linejoin="round" d=" M 952.289, 303.321 942.291, 303.119 936.612, 303.004 936.599, 304.141 936.482, 314.140 936.412, 320.084 936.295, 330.083 936.178, 340.083 936.061, 350.082 935.944, 360.081 935.827, 370.081 935.710, 380.080 935.593, 390.079 935.476, 400.079 935.359, 410.078 935.242, 420.077 935.129, 429.801 935.012, 439.800 934.942, 445.747 934.825, 455.747 934.708, 465.746 934.591, 475.745 934.474, 485.745 934.357, 495.744 934.240, 505.743 934.123, 515.743 934.006, 525.742 933.889, 535.741 933.772, 545.741 933.658, 555.512 933.541, 565.511 933.472, 571.398 933.355, 581.398 933.238, 591.397 933.121, 601.396 933.004, 611.396 932.887, 621.395 932.770, 631.394 932.653, 641.393 932.536, 651.393 932.419, 661.392 932.302, 671.391 932.173, 682.417 932.056, 692.417 931.987, 698.369 931.973, 699.587 941.950, 698.911 949.333, 698.410 949.408, 688.410 949.483, 678.410 949.558, 668.410 949.633, 658.411 949.707, 648.411 949.782, 638.411 949.857, 628.412 949.932, 618.412 950.007, 608.412 950.081, 598.412 950.156, 588.413 950.231, 578.413 950.306, 568.413 950.381, 558.414 950.456, 548.414 950.530, 538.414 950.605, 528.414 950.680, 518.415 950.755, 508.415 950.830, 498.415 950.904, 488.415 950.979, 478.416 951.054, 468.416 951.129, 458.416 951.204, 448.417 951.224, 445.696 951.299, 435.696 951.341, 430.010 951.416, 420.011 951.491, 410.011 951.566, 400.011 951.641, 390.011 951.715, 380.012 951.790, 370.012 951.865, 360.012 951.940, 350.013 952.015, 340.013 952.089, 330.013 952.164, 320.034 952.239, 310.034 952.281, 304.343 952.289, 303.321 " />
            <path fill="black" stroke-width="6.0" stroke-linecap="butt" stroke-opacity="1.0" stroke="rgb(0, 0, 0)" stroke-linejoin="round" d=" M 951.651, 445.694 951.682, 435.694 951.700, 430.015 951.341, 430.010 941.342, 429.881 935.129, 429.801 925.129, 429.672 915.130, 429.543 905.131, 429.414 895.132, 429.285 885.133, 429.156 875.134, 429.027 865.134, 428.898 856.313, 428.784 847.752, 428.673 847.952, 438.671 848.098, 446.024 856.313, 445.997 866.313, 445.966 876.313, 445.934 886.313, 445.902 896.313, 445.870 906.313, 445.838 916.313, 445.807 926.313, 445.775 934.942, 445.747 944.942, 445.716 951.224, 445.696 951.651, 445.694 " />
            <path fill="black" stroke-width="6.0" stroke-linecap="butt" stroke-opacity="1.0" stroke="rgb(0, 0, 0)" stroke-linejoin="round" d=" M 952.947, 320.031 952.978, 310.032 952.996, 304.352 952.281, 304.343 942.282, 304.214 936.599, 304.141 926.599, 304.012 916.600, 303.883 906.601, 303.753 896.602, 303.624 886.603, 303.495 876.604, 303.366 866.604, 303.237 856.313, 303.104 849.047, 303.010 849.247, 313.009 849.394, 320.361 856.313, 320.339 866.313, 320.307 876.313, 320.275 886.313, 320.243 896.313, 320.212 906.313, 320.180 916.313, 320.148 926.313, 320.116 936.412, 320.084 946.412, 320.052 952.164, 320.034 952.947, 320.031 " />
            <path fill="black" stroke-width="6.0" stroke-linecap="butt" stroke-opacity="1.0" stroke="rgb(0, 0, 0)" stroke-linejoin="round" d=" M 946.469, 571.357 946.500, 561.357 946.518, 555.678 936.519, 555.549 933.658, 555.512 923.659, 555.383 913.660, 555.254 903.660, 555.125 893.661, 554.995 883.662, 554.866 873.663, 554.737 863.664, 554.608 856.313, 554.513 846.314, 554.384 842.570, 554.336 842.770, 564.334 842.917, 571.686 852.916, 571.655 856.313, 571.644 866.313, 571.612 876.313, 571.580 886.313, 571.548 896.313, 571.517 906.313, 571.485 916.313, 571.453 926.313, 571.421 933.472, 571.398 943.472, 571.366 946.469, 571.357 " />
            <path fill="black" stroke-width="6.0" stroke-linecap="butt" stroke-opacity="1.0" stroke="rgb(0, 0, 0)" stroke-linejoin="round" d=" M 949.060, 698.315 949.091, 688.315 949.109, 682.636 939.110, 682.507 932.173, 682.417 922.174, 682.288 912.175, 682.159 902.176, 682.030 892.177, 681.901 882.178, 681.772 872.178, 681.643 862.179, 681.514 856.313, 681.438 846.314, 681.309 845.161, 681.294 845.361, 691.292 845.507, 698.645 855.507, 698.613 856.313, 698.610 866.313, 698.578 876.313, 698.547 886.313, 698.515 896.313, 698.483 906.313, 698.451 916.313, 698.419 926.313, 698.388 931.987, 698.369 941.987, 698.338 949.060, 698.315 " />
        </g>
    </g>
</svg>
