<?xml version='1.0' encoding='ascii'?>
<svg xmlns="http://www.w3.org/2000/svg" version="1.1" width="1920" height="1080">
    <g id="ViewLayer_LineSet" xmlns:inkscape="http://www.inkscape.org/namespaces/inkscape" inkscape:groupmode="lineset" inkscape:label="ViewLayer_LineSet">
        <g xmlns:inkscape="http://www.inkscape.org/namespaces/inkscape" inkscape:groupmode="layer" id="strokes" inkscape:label="strokes">
            <path fill="none" stroke-width="3.0" stroke-linecap="butt" stroke-opacity="1.0" stroke="rgb(0, 0, 0)" stroke-linejoin="round" d=" M 749.591, 460.121 759.591, 460.121 769.591, 460.121 779.591, 460.121 789.591, 460.121 799.591, 460.121 809.591, 460.121 819.591, 460.121 829.591, 460.121 839.591, 460.121 849.591, 460.121 859.591, 460.121 869.591, 460.121 879.591, 460.121 889.591, 460.121 899.591, 460.121 909.591, 460.121 919.591, 460.121 929.591, 460.121 939.591, 460.121 951.471, 460.121 951.471, 450.557 941.471, 450.557 931.471, 450.557 921.471, 450.557 911.471, 450.557 901.471, 450.557 891.471, 450.557 881.471, 450.557 871.471, 450.557 861.471, 450.557 851.471, 450.557 841.471, 450.557 831.471, 450.557 821.471, 450.557 811.471, 450.557 801.471, 450.557 791.471, 450.557 781.471, 450.557 771.471, 450.557 761.471, 450.557 749.591, 450.557 749.591, 460.121 " />
            <path fill="none" stroke-width="3.0" stroke-linecap="butt" stroke-opacity="1.0" stroke="rgb(0, 0, 0)" stroke-linejoin="round" d=" M 833.808, 421.527 843.808, 421.527 853.808, 421.527 863.808, 421.527 873.808, 421.527 883.808, 421.527 893.808, 421.527 903.808, 421.527 913.808, 421.527 923.808, 421.527 933.808, 421.527 943.808, 421.527 953.808, 421.527 963.808, 421.527 973.808, 421.527 983.808, 421.527 993.808, 421.527 1003.808, 421.527 1013.808, 421.527 1022.677, 421.527 1022.677, 411.963 1012.677, 411.963 1002.677, 411.963 992.677, 411.963 982.677, 411.963 972.677, 411.963 962.677, 411.963 952.677, 411.963 942.677, 411.963 932.677, 411.963 922.677, 411.963 912.677, 411.963 902.677, 411.963 892.677, 411.963 882.677, 411.963 872.677, 411.963 862.677, 411.963 852.677, 411.963 842.677, 411.963 833.808, 411.963 833.808, 421.527 " />
            <path fill="none" stroke-width="3.0" stroke-linecap="butt" stroke-opacity="1.0" stroke="rgb(0, 0, 0)" stroke-linejoin="round" d=" M 749.591, 383.876 759.591, 383.876 769.591, 383.876 779.591, 383.876 789.591, 383.876 799.591, 383.876 809.591, 383.876 819.591, 383.876 829.591, 383.876 839.591, 383.876 849.591, 383.876 859.591, 383.876 869.591, 383.876 879.591, 383.876 889.591, 383.876 899.591, 383.876 909.591, 383.876 919.591, 383.876 929.591, 383.876 939.591, 383.876 949.591, 383.876 959.591, 383.876 969.591, 383.876 979.591, 383.876 989.591, 383.876 999.591, 383.876 1009.591, 383.876 1019.591, 383.876 1022.485, 383.876 1022.485, 374.312 1012.485, 374.312 1002.485, 374.312 992.485, 374.312 982.485, 374.312 972.485, 374.312 962.485, 374.312 952.485, 374.312 942.485, 374.312 932.485, 374.312 922.485, 374.312 912.485, 374.312 902.485, 374.312 892.485, 374.312 882.485, 374.312 872.485, 374.312 862.485, 374.312 852.485, 374.312 842.485, 374.312 832.485, 374.312 822.485, 374.312 812.485, 374.312 802.485, 374.312 792.485, 374.312 782.485, 374.312 772.485, 374.312 762.485, 374.312 752.485, 374.312 749.591, 374.312 749.591, 383.876 " />
            <path fill="none" stroke-width="3.0" stroke-linecap="butt" stroke-opacity="1.0" stroke="rgb(0, 0, 0)" stroke-linejoin="round" d=" M 749.591, 346.083 759.591, 346.083 769.591, 346.083 779.591, 346.083 789.591, 346.083 799.591, 346.083 809.591, 346.083 819.591, 346.083 829.591, 346.083 839.591, 346.083 849.591, 346.083 859.591, 346.083 869.591, 346.083 879.591, 346.083 889.591, 346.083 899.591, 346.083 909.591, 346.083 919.591, 346.083 929.591, 346.083 939.591, 346.083 949.591, 346.083 959.591, 346.083 968.986, 346.083 968.986, 336.519 958.986, 336.519 948.986, 336.519 938.986, 336.519 928.986, 336.519 918.986, 336.519 908.986, 336.519 898.986, 336.519 888.986, 336.519 878.986, 336.519 868.986, 336.519 858.986, 336.519 848.986, 336.519 838.986, 336.519 828.986, 336.519 818.986, 336.519 808.986, 336.519 798.986, 336.519 788.986, 336.519 778.986, 336.519 768.986, 336.519 758.986, 336.519 749.591, 336.519 749.591, 346.083 " />
            <path fill="none" stroke-width="3.0" stroke-linecap="butt" stroke-opacity="1.0" stroke="rgb(0, 0, 0)" stroke-linejoin="round" d=" M 749.591, 421.477 759.591, 421.477 769.591, 421.477 779.591, 421.477 789.591, 421.477 799.591, 421.477 804.761, 421.477 804.761, 411.913 794.761, 411.913 784.761, 411.913 774.761, 411.913 764.761, 411.913 754.761, 411.913 749.591, 411.913 749.591, 421.477 " />
            <path fill="none" stroke-width="3.0" stroke-linecap="butt" stroke-opacity="1.0" stroke="rgb(0, 0, 0)" stroke-linejoin="round" d=" M 955.190, 554.191 954.865, 562.940 959.449, 561.149 964.905, 559.339 969.445, 558.398 970.727, 558.760 969.893, 560.588 967.277, 564.352 965.236, 568.758 964.785, 570.554 964.804, 575.443 965.140, 578.375 966.040, 580.493 967.549, 581.959 970.095, 583.507 974.925, 584.016 979.593, 583.710 984.341, 581.043 988.752, 576.453 991.120, 572.284 991.896, 566.454 991.715, 559.793 989.833, 556.056 988.729, 554.675 982.802, 560.093 983.015, 567.443 981.981, 570.141 979.672, 573.281 976.727, 575.177 974.114, 575.311 974.029, 571.958 974.475, 569.548 976.327, 565.168 979.614, 561.104 986.225, 555.734 993.847, 550.606 1000.426, 548.123 1005.695, 547.217 1010.638, 547.778 1013.219, 549.233 1014.428, 551.346 1014.544, 558.102 1015.864, 559.119 1021.492, 559.139 1022.880, 557.560 1023.249, 550.583 1022.334, 548.519 1020.818, 545.125 1019.246, 542.940 1017.185, 540.917 1013.386, 539.370 1006.451, 538.983 999.679, 539.899 993.803, 541.467 987.444, 544.694 982.311, 548.017 979.907, 550.575 971.457, 550.469 963.487, 551.638 955.190, 554.191 " />
            <path fill="none" stroke-width="3.0" stroke-linecap="butt" stroke-opacity="1.0" stroke="rgb(0, 0, 0)" stroke-linejoin="round" d=" M 1040.440, 365.669 1050.440, 365.676 1060.440, 365.683 1070.440, 365.691 1080.440, 365.698 1090.440, 365.706 1100.440, 365.713 1110.440, 365.720 1120.276, 365.728 1114.225, 358.784 1104.225, 358.764 1094.225, 358.743 1084.225, 358.723 1074.225, 358.703 1064.225, 358.682 1054.225, 358.662 1048.603, 358.651 1048.641, 348.651 1048.678, 338.651 1048.716, 328.651 1048.754, 318.651 1048.792, 308.651 1048.829, 298.651 1048.854, 292.004 1055.881, 299.120 1062.907, 306.235 1069.934, 313.351 1076.960, 320.466 1083.986, 327.582 1091.013, 334.697 1098.039, 341.812 1105.066, 348.928 1112.092, 356.043 1113.393, 357.361 1120.033, 364.838 1120.770, 365.669 1120.766, 375.669 1120.761, 385.669 1120.756, 395.669 1120.751, 405.669 1120.746, 415.669 1120.742, 425.669 1120.737, 435.669 1120.732, 445.669 1120.727, 455.669 1120.723, 465.669 1120.718, 475.669 1120.713, 485.669 1120.708, 495.669 1120.704, 505.669 1120.699, 515.669 1120.694, 525.669 1120.689, 535.669 1120.685, 545.669 1120.680, 555.669 1120.675, 565.669 1120.670, 575.669 1120.666, 585.669 1120.663, 590.574 1128.019, 590.478 1128.024, 580.478 1128.028, 570.478 1128.032, 560.479 1128.036, 550.479 1128.040, 540.479 1128.045, 530.479 1128.049, 520.479 1128.053, 510.479 1128.057, 500.479 1128.061, 490.479 1128.066, 480.479 1128.070, 470.479 1128.074, 460.479 1128.078, 450.479 1128.082, 440.479 1128.087, 430.479 1128.091, 420.479 1128.095, 410.479 1128.099, 400.479 1128.103, 390.479 1128.108, 380.479 1128.112, 370.479 1128.116, 360.836 1121.081, 353.729 1114.046, 346.622 1107.011, 339.515 1099.976, 332.408 1092.942, 325.301 1085.907, 318.194 1078.872, 311.086 1071.837, 303.979 1064.802, 296.872 1057.767, 289.765 1050.733, 282.658 1046.221, 278.100 1036.221, 278.114 1026.221, 278.129 1016.221, 278.143 1006.221, 278.157 996.221, 278.172 986.221, 278.186 976.221, 278.201 966.221, 278.215 956.221, 278.229 946.221, 278.244 936.221, 278.258 926.221, 278.273 916.221, 278.287 906.221, 278.301 896.221, 278.316 886.221, 278.330 876.221, 278.345 866.221, 278.359 856.221, 278.373 846.221, 278.388 836.221, 278.402 826.221, 278.417 816.221, 278.431 806.221, 278.445 796.221, 278.460 786.221, 278.474 776.221, 278.489 766.221, 278.503 756.221, 278.518 746.221, 278.532 736.221, 278.546 726.221, 278.561 716.221, 278.575 706.426, 278.589 706.427, 288.589 706.428, 298.589 706.429, 308.589 706.430, 318.589 706.431, 328.589 706.432, 338.589 706.432, 348.589 706.433, 358.589 706.434, 368.589 706.435, 378.589 706.436, 388.589 706.437, 398.589 706.438, 408.589 706.439, 418.589 706.439, 428.589 706.440, 438.589 706.441, 448.589 706.442, 458.589 706.443, 468.589 706.444, 478.589 706.445, 488.589 706.445, 498.589 706.446, 508.589 706.447, 518.589 706.448, 528.589 706.449, 538.589 706.450, 548.589 706.451, 558.589 706.451, 568.589 706.452, 578.589 706.453, 588.589 706.454, 598.589 706.455, 608.589 706.456, 618.589 706.457, 628.589 706.457, 638.589 706.458, 648.589 706.459, 658.589 706.460, 668.589 706.461, 678.589 706.462, 688.589 706.463, 698.589 706.464, 708.589 706.464, 718.589 706.465, 728.589 706.466, 738.589 706.467, 748.589 706.468, 758.589 706.469, 768.589 706.470, 778.589 706.470, 788.589 706.471, 798.589 706.472, 808.589 706.473, 818.589 706.474, 828.589 706.475, 839.289 716.475, 839.278 726.475, 839.267 736.475, 839.256 746.475, 839.245 756.475, 839.235 766.475, 839.224 776.475, 839.213 786.475, 839.202 796.475, 839.191 806.475, 839.180 816.475, 839.169 826.475, 839.158 836.475, 839.147 846.475, 839.137 856.475, 839.126 866.475, 839.115 876.475, 839.104 886.475, 839.093 896.475, 839.082 906.475, 839.071 916.475, 839.060 926.475, 839.049 936.475, 839.039 946.475, 839.028 956.475, 839.017 966.475, 839.006 976.475, 838.995 980.388, 838.991 980.336, 831.296 970.336, 831.302 960.336, 831.308 950.336, 831.314 940.336, 831.320 930.336, 831.326 920.336, 831.332 910.336, 831.338 900.336, 831.344 890.336, 831.350 880.336, 831.356 870.336, 831.362 860.336, 831.368 850.336, 831.374 840.336, 831.380 830.336, 831.386 820.336, 831.392 810.336, 831.398 800.336, 831.404 790.336, 831.410 780.336, 831.416 770.336, 831.422 760.336, 831.428 750.336, 831.434 740.336, 831.440 730.336, 831.446 720.336, 831.452 713.971, 831.455 713.968, 821.455 713.965, 811.455 713.962, 801.455 713.959, 791.455 713.956, 781.455 713.953, 771.455 713.950, 761.455 713.947, 751.455 713.944, 741.455 713.941, 731.455 713.938, 721.455 713.935, 711.455 713.932, 701.455 713.929, 691.455 713.926, 681.455 713.923, 671.455 713.920, 661.455 713.917, 651.455 713.914, 641.455 713.911, 631.455 713.908, 621.455 713.905, 611.455 713.902, 601.455 713.899, 591.455 713.896, 581.455 713.893, 571.455 713.890, 561.455 713.887, 551.455 713.884, 541.455 713.881, 531.455 713.878, 521.455 713.875, 511.455 713.872, 501.455 713.869, 491.455 713.866, 481.455 713.863, 471.455 713.860, 461.455 713.857, 451.455 713.854, 441.455 713.851, 431.455 713.848, 421.455 713.845, 411.455 713.842, 401.455 713.839, 391.455 713.836, 381.455 713.833, 371.455 713.830, 361.455 713.827, 351.455 713.824, 341.455 713.821, 331.455 713.818, 321.455 713.815, 311.455 713.812, 301.455 713.807, 286.717 723.807, 286.715 733.807, 286.713 743.807, 286.712 753.807, 286.710 763.807, 286.708 773.807, 286.706 783.807, 286.704 793.807, 286.703 803.807, 286.701 813.807, 286.699 823.807, 286.697 833.807, 286.695 843.807, 286.693 853.807, 286.692 863.807, 286.690 873.807, 286.688 883.807, 286.686 893.807, 286.684 903.807, 286.683 913.807, 286.681 923.807, 286.679 933.807, 286.677 943.807, 286.675 953.807, 286.673 963.807, 286.672 973.807, 286.670 983.807, 286.668 993.807, 286.666 1003.807, 286.664 1013.807, 286.663 1023.807, 286.661 1033.807, 286.659 1040.440, 286.658 1040.440, 296.658 1040.440, 306.658 1040.440, 316.658 1040.440, 326.658 1040.440, 336.658 1040.440, 346.658 1040.440, 356.658 1040.440, 365.669 " />
            <path fill="none" stroke-width="3.0" stroke-linecap="butt" stroke-opacity="1.0" stroke="rgb(0, 0, 0)" stroke-linejoin="round" d=" M 942.894, 571.013 944.713, 569.784 945.201, 559.796 945.257, 558.645 937.226, 564.401 930.124, 571.441 928.518, 573.034 923.086, 581.430 922.933, 581.667 922.366, 586.640 922.722, 590.725 924.180, 593.247 926.116, 595.449 928.181, 596.920 932.949, 598.904 940.408, 598.714 943.814, 596.096 946.629, 593.738 949.702, 588.543 950.731, 584.867 952.723, 575.067 953.069, 573.361 954.052, 565.082 954.474, 555.091 954.542, 553.471 954.719, 543.472 954.897, 533.474 954.956, 530.107 953.335, 528.837 950.463, 528.493 947.590, 528.925 946.191, 530.266 946.213, 540.266 946.236, 550.266 946.253, 558.006 945.765, 567.994 945.692, 569.497 943.734, 578.885 940.507, 587.131 937.862, 590.166 932.190, 590.142 931.830, 586.736 932.740, 583.583 935.828, 578.420 939.044, 574.399 942.894, 571.013 " />
            <path fill="none" stroke-width="3.0" stroke-linecap="butt" stroke-opacity="1.0" stroke="rgb(0, 0, 0)" stroke-linejoin="round" d=" M 778.541, 587.103 780.321, 589.666 787.451, 582.654 794.580, 575.643 801.710, 568.631 808.840, 561.619 815.970, 554.607 823.100, 547.596 830.230, 540.584 837.360, 533.572 845.023, 526.035 836.284, 522.217 829.232, 529.307 822.181, 536.398 815.129, 543.489 808.078, 550.579 801.027, 557.670 793.975, 564.761 786.924, 571.851 779.872, 578.942 776.901, 581.930 777.147, 582.917 " />
            <path fill="none" stroke-width="3.0" stroke-linecap="butt" stroke-opacity="1.0" stroke="rgb(0, 0, 0)" stroke-linejoin="round" d=" M 988.996, 460.121 998.996, 460.121 1008.996, 460.121 1018.996, 460.121 1028.996, 460.121 1038.996, 460.121 1048.996, 460.121 1058.563, 460.121 1058.563, 450.557 1048.563, 450.557 1038.563, 450.557 1028.563, 450.557 1018.563, 450.557 1008.563, 450.557 998.563, 450.557 988.996, 450.557 988.996, 460.121 " />
            <path fill="none" stroke-width="3.0" stroke-linecap="butt" stroke-opacity="1.0" stroke="rgb(0, 0, 0)" stroke-linejoin="round" d=" M 869.012, 554.259 866.131, 547.742 859.001, 554.754 851.871, 561.766 844.741, 568.778 837.611, 575.789 830.482, 582.801 823.352, 589.813 816.222, 596.825 809.092, 603.837 801.588, 611.216 " />
            <path fill="none" stroke-width="3.0" stroke-linecap="butt" stroke-opacity="1.0" stroke="rgb(0, 0, 0)" stroke-linejoin="round" d=" M 824.778, 569.298 821.398, 569.263 814.377, 576.384 807.357, 583.505 800.336, 590.627 794.989, 596.051 794.908, 599.271 797.402, 601.564 801.154, 601.619 808.217, 594.540 815.280, 587.462 822.344, 580.383 826.824, 575.893 827.532, 572.231 824.778, 569.298 " />
            <path fill="none" stroke-width="3.0" stroke-linecap="butt" stroke-opacity="1.0" stroke="rgb(0, 0, 0)" stroke-linejoin="round" d=" M 822.920, 511.733 812.968, 512.713 811.930, 512.815 802.361, 515.718 801.363, 516.021 792.544, 520.735 791.625, 521.226 783.895, 527.570 783.089, 528.231 776.745, 535.961 776.084, 536.767 771.370, 545.586 770.878, 546.506 767.976, 556.075 767.673, 557.072 766.693, 567.024 766.591, 568.062 767.571, 578.014 767.673, 579.051 770.576, 588.620 770.878, 589.618 775.592, 598.437 776.084, 599.356 782.428, 607.086 783.089, 607.892 790.819, 614.236 791.625, 614.897 800.444, 619.611 801.363, 620.103 810.933, 623.006 811.930, 623.308 821.882, 624.288 822.920, 624.391 832.871, 623.410 833.909, 623.308 843.478, 620.405 844.476, 620.103 853.295, 615.389 854.214, 614.897 861.944, 608.554 862.750, 607.892 869.094, 600.162 869.755, 599.356 874.469, 590.537 874.961, 589.618 877.864, 580.048 878.166, 579.051 879.146, 569.099 879.248, 568.062 878.268, 558.110 878.166, 557.072 875.263, 547.503 874.961, 546.506 870.247, 537.686 869.755, 536.767 863.411, 529.037 862.750, 528.231 855.020, 521.887 854.214, 521.226 845.395, 516.512 844.476, 516.021 834.906, 513.118 833.909, 512.815 823.957, 511.835 822.920, 511.733 " />
            <path fill="none" stroke-width="3.0" stroke-linecap="butt" stroke-opacity="1.0" stroke="rgb(0, 0, 0)" stroke-linejoin="round" d=" M 813.487, 520.644 822.920, 519.715 832.352, 520.644 841.421, 523.395 849.780, 527.862 857.106, 533.875 863.119, 541.201 867.586, 549.560 869.012, 554.259 869.421, 555.609 870.338, 558.630 871.267, 568.062 870.338, 577.494 867.586, 586.563 863.119, 594.922 857.106, 602.248 849.780, 608.261 841.421, 612.729 832.352, 615.480 822.920, 616.409 813.487, 615.480 810.717, 614.639 804.785, 612.840 804.418, 612.729 803.916, 612.460 801.588, 611.216 796.059, 608.261 788.733, 602.248 782.720, 594.922 778.541, 587.103 778.253, 586.563 777.147, 582.917 775.501, 577.494 774.572, 568.062 775.501, 558.630 778.253, 549.560 782.720, 541.201 788.733, 533.875 796.059, 527.862 804.418, 523.395 813.487, 520.644 " />
            <path fill="none" stroke-width="3.0" stroke-linecap="butt" stroke-opacity="1.0" stroke="rgb(0, 0, 0)" stroke-linejoin="round" d=" M 822.919, 488.499 812.968, 489.479 807.398, 490.028 797.828, 492.931 792.472, 494.555 783.653, 499.269 778.717, 501.908 770.987, 508.252 766.660, 511.802 760.316, 519.532 756.766, 523.859 752.052, 532.678 749.413, 537.614 746.510, 547.184 744.886, 552.540 743.905, 562.492 743.357, 568.062 744.337, 578.014 744.886, 583.584 747.788, 593.153 749.413, 598.509 754.127, 607.328 756.766, 612.264 763.109, 619.994 766.660, 624.321 774.390, 630.665 778.717, 634.216 787.536, 638.930 792.472, 641.568 802.042, 644.471 807.398, 646.096 817.349, 647.076 822.919, 647.624 832.871, 646.644 838.441, 646.096 848.011, 643.193 853.367, 641.568 862.186, 636.854 867.122, 634.216 874.852, 627.872 879.179, 624.321 885.523, 616.591 889.073, 612.264 893.787, 603.445 896.426, 598.509 899.329, 588.940 900.953, 583.584 901.934, 573.632 902.482, 568.062 901.502, 558.110 900.953, 552.540 898.051, 542.970 896.426, 537.614 891.712, 528.795 889.073, 523.859 882.730, 516.129 879.179, 511.802 871.449, 505.458 867.122, 501.908 858.303, 497.194 853.367, 494.555 843.797, 491.653 838.441, 490.028 828.490, 489.048 822.919, 488.499 " />
            <path fill="none" stroke-width="3.0" stroke-linecap="butt" stroke-opacity="1.0" stroke="rgb(0, 0, 0)" stroke-linejoin="round" d=" M 809.169, 498.934 819.121, 497.954 822.919, 497.580 832.871, 498.560 836.670, 498.934 846.239, 501.837 849.892, 502.945 858.711, 507.659 862.077, 509.458 869.807, 515.802 872.758, 518.223 879.102, 525.953 881.523, 528.904 886.237, 537.723 888.036, 541.089 890.940, 550.659 892.048, 554.311 892.047, 554.311 893.027, 564.263 893.401, 568.062 892.421, 578.014 892.047, 581.812 889.144, 591.381 888.036, 595.034 883.322, 603.853 881.523, 607.219 875.179, 614.949 872.758, 617.900 865.028, 624.244 862.077, 626.665 853.258, 631.379 849.892, 633.179 840.323, 636.082 836.670, 637.191 836.670, 637.189 826.718, 638.170 822.919, 638.544 812.968, 637.563 809.169, 637.189 799.600, 634.287 795.947, 633.179 787.128, 628.465 783.762, 626.665 776.032, 620.321 773.081, 617.900 766.737, 610.170 764.316, 607.219 759.602, 598.400 757.803, 595.034 754.900, 585.465 753.792, 581.812 752.812, 571.860 752.438, 568.062 753.418, 558.110 753.792, 554.313 753.792, 554.311 756.695, 544.742 757.803, 541.089 762.517, 532.270 764.316, 528.904 770.660, 521.174 773.081, 518.223 780.811, 511.879 783.762, 509.458 792.581, 504.744 795.947, 502.945 805.517, 500.042 809.169, 498.934 " />
            <path fill="none" stroke-width="3.0" stroke-linecap="butt" stroke-opacity="1.0" stroke="rgb(0, 0, 0)" stroke-linejoin="round" d=" M 958.252, 626.255 964.701, 630.536 973.032, 636.067 981.363, 641.597 982.462, 642.327 988.459, 646.308 992.745, 639.853 986.780, 635.893 978.449, 630.362 970.117, 624.831 968.046, 623.456 962.563, 619.816 962.538, 619.799 959.164, 624.882 958.252, 626.255 " />
            <path fill="none" stroke-width="3.0" stroke-linecap="butt" stroke-opacity="1.0" stroke="rgb(0, 0, 0)" stroke-linejoin="round" d=" M 895.266, 733.995 898.940, 728.521 904.512, 720.217 910.085, 711.914 915.658, 703.611 921.230, 695.307 926.803, 687.004 932.376, 678.701 937.948, 670.397 943.521, 662.094 949.094, 653.791 954.666, 645.487 960.239, 637.184 964.701, 630.536 969.016, 624.107 968.046, 623.456 962.582, 619.789 962.563, 619.816 959.164, 624.882 953.591, 633.185 948.018, 641.489 942.446, 649.792 936.873, 658.095 931.300, 666.399 925.728, 674.702 920.155, 683.005 914.582, 691.309 909.010, 699.612 903.437, 707.915 897.864, 716.219 892.292, 724.522 888.832, 729.677 889.359, 730.030 895.266, 733.995 " />
            <path fill="none" stroke-width="3.0" stroke-linecap="butt" stroke-opacity="1.0" stroke="rgb(0, 0, 0)" stroke-linejoin="round" d=" M 918.957, 750.854 923.156, 744.597 928.729, 736.294 931.594, 732.025 935.746, 725.838 941.318, 717.535 946.891, 709.232 952.464, 700.928 958.036, 692.625 963.609, 684.322 969.182, 676.018 974.754, 667.715 979.339, 660.884 983.595, 654.542 989.168, 646.239 993.271, 640.125 986.838, 635.807 986.780, 635.893 982.462, 642.327 976.889, 650.630 971.316, 658.933 965.744, 667.237 960.171, 675.540 954.598, 683.843 949.026, 692.147 943.453, 700.450 937.880, 708.753 932.308, 717.057 926.735, 725.360 921.162, 733.663 916.701, 740.312 912.523, 746.536 918.957, 750.854 " />
            <path fill="none" stroke-width="3.0" stroke-linecap="butt" stroke-opacity="1.0" stroke="rgb(0, 0, 0)" stroke-linejoin="round" d=" M 888.700, 731.023 897.031, 736.554 905.362, 742.085 913.694, 747.616 918.907, 751.077 923.192, 744.621 923.156, 744.597 916.701, 740.312 908.369, 734.781 900.038, 729.250 898.940, 728.521 892.985, 724.568 889.359, 730.030 888.700, 731.023 " />
            <path fill="none" stroke-width="3.0" stroke-linecap="butt" stroke-opacity="1.0" stroke="rgb(0, 0, 0)" stroke-linejoin="round" d=" M 930.009, 730.978 931.594, 732.025 939.938, 737.537 948.281, 743.049 956.625, 748.561 964.969, 754.073 969.159, 756.841 970.944, 758.020 975.066, 751.814 974.051, 751.143 965.707, 745.631 957.363, 740.119 949.020, 734.607 940.676, 729.095 935.746, 725.838 934.132, 724.772 930.009, 730.978 " />
            <path fill="none" stroke-width="3.0" stroke-linecap="butt" stroke-opacity="1.0" stroke="rgb(0, 0, 0)" stroke-linejoin="round" d=" M 977.285, 659.424 979.339, 660.884 987.489, 666.678 995.640, 672.472 995.846, 672.619 999.058, 674.008 1002.148, 673.573 1011.235, 669.400 1020.323, 665.226 1029.410, 661.053 1038.498, 656.880 1041.227, 655.626 1047.267, 652.706 1053.639, 651.113 1059.472, 650.484 1064.608, 650.881 1069.768, 652.186 1077.840, 655.608 1086.799, 660.050 1095.581, 664.405 1101.912, 669.864 1105.582, 674.474 1110.044, 683.424 1114.505, 692.374 1118.966, 701.323 1120.064, 703.524 1121.092, 706.163 1121.208, 708.481 1120.879, 711.077 1119.771, 714.116 1118.385, 716.383 1116.033, 718.628 1114.371, 719.520 1112.454, 720.229 1109.217, 720.608 1107.170, 720.393 1105.260, 719.915 1103.502, 719.128 1101.653, 718.047 1100.337, 716.483 1095.052, 707.994 1090.803, 701.169 1088.802, 699.130 1079.943, 694.491 1071.085, 689.851 1070.442, 689.514 1067.261, 688.951 1062.383, 689.074 1053.403, 693.474 1044.423, 697.873 1035.443, 702.273 1026.463, 706.673 1017.482, 711.072 1008.502, 715.472 1002.665, 718.331 1001.624, 719.029 995.110, 726.616 988.596, 734.203 982.081, 741.790 975.567, 749.377 974.051, 751.143 969.159, 756.841 966.080, 760.427 963.955, 764.992 962.837, 769.791 963.156, 774.181 963.910, 778.083 965.612, 781.386 967.568, 784.263 970.469, 787.041 973.166, 788.992 976.127, 790.396 979.127, 791.343 982.268, 791.772 985.099, 791.727 988.429, 790.685 990.370, 789.901 991.339, 789.509 992.466, 788.722 995.053, 786.914 996.526, 785.305 999.100, 782.491 1005.851, 775.114 1012.602, 767.736 1019.353, 760.359 1026.103, 752.981 1026.378, 752.681 1027.445, 750.871 1027.655, 749.773 1027.637, 748.816 1027.236, 747.797 1026.497, 746.942 1025.504, 746.434 1024.049, 746.371 1022.243, 747.049 1015.564, 754.491 1008.884, 761.933 1002.205, 769.375 995.525, 776.817 990.951, 781.914 988.632, 783.531 986.660, 784.390 984.676, 784.724 982.827, 784.786 981.003, 784.485 978.952, 783.960 976.778, 783.245 974.521, 781.618 972.276, 779.346 971.109, 777.268 969.962, 774.875 969.627, 772.996 969.491, 771.093 970.300, 767.226 971.753, 764.083 978.226, 756.462 984.700, 748.840 991.174, 741.218 997.647, 733.596 1004.121, 725.974 1005.893, 723.887 1006.327, 723.663 1015.324, 719.298 1024.321, 714.934 1033.318, 710.569 1042.315, 706.204 1051.313, 701.840 1060.310, 697.475 1064.366, 695.507 1067.121, 695.686 1068.697, 695.897 1077.504, 700.633 1084.962, 704.644 1086.169, 706.034 1091.348, 714.589 1094.778, 720.256 1096.891, 722.786 1099.578, 724.581 1101.802, 725.675 1104.981, 726.745 1108.686, 727.305 1113.856, 726.799 1116.917, 725.737 1119.791, 724.196 1123.633, 720.578 1125.898, 716.871 1127.445, 712.498 1127.891, 707.794 1127.564, 704.359 1126.048, 700.471 1121.563, 691.533 1117.078, 682.596 1112.592, 673.658 1111.026, 670.537 1107.064, 665.258 1099.347, 658.898 1099.191, 658.769 1091.918, 655.052 1084.387, 651.203 1080.692, 649.314 1071.838, 645.501 1065.980, 644.019 1059.435, 643.486 1052.657, 644.185 1046.285, 645.777 1040.245, 648.698 1031.151, 652.856 1022.056, 657.014 1012.962, 661.173 1003.867, 665.331 1002.581, 665.919 1001.597, 666.352 1000.249, 666.478 1000.229, 666.480 1000.295, 666.414 992.145, 660.620 983.995, 654.826 983.595, 654.542 981.735, 653.219 977.285, 659.424 " />
            <path fill="none" stroke-width="3.0" stroke-linecap="butt" stroke-opacity="1.0" stroke="rgb(0, 0, 0)" stroke-linejoin="round" d=" M 1000.229, 666.480 995.846, 672.619 1000.249, 666.478 1000.295, 666.414 " />
            <path fill="none" stroke-width="3.0" stroke-linecap="butt" stroke-opacity="1.0" stroke="rgb(0, 0, 0)" stroke-linejoin="round" d=" M 999.169, 782.581 999.100, 782.491 996.019, 778.460 991.833, 782.989 991.371, 783.490 990.434, 787.512 990.253, 788.289 990.370, 789.901 990.572, 792.679 991.326, 796.581 993.028, 799.884 994.985, 802.761 997.885, 805.539 1000.582, 807.490 1003.543, 808.894 1006.543, 809.841 1009.684, 810.270 1012.515, 810.224 1015.845, 809.183 1018.746, 808.083 1019.841, 807.472 1021.975, 806.280 1022.906, 805.760 1025.651, 802.794 1032.443, 795.455 1038.841, 788.541 1045.633, 781.202 1052.425, 773.862 1056.076, 769.917 1056.919, 768.307 1057.128, 767.209 1057.111, 766.252 1056.710, 765.233 1055.971, 764.378 1054.978, 763.869 1053.523, 763.807 1051.770, 764.514 1045.019, 771.892 1038.269, 779.270 1031.518, 786.647 1024.767, 794.025 1018.676, 800.682 1016.049, 802.029 1014.077, 802.887 1012.093, 803.222 1010.244, 803.284 1008.419, 802.982 1006.369, 802.457 1004.195, 801.743 1001.938, 800.116 999.692, 797.844 998.525, 795.766 997.378, 793.373 997.043, 791.494 996.907, 789.591 997.716, 785.724 999.169, 782.581 " />
            <path fill="none" stroke-width="3.0" stroke-linecap="butt" stroke-opacity="1.0" stroke="rgb(0, 0, 0)" stroke-linejoin="round" d=" M 1040.000, 787.054 1031.431, 792.208 1025.495, 795.779 1020.841, 800.861 1020.403, 802.755 1019.714, 805.733 1019.841, 807.472 1020.035, 810.109 1020.789, 814.007 1022.463, 817.533 1024.406, 820.522 1027.306, 823.300 1030.003, 825.252 1032.977, 826.554 1036.000, 827.312 1039.159, 827.601 1041.991, 827.543 1045.321, 826.502 1048.232, 825.326 1048.961, 824.796 1051.932, 822.635 1052.697, 822.079 1055.341, 819.148 1060.243, 813.714 1066.941, 806.289 1073.639, 798.863 1080.337, 791.438 1085.369, 785.859 1085.937, 784.938 1086.146, 783.839 1086.129, 782.882 1085.728, 781.864 1084.989, 781.008 1083.996, 780.500 1082.540, 780.438 1080.787, 781.145 1074.157, 788.631 1067.528, 796.118 1060.898, 803.604 1055.720, 809.452 1054.187, 811.182 1048.153, 817.996 1045.525, 819.348 1043.553, 820.206 1041.569, 820.541 1039.720, 820.603 1037.892, 820.326 1035.835, 819.858 1033.655, 819.192 1031.397, 817.565 1029.152, 815.291 1027.982, 813.239 1026.816, 811.004 1026.469, 809.217 1026.408, 807.352 1027.233, 803.430 1033.382, 795.543 1038.841, 788.541 1040.000, 787.054 " />
            <path fill="none" stroke-width="3.0" stroke-linecap="butt" stroke-opacity="1.0" stroke="rgb(0, 0, 0)" stroke-linejoin="round" d=" M 1049.007, 821.837 1048.961, 824.796 1048.935, 826.485 1049.842, 830.138 1051.412, 833.712 1053.267, 836.755 1056.086, 839.617 1058.726, 841.646 1061.660, 843.034 1064.660, 843.879 1067.809, 844.259 1070.642, 844.284 1074.001, 843.340 1076.944, 842.249 1081.568, 839.531 1085.056, 836.668 1093.258, 830.947 1101.460, 825.226 1109.662, 819.505 1111.956, 817.904 1112.770, 817.336 1108.503, 812.362 1108.022, 812.694 1099.795, 818.378 1091.567, 824.061 1083.339, 829.745 1081.024, 831.345 1077.078, 834.588 1074.412, 836.195 1072.416, 836.995 1070.423, 837.273 1068.573, 837.281 1066.754, 836.951 1064.711, 836.423 1062.551, 835.694 1060.342, 834.003 1058.164, 831.665 1057.054, 829.579 1055.953, 827.311 1055.658, 825.516 1055.651, 823.649 1055.995, 819.597 1060.243, 813.714 1060.805, 812.935 1055.720, 809.452 1055.688, 809.430 1054.187, 811.182 1050.313, 815.705 1049.556, 819.257 1049.007, 821.837 " />
            <path fill="none" stroke-width="3.0" stroke-linecap="butt" stroke-opacity="1.0" stroke="rgb(0, 0, 0)" stroke-linejoin="round" d=" M 1142.417, 803.823 1139.081, 805.771 1136.687, 807.170 1136.874, 807.510 1136.962, 807.670 1138.082, 809.701 1138.352, 811.813 1138.190, 814.288 1137.294, 816.540 1136.234, 818.223 1134.073, 820.121 1132.402, 821.007 1130.492, 821.878 1127.730, 822.524 1126.128, 822.276 1124.485, 821.812 1122.983, 820.772 1121.329, 819.365 1119.990, 817.668 1113.965, 809.687 1107.940, 801.706 1104.857, 797.623 1104.450, 796.265 1104.164, 794.838 1104.478, 791.846 1105.082, 790.046 1106.284, 788.445 1109.033, 786.199 1111.773, 784.625 1114.403, 784.115 1119.550, 785.670 1123.313, 789.836 1125.973, 792.781 1121.126, 784.034 1119.801, 781.643 1114.410, 777.629 1113.968, 777.667 1112.474, 777.795 1108.799, 778.724 1104.636, 781.265 1101.013, 784.461 1099.162, 787.109 1098.041, 790.353 1097.558, 794.661 1098.201, 798.412 1099.121, 800.904 1105.146, 808.885 1108.022, 812.694 1111.956, 817.904 1114.254, 820.948 1116.147, 823.493 1118.358, 825.835 1120.450, 827.163 1123.756, 828.405 1127.506, 829.091 1131.888, 828.552 1135.148, 827.490 1137.823, 825.683 1141.677, 822.065 1143.740, 818.642 1144.740, 815.456 1144.826, 812.371 1144.872, 810.737 1144.227, 807.580 1144.214, 807.516 1143.203, 805.438 1142.417, 803.823 " />
            <path fill="none" stroke-width="3.0" stroke-linecap="butt" stroke-opacity="1.0" stroke="rgb(0, 0, 0)" stroke-linejoin="round" d=" M 1164.467, 787.307 1160.514, 789.327 1158.911, 790.146 1159.057, 790.597 1159.233, 791.144 1159.798, 792.897 1160.084, 795.456 1159.523, 797.772 1158.627, 800.024 1157.567, 801.707 1155.406, 803.605 1153.735, 804.491 1151.825, 805.362 1149.063, 806.008 1147.302, 806.078 1145.658, 805.455 1143.838, 804.734 1142.184, 803.327 1140.846, 801.630 1134.755, 793.699 1128.665, 785.767 1122.574, 777.836 1116.483, 769.905 1115.040, 768.025 1114.177, 765.364 1114.249, 762.678 1115.230, 759.409 1117.385, 757.167 1121.347, 754.384 1124.115, 753.317 1124.942, 753.182 1125.015, 753.170 1124.102, 746.734 1123.940, 746.756 1121.402, 747.097 1117.517, 748.782 1112.533, 752.422 1109.412, 755.800 1107.641, 761.018 1107.483, 766.475 1109.144, 771.385 1113.968, 777.667 1116.751, 781.291 1122.842, 789.222 1123.313, 789.836 1129.404, 797.767 1134.950, 804.990 1136.843, 807.535 1136.962, 807.670 1138.596, 809.518 1139.054, 810.035 1141.385, 811.313 1141.624, 811.443 1144.826, 812.371 1145.089, 812.447 1148.839, 812.575 1153.221, 812.036 1156.481, 810.974 1159.156, 809.167 1163.010, 805.549 1165.073, 802.126 1166.152, 798.940 1166.483, 796.044 1166.556, 795.411 1166.682, 794.301 1166.263, 791.000 1165.895, 790.243 1165.084, 788.576 1164.467, 787.307 " />
            <path fill="none" stroke-width="3.0" stroke-linecap="butt" stroke-opacity="1.0" stroke="rgb(0, 0, 0)" stroke-linejoin="round" d=" M 1178.744, 774.676 1180.138, 777.178 1180.741, 779.682 1180.473, 782.049 1179.893, 783.616 1178.833, 785.299 1176.672, 787.197 1175.002, 788.084 1173.091, 788.954 1170.329, 789.600 1168.488, 789.352 1166.845, 788.729 1165.741, 787.849 1164.008, 786.282 1162.617, 784.413 1156.496, 776.505 1150.376, 768.597 1148.432, 766.085 1147.551, 764.947 1145.874, 762.781 1143.676, 759.940 1141.078, 756.583 1136.786, 751.039 1133.707, 748.604 1130.061, 747.170 1126.471, 746.741 1123.931, 746.700 1123.940, 746.756 1124.942, 753.182 1124.944, 753.191 1126.386, 753.309 1128.371, 753.518 1130.460, 754.314 1132.160, 755.702 1138.270, 763.618 1142.821, 769.514 1144.010, 771.053 1150.120, 778.969 1156.230, 786.885 1157.304, 788.277 1158.905, 790.729 1159.233, 791.144 1160.461, 792.702 1160.877, 793.230 1162.824, 794.977 1162.890, 795.036 1166.355, 796.039 1166.483, 796.044 1170.105, 796.167 1174.487, 795.628 1177.747, 794.566 1180.422, 792.760 1184.276, 789.141 1186.339, 785.718 1187.196, 782.382 1187.166, 779.682 1187.144, 777.714 1186.498, 775.194 1186.317, 774.491 1185.453, 773.007 1184.360, 771.130 1184.246, 770.933 1183.297, 769.717 1177.961, 762.883 1176.026, 760.404 1174.203, 758.068 1171.585, 754.715 1170.342, 753.123 1169.332, 751.829 1168.989, 751.390 1163.488, 755.133 1163.802, 755.536 1169.956, 763.418 1176.109, 771.301 1178.744, 774.676 " />
            <path fill="none" stroke-width="3.0" stroke-linecap="butt" stroke-opacity="1.0" stroke="rgb(0, 0, 0)" stroke-linejoin="round" d=" M 1202.314, 758.048 1202.896, 760.379 1203.135, 762.939 1202.529, 765.162 1201.448, 767.553 1200.020, 769.005 1197.858, 770.949 1196.188, 771.835 1194.278, 772.706 1191.516, 773.352 1189.662, 773.284 1188.111, 772.799 1186.291, 772.079 1184.545, 770.994 1183.297, 769.717 1182.976, 769.389 1177.403, 772.334 1179.010, 774.495 1179.295, 774.879 1180.998, 776.804 1181.506, 777.380 1183.924, 778.704 1184.077, 778.787 1187.166, 779.682 1187.542, 779.791 1191.292, 780.104 1195.673, 779.380 1198.934, 778.318 1201.608, 776.512 1205.462, 772.847 1207.895, 769.654 1209.158, 766.330 1209.734, 761.783 1209.361, 758.483 1207.721, 754.370 1207.010, 753.413 1202.565, 747.423 1200.701, 744.912 1200.224, 744.269 1200.023, 743.999 1199.992, 744.020 1194.709, 747.631 1195.505, 748.721 1201.402, 756.798 1202.314, 758.048 " />
            <path fill="none" stroke-width="3.0" stroke-linecap="butt" stroke-opacity="1.0" stroke="rgb(0, 0, 0)" stroke-linejoin="round" d=" M 1172.914, 766.296 1177.961, 762.883 1178.082, 762.801 1176.867, 760.041 1176.410, 757.397 1176.730, 754.984 1177.392, 752.639 1178.469, 750.978 1180.337, 749.108 1182.025, 747.748 1183.814, 746.651 1186.478, 745.673 1188.217, 745.389 1189.924, 745.807 1192.049, 746.208 1193.862, 747.404 1195.505, 748.721 1195.837, 748.987 1200.701, 744.912 1200.769, 744.856 1200.224, 744.269 1199.992, 744.020 1198.651, 742.577 1196.152, 740.364 1193.199, 739.372 1189.637, 738.798 1185.900, 739.128 1181.616, 740.197 1178.510, 741.648 1175.937, 744.043 1172.598, 747.828 1170.737, 751.339 1170.342, 753.123 1170.008, 754.633 1170.001, 759.347 1170.681, 762.711 1172.914, 766.296 " />
            <path fill="none" stroke-width="3.0" stroke-linecap="butt" stroke-opacity="1.0" stroke="rgb(0, 0, 0)" stroke-linejoin="round" d=" M 1143.926, 771.112 1144.010, 771.053 1149.226, 767.385 1148.432, 766.085 1147.695, 764.880 1147.025, 762.393 1147.228, 760.020 1147.773, 757.657 1148.453, 756.365 1149.412, 755.140 1150.962, 754.056 1152.752, 752.959 1155.415, 751.982 1157.093, 751.744 1158.698, 752.087 1160.566, 752.674 1162.317, 753.958 1163.775, 755.554 1163.802, 755.536 1169.332, 751.829 1169.412, 751.775 1167.340, 749.375 1164.953, 747.040 1162.288, 745.823 1157.803, 744.993 1154.072, 745.340 1150.553, 746.505 1147.447, 747.956 1145.012, 750.075 1142.494, 752.694 1141.083, 756.556 1141.078, 756.583 1140.498, 759.869 1140.677, 764.534 1141.591, 767.733 1142.821, 769.514 1143.926, 771.112 " />
            <path fill="none" stroke-width="3.0" stroke-linecap="butt" stroke-opacity="1.0" stroke="rgb(0, 0, 0)" stroke-linejoin="round" d=" M 1231.071, 728.370 1229.920, 729.139 1221.606, 734.696 1213.293, 740.253 1204.979, 745.810 1202.565, 747.423 1201.493, 748.139 1205.612, 754.348 1207.010, 753.413 1215.324, 747.856 1223.638, 742.299 1231.952, 736.742 1234.078, 735.321 1235.190, 734.578 1231.071, 728.370 " />
            <path fill="none" stroke-width="3.0" stroke-linecap="butt" stroke-opacity="1.0" stroke="rgb(0, 0, 0)" stroke-linejoin="round" d=" M 1180.736, 655.062 1180.280, 655.329 1171.661, 660.400 1163.042, 665.471 1161.799, 666.203 1161.747, 666.266 1161.693, 665.947 1153.001, 661.003 1144.308, 656.060 1135.615, 651.116 1126.923, 646.172 1122.006, 643.376 1118.392, 642.405 1114.972, 641.776 1110.859, 641.601 1104.398, 642.009 1101.791, 642.596 1092.827, 647.029 1084.387, 651.203 1084.204, 651.293 1086.745, 657.611 1091.918, 655.052 1100.882, 650.619 1104.332, 648.913 1106.312, 648.544 1111.512, 648.379 1115.045, 648.585 1117.168, 649.103 1119.126, 649.324 1127.790, 654.318 1136.454, 659.312 1145.118, 664.305 1153.782, 669.299 1159.572, 672.637 1162.510, 673.032 1165.134, 672.139 1173.753, 667.068 1182.372, 661.998 1184.071, 660.998 1183.960, 660.801 1180.736, 655.062 " />
            <path fill="none" stroke-width="3.0" stroke-linecap="butt" stroke-opacity="1.0" stroke="rgb(0, 0, 0)" stroke-linejoin="round" d=" M 1174.474, 646.680 1180.875, 642.329 1189.144, 636.706 1197.414, 631.084 1198.504, 630.343 1204.457, 626.295 1200.101, 619.888 1194.180, 623.913 1185.910, 629.535 1177.641, 635.158 1175.584, 636.556 1170.143, 640.255 1170.117, 640.273 1173.547, 645.317 1174.474, 646.680 " />
            <path fill="none" stroke-width="3.0" stroke-linecap="butt" stroke-opacity="1.0" stroke="rgb(0, 0, 0)" stroke-linejoin="round" d=" M 1250.410, 745.720 1246.731, 740.250 1241.150, 731.952 1235.569, 723.654 1229.989, 715.356 1224.408, 707.058 1218.827, 698.760 1213.246, 690.462 1207.666, 682.164 1202.085, 673.866 1196.504, 665.568 1190.924, 657.271 1185.343, 648.973 1180.875, 642.329 1176.554, 635.904 1175.584, 636.556 1170.124, 640.228 1170.143, 640.255 1173.547, 645.317 1179.127, 653.615 1180.280, 655.329 1183.960, 660.801 1189.541, 669.099 1195.122, 677.397 1200.702, 685.695 1206.283, 693.993 1211.864, 702.291 1217.445, 710.589 1223.025, 718.886 1228.606, 727.184 1229.920, 729.139 1234.078, 735.321 1239.659, 743.619 1243.980, 750.044 1244.507, 749.690 1250.410, 745.720 " />
            <path fill="none" stroke-width="3.0" stroke-linecap="butt" stroke-opacity="1.0" stroke="rgb(0, 0, 0)" stroke-linejoin="round" d=" M 1274.974, 730.160 1270.768, 723.907 1265.188, 715.609 1259.607, 707.311 1254.026, 699.014 1248.446, 690.716 1242.865, 682.418 1237.284, 674.120 1231.703, 665.822 1226.123, 657.524 1220.542, 649.226 1214.961, 640.928 1209.381, 632.630 1203.800, 624.332 1200.552, 619.503 1194.122, 623.827 1194.180, 623.913 1198.504, 630.343 1204.085, 638.641 1209.666, 646.938 1215.247, 655.236 1220.827, 663.534 1226.408, 671.832 1231.989, 680.130 1237.569, 688.428 1243.150, 696.726 1248.731, 705.024 1254.312, 713.322 1259.892, 721.620 1264.361, 728.264 1268.544, 734.485 1274.974, 730.160 " />
            <path fill="none" stroke-width="3.0" stroke-linecap="butt" stroke-opacity="1.0" stroke="rgb(0, 0, 0)" stroke-linejoin="round" d=" M 1245.177, 750.676 1253.447, 745.053 1261.717, 739.431 1269.986, 733.809 1275.161, 730.291 1270.804, 723.883 1270.768, 723.907 1264.361, 728.264 1256.091, 733.886 1247.821, 739.509 1246.731, 740.250 1240.821, 744.268 1244.507, 749.690 1245.177, 750.676 " />
            <path fill="none" stroke-width="3.0" stroke-linecap="butt" stroke-opacity="1.0" stroke="rgb(0, 0, 0)" stroke-linejoin="round" d=" M 803.916, 612.460 804.785, 612.840 " />
            <path fill="none" stroke-width="3.0" stroke-linecap="butt" stroke-opacity="1.0" stroke="rgb(0, 0, 0)" stroke-linejoin="round" d=" M 810.717, 614.639 817.768, 607.549 824.820, 600.458 831.871, 593.367 838.923, 586.277 845.974, 579.186 853.026, 572.096 860.077, 565.005 867.128, 557.914 869.421, 555.609 " />
        </g>
    </g>
</svg>
