<?xml version='1.0' encoding='ascii'?>
<svg xmlns="http://www.w3.org/2000/svg" version="1.1" width="2080" height="2080">
    <g id="ViewLayer_LineSet" xmlns:inkscape="http://www.inkscape.org/namespaces/inkscape" inkscape:groupmode="lineset" inkscape:label="ViewLayer_LineSet">
        <g xmlns:inkscape="http://www.inkscape.org/namespaces/inkscape" inkscape:groupmode="layer" id="strokes" inkscape:label="strokes">
            <path fill="black" stroke-width="3.0" stroke-linecap="butt" stroke-opacity="1.0" stroke="rgb(0, 0, 0)" stroke-linejoin="round" d=" M 2065.630, 652.738 2065.630, 662.738 2065.630, 672.738 2065.630, 682.738 2065.630, 692.738 2065.630, 702.738 2065.630, 712.738 2065.630, 722.738 2065.630, 732.738 2065.630, 742.738 2065.630, 752.738 2065.630, 762.738 2065.630, 772.738 2065.630, 782.738 2065.630, 792.738 2065.630, 797.062 2055.630, 797.062 2045.630, 797.062 2035.630, 797.062 2025.630, 797.062 2015.630, 797.062 2005.630, 797.062 1995.630, 797.062 1985.630, 797.062 1975.630, 797.062 1965.630, 797.062 1955.630, 797.062 1945.630, 797.062 1939.595, 797.062 1929.595, 797.062 1919.595, 797.062 1909.595, 797.062 1899.595, 797.062 1889.595, 797.062 1879.595, 797.062 1869.595, 797.062 1859.595, 797.062 1849.595, 797.062 1839.595, 797.062 1829.595, 797.062 1819.595, 797.062 1809.595, 797.062 1799.595, 797.062 1795.271, 797.062 1785.271, 797.062 1775.271, 797.062 1765.271, 797.062 1755.271, 797.062 1745.271, 797.062 1735.271, 797.062 1725.271, 797.062 1715.271, 797.062 1705.271, 797.062 1695.271, 797.062 1685.271, 797.062 1675.271, 797.062 1665.271, 797.062 1662.941, 797.062 1662.941, 787.062 1662.941, 777.062 1662.941, 767.062 1662.941, 757.062 1662.941, 747.062 1662.941, 737.062 1662.941, 727.062 1662.941, 717.062 1662.941, 707.062 1662.941, 697.062 1662.941, 687.062 1662.941, 677.062 1662.941, 667.062 1662.941, 657.062 1662.941, 652.738 1672.941, 652.738 1682.941, 652.738 1692.941, 652.738 1702.941, 652.738 1712.941, 652.738 1722.941, 652.738 1732.941, 652.738 1742.941, 652.738 1752.941, 652.738 1762.941, 652.738 1772.941, 652.738 1782.941, 652.738 1792.941, 652.738 1795.271, 652.738 1805.271, 652.738 1815.271, 652.738 1825.271, 652.738 1835.271, 652.738 1845.271, 652.738 1855.271, 652.738 1865.271, 652.738 1875.271, 652.738 1885.271, 652.738 1895.271, 652.738 1905.271, 652.738 1915.271, 652.738 1925.271, 652.738 1935.271, 652.738 1939.595, 652.738 1949.595, 652.738 1959.595, 652.738 1969.595, 652.738 1979.595, 652.738 1989.595, 652.738 1999.595, 652.738 2009.595, 652.738 2019.595, 652.738 2029.595, 652.738 2039.595, 652.738 2049.595, 652.738 2059.595, 652.738 2065.630, 652.738 " />
            <path fill="black" stroke-width="3.0" stroke-linecap="butt" stroke-opacity="1.0" stroke="rgb(0, 0, 0)" stroke-linejoin="round" d=" M 182.076, 1734.919 182.079, 1724.919 182.082, 1714.919 182.085, 1704.919 182.088, 1694.919 182.091, 1684.919 182.094, 1674.919 182.097, 1664.919 182.100, 1654.919 182.103, 1644.919 182.107, 1634.919 182.110, 1624.919 182.111, 1619.693 182.114, 1609.693 182.117, 1599.693 182.120, 1590.505 " />
            <path fill="black" stroke-width="3.0" stroke-linecap="butt" stroke-opacity="1.0" stroke="rgb(0, 0, 0)" stroke-linejoin="round" d=" M 182.120, 1590.505 185.789, 1590.505 195.789, 1590.505 205.789, 1590.505 215.789, 1590.505 225.789, 1590.505 235.789, 1590.505 245.789, 1590.505 255.789, 1590.505 265.789, 1590.505 275.789, 1590.505 285.789, 1590.505 295.789, 1590.505 305.789, 1590.505 315.789, 1590.505 325.789, 1590.505 335.789, 1590.505 345.789, 1590.505 355.789, 1590.505 365.789, 1590.505 375.789, 1590.505 385.789, 1590.505 395.789, 1590.505 405.789, 1590.505 415.789, 1590.505 425.789, 1590.505 435.789, 1590.505 445.789, 1590.505 455.789, 1590.505 465.789, 1590.505 475.789, 1590.505 485.789, 1590.505 495.789, 1590.505 505.789, 1590.505 515.789, 1590.505 525.789, 1590.505 535.789, 1590.505 545.789, 1590.505 555.789, 1590.505 565.789, 1590.505 575.789, 1590.505 585.789, 1590.505 595.789, 1590.505 605.789, 1590.505 615.789, 1590.505 625.789, 1590.505 635.789, 1590.505 645.789, 1590.505 655.789, 1590.505 665.789, 1590.505 675.789, 1590.505 685.789, 1590.505 695.789, 1590.505 705.789, 1590.505 715.789, 1590.505 725.789, 1590.505 735.789, 1590.505 745.789, 1590.505 755.789, 1590.505 765.789, 1590.505 775.789, 1590.505 785.789, 1590.505 795.789, 1590.505 805.789, 1590.505 815.789, 1590.505 825.789, 1590.505 835.789, 1590.505 845.789, 1590.505 855.789, 1590.505 865.789, 1590.505 875.789, 1590.505 885.789, 1590.505 895.789, 1590.505 905.789, 1590.505 915.789, 1590.505 925.789, 1590.505 935.789, 1590.505 945.789, 1590.505 955.789, 1590.505 965.789, 1590.505 975.789, 1590.505 985.789, 1590.505 995.789, 1590.505 1005.789, 1590.505 1015.789, 1590.505 1025.789, 1590.505 1035.789, 1590.505 1045.789, 1590.505 1055.789, 1590.505 1065.789, 1590.505 1075.789, 1590.505 1085.789, 1590.505 1095.789, 1590.505 1105.789, 1590.505 1115.789, 1590.505 1125.789, 1590.505 1135.789, 1590.505 1145.789, 1590.505 1155.789, 1590.505 1165.789, 1590.505 1175.789, 1590.505 1185.789, 1590.505 1195.789, 1590.505 1205.789, 1590.505 1215.789, 1590.505 1225.789, 1590.505 1235.789, 1590.505 1245.789, 1590.505 1255.789, 1590.505 1265.789, 1590.505 1275.789, 1590.505 1285.789, 1590.505 1295.789, 1590.505 1305.789, 1590.505 1315.789, 1590.505 1325.789, 1590.505 1335.789, 1590.505 1345.789, 1590.505 1355.789, 1590.505 1365.789, 1590.505 1375.789, 1590.505 1385.789, 1590.505 1395.789, 1590.505 1405.789, 1590.505 1415.789, 1590.505 1425.789, 1590.505 1435.789, 1590.505 1445.789, 1590.505 1455.789, 1590.505 1465.789, 1590.505 1475.789, 1590.505 1485.789, 1590.505 1495.789, 1590.505 1505.789, 1590.505 1515.789, 1590.505 1537.173, 1590.505 1540.841, 1590.505 1540.841, 1594.314 1540.841, 1604.314 1540.841, 1605.639 1540.841, 1615.639 1540.841, 1619.198 1540.841, 1629.198 1540.841, 1639.198 1540.841, 1649.198 1540.841, 1659.198 1540.841, 1669.198 1540.841, 1679.198 1540.841, 1689.198 1540.841, 1699.198 1540.841, 1709.198 1540.841, 1719.198 1540.841, 1729.198 1540.841, 1734.489 1540.841, 1734.830 1530.841, 1734.830 1520.841, 1734.831 1510.841, 1734.832 1500.841, 1734.832 1490.841, 1734.833 1480.841, 1734.834 1470.841, 1734.834 1460.841, 1734.835 1450.841, 1734.836 1440.841, 1734.836 1430.841, 1734.837 1420.841, 1734.838 1410.841, 1734.838 1400.841, 1734.839 1390.841, 1734.840 1380.841, 1734.840 1370.841, 1734.841 1360.841, 1734.842 1350.841, 1734.842 1340.842, 1734.843 1330.841, 1734.844 1320.841, 1734.844 1310.842, 1734.845 1300.841, 1734.846 1290.841, 1734.846 1280.841, 1734.847 1270.841, 1734.848 1260.841, 1734.848 1250.841, 1734.849 1240.842, 1734.849 1230.841, 1734.850 1220.841, 1734.851 1210.841, 1734.851 1200.841, 1734.852 1190.841, 1734.853 1180.841, 1734.853 1170.841, 1734.854 1160.841, 1734.855 1150.842, 1734.855 1140.842, 1734.856 1130.841, 1734.857 1120.841, 1734.857 1110.841, 1734.858 1100.841, 1734.859 1090.841, 1734.859 1080.842, 1734.860 1070.842, 1734.861 1060.841, 1734.861 1050.841, 1734.862 1040.841, 1734.863 1030.841, 1734.863 1020.841, 1734.864 1010.841, 1734.865 1000.841, 1734.865 990.841, 1734.866 980.841, 1734.867 970.841, 1734.867 960.841, 1734.868 950.841, 1734.869 940.841, 1734.869 930.841, 1734.870 920.841, 1734.871 910.841, 1734.871 900.841, 1734.872 890.841, 1734.873 880.841, 1734.873 870.841, 1734.874 860.841, 1734.875 850.841, 1734.875 840.841, 1734.876 830.841, 1734.877 820.841, 1734.877 810.841, 1734.878 800.841, 1734.879 790.841, 1734.879 780.841, 1734.880 770.841, 1734.881 760.841, 1734.881 750.841, 1734.882 740.841, 1734.883 730.841, 1734.883 720.841, 1734.884 710.841, 1734.885 700.841, 1734.885 690.841, 1734.886 680.841, 1734.887 670.841, 1734.887 660.841, 1734.888 650.841, 1734.888 640.841, 1734.889 630.841, 1734.890 620.841, 1734.890 610.841, 1734.891 600.841, 1734.892 590.841, 1734.892 580.841, 1734.893 570.841, 1734.894 560.841, 1734.894 550.841, 1734.895 540.841, 1734.896 530.841, 1734.896 520.841, 1734.897 510.841, 1734.898 500.841, 1734.898 490.841, 1734.899 480.841, 1734.900 470.841, 1734.900 460.841, 1734.901 450.841, 1734.902 440.841, 1734.902 430.841, 1734.903 420.841, 1734.904 410.841, 1734.904 400.841, 1734.905 390.841, 1734.906 380.841, 1734.906 370.841, 1734.907 360.841, 1734.908 350.841, 1734.908 340.841, 1734.909 330.841, 1734.910 320.841, 1734.910 310.841, 1734.911 300.841, 1734.912 290.841, 1734.912 280.841, 1734.913 270.841, 1734.914 260.841, 1734.914 250.841, 1734.915 240.841, 1734.916 230.841, 1734.916 220.841, 1734.917 210.841, 1734.918 200.841, 1734.918 182.076, 1734.919 172.078, 1734.687 170.532, 1734.651 160.541, 1735.074 158.602, 1735.156 148.606, 1735.463 146.742, 1735.520 136.761, 1734.910 135.411, 1734.827 125.507, 1733.443 124.495, 1733.302 114.739, 1731.110 113.997, 1730.943 105.147, 1726.287 104.027, 1725.698 95.957, 1721.532 87.993, 1715.485 86.734, 1714.530 79.472, 1707.655 78.309, 1706.553 71.291, 1699.429 70.237, 1698.359 64.473, 1690.187 63.576, 1688.915 59.048, 1679.999 58.265, 1678.456 54.014, 1669.405 53.298, 1667.882 49.330, 1658.703 48.677, 1657.192 46.047, 1647.544 45.479, 1645.461 44.228, 1635.540 43.837, 1632.435 42.852, 1622.483 42.630, 1620.237 42.554, 1619.693 41.465, 1611.798 40.683, 1606.135 41.465, 1606.080 51.440, 1605.373 61.415, 1604.666 71.390, 1603.960 81.365, 1603.253 91.340, 1602.546 101.315, 1601.840 111.290, 1601.133 121.265, 1600.426 131.240, 1599.720 141.215, 1599.013 151.298, 1598.298 161.293, 1597.986 170.578, 1597.695 179.066, 1592.408 182.120, 1590.505 " />
            <path fill="black" stroke-width="3.0" stroke-linecap="butt" stroke-opacity="1.0" stroke="rgb(0, 0, 0)" stroke-linejoin="round" d=" M 95.957, 1721.532 101.119, 1712.967 106.280, 1704.402 111.441, 1695.836 116.602, 1687.271 121.763, 1678.706 126.924, 1670.141 132.085, 1661.576 137.246, 1653.010 142.408, 1644.445 147.569, 1635.880 152.730, 1627.315 157.322, 1619.693 162.483, 1611.128 167.645, 1602.563 170.578, 1597.695 " />
            <path fill="black" stroke-width="3.0" stroke-linecap="butt" stroke-opacity="1.0" stroke="rgb(0, 0, 0)" stroke-linejoin="round" d=" M 184.981, 993.021 185.637, 996.224 185.789, 996.965 187.426, 1004.960 185.789, 1004.864 175.806, 1004.284 165.823, 1003.703 155.839, 1003.123 145.856, 1002.542 135.873, 1001.962 125.890, 1001.381 115.907, 1000.800 105.924, 1000.220 95.941, 999.639 85.957, 999.059 75.974, 998.478 65.991, 997.898 56.008, 997.317 46.025, 996.736 43.255, 996.575 43.034, 992.655 42.664, 986.083 42.819, 976.084 42.849, 974.144 43.120, 964.147 43.171, 962.283 44.356, 952.354 44.517, 951.010 46.471, 941.203 46.670, 940.202 49.422, 930.588 49.631, 929.857 54.790, 921.291 55.443, 920.206 60.068, 912.391 66.844, 905.036 69.116, 902.571 76.399, 895.718 77.566, 894.620 85.084, 888.026 86.213, 887.035 94.704, 881.752 96.025, 880.930 105.188, 876.925 106.774, 876.232 116.056, 872.510 117.618, 871.884 127.010, 868.453 128.556, 867.888 138.340, 865.820 140.452, 865.373 150.429, 864.697 153.552, 864.485 163.544, 864.077 165.798, 863.985 175.779, 863.368 184.056, 862.856 184.085, 865.083 184.215, 875.083 184.344, 885.082 184.474, 895.081 184.603, 905.080 184.733, 915.079 184.862, 925.078 184.992, 935.078 185.121, 945.077 185.251, 955.076 185.380, 965.075 185.492, 973.739 185.227, 983.735 184.991, 992.655 184.981, 993.021 " />
            <path fill="black" stroke-width="3.0" stroke-linecap="butt" stroke-opacity="1.0" stroke="rgb(0, 0, 0)" stroke-linejoin="round" d=" M 60.068, 912.391 68.470, 917.814 76.872, 923.237 85.273, 928.661 93.675, 934.084 102.077, 939.507 110.479, 944.930 118.880, 950.353 127.282, 955.777 135.684, 961.200 144.085, 966.623 152.487, 972.046 160.889, 977.470 170.285, 983.535 178.687, 988.958 184.414, 992.655 184.981, 993.021 " />
            <path fill="black" stroke-width="3.0" stroke-linecap="butt" stroke-opacity="1.0" stroke="rgb(0, 0, 0)" stroke-linejoin="round" d=" M 1538.283, 1603.989 1537.678, 1594.192 1540.841, 1594.314 1550.834, 1594.701 1560.827, 1595.087 1570.819, 1595.474 1580.812, 1595.861 1590.804, 1596.247 1600.797, 1596.634 1610.789, 1597.021 1620.782, 1597.407 1630.774, 1597.794 1640.767, 1598.181 1650.759, 1598.567 1660.752, 1598.954 1670.744, 1599.340 1680.442, 1599.716 1681.087, 1609.695 1681.220, 1611.747 1681.226, 1619.198 1681.230, 1623.687 1681.122, 1633.687 1681.102, 1635.552 1680.078, 1645.499 1679.940, 1646.845 1678.146, 1656.683 1677.963, 1657.687 1675.368, 1667.345 1675.171, 1668.079 1670.153, 1676.728 1669.517, 1677.823 1665.020, 1685.713 1658.649, 1693.420 1657.642, 1694.638 1650.472, 1701.609 1649.323, 1702.726 1641.914, 1709.442 1640.800, 1710.451 1632.397, 1715.871 1631.089, 1716.714 1621.993, 1720.868 1620.419, 1721.587 1611.199, 1725.460 1609.647, 1726.111 1600.312, 1729.695 1598.776, 1730.285 1589.027, 1732.513 1586.922, 1732.994 1576.958, 1733.833 1573.839, 1734.095 1563.855, 1734.666 1561.602, 1734.795 1551.603, 1734.648 1541.604, 1734.500 1540.841, 1734.489 1539.919, 1734.475 1539.754, 1724.477 1539.589, 1714.478 1539.424, 1704.479 1539.260, 1694.481 1539.095, 1684.482 1538.930, 1674.483 1538.766, 1664.485 1538.601, 1654.486 1538.436, 1644.487 1538.272, 1634.489 1538.107, 1624.490 1538.087, 1623.277 1538.129, 1619.198 1538.230, 1609.199 1538.283, 1603.989 " />
            <path fill="black" stroke-width="3.0" stroke-linecap="butt" stroke-opacity="1.0" stroke="rgb(0, 0, 0)" stroke-linejoin="round" d=" M 1665.020, 1685.713 1656.616, 1680.294 1648.212, 1674.874 1639.807, 1669.455 1631.403, 1664.036 1622.999, 1658.616 1614.595, 1653.197 1606.191, 1647.778 1597.786, 1642.358 1589.382, 1636.939 1580.978, 1631.520 1572.574, 1626.101 1564.169, 1620.681 1561.869, 1619.198 1553.465, 1613.779 1545.061, 1608.359 1540.841, 1605.639 1538.283, 1603.989 " />
            <path fill="black" stroke-width="3.0" stroke-linecap="butt" stroke-opacity="1.0" stroke="rgb(0, 0, 0)" stroke-linejoin="round" d=" M 1545.156, 1008.954 1537.173, 1009.447 1535.358, 1009.559 1535.716, 999.496 1536.071, 989.502 1536.425, 979.508 1536.780, 969.515 1537.135, 959.521 1537.490, 949.527 1537.845, 939.534 1538.200, 929.540 1538.555, 919.546 1538.910, 909.552 1539.265, 899.559 1539.620, 889.565 1539.975, 879.571 1540.330, 869.578 1540.458, 865.949 1550.438, 865.303 1552.489, 865.170 1553.465, 865.170 1563.465, 865.161 1564.430, 865.160 1574.430, 865.269 1576.295, 865.289 1586.242, 866.312 1587.588, 866.450 1597.425, 868.244 1598.430, 868.427 1608.088, 871.022 1608.822, 871.219 1617.987, 875.219 1619.837, 876.026 1627.727, 880.523 1635.968, 886.188 1642.159, 890.443 1648.917, 897.813 1649.399, 898.339 1656.115, 905.748 1657.124, 906.861 1662.544, 915.265 1663.388, 916.572 1667.542, 925.668 1668.261, 927.243 1672.133, 936.463 1672.785, 938.014 1676.369, 947.349 1676.959, 948.886 1679.186, 958.634 1679.667, 960.739 1680.506, 970.704 1680.769, 973.823 1681.340, 983.806 1681.469, 986.059 1681.464, 986.374 1681.317, 996.373 1681.169, 1006.372 1681.149, 1007.743 1671.150, 1007.863 1661.150, 1007.984 1651.151, 1008.104 1641.152, 1008.225 1631.152, 1008.346 1621.153, 1008.466 1611.154, 1008.587 1601.155, 1008.708 1591.155, 1008.828 1581.156, 1008.949 1571.157, 1009.070 1564.444, 1009.151 1554.444, 1009.049 1545.156, 1008.954 " />
            <path fill="black" stroke-width="3.0" stroke-linecap="butt" stroke-opacity="1.0" stroke="rgb(0, 0, 0)" stroke-linejoin="round" d=" M 1627.727, 880.523 1622.319, 888.935 1616.911, 897.346 1611.503, 905.758 1606.095, 914.169 1600.687, 922.581 1595.279, 930.992 1589.871, 939.404 1584.463, 947.815 1579.055, 956.227 1573.647, 964.638 1568.239, 973.050 1562.831, 981.461 1559.673, 986.374 1554.265, 994.786 1553.465, 996.030 1551.236, 999.496 1545.828, 1007.907 1545.156, 1008.954 " />
            <path fill="black" stroke-width="3.0" stroke-linecap="butt" stroke-opacity="1.0" stroke="rgb(0, 0, 0)" stroke-linejoin="round" d=" M 816.545, 999.496 816.545, 989.496 816.545, 979.496 816.545, 969.496 816.545, 959.496 816.545, 949.496 816.545, 939.496 816.545, 929.496 816.545, 919.496 816.545, 909.496 816.545, 899.496 816.545, 889.496 816.545, 879.496 816.545, 869.496 816.545, 864.487 826.545, 864.487 836.545, 864.487 846.545, 864.487 856.545, 864.487 866.545, 864.487 876.545, 864.487 886.545, 864.487 896.545, 864.487 906.545, 864.487 916.545, 864.487 926.545, 864.487 936.545, 864.487 946.545, 864.487 956.545, 864.487 966.545, 864.487 976.545, 864.487 986.545, 864.487 996.545, 864.487 1006.545, 864.487 1016.545, 864.487 1026.545, 864.487 1036.545, 864.487 1046.545, 864.487 1056.545, 864.487 1066.545, 864.487 1076.545, 864.487 1086.545, 864.487 1096.545, 864.487 1106.545, 864.487 1116.545, 864.487 1126.545, 864.487 1136.545, 864.487 1146.545, 864.487 1156.545, 864.487 1166.545, 864.487 1176.545, 864.487 1186.545, 864.487 1196.545, 864.487 1206.545, 864.487 1216.545, 864.487 1226.545, 864.487 1236.545, 864.487 1246.545, 864.487 1256.545, 864.487 1266.545, 864.487 1276.545, 864.487 1286.545, 864.487 1296.545, 864.487 1306.545, 864.487 1316.545, 864.487 1326.545, 864.487 1336.545, 864.487 1346.545, 864.487 1356.545, 864.487 1366.545, 864.487 1376.545, 864.487 1386.545, 864.487 1396.545, 864.487 1406.545, 864.487 1416.545, 864.487 1426.545, 864.487 1436.545, 864.487 1446.545, 864.487 1456.545, 864.487 1466.545, 864.487 1476.545, 864.487 1486.545, 864.487 1496.545, 864.487 1506.545, 864.487 1516.545, 864.487 1526.545, 864.487 1536.545, 864.487 1553.465, 864.487 1553.465, 865.170 1553.465, 875.170 1553.465, 885.170 1553.465, 895.170 1553.465, 905.170 1553.465, 915.170 1553.465, 925.170 1553.465, 935.170 1553.465, 945.170 1553.465, 955.170 1553.465, 965.170 1553.465, 975.170 1553.465, 986.374 1553.465, 996.030 1553.465, 999.496 1551.236, 999.496 1541.236, 999.496 1537.173, 999.496 1535.716, 999.496 1525.716, 999.496 1515.716, 999.496 1505.716, 999.496 1495.716, 999.496 1485.716, 999.496 1475.716, 999.496 1465.716, 999.496 1455.716, 999.496 1445.716, 999.496 1435.716, 999.496 1425.716, 999.496 1415.716, 999.496 1405.716, 999.496 1395.716, 999.496 1385.716, 999.496 1375.716, 999.496 1365.716, 999.496 1355.716, 999.496 1345.716, 999.496 1335.716, 999.496 1325.716, 999.496 1315.716, 999.496 1305.716, 999.496 1295.716, 999.496 1285.716, 999.496 1275.716, 999.496 1265.716, 999.496 1255.716, 999.496 1245.716, 999.496 1235.716, 999.496 1225.716, 999.496 1215.716, 999.496 1205.716, 999.496 1195.716, 999.496 1185.716, 999.496 1175.716, 999.496 1165.716, 999.496 1155.716, 999.496 1145.716, 999.496 1135.716, 999.496 1125.716, 999.496 1115.716, 999.496 1105.716, 999.496 1095.716, 999.496 1085.716, 999.496 1075.716, 999.496 1065.716, 999.496 1055.716, 999.496 1045.716, 999.496 1035.716, 999.496 1025.716, 999.496 1015.716, 999.496 1005.716, 999.496 995.716, 999.496 985.716, 999.496 975.716, 999.496 965.716, 999.496 955.716, 999.496 945.716, 999.496 935.716, 999.496 925.716, 999.496 915.716, 999.496 905.716, 999.496 895.716, 999.496 885.716, 999.496 875.716, 999.496 865.716, 999.496 855.716, 999.496 845.716, 999.496 835.716, 999.496 825.716, 999.496 816.545, 999.496 " />
            <path fill="black" stroke-width="3.0" stroke-linecap="butt" stroke-opacity="1.0" stroke="rgb(0, 0, 0)" stroke-linejoin="round" d=" M 41.464, 992.655 43.034, 992.655 53.034, 992.655 63.034, 992.655 73.034, 992.655 83.034, 992.655 93.034, 992.655 103.034, 992.655 113.034, 992.655 123.034, 992.655 133.034, 992.655 143.034, 992.655 153.034, 992.655 163.034, 992.655 170.285, 992.655 180.285, 992.655 184.414, 992.655 184.991, 992.655 185.789, 992.655 185.789, 996.224 185.789, 996.965 185.789, 1004.864 185.789, 1014.864 185.789, 1024.864 185.789, 1034.864 185.789, 1044.864 185.789, 1054.864 185.789, 1064.864 185.789, 1074.864 185.789, 1084.864 185.789, 1094.864 185.789, 1104.864 185.789, 1114.864 185.789, 1124.864 185.789, 1134.864 185.789, 1144.864 185.789, 1154.864 185.789, 1164.864 185.789, 1174.864 185.789, 1184.864 185.789, 1194.864 185.789, 1204.864 185.789, 1214.864 185.789, 1224.864 185.789, 1234.864 185.789, 1244.864 185.789, 1254.864 185.789, 1264.864 185.789, 1274.864 185.789, 1284.864 185.789, 1294.864 185.789, 1304.864 185.789, 1314.864 185.789, 1324.864 185.789, 1334.864 185.789, 1344.864 185.789, 1354.864 185.789, 1364.864 185.789, 1374.864 185.789, 1384.864 185.789, 1394.864 185.789, 1404.864 185.789, 1414.864 185.789, 1424.864 185.789, 1434.864 185.789, 1444.864 185.789, 1454.864 185.789, 1464.864 185.789, 1474.864 185.789, 1484.864 185.789, 1494.864 185.789, 1504.864 185.789, 1514.864 185.789, 1524.864 185.789, 1534.864 185.789, 1544.864 185.789, 1554.864 185.789, 1564.864 185.789, 1574.864 185.789, 1590.505 185.789, 1600.505 185.789, 1610.505 185.789, 1619.693 182.111, 1619.693 172.111, 1619.693 162.111, 1619.693 157.322, 1619.693 147.322, 1619.693 137.322, 1619.693 127.322, 1619.693 117.322, 1619.693 107.322, 1619.693 97.322, 1619.693 87.322, 1619.693 77.322, 1619.693 67.322, 1619.693 57.322, 1619.693 47.322, 1619.693 42.554, 1619.693 41.465, 1619.693 41.465, 1611.798 41.465, 1606.080 41.465, 1596.080 41.465, 1586.080 41.465, 1576.080 41.465, 1566.080 41.465, 1556.080 41.465, 1546.080 41.465, 1536.080 41.465, 1526.080 41.465, 1516.080 41.465, 1506.080 41.465, 1496.080 41.465, 1486.080 41.464, 1476.080 41.464, 1466.080 41.464, 1456.080 41.464, 1446.080 41.464, 1436.080 41.464, 1426.080 41.464, 1416.080 41.464, 1406.080 41.464, 1396.080 41.464, 1386.080 41.464, 1376.080 41.464, 1366.080 41.464, 1356.080 41.464, 1346.080 41.464, 1336.080 41.464, 1326.080 41.464, 1316.080 41.464, 1306.080 41.464, 1296.080 41.464, 1286.080 41.464, 1276.080 41.464, 1266.080 41.464, 1256.080 41.464, 1246.080 41.464, 1236.080 41.464, 1226.080 41.464, 1216.080 41.464, 1206.080 41.464, 1196.080 41.464, 1186.080 41.464, 1176.080 41.464, 1166.080 41.464, 1156.080 41.464, 1146.080 41.464, 1136.080 41.464, 1126.080 41.464, 1116.080 41.464, 1106.080 41.464, 1096.080 41.464, 1086.080 41.464, 1076.080 41.464, 1066.080 41.464, 1056.080 41.464, 1046.080 41.464, 1036.080 41.464, 1026.080 41.464, 1016.080 41.464, 1006.080 41.464, 992.655 " />
            <path fill="black" stroke-width="3.0" stroke-linecap="butt" stroke-opacity="1.0" stroke="rgb(0, 0, 0)" stroke-linejoin="round" d=" M 1537.173, 986.374 1547.173, 986.374 1553.465, 986.374 1559.673, 986.374 1569.673, 986.374 1579.673, 986.374 1589.673, 986.374 1599.673, 986.374 1609.673, 986.374 1619.673, 986.374 1629.673, 986.374 1639.673, 986.374 1649.673, 986.374 1659.673, 986.374 1669.673, 986.374 1679.673, 986.374 1681.464, 986.374 1681.497, 986.374 1681.497, 996.374 1681.497, 1006.374 1681.497, 1016.374 1681.497, 1026.374 1681.497, 1036.374 1681.497, 1046.374 1681.497, 1056.374 1681.497, 1066.374 1681.497, 1076.374 1681.497, 1086.374 1681.497, 1096.374 1681.497, 1106.374 1681.497, 1116.374 1681.497, 1126.374 1681.497, 1136.374 1681.497, 1146.374 1681.497, 1156.374 1681.497, 1166.374 1681.497, 1176.374 1681.497, 1186.374 1681.497, 1196.374 1681.497, 1206.374 1681.497, 1216.374 1681.497, 1226.374 1681.497, 1236.374 1681.497, 1246.374 1681.497, 1256.374 1681.497, 1266.374 1681.497, 1276.374 1681.497, 1286.374 1681.497, 1296.374 1681.497, 1306.374 1681.497, 1316.374 1681.497, 1326.374 1681.497, 1336.374 1681.497, 1346.374 1681.497, 1356.374 1681.497, 1366.374 1681.497, 1376.374 1681.497, 1386.374 1681.497, 1396.374 1681.497, 1406.374 1681.497, 1416.374 1681.497, 1426.374 1681.497, 1436.374 1681.497, 1446.374 1681.497, 1456.374 1681.497, 1466.374 1681.497, 1476.374 1681.497, 1486.374 1681.497, 1496.374 1681.497, 1506.374 1681.497, 1516.374 1681.497, 1526.374 1681.497, 1536.374 1681.497, 1546.374 1681.497, 1556.374 1681.497, 1566.374 1681.497, 1576.374 1681.497, 1586.374 1681.497, 1596.374 1681.497, 1606.374 1681.497, 1619.198 1681.226, 1619.198 1671.226, 1619.198 1661.226, 1619.198 1651.226, 1619.198 1641.226, 1619.198 1631.226, 1619.198 1621.226, 1619.198 1611.226, 1619.198 1601.226, 1619.198 1591.226, 1619.198 1581.226, 1619.198 1571.226, 1619.198 1561.869, 1619.198 1551.869, 1619.198 1541.869, 1619.198 1540.841, 1619.198 1538.129, 1619.198 1537.172, 1619.198 1537.172, 1609.198 1537.172, 1599.198 1537.173, 1590.505 1537.173, 1580.505 1537.173, 1570.505 1537.173, 1560.505 1537.173, 1550.505 1537.173, 1540.505 1537.173, 1530.505 1537.173, 1520.505 1537.173, 1510.505 1537.173, 1500.505 1537.173, 1490.505 1537.173, 1480.505 1537.173, 1470.505 1537.173, 1460.505 1537.173, 1450.505 1537.173, 1440.505 1537.173, 1430.505 1537.173, 1420.505 1537.173, 1410.505 1537.173, 1400.505 1537.173, 1390.505 1537.173, 1380.505 1537.173, 1370.505 1537.173, 1360.505 1537.173, 1350.505 1537.173, 1340.505 1537.173, 1330.505 1537.173, 1320.505 1537.173, 1310.505 1537.173, 1300.505 1537.173, 1290.505 1537.173, 1280.505 1537.173, 1270.505 1537.173, 1260.505 1537.173, 1250.505 1537.173, 1240.505 1537.173, 1230.505 1537.173, 1220.505 1537.173, 1210.505 1537.173, 1200.505 1537.173, 1190.505 1537.173, 1180.505 1537.173, 1170.505 1537.173, 1160.505 1537.173, 1150.505 1537.173, 1140.505 1537.173, 1130.505 1537.173, 1120.505 1537.173, 1110.505 1537.173, 1100.505 1537.173, 1090.505 1537.173, 1080.505 1537.173, 1070.505 1537.173, 1060.505 1537.173, 1050.505 1537.173, 1040.505 1537.173, 1030.505 1537.173, 1020.505 1537.173, 1009.447 1537.173, 999.496 1537.173, 989.496 1537.173, 986.374 " />
            <path fill="black" stroke-width="3.0" stroke-linecap="butt" stroke-opacity="1.0" stroke="rgb(0, 0, 0)" stroke-linejoin="round" d=" M 1795.271, 529.851 1805.271, 529.851 1815.271, 529.851 1825.271, 529.851 1835.271, 529.851 1845.271, 529.851 1855.271, 529.851 1865.271, 529.851 1875.271, 529.851 1885.271, 529.851 1895.271, 529.851 1905.271, 529.851 1915.271, 529.851 1925.271, 529.851 1935.271, 529.851 1939.595, 529.851 1939.595, 539.851 1939.595, 549.851 1939.595, 559.851 1939.595, 569.851 1939.595, 579.851 1939.595, 589.851 1939.595, 599.851 1939.595, 609.851 1939.595, 619.851 1939.595, 629.851 1939.595, 639.851 1939.595, 649.851 1939.595, 652.738 1939.595, 662.738 1939.595, 672.738 1939.595, 682.738 1939.595, 692.738 1939.595, 702.738 1939.595, 712.738 1939.595, 722.738 1939.595, 732.738 1939.595, 742.738 1939.595, 752.738 1939.595, 762.738 1939.595, 772.738 1939.595, 782.738 1939.595, 792.738 1939.595, 797.062 1939.595, 807.062 1939.595, 817.062 1939.595, 827.062 1939.595, 837.062 1939.595, 847.062 1939.595, 857.062 1939.595, 867.062 1939.595, 877.062 1939.595, 887.062 1939.595, 897.062 1939.595, 907.062 1939.595, 917.062 1939.595, 927.062 1939.595, 932.539 1929.595, 932.539 1919.595, 932.539 1909.595, 932.539 1899.595, 932.539 1889.595, 932.539 1879.595, 932.539 1869.595, 932.539 1859.595, 932.539 1849.595, 932.539 1839.595, 932.539 1829.595, 932.539 1819.595, 932.539 1809.595, 932.539 1799.595, 932.539 1795.271, 932.539 1795.271, 922.539 1795.271, 912.539 1795.271, 902.539 1795.271, 892.539 1795.271, 882.539 1795.271, 872.539 1795.271, 862.539 1795.271, 852.539 1795.271, 842.539 1795.271, 832.539 1795.271, 822.539 1795.271, 812.539 1795.271, 802.539 1795.271, 797.062 1795.271, 787.062 1795.271, 777.062 1795.271, 767.062 1795.271, 757.062 1795.271, 747.062 1795.271, 737.062 1795.271, 727.062 1795.271, 717.062 1795.271, 707.062 1795.271, 697.062 1795.271, 687.062 1795.271, 677.062 1795.271, 667.062 1795.271, 657.062 1795.271, 652.738 1795.271, 642.738 1795.271, 632.738 1795.271, 622.738 1795.271, 612.738 1795.271, 602.738 1795.271, 592.738 1795.271, 582.738 1795.271, 572.738 1795.271, 562.738 1795.271, 552.738 1795.271, 542.738 1795.271, 532.738 1795.271, 529.851 " />
            <path fill="black" stroke-width="3.0" stroke-linecap="butt" stroke-opacity="1.0" stroke="rgb(0, 0, 0)" stroke-linejoin="round" d=" M 399.499, 865.083 399.499, 875.083 399.499, 885.083 399.499, 895.083 399.499, 905.083 399.499, 915.083 399.499, 925.083 399.499, 935.083 399.499, 945.083 399.499, 955.083 399.499, 965.083 399.499, 975.083 399.499, 985.083 399.499, 996.224 389.499, 996.224 379.499, 996.224 369.499, 996.224 359.499, 996.224 349.499, 996.224 339.499, 996.224 329.499, 996.224 319.499, 996.224 309.499, 996.224 299.499, 996.224 289.499, 996.224 279.499, 996.224 269.499, 996.224 259.499, 996.224 249.499, 996.224 239.499, 996.224 229.499, 996.224 219.499, 996.224 209.499, 996.224 199.499, 996.224 189.499, 996.224 185.789, 996.224 185.637, 996.224 175.637, 996.224 170.285, 996.224 170.285, 992.655 170.285, 983.535 170.285, 973.535 170.285, 963.535 170.285, 953.535 170.285, 943.535 170.285, 933.535 170.285, 923.535 170.285, 913.535 170.285, 903.535 170.285, 893.535 170.285, 883.535 170.285, 873.535 170.285, 865.083 180.285, 865.083 184.085, 865.083 194.085, 865.083 204.085, 865.083 214.085, 865.083 224.085, 865.083 234.085, 865.083 244.085, 865.083 254.085, 865.083 264.085, 865.083 274.085, 865.083 284.085, 865.083 294.085, 865.083 304.085, 865.083 314.085, 865.083 324.085, 865.083 334.085, 865.083 344.085, 865.083 354.085, 865.083 364.085, 865.083 374.085, 865.083 384.085, 865.083 394.085, 865.083 399.499, 865.083 " />
        </g>
    </g>
</svg>
