<?xml version='1.0' encoding='ascii'?>
<svg xmlns="http://www.w3.org/2000/svg" version="1.1" width="1920" height="1080">
    <g id="ViewLayer_LineSet" xmlns:inkscape="http://www.inkscape.org/namespaces/inkscape" inkscape:groupmode="lineset" inkscape:label="ViewLayer_LineSet">
        <g xmlns:inkscape="http://www.inkscape.org/namespaces/inkscape" inkscape:groupmode="layer" id="strokes" inkscape:label="strokes">
            <path fill="black" stroke-width="3.0" stroke-linecap="butt" stroke-opacity="1.0" stroke="rgb(0, 0, 0)" stroke-linejoin="round" d=" M 676.962, 302.958 685.294, 308.489 693.625, 314.020 694.472, 314.582 702.803, 320.113 711.135, 325.644 719.466, 331.175 727.797, 336.706 736.128, 342.236 742.698, 346.598 751.029, 352.129 758.982, 357.408 764.513, 349.077 770.044, 340.746 770.619, 339.880 762.287, 334.349 754.423, 329.128 746.091, 323.597 737.760, 318.066 729.429, 312.536 721.098, 307.005 712.766, 301.474 704.435, 295.943 703.551, 295.356 695.220, 289.825 688.668, 285.476 688.599, 285.430 683.068, 293.761 679.438, 299.230 676.962, 302.958 " />
            <path fill="black" stroke-width="3.0" stroke-linecap="butt" stroke-opacity="1.0" stroke="rgb(0, 0, 0)" stroke-linejoin="round" d=" M 505.936, 595.502 511.509, 587.199 515.911, 580.639 521.484, 572.336 527.057, 564.033 532.629, 555.729 538.202, 547.426 543.775, 539.123 549.347, 530.819 554.920, 522.516 560.493, 514.213 566.065, 505.909 571.638, 497.606 577.211, 489.303 582.784, 480.999 588.356, 472.696 593.929, 464.393 599.502, 456.089 605.074, 447.786 610.647, 439.483 616.220, 431.179 621.792, 422.876 627.365, 414.573 632.938, 406.269 638.510, 397.966 644.083, 389.663 649.656, 381.359 655.228, 373.056 660.801, 364.753 666.374, 356.449 671.946, 348.146 677.519, 339.843 683.092, 331.539 688.664, 323.236 694.472, 314.582 700.045, 306.279 705.617, 297.976 706.188, 297.126 703.551, 295.356 695.248, 289.783 688.718, 285.401 688.668, 285.476 683.096, 293.779 679.438, 299.230 673.865, 307.533 668.292, 315.837 662.719, 324.140 657.147, 332.443 651.574, 340.747 646.001, 349.050 640.429, 357.353 634.856, 365.656 629.283, 373.960 623.711, 382.263 618.138, 390.567 612.565, 398.870 606.993, 407.173 601.420, 415.477 595.847, 423.780 590.275, 432.083 584.702, 440.386 579.129, 448.690 573.557, 456.993 567.984, 465.297 562.411, 473.600 556.839, 481.903 551.266, 490.206 545.693, 498.510 540.121, 506.813 534.548, 515.117 528.975, 523.420 523.403, 531.723 517.830, 540.026 512.257, 548.330 506.685, 556.633 501.112, 564.936 495.539, 573.240 488.467, 583.778 489.898, 584.738 498.201, 590.311 505.936, 595.502 " />
            <path fill="black" stroke-width="3.0" stroke-linecap="butt" stroke-opacity="1.0" stroke="rgb(0, 0, 0)" stroke-linejoin="round" d=" M 570.263, 641.281 575.836, 632.978 581.409, 624.675 581.666, 624.291 587.239, 615.988 592.811, 607.685 598.384, 599.381 603.957, 591.078 604.577, 590.154 610.149, 581.851 615.722, 573.547 615.851, 573.356 621.423, 565.052 626.996, 556.749 632.569, 548.446 638.141, 540.142 643.714, 531.839 649.287, 523.536 654.859, 515.232 660.432, 506.929 666.005, 498.626 671.577, 490.322 677.150, 482.019 682.723, 473.716 688.295, 465.412 693.868, 457.109 699.441, 448.806 705.013, 440.502 710.586, 432.199 716.159, 423.896 721.731, 415.592 727.304, 407.289 732.877, 398.986 734.218, 396.987 739.791, 388.684 745.364, 380.380 745.776, 379.766 751.349, 371.462 756.921, 363.159 762.494, 354.856 768.067, 346.552 772.049, 340.619 763.746, 335.046 755.443, 329.473 754.580, 328.894 754.423, 329.128 748.850, 337.431 743.277, 345.735 742.698, 346.598 737.125, 354.901 731.553, 363.204 725.980, 371.508 720.407, 379.811 714.835, 388.114 709.262, 396.418 703.689, 404.721 698.117, 413.024 692.544, 421.328 686.971, 429.631 681.399, 437.934 675.826, 446.238 670.253, 454.541 664.681, 462.844 659.108, 471.148 653.535, 479.451 647.963, 487.754 642.390, 496.058 636.817, 504.361 631.245, 512.664 625.672, 520.968 620.099, 529.271 614.527, 537.574 608.954, 545.878 603.381, 554.181 597.809, 562.484 592.236, 570.788 586.663, 579.091 581.091, 587.394 575.518, 595.698 569.945, 604.001 564.137, 612.655 558.565, 620.958 552.992, 629.261 552.794, 629.557 561.097, 635.130 569.400, 640.702 570.263, 641.281 " />
            <path fill="black" stroke-width="3.0" stroke-linecap="butt" stroke-opacity="1.0" stroke="rgb(0, 0, 0)" stroke-linejoin="round" d=" M 488.108, 587.435 496.439, 592.965 504.770, 598.496 513.102, 604.027 521.433, 609.558 529.764, 615.089 538.095, 620.620 546.427, 626.151 554.758, 631.681 563.089, 637.212 570.128, 641.885 575.658, 633.553 581.189, 625.222 581.764, 624.357 581.666, 624.291 573.335, 618.761 565.003, 613.230 564.137, 612.655 555.806, 607.124 547.475, 601.593 539.144, 596.062 530.812, 590.531 522.481, 585.001 515.911, 580.639 507.580, 575.108 499.744, 569.906 494.213, 578.238 489.898, 584.738 488.108, 587.435 " />
            <path fill="black" stroke-width="3.0" stroke-linecap="butt" stroke-opacity="1.0" stroke="rgb(0, 0, 0)" stroke-linejoin="round" d=" M 600.275, 587.312 604.577, 590.154 612.921, 595.666 621.264, 601.178 629.608, 606.690 637.952, 612.202 646.296, 617.714 654.639, 623.225 662.983, 628.737 671.327, 634.249 679.671, 639.761 688.014, 645.273 696.358, 650.785 704.702, 656.297 706.577, 657.536 711.423, 660.737 716.956, 652.407 722.489, 644.077 722.616, 643.886 719.860, 642.065 711.516, 636.553 703.173, 631.041 694.829, 625.529 686.485, 620.017 678.141, 614.505 669.797, 608.993 661.454, 603.481 653.110, 597.969 644.766, 592.458 636.422, 586.946 628.079, 581.434 619.735, 575.922 615.851, 573.356 611.468, 570.461 605.935, 578.790 600.402, 587.120 600.275, 587.312 " />
            <path fill="black" stroke-width="3.0" stroke-linecap="butt" stroke-opacity="1.0" stroke="rgb(0, 0, 0)" stroke-linejoin="round" d=" M 728.642, 393.023 734.218, 396.987 742.369, 402.781 750.519, 408.575 758.669, 414.369 766.820, 420.163 774.970, 425.957 779.040, 428.850 787.760, 432.622 796.151, 431.441 805.238, 427.267 814.326, 423.094 823.413, 418.921 832.501, 414.747 841.589, 410.574 850.676, 406.401 859.764, 402.227 868.851, 398.054 877.939, 393.881 887.026, 389.707 896.114, 385.534 902.262, 382.711 911.265, 378.358 918.662, 374.781 928.364, 372.355 935.964, 370.455 945.906, 369.383 951.803, 368.747 961.773, 369.517 965.748, 369.824 975.443, 372.276 979.760, 373.368 988.967, 377.271 998.173, 381.175 1001.677, 382.660 1010.635, 387.102 1019.594, 391.545 1028.553, 395.988 1037.512, 400.430 1046.471, 404.873 1049.848, 406.547 1057.422, 413.077 1064.995, 419.607 1067.039, 421.370 1073.268, 429.193 1077.005, 433.888 1081.466, 442.837 1085.928, 451.787 1090.389, 460.737 1094.850, 469.686 1099.312, 478.636 1103.773, 487.586 1108.234, 496.535 1112.696, 505.485 1116.326, 512.767 1119.119, 519.933 1119.432, 526.225 1118.540, 533.275 1115.531, 541.526 1111.769, 547.682 1105.381, 553.776 1100.869, 556.200 1095.664, 558.124 1086.875, 559.153 1081.316, 558.571 1076.131, 557.272 1071.356, 555.135 1066.337, 552.200 1062.762, 547.955 1057.477, 539.465 1052.192, 530.976 1046.907, 522.487 1041.622, 513.997 1036.875, 506.372 1031.442, 500.836 1022.583, 496.196 1013.725, 491.557 1004.867, 486.917 996.008, 482.277 987.150, 477.637 981.590, 474.725 972.953, 473.195 962.956, 473.448 959.708, 473.530 950.728, 477.930 941.747, 482.330 932.767, 486.729 923.787, 491.129 914.807, 495.528 905.827, 499.928 896.846, 504.328 887.866, 508.727 878.886, 513.127 869.906, 517.526 860.926, 521.926 851.946, 526.326 842.966, 530.725 833.985, 535.125 825.005, 539.524 816.025, 543.924 807.045, 548.324 797.557, 552.972 794.729, 554.866 788.215, 562.453 781.701, 570.040 775.186, 577.627 768.672, 585.214 762.158, 592.801 755.644, 600.388 749.129, 607.975 742.615, 615.562 736.101, 623.150 729.587, 630.737 723.072, 638.324 719.860, 642.065 713.346, 649.652 706.832, 657.239 706.577, 657.536 700.063, 665.123 698.217, 667.273 693.996, 676.339 692.446, 679.669 690.178, 689.408 689.410, 692.701 690.135, 702.675 690.277, 704.620 692.175, 714.439 692.325, 715.214 696.945, 724.185 702.258, 731.995 709.479, 738.912 710.133, 739.539 717.457, 744.837 725.496, 748.649 733.642, 751.220 742.172, 752.384 749.858, 752.261 758.900, 749.434 764.172, 747.304 766.802, 746.241 769.861, 744.103 776.887, 739.194 780.886, 734.823 787.637, 727.446 787.876, 727.184 794.627, 719.807 801.378, 712.429 808.128, 705.052 814.879, 697.674 821.630, 690.297 828.381, 682.919 835.131, 675.542 841.882, 668.164 848.633, 660.787 855.384, 653.409 861.943, 646.241 864.841, 641.327 865.409, 638.345 865.362, 635.746 864.273, 632.980 862.267, 630.657 859.570, 629.278 855.618, 629.108 850.715, 630.948 844.036, 638.390 837.356, 645.832 830.677, 653.275 823.997, 660.717 817.318, 668.159 810.639, 675.601 803.959, 683.043 797.280, 690.485 790.600, 697.927 783.921, 705.369 777.241, 712.811 770.562, 720.254 765.749, 725.616 759.453, 730.009 754.099, 732.339 748.711, 733.248 743.691, 733.416 738.736, 732.597 733.169, 731.172 727.266, 729.233 721.137, 724.814 715.039, 718.645 711.871, 713.002 708.757, 706.505 707.847, 701.403 707.478, 696.235 709.525, 686.447 709.674, 685.734 713.620, 677.202 720.094, 669.580 726.567, 661.958 733.041, 654.337 739.514, 646.715 745.988, 639.093 752.461, 631.471 758.935, 623.849 765.409, 616.227 771.882, 608.605 778.356, 600.983 784.829, 593.362 791.303, 585.740 797.776, 578.118 804.250, 570.496 806.320, 568.059 807.498, 567.449 816.495, 563.084 825.492, 558.720 834.489, 554.355 843.487, 549.990 852.484, 545.626 861.481, 541.261 870.478, 536.896 879.476, 532.532 888.473, 528.167 897.470, 523.802 906.467, 519.438 915.464, 515.073 924.462, 510.708 933.459, 506.344 942.456, 501.979 951.453, 497.614 960.450, 493.250 965.093, 490.998 972.573, 491.483 976.852, 492.055 985.659, 496.792 994.466, 501.528 1003.273, 506.264 1012.081, 511.001 1021.016, 515.806 1024.294, 519.582 1029.472, 528.137 1034.650, 536.692 1039.828, 545.246 1045.006, 553.801 1047.668, 558.199 1053.405, 565.067 1060.701, 569.942 1066.740, 572.911 1075.372, 575.818 1085.260, 577.312 1085.432, 577.338 1095.385, 576.364 1099.471, 575.964 1107.783, 573.082 1115.586, 568.897 1122.866, 562.042 1126.019, 559.072 1131.233, 550.539 1132.169, 549.008 1135.504, 539.580 1136.369, 537.134 1137.312, 527.179 1137.579, 524.360 1136.691, 515.032 1133.059, 505.715 1132.576, 504.476 1128.090, 495.539 1123.605, 486.601 1119.120, 477.663 1114.635, 468.725 1110.150, 459.788 1105.664, 450.850 1101.179, 441.912 1096.694, 432.975 1092.209, 424.037 1091.787, 423.197 1085.784, 415.200 1081.027, 408.862 1073.311, 402.502 1065.594, 396.142 1059.651, 391.244 1050.746, 386.693 1041.842, 382.142 1039.903, 381.151 1030.999, 376.600 1022.095, 372.049 1019.454, 370.699 1010.550, 366.148 1009.421, 365.570 1000.236, 361.615 991.052, 357.660 985.380, 355.218 975.686, 352.764 969.475, 351.192 959.508, 350.381 951.701, 349.746 941.754, 350.771 933.298, 351.642 923.596, 354.068 915.997, 355.968 906.994, 360.321 899.596, 363.898 890.502, 368.056 881.407, 372.214 872.313, 376.372 863.218, 380.531 854.124, 384.689 845.029, 388.847 835.935, 393.005 826.841, 397.164 817.746, 401.322 808.652, 405.480 799.557, 409.638 797.329, 410.657 794.656, 411.833 790.996, 412.176 790.941, 412.181 791.121, 412.001 782.971, 406.207 774.820, 400.413 766.670, 394.619 758.520, 388.825 750.369, 383.031 745.776, 379.766 740.723, 376.174 734.896, 384.300 729.069, 392.427 728.642, 393.023 " />
            <path fill="black" stroke-width="3.0" stroke-linecap="butt" stroke-opacity="1.0" stroke="rgb(0, 0, 0)" stroke-linejoin="round" d=" M 790.941, 412.181 785.130, 420.319 779.319, 428.458 779.040, 428.850 784.867, 420.723 790.694, 412.596 790.996, 412.176 791.121, 412.001 " />
            <path fill="black" stroke-width="3.0" stroke-linecap="butt" stroke-opacity="1.0" stroke="rgb(0, 0, 0)" stroke-linejoin="round" d=" M 788.063, 727.429 787.876, 727.184 781.803, 719.240 779.508, 716.238 772.722, 723.583 768.145, 728.537 766.889, 729.895 764.621, 739.635 764.346, 740.816 763.854, 742.928 764.172, 747.304 764.720, 754.847 766.618, 764.666 766.768, 765.441 771.388, 774.412 776.701, 782.222 783.922, 789.139 784.576, 789.766 791.901, 795.064 799.939, 798.876 808.086, 801.447 816.615, 802.611 824.301, 802.488 833.343, 799.660 841.219, 796.674 844.194, 795.013 849.988, 791.779 852.517, 790.367 859.309, 783.027 859.970, 782.313 866.762, 774.973 873.554, 767.634 880.346, 760.294 887.138, 752.955 893.930, 745.615 895.783, 743.612 902.575, 736.272 909.367, 728.933 916.159, 721.593 922.952, 714.254 929.744, 706.914 936.536, 699.575 942.582, 693.041 944.872, 688.670 945.439, 685.689 945.392, 683.089 944.303, 680.324 942.297, 678.001 939.601, 676.621 935.649, 676.452 930.889, 678.372 924.138, 685.750 917.388, 693.128 910.637, 700.505 903.886, 707.883 897.136, 715.260 890.385, 722.638 883.634, 730.016 876.884, 737.393 870.133, 744.771 863.383, 752.148 856.632, 759.526 849.881, 766.904 843.131, 774.281 841.030, 776.577 833.896, 780.236 828.542, 782.566 823.154, 783.475 818.134, 783.643 813.179, 782.824 807.612, 781.399 801.709, 779.459 795.580, 775.041 789.483, 768.872 786.314, 763.229 783.201, 756.732 782.290, 751.630 781.921, 746.462 783.968, 736.674 784.117, 735.961 788.063, 727.429 " />
            <path fill="black" stroke-width="3.0" stroke-linecap="butt" stroke-opacity="1.0" stroke="rgb(0, 0, 0)" stroke-linejoin="round" d=" M 898.931, 739.575 890.362, 744.729 881.792, 749.883 873.223, 755.037 864.653, 760.191 859.545, 763.264 852.792, 770.639 846.908, 777.064 845.719, 782.205 843.848, 790.294 844.194, 795.013 844.719, 802.173 846.620, 811.991 846.768, 812.758 851.056, 821.792 851.313, 822.334 856.587, 830.449 863.808, 837.366 864.462, 837.993 871.787, 843.291 879.860, 846.828 888.070, 848.885 896.648, 849.670 904.338, 849.513 913.379, 846.686 921.282, 843.493 923.262, 842.053 931.330, 836.187 933.406, 834.677 940.104, 827.252 940.585, 826.719 947.283, 819.294 953.895, 811.964 960.593, 804.538 967.291, 797.113 973.989, 789.687 980.687, 782.262 987.385, 774.837 994.083, 767.411 1000.781, 759.986 1007.479, 752.560 1014.177, 745.135 1020.875, 737.710 1022.120, 736.330 1023.662, 733.827 1024.230, 730.845 1024.183, 728.246 1023.094, 725.480 1021.088, 723.157 1018.391, 721.778 1014.439, 721.609 1009.680, 723.529 1003.050, 731.016 996.420, 738.502 989.790, 745.988 983.161, 753.475 976.531, 760.961 969.901, 768.448 963.271, 775.934 956.642, 783.421 950.012, 790.907 943.382, 798.393 941.615, 800.389 937.455, 805.087 930.825, 812.573 924.195, 820.060 921.068, 823.591 913.932, 827.261 908.578, 829.591 903.191, 830.501 898.170, 830.669 893.207, 829.918 887.621, 828.646 881.702, 826.836 875.572, 822.421 869.476, 816.246 866.298, 810.674 863.131, 804.604 862.189, 799.754 862.024, 794.689 864.084, 784.904 864.266, 784.039 870.414, 776.152 876.563, 768.266 882.711, 760.379 888.860, 752.493 895.008, 744.606 895.783, 743.612 898.931, 739.575 " />
            <path fill="black" stroke-width="3.0" stroke-linecap="butt" stroke-opacity="1.0" stroke="rgb(0, 0, 0)" stroke-linejoin="round" d=" M 923.386, 834.020 923.262, 842.053 923.191, 846.641 925.601, 856.346 925.653, 856.560 929.677, 865.714 929.918, 866.263 934.955, 874.527 941.973, 881.652 942.609, 882.297 949.776, 887.805 957.743, 891.575 965.891, 893.869 974.441, 894.903 982.133, 894.969 991.253, 892.405 999.244, 889.443 1007.866, 884.376 1011.800, 882.064 1019.529, 875.719 1021.271, 874.289 1029.473, 868.568 1037.675, 862.847 1045.876, 857.126 1054.078, 851.405 1062.280, 845.684 1070.482, 839.963 1078.684, 834.242 1086.885, 828.521 1094.312, 823.341 1096.522, 821.799 1090.011, 814.209 1084.934, 808.292 1083.630, 809.193 1075.403, 814.877 1067.175, 820.561 1058.947, 826.244 1050.720, 831.928 1042.492, 837.612 1034.265, 843.296 1026.037, 848.980 1017.809, 854.664 1010.322, 859.836 1002.597, 866.186 999.608, 868.642 992.369, 873.005 986.950, 875.178 981.538, 875.931 976.515, 875.954 971.575, 875.059 966.028, 873.626 960.164, 871.645 954.165, 867.054 948.250, 860.705 945.236, 855.043 942.246, 848.884 941.445, 844.008 941.427, 838.941 942.274, 828.977 942.363, 827.936 948.216, 819.829 953.895, 811.964 955.423, 809.847 947.173, 804.196 941.615, 800.389 941.529, 800.331 937.455, 805.087 930.950, 812.682 926.935, 817.370 924.879, 827.015 923.386, 834.020 " />
            <path fill="black" stroke-width="3.0" stroke-linecap="butt" stroke-opacity="1.0" stroke="rgb(0, 0, 0)" stroke-linejoin="round" d=" M 1177.022, 785.105 1168.387, 790.149 1167.965, 790.396 1161.463, 794.194 1161.972, 795.117 1162.211, 795.552 1165.250, 801.067 1165.985, 806.802 1165.544, 813.520 1163.110, 819.637 1160.233, 824.206 1154.365, 829.359 1149.829, 831.767 1144.643, 834.131 1137.142, 835.884 1132.793, 835.210 1128.330, 833.951 1124.253, 831.129 1119.762, 827.307 1116.128, 822.699 1110.102, 814.718 1104.077, 806.737 1098.052, 798.756 1092.026, 790.775 1086.001, 782.795 1079.976, 774.814 1075.037, 768.272 1073.932, 764.585 1073.153, 760.711 1074.006, 752.586 1075.646, 747.697 1078.911, 743.352 1086.374, 737.251 1093.814, 732.978 1100.955, 731.595 1110.528, 734.486 1114.932, 735.816 1121.635, 743.237 1125.149, 747.128 1131.852, 754.549 1132.372, 755.124 1127.525, 746.377 1122.678, 737.631 1117.831, 728.884 1115.613, 724.882 1107.593, 718.910 1100.976, 713.982 1099.775, 714.085 1095.720, 714.433 1086.024, 716.883 1085.740, 716.954 1077.205, 722.165 1074.437, 723.855 1066.937, 730.470 1064.597, 732.533 1059.573, 739.722 1056.527, 748.530 1055.414, 758.468 1055.217, 760.230 1056.906, 770.087 1056.962, 770.413 1059.461, 777.179 1065.487, 785.160 1071.512, 793.141 1077.537, 801.122 1083.630, 809.193 1089.656, 817.174 1094.312, 823.341 1100.337, 831.322 1100.552, 831.607 1105.691, 838.516 1111.695, 844.874 1117.376, 848.480 1126.352, 851.855 1136.189, 853.653 1136.534, 853.716 1146.459, 852.494 1148.432, 852.252 1157.285, 849.369 1164.547, 844.464 1171.837, 837.619 1175.012, 834.638 1180.175, 826.074 1180.615, 825.344 1183.329, 816.692 1183.563, 808.316 1183.687, 803.881 1181.936, 795.308 1181.900, 795.135 1179.156, 789.493 1177.022, 785.105 " />
            <path fill="black" stroke-width="3.0" stroke-linecap="butt" stroke-opacity="1.0" stroke="rgb(0, 0, 0)" stroke-linejoin="round" d=" M 1236.894, 740.260 1227.989, 744.811 1226.161, 745.745 1221.809, 747.969 1222.203, 749.194 1222.682, 750.680 1224.215, 755.439 1224.992, 762.389 1223.470, 768.675 1221.036, 774.791 1218.158, 779.361 1212.290, 784.513 1207.755, 786.921 1202.568, 789.285 1195.068, 791.038 1190.286, 791.230 1185.823, 789.538 1180.881, 787.581 1176.390, 783.760 1172.755, 779.151 1166.665, 771.220 1160.574, 763.289 1154.484, 755.358 1148.393, 747.426 1142.303, 739.495 1136.212, 731.564 1130.121, 723.633 1124.031, 715.701 1117.940, 707.770 1111.850, 699.839 1105.759, 691.907 1102.684, 687.903 1100.343, 680.680 1100.537, 673.386 1103.201, 664.509 1109.053, 658.421 1117.236, 652.674 1119.811, 650.866 1127.327, 647.967 1129.573, 647.602 1129.771, 647.570 1128.366, 637.669 1127.292, 630.094 1126.851, 630.153 1119.959, 631.079 1110.786, 635.059 1109.413, 635.654 1101.337, 641.552 1095.879, 645.539 1089.094, 652.884 1087.405, 654.711 1084.191, 664.181 1082.595, 668.879 1082.306, 678.875 1082.166, 683.697 1085.371, 693.170 1086.676, 697.028 1092.767, 704.959 1098.858, 712.890 1099.775, 714.085 1105.866, 722.016 1107.331, 723.925 1113.422, 731.856 1119.512, 739.787 1125.149, 747.128 1131.240, 755.059 1137.330, 762.990 1143.421, 770.921 1149.511, 778.853 1155.602, 786.784 1156.747, 788.276 1161.886, 795.184 1162.211, 795.552 1166.647, 800.569 1167.890, 801.975 1174.221, 805.443 1174.869, 805.798 1183.563, 808.316 1184.277, 808.523 1194.271, 808.864 1194.460, 808.871 1204.385, 807.649 1206.357, 807.406 1215.210, 804.523 1222.472, 799.618 1229.762, 792.773 1232.937, 789.792 1238.100, 781.228 1238.540, 780.498 1241.470, 771.847 1242.369, 763.984 1242.565, 762.265 1242.910, 759.252 1241.772, 750.289 1240.772, 748.234 1238.570, 743.707 1236.894, 740.260 " />
            <path fill="black" stroke-width="3.0" stroke-linecap="butt" stroke-opacity="1.0" stroke="rgb(0, 0, 0)" stroke-linejoin="round" d=" M 1275.661, 705.964 1279.446, 712.758 1281.082, 719.558 1280.355, 725.985 1278.779, 730.240 1275.902, 734.810 1270.034, 739.962 1265.498, 742.370 1260.312, 744.734 1252.811, 746.487 1247.813, 745.814 1243.351, 744.121 1240.355, 741.732 1235.647, 737.478 1231.870, 732.403 1225.750, 724.495 1219.629, 716.587 1213.509, 708.679 1207.388, 700.771 1201.267, 692.863 1195.147, 684.954 1193.353, 682.637 1190.962, 679.547 1186.410, 673.665 1180.439, 665.951 1174.319, 658.043 1173.385, 656.838 1167.265, 648.930 1161.734, 641.783 1153.890, 635.580 1153.372, 635.170 1144.066, 631.510 1143.472, 631.277 1133.725, 630.112 1126.827, 630.002 1126.851, 630.153 1128.392, 640.034 1129.573, 647.602 1129.577, 647.625 1133.493, 647.947 1138.884, 648.513 1144.555, 650.675 1149.170, 654.444 1155.281, 662.360 1161.391, 670.276 1167.501, 678.192 1173.612, 686.108 1178.119, 691.947 1181.346, 696.128 1187.457, 704.044 1193.567, 711.960 1199.678, 719.876 1205.788, 727.792 1211.898, 735.708 1217.445, 742.893 1221.793, 749.552 1222.682, 750.680 1226.018, 754.910 1227.147, 756.342 1232.434, 761.086 1232.613, 761.246 1242.021, 763.972 1242.369, 763.984 1252.203, 764.319 1262.128, 763.098 1264.101, 762.855 1272.954, 759.972 1280.216, 755.067 1287.506, 748.222 1290.681, 745.241 1295.844, 736.677 1296.284, 735.947 1298.611, 726.889 1298.529, 719.558 1298.470, 714.212 1296.714, 707.370 1296.224, 705.462 1293.877, 701.431 1290.911, 696.335 1290.600, 695.801 1288.023, 692.501 1281.870, 684.618 1275.716, 676.736 1273.535, 673.942 1268.280, 667.211 1263.330, 660.869 1257.176, 652.987 1256.222, 651.765 1252.846, 647.440 1250.104, 643.927 1249.173, 642.735 1240.905, 648.360 1234.235, 652.898 1235.089, 653.992 1241.242, 661.875 1247.396, 669.757 1253.549, 677.640 1259.703, 685.522 1265.857, 693.405 1272.010, 701.287 1275.661, 705.964 " />
            <path fill="black" stroke-width="3.0" stroke-linecap="butt" stroke-opacity="1.0" stroke="rgb(0, 0, 0)" stroke-linejoin="round" d=" M 1339.660, 660.814 1341.239, 667.144 1341.890, 674.094 1340.243, 680.130 1337.308, 686.622 1333.429, 690.566 1327.561, 695.843 1323.026, 698.251 1317.839, 700.615 1310.339, 702.368 1305.306, 702.184 1301.094, 700.868 1296.152, 698.911 1291.410, 695.966 1288.023, 692.501 1287.150, 691.608 1278.309, 696.281 1272.018, 699.605 1276.383, 705.473 1277.157, 706.514 1281.780, 711.743 1283.161, 713.305 1289.725, 716.901 1290.140, 717.128 1298.529, 719.558 1299.548, 719.853 1309.514, 720.683 1309.731, 720.701 1319.597, 719.072 1321.628, 718.736 1330.481, 715.853 1337.743, 710.948 1344.990, 704.057 1348.208, 700.997 1354.269, 693.043 1354.813, 692.329 1358.243, 683.302 1359.501, 673.381 1359.808, 670.957 1358.795, 661.995 1355.090, 652.707 1354.340, 650.826 1352.412, 648.228 1346.452, 640.199 1340.492, 632.169 1340.340, 631.964 1335.281, 625.147 1333.983, 623.400 1333.439, 622.666 1333.355, 622.724 1325.099, 628.366 1319.010, 632.528 1321.172, 635.490 1327.068, 643.566 1332.965, 651.643 1338.861, 659.719 1339.660, 660.814 " />
            <path fill="black" stroke-width="3.0" stroke-linecap="butt" stroke-opacity="1.0" stroke="rgb(0, 0, 0)" stroke-linejoin="round" d=" M 1259.830, 683.211 1268.113, 677.609 1273.535, 673.942 1273.863, 673.721 1270.564, 666.225 1269.322, 659.046 1270.192, 652.496 1271.988, 646.128 1274.913, 641.618 1279.985, 636.540 1284.568, 632.846 1289.428, 629.868 1296.659, 627.214 1301.382, 626.441 1306.017, 627.577 1311.787, 628.666 1316.711, 631.912 1321.172, 635.490 1322.073, 636.212 1329.738, 629.790 1335.281, 625.147 1335.464, 624.993 1333.983, 623.400 1333.355, 622.724 1329.714, 618.806 1322.928, 612.797 1314.909, 610.103 1305.239, 608.545 1295.277, 609.424 1295.090, 609.440 1285.388, 611.862 1283.459, 612.344 1275.023, 616.283 1268.038, 622.788 1261.423, 630.287 1258.973, 633.065 1254.288, 641.899 1253.918, 642.596 1252.846, 647.440 1251.939, 651.541 1251.924, 661.541 1251.920, 664.342 1253.766, 673.475 1259.053, 681.963 1259.830, 683.211 " />
            <path fill="black" stroke-width="3.0" stroke-linecap="butt" stroke-opacity="1.0" stroke="rgb(0, 0, 0)" stroke-linejoin="round" d=" M 1181.119, 696.288 1181.346, 696.128 1189.526, 690.376 1195.511, 686.167 1193.353, 682.637 1191.353, 679.365 1189.533, 672.612 1190.086, 666.168 1191.566, 659.754 1193.412, 656.245 1196.015, 652.917 1200.223, 649.975 1205.083, 646.996 1212.315, 644.342 1216.872, 643.698 1221.229, 644.630 1226.301, 646.223 1231.057, 649.709 1235.015, 654.042 1235.089, 653.992 1243.395, 648.424 1250.104, 643.927 1250.320, 643.782 1244.694, 637.263 1238.214, 630.926 1230.977, 627.619 1221.144, 625.799 1218.800, 625.366 1208.844, 626.293 1208.669, 626.309 1199.115, 629.472 1190.679, 633.412 1184.069, 639.165 1177.231, 646.278 1173.798, 655.670 1173.399, 656.762 1173.385, 656.838 1171.812, 665.758 1172.194, 675.751 1172.297, 678.426 1174.778, 687.112 1178.119, 691.947 1181.119, 696.288 " />
            <path fill="black" stroke-width="3.0" stroke-linecap="butt" stroke-opacity="1.0" stroke="rgb(0, 0, 0)" stroke-linejoin="round" d=" M 1417.744, 580.229 1414.619, 582.318 1406.305, 587.874 1397.991, 593.431 1389.677, 598.988 1381.363, 604.545 1373.049, 610.102 1364.735, 615.659 1356.421, 621.216 1348.107, 626.773 1340.340, 631.964 1337.431, 633.909 1342.959, 642.242 1348.487, 650.575 1348.614, 650.767 1352.412, 648.228 1360.726, 642.672 1369.040, 637.115 1377.354, 631.558 1385.667, 626.001 1393.981, 620.444 1402.295, 614.887 1410.609, 609.330 1418.923, 603.773 1425.908, 599.104 1428.927, 597.087 1423.399, 588.754 1417.871, 580.421 1417.744, 580.229 " />
            <path fill="black" stroke-width="3.0" stroke-linecap="butt" stroke-opacity="1.0" stroke="rgb(0, 0, 0)" stroke-linejoin="round" d=" M 1281.068, 381.177 1279.832, 381.904 1271.213, 386.975 1262.594, 392.046 1253.975, 397.116 1245.356, 402.187 1236.737, 407.258 1229.649, 411.428 1229.508, 411.599 1229.362, 410.734 1220.670, 405.790 1211.977, 400.846 1203.285, 395.903 1194.592, 390.959 1185.900, 386.016 1177.207, 381.072 1168.514, 376.128 1159.822, 371.185 1151.129, 366.241 1142.437, 361.297 1133.744, 356.354 1125.052, 351.410 1121.601, 349.448 1111.944, 346.853 1111.788, 346.811 1102.501, 345.104 1092.510, 344.677 1091.332, 344.627 1081.352, 345.257 1073.789, 345.735 1066.709, 347.328 1057.746, 351.761 1048.782, 356.194 1039.818, 360.627 1030.855, 365.061 1021.891, 369.494 1019.454, 370.699 1018.957, 370.945 1022.689, 380.222 1025.857, 388.098 1034.821, 383.665 1039.903, 381.151 1048.867, 376.718 1057.831, 372.285 1066.795, 367.852 1073.609, 364.481 1078.987, 363.479 1088.982, 363.161 1093.105, 363.030 1102.699, 363.591 1108.463, 364.998 1113.781, 365.597 1122.445, 370.591 1131.109, 375.585 1139.773, 380.579 1148.437, 385.573 1157.100, 390.567 1165.764, 395.560 1174.428, 400.554 1183.092, 405.548 1191.756, 410.542 1200.419, 415.536 1209.083, 420.529 1217.747, 425.523 1223.602, 428.898 1231.580, 429.971 1238.705, 427.547 1247.324, 422.476 1255.943, 417.406 1264.562, 412.335 1273.181, 407.264 1281.800, 402.193 1290.124, 397.296 1289.824, 396.761 1284.926, 388.042 1281.068, 381.177 " />
            <path fill="black" stroke-width="3.0" stroke-linecap="butt" stroke-opacity="1.0" stroke="rgb(0, 0, 0)" stroke-linejoin="round" d=" M 1264.065, 358.420 1272.335, 352.797 1280.604, 347.175 1281.445, 346.603 1289.715, 340.981 1297.985, 335.358 1306.255, 329.736 1314.524, 324.114 1322.794, 318.491 1329.315, 314.058 1337.585, 308.435 1345.479, 303.068 1339.857, 294.799 1334.234, 286.529 1333.650, 285.669 1325.380, 291.292 1317.574, 296.599 1309.304, 302.222 1301.034, 307.844 1292.765, 313.466 1284.495, 319.089 1276.225, 324.711 1267.955, 330.334 1267.083, 330.926 1258.814, 336.549 1252.305, 340.974 1252.236, 341.021 1257.858, 349.291 1261.551, 354.722 1264.065, 358.420 " />
            <path fill="black" stroke-width="3.0" stroke-linecap="butt" stroke-opacity="1.0" stroke="rgb(0, 0, 0)" stroke-linejoin="round" d=" M 1470.253, 627.341 1464.672, 619.043 1460.264, 612.487 1454.683, 604.189 1449.102, 595.891 1443.521, 587.593 1437.941, 579.295 1432.360, 570.997 1426.779, 562.700 1421.199, 554.402 1415.618, 546.104 1410.037, 537.806 1404.457, 529.508 1398.876, 521.210 1393.295, 512.912 1387.714, 504.614 1382.134, 496.316 1376.553, 488.018 1370.972, 479.720 1365.392, 471.422 1359.811, 463.124 1354.230, 454.826 1348.649, 446.529 1343.069, 438.231 1337.488, 429.933 1331.907, 421.635 1326.327, 413.337 1320.746, 405.039 1315.165, 396.741 1309.584, 388.443 1304.004, 380.145 1298.423, 371.847 1292.842, 363.549 1287.262, 355.251 1281.445, 346.603 1275.865, 338.305 1270.284, 330.007 1269.713, 329.158 1267.083, 330.926 1258.785, 336.507 1252.255, 340.899 1252.305, 340.974 1257.886, 349.272 1261.551, 354.722 1267.132, 363.020 1272.712, 371.318 1278.293, 379.616 1279.832, 381.904 1285.413, 390.202 1289.824, 396.761 1295.404, 405.058 1300.985, 413.356 1306.566, 421.654 1312.147, 429.952 1317.727, 438.250 1323.308, 446.548 1328.889, 454.846 1334.469, 463.144 1340.050, 471.442 1345.631, 479.740 1351.212, 488.038 1356.792, 496.336 1362.373, 504.634 1367.954, 512.932 1373.534, 521.230 1379.115, 529.527 1384.696, 537.825 1390.276, 546.123 1395.857, 554.421 1401.438, 562.719 1407.019, 571.017 1412.599, 579.315 1414.619, 582.318 1420.199, 590.616 1425.780, 598.913 1425.908, 599.104 1431.489, 607.402 1437.070, 615.700 1442.651, 623.998 1448.231, 632.296 1452.795, 639.082 1454.225, 638.120 1462.523, 632.539 1470.253, 627.341 " />
            <path fill="black" stroke-width="3.0" stroke-linecap="butt" stroke-opacity="1.0" stroke="rgb(0, 0, 0)" stroke-linejoin="round" d=" M 1536.952, 585.092 1531.371, 576.794 1525.790, 568.496 1525.533, 568.113 1519.952, 559.815 1514.371, 551.517 1508.791, 543.219 1503.210, 534.921 1497.629, 526.623 1492.048, 518.325 1486.468, 510.027 1480.887, 501.729 1475.306, 493.431 1469.726, 485.133 1464.145, 476.835 1458.564, 468.537 1452.983, 460.240 1447.403, 451.942 1441.822, 443.644 1436.241, 435.346 1430.661, 427.048 1425.080, 418.750 1419.499, 410.452 1413.918, 402.154 1408.338, 393.856 1402.757, 385.558 1397.176, 377.260 1391.596, 368.962 1386.015, 360.664 1380.434, 352.366 1374.854, 344.068 1369.273, 335.771 1363.692, 327.473 1358.111, 319.175 1352.531, 310.877 1346.950, 302.579 1341.369, 294.281 1334.875, 284.624 1326.577, 290.205 1318.279, 295.786 1317.417, 296.366 1317.574, 296.599 1323.155, 304.897 1328.735, 313.195 1329.315, 314.058 1334.896, 322.356 1340.477, 330.654 1346.057, 338.952 1351.638, 347.250 1357.219, 355.547 1362.800, 363.845 1368.380, 372.143 1373.961, 380.441 1379.542, 388.739 1385.122, 397.037 1390.703, 405.335 1396.284, 413.633 1401.865, 421.931 1407.445, 430.229 1413.026, 438.527 1418.607, 446.825 1424.187, 455.123 1429.768, 463.421 1435.349, 471.718 1440.930, 480.016 1446.510, 488.314 1452.091, 496.612 1457.672, 504.910 1463.252, 513.208 1468.833, 521.506 1474.414, 529.804 1479.995, 538.102 1485.575, 546.400 1491.156, 554.698 1496.737, 562.996 1502.317, 571.294 1508.134, 579.942 1513.714, 588.240 1519.295, 596.538 1519.494, 596.833 1527.792, 591.252 1536.089, 585.671 1536.952, 585.092 " />
            <path fill="black" stroke-width="3.0" stroke-linecap="butt" stroke-opacity="1.0" stroke="rgb(0, 0, 0)" stroke-linejoin="round" d=" M 1456.045, 640.796 1464.315, 635.174 1472.584, 629.552 1480.854, 623.929 1489.124, 618.307 1497.394, 612.685 1505.663, 607.062 1513.933, 601.440 1522.203, 595.817 1530.473, 590.195 1537.459, 585.445 1531.837, 577.175 1526.214, 568.906 1525.630, 568.046 1525.533, 568.113 1517.263, 573.735 1508.993, 579.357 1508.134, 579.942 1499.864, 585.564 1491.594, 591.186 1483.324, 596.809 1475.055, 602.431 1466.785, 608.054 1460.264, 612.487 1451.994, 618.110 1444.216, 623.398 1449.838, 631.667 1454.225, 638.120 1456.045, 640.796 " />
        </g>
    </g>
</svg>
