<?xml version='1.0' encoding='ascii'?>
<svg xmlns="http://www.w3.org/2000/svg" version="1.1" width="850" height="850">
    <g id="ViewLayer_LineSet" xmlns:inkscape="http://www.inkscape.org/namespaces/inkscape" inkscape:groupmode="lineset" inkscape:label="ViewLayer_LineSet">
        <g xmlns:inkscape="http://www.inkscape.org/namespaces/inkscape" inkscape:groupmode="layer" id="strokes" inkscape:label="strokes">
            <path fill="#313131" stroke-width="0.0" stroke-linecap="butt" stroke-opacity="1.0" stroke="rgb(0, 0, 0)" stroke-linejoin="round" d=" M 396.913, 365.073 392.687, 374.136 388.461, 383.200 384.235, 392.263 380.008, 401.326 375.782, 410.389 371.556, 419.452 367.330, 428.515 363.104, 437.578 358.878, 446.642 358.412, 447.643 354.186, 456.706 349.960, 465.769 345.733, 474.832 345.026, 476.350 337.942, 477.574 334.343, 478.195 330.503, 478.140 326.282, 476.564 322.441, 474.228 318.600, 471.512 315.900, 467.276 314.720, 459.999 319.263, 451.090 323.806, 442.182 328.349, 433.274 332.893, 424.365 337.436, 415.457 341.979, 406.549 346.522, 397.640 351.065, 388.732 355.609, 379.823 360.152, 370.915 364.695, 362.007 369.238, 353.098 370.394, 350.833 375.396, 350.176 379.656, 351.216 383.932, 352.301 387.773, 354.257 391.178, 357.083 394.523, 360.069 396.913, 365.073 " />
            <path fill="#313131" stroke-width="0.0" stroke-linecap="butt" stroke-opacity="1.0" stroke="rgb(0, 0, 0)" stroke-linejoin="round" d=" M 416.486, 477.661 406.486, 477.650 396.486, 477.639 387.270, 477.629 377.270, 477.618 367.270, 477.606 357.270, 477.595 347.270, 477.584 337.942, 477.574 332.697, 477.568 332.667, 467.568 332.636, 457.568 332.605, 447.398 342.605, 447.493 352.604, 447.588 358.412, 447.643 368.411, 447.738 378.411, 447.833 388.410, 447.928 398.410, 448.023 408.409, 448.118 418.409, 448.213 422.475, 448.251 425.799, 451.658 426.761, 455.731 427.234, 460.041 427.545, 464.351 426.880, 468.661 424.599, 473.050 422.134, 474.451 416.486, 477.661 " />
            <path fill="#313131" stroke-width="0.0" stroke-linecap="butt" stroke-opacity="1.0" stroke="rgb(0, 0, 0)" stroke-linejoin="round" d=" M 425.986, 466.142 422.134, 474.451 417.928, 483.524 413.722, 492.596 409.516, 501.669 405.310, 510.741 401.104, 519.814 396.898, 528.886 392.692, 537.959 388.486, 547.031 384.280, 556.104 380.690, 563.848 375.307, 564.690 370.745, 564.477 366.516, 563.747 362.610, 561.925 359.027, 559.010 355.728, 555.442 353.107, 550.439 357.354, 541.386 361.602, 532.333 365.850, 523.280 370.098, 514.227 374.346, 505.174 378.593, 496.121 382.841, 487.068 387.270, 477.629 391.518, 468.576 395.765, 459.523 398.645, 453.385 407.707, 457.613 416.769, 461.842 425.986, 466.142 " />
            <path fill="#313131" stroke-width="0.0" stroke-linecap="butt" stroke-opacity="1.0" stroke="rgb(0, 0, 0)" stroke-linejoin="round" d=" M 105.984, 666.475 105.988, 656.475 105.992, 646.475 105.997, 636.303 115.997, 636.328 125.997, 636.354 135.997, 636.379 145.997, 636.405 155.997, 636.430 165.997, 636.456 175.997, 636.481 181.118, 636.494 191.118, 636.520 201.118, 636.545 211.118, 636.571 215.854, 636.583 225.853, 636.608 235.853, 636.634 245.853, 636.659 255.853, 636.685 265.853, 636.710 275.853, 636.736 285.853, 636.761 295.853, 636.787 305.853, 636.812 315.853, 636.838 325.853, 636.863 335.853, 636.889 345.853, 636.914 355.853, 636.940 365.853, 636.965 375.853, 636.991 385.853, 637.016 395.853, 637.042 405.853, 637.067 415.853, 637.093 425.853, 637.118 435.853, 637.144 445.853, 637.169 455.853, 637.195 465.853, 637.220 475.853, 637.246 485.853, 637.272 495.853, 637.297 505.853, 637.323 515.853, 637.348 525.686, 637.373 535.686, 637.399 545.686, 637.424 555.686, 637.450 560.353, 637.462 570.352, 637.487 580.352, 637.513 590.352, 637.538 600.352, 637.564 603.812, 637.572 613.812, 637.598 623.812, 637.623 633.982, 637.649 634.382, 637.650 634.378, 647.650 634.373, 657.650 634.369, 667.822 633.907, 667.821 623.907, 667.796 613.907, 667.770 603.737, 667.744 593.737, 667.719 583.737, 667.693 573.737, 667.668 563.737, 667.642 553.737, 667.617 543.737, 667.591 533.737, 667.566 523.737, 667.540 513.737, 667.515 503.737, 667.489 493.737, 667.464 483.738, 667.438 473.738, 667.413 463.738, 667.387 453.738, 667.362 443.738, 667.336 433.738, 667.311 423.738, 667.285 413.738, 667.260 403.738, 667.234 393.738, 667.209 383.738, 667.183 373.738, 667.158 363.738, 667.132 353.738, 667.107 343.738, 667.081 333.738, 667.056 323.738, 667.030 313.738, 667.005 303.738, 666.979 293.738, 666.954 283.738, 666.928 273.738, 666.903 263.738, 666.877 253.738, 666.852 243.738, 666.826 233.738, 666.801 223.738, 666.775 213.738, 666.750 203.738, 666.724 193.738, 666.699 183.738, 666.673 173.739, 666.647 163.739, 666.622 153.739, 666.596 143.739, 666.571 136.360, 666.552 126.360, 666.527 116.360, 666.501 106.189, 666.475 105.984, 666.475 " />
            <path fill="#313131" stroke-width="0.0" stroke-linecap="butt" stroke-opacity="1.0" stroke="rgb(0, 0, 0)" stroke-linejoin="round" d=" M 633.983, 637.539 623.983, 637.522 613.983, 637.505 603.812, 637.487 603.812, 637.572 603.787, 647.572 603.762, 657.572 603.737, 667.744 603.712, 677.744 603.687, 687.744 603.662, 697.997 603.637, 707.996 603.612, 717.996 603.598, 723.665 613.598, 723.682 623.598, 723.700 633.769, 723.718 633.793, 713.718 633.818, 703.718 633.832, 698.073 633.857, 688.074 633.882, 678.074 633.907, 667.821 633.932, 657.821 633.957, 647.821 633.982, 637.649 633.983, 637.539 " />
            <path fill="#313131" stroke-width="0.0" stroke-linecap="butt" stroke-opacity="1.0" stroke="rgb(0, 0, 0)" stroke-linejoin="round" d=" M 105.984, 726.899 105.988, 716.899 105.992, 706.899 105.997, 696.727 106.114, 696.728 116.114, 696.753 126.114, 696.779 136.284, 696.805 146.284, 696.830 156.284, 696.856 166.284, 696.881 176.284, 696.907 186.284, 696.932 196.284, 696.958 206.284, 696.983 216.284, 697.009 226.284, 697.034 236.284, 697.060 246.284, 697.085 256.284, 697.111 266.284, 697.136 276.284, 697.162 286.284, 697.187 296.284, 697.213 306.284, 697.238 316.284, 697.264 326.284, 697.289 336.284, 697.315 346.284, 697.340 356.284, 697.366 366.284, 697.391 376.284, 697.417 386.284, 697.442 396.284, 697.468 406.284, 697.493 416.284, 697.519 426.284, 697.544 436.284, 697.570 446.283, 697.595 456.283, 697.621 466.283, 697.646 476.283, 697.672 486.283, 697.697 496.283, 697.723 506.283, 697.748 516.283, 697.774 526.283, 697.799 536.283, 697.825 546.283, 697.850 556.283, 697.876 566.283, 697.901 576.283, 697.927 586.283, 697.952 596.283, 697.978 603.662, 697.997 613.662, 698.022 623.662, 698.048 633.832, 698.073 634.382, 698.075 634.378, 708.075 634.373, 718.075 634.369, 728.247 624.369, 728.221 614.369, 728.196 604.369, 728.170 594.369, 728.145 584.369, 728.119 574.369, 728.094 564.369, 728.068 554.369, 728.043 544.369, 728.017 534.369, 727.992 524.369, 727.966 514.369, 727.941 504.369, 727.915 494.369, 727.890 484.369, 727.864 474.369, 727.839 464.369, 727.813 454.369, 727.788 444.369, 727.762 434.369, 727.737 424.369, 727.711 414.369, 727.686 404.369, 727.660 394.369, 727.635 384.370, 727.609 374.370, 727.584 364.370, 727.558 354.370, 727.533 344.370, 727.507 334.370, 727.482 324.370, 727.456 314.370, 727.431 304.370, 727.405 294.370, 727.380 284.370, 727.354 274.370, 727.329 264.370, 727.303 254.370, 727.278 244.370, 727.252 234.370, 727.227 224.370, 727.201 214.370, 727.176 204.370, 727.150 194.370, 727.125 184.370, 727.099 174.370, 727.074 164.370, 727.048 154.370, 727.023 144.370, 726.997 134.370, 726.972 124.370, 726.946 114.370, 726.921 105.984, 726.899 " />
            <path fill="#313131" stroke-width="0.0" stroke-linecap="butt" stroke-opacity="1.0" stroke="rgb(0, 0, 0)" stroke-linejoin="round" d=" M 136.432, 637.539 126.432, 637.522 116.432, 637.505 106.261, 637.487 106.237, 647.487 106.212, 657.487 106.189, 666.475 106.165, 676.475 106.140, 686.475 106.114, 696.728 106.089, 706.728 106.065, 716.728 106.047, 723.665 116.047, 723.682 126.047, 723.700 136.218, 723.718 136.242, 713.718 136.267, 703.718 136.284, 696.805 136.309, 686.805 136.334, 676.805 136.360, 666.552 136.384, 656.552 136.409, 646.552 136.432, 637.539 " />
            <path fill="#313131" stroke-width="0.0" stroke-linecap="butt" stroke-opacity="1.0" stroke="rgb(0, 0, 0)" stroke-linejoin="round" d=" M 110.741, 291.889 110.745, 281.889 110.749, 271.889 110.752, 266.183 110.754, 261.717 111.646, 261.719 121.646, 261.745 131.646, 261.771 141.646, 261.797 151.646, 261.823 161.646, 261.849 169.623, 261.870 179.623, 261.896 189.623, 261.922 199.623, 261.948 209.623, 261.974 219.623, 262.000 229.623, 262.026 239.623, 262.052 249.623, 262.078 259.622, 262.103 269.234, 262.128 279.234, 262.154 289.234, 262.180 299.404, 262.207 309.404, 262.233 319.404, 262.259 329.404, 262.285 339.404, 262.311 349.404, 262.337 359.404, 262.363 369.404, 262.389 379.404, 262.415 389.404, 262.441 399.404, 262.467 409.404, 262.492 419.404, 262.518 429.404, 262.544 439.499, 262.571 449.499, 262.597 459.499, 262.623 469.670, 262.649 479.670, 262.675 489.669, 262.701 499.669, 262.727 509.669, 262.753 519.669, 262.779 529.669, 262.805 539.669, 262.831 549.669, 262.857 559.669, 262.883 570.469, 262.911 580.469, 262.937 590.469, 262.963 600.469, 262.989 610.469, 263.015 620.469, 263.041 629.073, 263.063 629.626, 263.064 629.625, 266.216 629.621, 276.216 629.617, 286.216 629.613, 293.236 619.614, 293.211 609.614, 293.185 599.497, 293.158 589.497, 293.132 579.497, 293.106 569.497, 293.080 559.497, 293.054 549.497, 293.028 539.497, 293.002 529.498, 292.976 519.498, 292.950 509.498, 292.924 499.498, 292.899 489.498, 292.873 481.380, 292.851 471.380, 292.826 461.380, 292.800 451.380, 292.774 446.713, 292.761 436.713, 292.735 426.713, 292.710 416.713, 292.684 406.713, 292.658 396.713, 292.632 386.713, 292.606 376.713, 292.580 366.713, 292.554 356.713, 292.528 346.713, 292.502 336.713, 292.476 326.714, 292.450 316.714, 292.424 306.714, 292.398 299.652, 292.379 289.652, 292.354 279.652, 292.328 269.652, 292.302 264.917, 292.289 254.917, 292.263 244.917, 292.237 234.917, 292.211 224.917, 292.185 214.917, 292.159 204.917, 292.133 194.917, 292.107 184.917, 292.081 174.917, 292.056 164.917, 292.030 154.917, 292.004 144.917, 291.978 140.708, 291.967 130.708, 291.941 120.708, 291.915 110.741, 291.889 " />
            <path fill="#313131" stroke-width="0.0" stroke-linecap="butt" stroke-opacity="1.0" stroke="rgb(0, 0, 0)" stroke-linejoin="round" d=" M 272.847, 190.655 272.849, 180.559 272.850, 170.559 272.852, 160.634 272.852, 160.483 274.826, 160.497 284.826, 160.566 294.826, 160.635 305.056, 160.706 315.056, 160.775 325.056, 160.844 335.056, 160.914 345.056, 160.983 355.055, 161.052 365.055, 161.121 375.055, 161.190 385.055, 161.260 395.054, 161.329 405.054, 161.398 415.054, 161.467 425.054, 161.537 435.368, 161.608 445.368, 161.677 450.299, 161.711 460.299, 161.781 466.447, 161.823 467.520, 161.831 467.519, 171.831 467.517, 181.831 467.517, 182.838 467.515, 192.003 461.039, 191.958 451.040, 191.889 441.040, 191.819 439.615, 191.809 429.616, 191.740 419.616, 191.671 409.616, 191.602 399.616, 191.533 389.617, 191.463 379.617, 191.394 369.617, 191.325 359.617, 191.256 349.617, 191.186 339.618, 191.117 329.618, 191.048 319.618, 190.979 309.618, 190.910 299.520, 190.840 289.521, 190.770 282.345, 190.721 272.847, 190.655 " />
            <path fill="#313131" stroke-width="0.0" stroke-linecap="butt" stroke-opacity="1.0" stroke="rgb(0, 0, 0)" stroke-linejoin="round" d=" M 333.876, 54.463 333.877, 44.463 333.877, 34.463 333.878, 30.027 333.878, 24.291 343.877, 24.459 353.875, 24.627 363.874, 24.795 373.872, 24.963 383.871, 25.131 393.870, 25.299 403.868, 25.468 414.066, 25.639 414.066, 32.375 414.065, 42.375 414.064, 52.375 414.064, 55.811 404.066, 55.643 394.067, 55.475 390.610, 55.417 380.612, 55.249 370.613, 55.081 360.614, 54.913 356.473, 54.843 346.475, 54.675 336.476, 54.507 333.876, 54.463 " />
            <path fill="#313131" stroke-width="0.0" stroke-linecap="butt" stroke-opacity="1.0" stroke="rgb(0, 0, 0)" stroke-linejoin="round" d=" M 469.835, 161.760 468.599, 161.757 466.493, 161.752 456.493, 161.727 450.299, 161.711 440.299, 161.686 439.665, 161.685 439.648, 171.762 439.632, 181.762 439.615, 191.809 439.599, 201.809 439.583, 211.809 439.566, 221.809 439.550, 231.809 439.533, 241.809 439.517, 251.809 439.501, 261.809 439.499, 262.571 439.483, 272.571 439.466, 282.571 439.451, 292.203 446.589, 292.221 456.589, 292.246 466.589, 292.271 469.621, 292.279 469.637, 282.279 469.654, 272.279 469.659, 269.212 469.670, 262.649 469.686, 252.649 469.702, 242.649 469.719, 232.649 469.735, 222.649 469.752, 212.649 469.768, 202.649 469.776, 197.623 469.793, 187.623 469.802, 181.875 469.818, 171.875 469.830, 164.679 469.835, 161.760 " />
            <path fill="#313131" stroke-width="0.0" stroke-linecap="butt" stroke-opacity="1.0" stroke="rgb(0, 0, 0)" stroke-linejoin="round" d=" M 299.569, 160.701 289.570, 160.676 279.570, 160.651 274.916, 160.639 272.852, 160.634 270.528, 160.628 270.445, 160.628 269.399, 160.626 269.398, 161.341 269.396, 162.790 269.379, 172.789 269.370, 178.869 269.353, 188.869 269.337, 198.932 269.321, 208.932 269.304, 218.932 269.288, 228.932 269.272, 238.932 269.256, 248.932 269.239, 258.931 269.234, 262.128 269.218, 272.128 269.213, 275.053 269.197, 285.053 269.185, 292.203 279.185, 292.228 289.185, 292.253 299.355, 292.279 299.372, 282.395 299.388, 272.395 299.404, 262.207 299.421, 252.207 299.437, 242.207 299.453, 232.207 299.469, 222.207 299.486, 212.207 299.502, 202.207 299.518, 192.207 299.520, 190.840 299.537, 180.840 299.551, 172.041 299.567, 162.041 299.569, 160.701 " />
            <path fill="#313131" stroke-width="0.0" stroke-linecap="butt" stroke-opacity="1.0" stroke="rgb(0, 0, 0)" stroke-linejoin="round" d=" M 140.802, 266.216 130.802, 266.205 120.802, 266.194 114.466, 266.187 110.752, 266.183 110.632, 266.183 110.595, 276.182 110.559, 286.182 110.522, 296.182 110.485, 306.182 110.448, 316.182 110.418, 324.431 120.418, 324.442 130.418, 324.453 140.588, 324.465 140.625, 314.465 140.662, 304.465 140.699, 294.465 140.708, 291.967 140.745, 281.967 140.751, 280.093 140.788, 270.093 140.802, 266.216 " />
            <path fill="#313131" stroke-width="0.0" stroke-linecap="butt" stroke-opacity="1.0" stroke="rgb(0, 0, 0)" stroke-linejoin="round" d=" M 629.767, 266.216 629.625, 266.216 627.612, 266.214 617.612, 266.202 607.612, 266.191 599.596, 266.183 599.560, 276.182 599.539, 281.760 599.502, 291.760 599.497, 293.158 599.461, 303.158 599.424, 313.158 599.387, 323.158 599.382, 324.431 609.382, 324.442 619.382, 324.453 629.553, 324.465 629.589, 314.465 629.626, 304.465 629.663, 294.465 629.700, 284.465 629.736, 274.465 629.767, 266.216 " />
            <path fill="#313131" stroke-width="0.0" stroke-linecap="butt" stroke-opacity="1.0" stroke="rgb(0, 0, 0)" stroke-linejoin="round" d=" M 177.379, 651.852 187.096, 654.217 196.812, 656.583 206.528, 658.948 210.191, 659.840 212.557, 650.124 214.922, 640.408 215.854, 636.583 218.219, 626.867 220.584, 617.150 222.950, 607.434 225.315, 597.718 227.681, 588.002 230.046, 578.286 232.412, 568.569 234.777, 558.853 237.143, 549.137 239.508, 539.421 241.874, 529.705 244.239, 519.988 246.604, 510.272 248.970, 500.556 251.335, 490.840 253.701, 481.124 256.066, 471.407 258.432, 461.691 260.797, 451.975 263.163, 442.259 265.528, 432.543 267.894, 422.826 270.259, 413.110 272.624, 403.394 274.990, 393.678 277.355, 383.962 279.721, 374.245 282.086, 364.529 284.452, 354.813 286.817, 345.097 289.183, 335.381 291.548, 325.664 293.914, 315.948 296.279, 306.232 298.645, 296.516 299.652, 292.379 301.931, 283.018 299.372, 282.395 289.655, 280.030 279.939, 277.665 270.223, 275.299 269.213, 275.053 269.118, 275.030 266.753, 284.746 264.917, 292.289 262.551, 302.005 260.186, 311.722 257.820, 321.438 255.455, 331.154 253.089, 340.870 250.724, 350.586 248.358, 360.303 245.993, 370.019 243.628, 379.735 241.262, 389.451 238.897, 399.168 236.531, 408.884 234.166, 418.600 231.800, 428.316 229.435, 438.032 227.069, 447.749 224.704, 457.465 222.338, 467.181 219.973, 476.897 217.607, 486.613 215.242, 496.330 212.877, 506.046 210.511, 515.762 208.146, 525.478 205.780, 535.194 203.415, 544.911 201.049, 554.627 198.684, 564.343 196.318, 574.059 193.953, 583.775 191.587, 593.492 189.222, 603.208 186.857, 612.924 184.491, 622.640 182.126, 632.356 181.118, 636.494 178.753, 646.211 177.379, 651.852 " />
            <path fill="#313131" stroke-width="0.0" stroke-linecap="butt" stroke-opacity="1.0" stroke="rgb(0, 0, 0)" stroke-linejoin="round" d=" M 529.362, 653.411 539.109, 651.178 548.857, 648.944 558.604, 646.710 562.279, 645.868 560.353, 637.462 558.119, 627.714 555.885, 617.967 553.651, 608.220 551.417, 598.472 549.184, 588.725 546.950, 578.978 544.716, 569.230 542.482, 559.483 540.249, 549.736 538.015, 539.988 535.781, 530.241 533.547, 520.494 531.314, 510.746 529.080, 500.999 526.846, 491.252 524.612, 481.504 522.379, 471.757 520.145, 462.010 517.911, 452.262 515.677, 442.515 513.444, 432.768 511.210, 423.020 508.976, 413.273 506.742, 403.526 504.509, 393.778 502.275, 384.031 500.041, 374.284 497.807, 364.536 495.574, 354.789 493.340, 345.042 491.106, 335.294 488.872, 325.547 486.639, 315.800 484.405, 306.052 482.171, 296.305 481.380, 292.851 479.146, 283.104 476.912, 273.357 475.648, 267.840 469.659, 269.212 459.911, 271.446 450.164, 273.680 442.731, 275.383 444.964, 285.130 446.589, 292.221 446.713, 292.761 448.947, 302.509 451.181, 312.256 453.414, 322.003 455.648, 331.751 457.882, 341.498 460.116, 351.245 462.349, 360.993 464.583, 370.740 466.817, 380.487 469.051, 390.235 471.284, 399.982 473.518, 409.729 475.752, 419.477 477.986, 429.224 480.219, 438.971 482.453, 448.719 484.687, 458.466 486.921, 468.213 489.154, 477.961 491.388, 487.708 493.622, 497.455 495.856, 507.203 498.089, 516.950 500.323, 526.697 502.557, 536.445 504.791, 546.192 507.025, 555.939 509.258, 565.687 511.492, 575.434 513.726, 585.181 515.960, 594.928 518.193, 604.676 520.427, 614.423 522.661, 624.170 524.895, 633.918 525.686, 637.373 527.920, 647.120 529.362, 653.411 " />
            <path fill="#313131" stroke-width="0.0" stroke-linecap="butt" stroke-opacity="1.0" stroke="rgb(0, 0, 0)" stroke-linejoin="round" d=" M 447.816, 191.141 455.067, 188.085 464.282, 184.201 467.517, 182.838 469.802, 181.875 475.980, 179.271 472.096, 170.056 469.830, 164.679 468.599, 161.757 467.768, 159.786 463.884, 150.571 460.000, 141.356 456.116, 132.141 452.232, 122.926 448.348, 113.711 444.464, 104.496 440.580, 95.281 436.696, 86.067 432.812, 76.852 428.928, 67.637 425.044, 58.422 421.160, 49.207 417.276, 39.992 414.066, 32.375 411.232, 25.652 402.017, 29.536 392.802, 33.420 383.587, 37.304 383.068, 37.523 386.952, 46.738 390.610, 55.417 394.494, 64.632 398.378, 73.847 402.262, 83.062 406.146, 92.276 410.030, 101.491 413.914, 110.706 417.798, 119.921 421.682, 129.136 425.566, 138.351 429.450, 147.566 433.334, 156.781 435.368, 161.608 439.252, 170.823 439.648, 171.762 443.532, 180.977 447.416, 190.192 447.816, 191.141 " />
            <path fill="#313131" stroke-width="0.0" stroke-linecap="butt" stroke-opacity="1.0" stroke="rgb(0, 0, 0)" stroke-linejoin="round" d=" M 263.072, 175.810 269.370, 178.869 272.849, 180.559 281.844, 184.928 287.314, 187.585 291.107, 189.427 295.476, 180.432 299.551, 172.041 303.920, 163.046 305.056, 160.706 309.425, 151.711 313.794, 142.716 318.163, 133.720 322.532, 124.725 326.901, 115.730 331.270, 106.735 335.639, 97.740 340.008, 88.745 344.377, 79.750 348.745, 70.754 353.114, 61.759 356.473, 54.843 360.842, 45.848 363.939, 39.472 354.944, 35.103 345.949, 30.734 336.954, 26.365 335.904, 25.855 333.878, 30.027 329.509, 39.022 325.140, 48.017 320.771, 57.013 316.402, 66.008 312.033, 75.003 307.664, 83.998 303.295, 92.993 298.927, 101.988 294.558, 110.983 290.189, 119.979 285.820, 128.974 281.451, 137.969 277.082, 146.964 272.713, 155.959 270.445, 160.628 270.409, 160.703 269.396, 162.790 265.027, 171.785 263.072, 175.810 " />
            <path fill="#313131" stroke-width="0.0" stroke-linecap="butt" stroke-opacity="1.0" stroke="rgb(0, 0, 0)" stroke-linejoin="round" d=" M 111.282, 261.142 111.646, 261.719 114.466, 266.187 119.803, 274.643 125.141, 283.100 128.231, 287.996 136.687, 282.658 140.751, 280.093 149.208, 274.755 157.664, 269.418 166.121, 264.080 169.623, 261.870 178.079, 256.532 186.536, 251.195 194.992, 245.857 203.448, 240.520 211.905, 235.182 220.361, 229.844 228.818, 224.507 237.274, 219.169 245.730, 213.832 254.187, 208.494 262.643, 203.157 269.337, 198.932 277.793, 193.594 282.345, 190.721 287.314, 187.585 290.610, 185.504 285.273, 177.048 279.935, 168.591 274.916, 160.639 274.826, 160.497 273.661, 158.651 270.528, 160.628 270.409, 160.703 269.398, 161.341 260.942, 166.679 252.485, 172.017 244.029, 177.354 235.573, 182.692 227.116, 188.029 218.660, 193.367 210.203, 198.704 201.747, 204.042 193.291, 209.379 184.834, 214.717 176.378, 220.055 167.921, 225.392 159.465, 230.730 151.009, 236.067 142.552, 241.405 134.096, 246.742 125.639, 252.080 117.183, 257.417 111.282, 261.142 " />
            <path fill="#313131" stroke-width="0.0" stroke-linecap="butt" stroke-opacity="1.0" stroke="rgb(0, 0, 0)" stroke-linejoin="round" d=" M 468.366, 158.863 467.768, 159.786 466.493, 161.752 466.447, 161.823 461.006, 170.214 455.566, 178.604 451.090, 185.507 455.067, 188.085 461.039, 191.958 469.430, 197.398 469.776, 197.623 478.167, 203.063 486.557, 208.503 494.948, 213.944 503.339, 219.384 511.729, 224.825 520.120, 230.265 528.510, 235.705 536.901, 241.146 545.292, 246.586 553.682, 252.026 562.073, 257.467 570.469, 262.911 578.860, 268.351 587.250, 273.792 595.641, 279.232 599.539, 281.760 607.930, 287.200 612.207, 289.973 617.647, 281.582 623.087, 273.192 627.612, 266.214 629.483, 263.329 629.073, 263.063 620.682, 257.623 612.292, 252.182 603.901, 246.742 595.510, 241.301 587.120, 235.861 578.729, 230.421 570.339, 224.980 561.948, 219.540 553.557, 214.100 545.167, 208.659 536.776, 203.219 528.386, 197.778 519.995, 192.338 511.604, 186.898 503.214, 181.457 494.823, 176.017 486.433, 170.577 478.042, 165.136 468.366, 158.863 " />
        </g>
    </g>
</svg>
