<?xml version='1.0' encoding='ascii'?>
<svg xmlns="http://www.w3.org/2000/svg" version="1.1" width="1080" height="1080">
    <g id="ViewLayer_LineSet" xmlns:inkscape="http://www.inkscape.org/namespaces/inkscape" inkscape:groupmode="lineset" inkscape:label="ViewLayer_LineSet">
        <g xmlns:inkscape="http://www.inkscape.org/namespaces/inkscape" inkscape:groupmode="layer" id="strokes" inkscape:label="strokes">
            <path fill="#111131" stroke-width="0.0" stroke-linecap="butt" stroke-opacity="1.0" stroke="rgb(0, 0, 0)" stroke-linejoin="round" d=" M 426.489, 598.524 416.686, 596.548 406.883, 594.573 406.679, 594.531 396.876, 592.556 391.813, 591.535 " />
            <path fill="#111131" stroke-width="0.0" stroke-linecap="butt" stroke-opacity="1.0" stroke="rgb(0, 0, 0)" stroke-linejoin="round" d=" M 391.813, 591.535 393.872, 581.750 395.931, 571.964 397.990, 562.178 400.050, 552.393 402.109, 542.607 404.168, 532.821 406.227, 523.036 408.287, 513.250 410.346, 503.464 412.405, 493.679 414.464, 483.893 416.524, 474.107 418.583, 464.322 420.642, 454.536 422.701, 444.750 424.761, 434.964 426.820, 425.179 428.879, 415.393 430.938, 405.607 432.998, 395.822 435.057, 386.036 437.116, 376.250 439.175, 366.465 441.235, 356.679 443.294, 346.893 445.353, 337.108 447.412, 327.322 449.472, 317.536 451.531, 307.751 453.590, 297.965 455.649, 288.179 457.709, 278.394 459.768, 268.608 461.827, 258.822 463.886, 249.037 466.018, 238.905 468.077, 229.120 469.997, 219.998 472.056, 210.213 472.140, 209.815 477.539, 201.399 481.169, 195.741 486.569, 187.324 489.707, 182.433 498.047, 176.916 506.387, 171.398 514.728, 165.881 523.068, 160.364 526.549, 158.062 536.548, 157.995 546.548, 157.928 556.548, 157.862 566.548, 157.795 576.548, 157.728 586.547, 157.662 596.547, 157.595 606.547, 157.528 616.547, 157.461 626.546, 157.395 636.546, 157.328 646.546, 157.261 656.546, 157.195 666.546, 157.128 676.545, 157.061 686.545, 156.994 696.545, 156.928 706.545, 156.861 716.544, 156.794 726.544, 156.728 736.544, 156.661 746.544, 156.594 756.544, 156.527 766.543, 156.461 776.543, 156.394 786.543, 156.327 796.543, 156.260 806.542, 156.194 816.542, 156.127 826.542, 156.060 836.542, 155.994 846.542, 155.927 856.541, 155.860 866.541, 155.794 876.541, 155.727 886.541, 155.660 896.540, 155.593 906.540, 155.527 916.540, 155.460 926.540, 155.393 936.539, 155.326 946.539, 155.260 956.539, 155.193 966.539, 155.126 976.539, 155.060 986.538, 154.993 996.538, 154.926 1006.538, 154.859 1016.538, 154.793 1026.537, 154.726 1036.537, 154.659 1042.783, 154.618 1043.193, 164.609 1043.602, 174.601 1044.012, 184.592 1044.232, 189.961 1034.232, 190.008 1024.232, 190.056 1014.232, 190.103 1004.232, 190.150 994.232, 190.198 984.232, 190.245 974.233, 190.292 964.233, 190.340 954.233, 190.387 944.233, 190.434 934.233, 190.482 924.233, 190.529 914.233, 190.576 904.233, 190.624 894.233, 190.671 884.234, 190.718 874.234, 190.766 864.234, 190.813 854.234, 190.860 844.234, 190.908 834.234, 190.955 824.234, 191.002 814.234, 191.050 804.234, 191.097 794.235, 191.144 784.235, 191.192 774.235, 191.239 764.235, 191.286 754.235, 191.334 744.235, 191.381 734.235, 191.428 724.235, 191.476 714.235, 191.523 704.236, 191.570 694.236, 191.617 684.236, 191.665 674.803, 191.709 664.803, 191.757 654.803, 191.804 654.162, 191.807 644.163, 191.854 637.405, 191.886 627.405, 191.934 617.841, 191.979 612.065, 192.006 602.065, 192.054 592.065, 192.101 582.066, 192.148 572.066, 192.196 562.066, 192.243 552.066, 192.290 542.066, 192.338 535.162, 192.370 526.786, 197.833 518.410, 203.295 518.147, 203.466 511.673, 211.087 506.816, 216.804 504.756, 226.590 502.697, 236.376 500.638, 246.161 498.579, 255.947 496.520, 265.733 494.460, 275.518 492.401, 285.304 490.342, 295.090 488.283, 304.875 486.223, 314.661 484.164, 324.447 482.105, 334.232 480.046, 344.018 477.986, 353.804 475.927, 363.589 473.868, 373.375 471.809, 383.161 469.749, 392.946 467.690, 402.732 465.631, 412.518 463.572, 422.303 461.512, 432.089 459.453, 441.875 457.394, 451.660 455.335, 461.446 453.275, 471.232 451.216, 481.018 449.157, 490.803 447.098, 500.589 445.038, 510.375 442.979, 520.160 440.920, 529.946 438.861, 539.732 436.801, 549.517 434.742, 559.303 432.456, 570.168 430.397, 579.953 428.337, 589.739 426.489, 598.524 426.057, 600.059 423.353, 609.686 420.649, 619.314 419.119, 624.764 416.415, 634.392 413.711, 644.019 411.410, 652.212 410.301, 659.234 408.742, 669.112 407.183, 678.989 406.027, 686.318 405.788, 696.315 405.550, 706.312 405.536, 706.875 407.199, 716.736 408.863, 726.596 410.526, 736.457 410.707, 737.532 415.294, 746.417 419.882, 755.303 424.469, 764.189 424.699, 764.635 430.424, 772.834 436.149, 781.034 441.873, 789.233 446.022, 795.174 453.012, 802.325 460.001, 809.477 462.000, 811.521 470.355, 817.016 478.710, 822.511 481.464, 824.322 490.050, 829.449 498.636, 834.576 499.897, 835.329 509.893, 835.631 519.888, 835.933 529.883, 836.235 539.879, 836.538 549.874, 836.840 559.870, 837.142 569.865, 837.444 579.861, 837.746 589.856, 838.048 594.140, 838.178 603.363, 834.313 612.747, 830.380 621.174, 824.995 629.461, 819.700 636.591, 812.689 643.722, 805.678 646.657, 802.792 653.028, 795.084 659.399, 787.376 661.476, 784.864 667.452, 776.846 673.429, 768.829 677.625, 763.200 682.415, 754.421 687.205, 745.643 689.102, 742.166 691.101, 732.368 693.101, 722.570 694.820, 714.143 695.229, 712.142 695.220, 702.142 695.211, 692.142 695.207, 687.862 695.203, 683.209 695.198, 678.089 692.687, 668.409 690.177, 658.729 687.752, 649.383 683.996, 640.116 680.239, 630.848 676.483, 621.581 675.138, 618.262 668.029, 611.229 660.920, 604.196 653.812, 597.163 651.806, 595.179 643.992, 588.939 636.177, 582.700 628.362, 576.460 627.724, 575.951 618.660, 571.728 609.595, 567.505 602.985, 564.426 593.238, 562.190 583.491, 559.954 579.492, 559.037 569.505, 558.520 559.518, 558.003 549.532, 557.487 547.747, 557.395 537.847, 558.807 527.947, 560.219 518.047, 561.631 515.458, 562.000 506.202, 565.786 496.947, 569.572 488.609, 572.983 480.077, 578.199 471.546, 583.416 468.580, 585.229 460.868, 591.595 453.156, 597.961 445.444, 604.327 439.994, 608.825 433.806, 616.680 427.618, 624.536 425.236, 627.561 421.015, 636.627 416.795, 645.692 412.575, 654.758 410.458, 659.306 410.301, 659.234 401.207, 655.076 400.788, 654.885 391.694, 650.727 389.837, 649.878 380.743, 645.720 378.288, 644.597 382.088, 636.433 386.309, 627.368 389.481, 620.553 393.066, 612.853 399.030, 604.826 404.994, 596.799 406.679, 594.531 410.052, 589.992 417.541, 583.365 425.030, 576.738 432.456, 570.168 439.945, 563.541 442.766, 561.044 451.085, 555.495 459.404, 549.945 467.723, 544.396 468.713, 543.735 477.899, 539.784 487.085, 535.833 496.272, 531.882 504.258, 528.447 514.141, 526.920 524.024, 525.394 533.907, 523.867 543.790, 522.341 545.311, 522.106 555.298, 522.622 565.284, 523.139 575.271, 523.655 577.056, 523.748 586.890, 525.561 596.724, 527.374 606.559, 529.187 607.200, 529.305 616.452, 533.100 625.703, 536.896 634.955, 540.691 640.477, 542.957 648.487, 548.944 656.496, 554.931 659.381, 557.087 667.390, 563.074 668.938, 564.231 676.216, 571.088 683.495, 577.946 690.773, 584.804 698.051, 591.661 701.416, 594.832 702.528, 595.879 706.614, 605.007 710.700, 614.134 713.427, 620.225 717.513, 629.352 719.469, 633.721 722.171, 643.349 724.873, 652.977 725.098, 653.779 725.628, 655.669 728.330, 665.297 729.538, 669.600 729.787, 679.597 729.931, 685.323 730.180, 695.320 730.430, 705.317 730.602, 712.172 730.320, 713.694 728.499, 723.527 726.678, 733.360 725.335, 740.611 723.593, 750.016 719.082, 758.941 714.571, 767.866 712.503, 771.958 710.987, 774.958 705.341, 783.211 699.694, 791.464 694.048, 799.718 692.108, 802.553 685.869, 810.368 679.630, 818.183 674.087, 825.127 666.898, 832.078 659.709, 839.029 652.520, 845.980 649.687, 848.720 641.148, 853.924 632.608, 859.128 625.899, 863.217 616.569, 866.817 607.240, 870.418 600.720, 872.934 590.723, 872.686 580.726, 872.439 570.729, 872.192 560.732, 871.944 550.735, 871.697 540.738, 871.450 530.741, 871.202 520.744, 870.955 510.747, 870.708 500.750, 870.461 494.642, 870.309 485.680, 865.874 476.717, 861.439 467.754, 857.004 466.005, 856.139 457.598, 850.725 449.190, 845.312 441.684, 840.479 434.551, 833.470 427.419, 826.462 420.444, 819.608 414.652, 811.457 408.859, 803.305 403.067, 795.154 397.275, 787.002 394.697, 783.374 390.203, 774.440 387.184, 768.439 382.690, 759.505 378.196, 750.572 376.944, 748.082 375.839, 741.800 374.106, 731.951 372.374, 722.102 371.169, 715.250 371.057, 708.990 370.880, 698.992 370.702, 688.994 370.678, 687.642 372.082, 677.741 372.581, 674.223 373.985, 664.322 375.389, 654.421 376.242, 648.407 378.882, 638.762 379.118, 637.900 381.759, 628.255 384.400, 618.610 385.998, 612.773 388.639, 603.128 391.280, 593.483 391.813, 591.535 " />
            <path fill="#111131" stroke-width="0.0" stroke-linecap="butt" stroke-opacity="1.0" stroke="rgb(0, 0, 0)" stroke-linejoin="round" d=" M 472.140, 209.815 481.943, 211.791 491.180, 213.653 500.983, 215.629 506.816, 216.804 " />
            <path fill="#111131" stroke-width="0.0" stroke-linecap="butt" stroke-opacity="1.0" stroke="rgb(0, 0, 0)" stroke-linejoin="round" d=" M 489.707, 182.433 497.747, 188.379 505.787, 194.325 513.827, 200.271 518.147, 203.466 " />
            <path fill="#111131" stroke-width="0.0" stroke-linecap="butt" stroke-opacity="1.0" stroke="rgb(0, 0, 0)" stroke-linejoin="round" d=" M 526.549, 158.062 528.984, 167.761 531.419, 177.460 533.854, 187.159 535.162, 192.370 " />
            <path fill="#111131" stroke-width="0.0" stroke-linecap="butt" stroke-opacity="1.0" stroke="rgb(0, 0, 0)" stroke-linejoin="round" d=" M 411.410, 652.212 401.468, 651.136 399.682, 650.943 389.837, 649.878 379.896, 648.802 376.242, 648.407 " />
            <path fill="#111131" stroke-width="0.0" stroke-linecap="butt" stroke-opacity="1.0" stroke="rgb(0, 0, 0)" stroke-linejoin="round" d=" M 406.027, 686.318 404.531, 686.374 394.538, 686.748 384.545, 687.123 374.552, 687.497 370.678, 687.642 " />
            <path fill="#111131" stroke-width="0.0" stroke-linecap="butt" stroke-opacity="1.0" stroke="rgb(0, 0, 0)" stroke-linejoin="round" d=" M 405.536, 706.875 405.047, 706.994 395.331, 709.362 385.615, 711.729 375.900, 714.097 371.169, 715.250 " />
            <path fill="#111131" stroke-width="0.0" stroke-linecap="butt" stroke-opacity="1.0" stroke="rgb(0, 0, 0)" stroke-linejoin="round" d=" M 410.707, 737.532 401.162, 740.514 399.148, 741.144 389.603, 744.127 380.058, 747.109 376.944, 748.082 " />
            <path fill="#111131" stroke-width="0.0" stroke-linecap="butt" stroke-opacity="1.0" stroke="rgb(0, 0, 0)" stroke-linejoin="round" d=" M 424.699, 764.635 416.217, 769.933 407.736, 775.230 399.254, 780.527 394.697, 783.374 " />
            <path fill="#111131" stroke-width="0.0" stroke-linecap="butt" stroke-opacity="1.0" stroke="rgb(0, 0, 0)" stroke-linejoin="round" d=" M 446.022, 795.174 438.791, 802.082 431.560, 808.989 424.329, 815.897 420.444, 819.608 " />
            <path fill="#111131" stroke-width="0.0" stroke-linecap="butt" stroke-opacity="1.0" stroke="rgb(0, 0, 0)" stroke-linejoin="round" d=" M 462.000, 811.521 456.256, 819.708 450.513, 827.894 444.770, 836.080 441.684, 840.479 " />
            <path fill="#111131" stroke-width="0.0" stroke-linecap="butt" stroke-opacity="1.0" stroke="rgb(0, 0, 0)" stroke-linejoin="round" d=" M 481.464, 824.322 477.094, 833.317 472.724, 842.312 468.354, 851.306 466.005, 856.139 " />
            <path fill="#111131" stroke-width="0.0" stroke-linecap="butt" stroke-opacity="1.0" stroke="rgb(0, 0, 0)" stroke-linejoin="round" d=" M 499.897, 835.329 498.412, 845.218 496.926, 855.107 495.441, 864.996 494.642, 870.309 " />
            <path fill="#111131" stroke-width="0.0" stroke-linecap="butt" stroke-opacity="1.0" stroke="rgb(0, 0, 0)" stroke-linejoin="round" d=" M 594.140, 838.178 596.000, 848.003 597.860, 857.829 599.720, 867.654 600.720, 872.934 " />
            <path fill="#111131" stroke-width="0.0" stroke-linecap="butt" stroke-opacity="1.0" stroke="rgb(0, 0, 0)" stroke-linejoin="round" d=" M 612.747, 830.380 616.465, 839.663 620.183, 848.946 623.901, 858.229 625.899, 863.217 " />
            <path fill="#111131" stroke-width="0.0" stroke-linecap="butt" stroke-opacity="1.0" stroke="rgb(0, 0, 0)" stroke-linejoin="round" d=" M 629.461, 819.700 635.179, 827.904 640.897, 836.108 646.615, 844.312 649.687, 848.720 " />
            <path fill="#111131" stroke-width="0.0" stroke-linecap="butt" stroke-opacity="1.0" stroke="rgb(0, 0, 0)" stroke-linejoin="round" d=" M 646.657, 802.792 654.412, 809.106 662.166, 815.420 669.921, 821.734 674.087, 825.127 " />
            <path fill="#111131" stroke-width="0.0" stroke-linecap="butt" stroke-opacity="1.0" stroke="rgb(0, 0, 0)" stroke-linejoin="round" d=" M 661.476, 784.864 670.135, 789.864 678.795, 794.865 687.455, 799.866 692.108, 802.553 " />
            <path fill="#111131" stroke-width="0.0" stroke-linecap="butt" stroke-opacity="1.0" stroke="rgb(0, 0, 0)" stroke-linejoin="round" d=" M 677.625, 763.200 687.057, 766.524 696.488, 769.848 705.920, 773.172 710.987, 774.958 " />
            <path fill="#111131" stroke-width="0.0" stroke-linecap="butt" stroke-opacity="1.0" stroke="rgb(0, 0, 0)" stroke-linejoin="round" d=" M 689.102, 742.166 698.852, 744.385 699.970, 744.640 709.721, 746.859 719.471, 749.078 723.593, 750.016 " />
            <path fill="#111131" stroke-width="0.0" stroke-linecap="butt" stroke-opacity="1.0" stroke="rgb(0, 0, 0)" stroke-linejoin="round" d=" M 695.229, 712.142 705.229, 712.150 715.229, 712.159 725.229, 712.168 730.063, 712.172 730.602, 712.172 " />
            <path fill="#111131" stroke-width="0.0" stroke-linecap="butt" stroke-opacity="1.0" stroke="rgb(0, 0, 0)" stroke-linejoin="round" d=" M 695.198, 678.089 696.174, 677.848 705.882, 675.448 715.590, 673.048 725.297, 670.648 729.538, 669.600 " />
            <path fill="#111131" stroke-width="0.0" stroke-linecap="butt" stroke-opacity="1.0" stroke="rgb(0, 0, 0)" stroke-linejoin="round" d=" M 687.752, 649.383 696.719, 644.956 703.465, 641.624 712.432, 637.196 719.469, 633.721 " />
            <path fill="#111131" stroke-width="0.0" stroke-linecap="butt" stroke-opacity="1.0" stroke="rgb(0, 0, 0)" stroke-linejoin="round" d=" M 675.138, 618.262 682.881, 611.935 690.624, 605.607 698.368, 599.279 702.528, 595.879 " />
            <path fill="#111131" stroke-width="0.0" stroke-linecap="butt" stroke-opacity="1.0" stroke="rgb(0, 0, 0)" stroke-linejoin="round" d=" M 651.806, 595.179 656.649, 586.430 661.493, 577.681 662.475, 575.907 667.318, 567.158 668.938, 564.231 " />
            <path fill="#111131" stroke-width="0.0" stroke-linecap="butt" stroke-opacity="1.0" stroke="rgb(0, 0, 0)" stroke-linejoin="round" d=" M 627.724, 575.951 631.330, 566.623 634.935, 557.296 638.540, 547.968 640.477, 542.957 " />
            <path fill="#111131" stroke-width="0.0" stroke-linecap="butt" stroke-opacity="1.0" stroke="rgb(0, 0, 0)" stroke-linejoin="round" d=" M 602.985, 564.426 604.177, 554.497 605.368, 544.568 606.560, 534.639 607.200, 529.305 " />
            <path fill="#111131" stroke-width="0.0" stroke-linecap="butt" stroke-opacity="1.0" stroke="rgb(0, 0, 0)" stroke-linejoin="round" d=" M 579.492, 559.037 578.803, 549.060 578.114, 539.084 577.426, 529.108 577.056, 523.748 " />
            <path fill="#111131" stroke-width="0.0" stroke-linecap="butt" stroke-opacity="1.0" stroke="rgb(0, 0, 0)" stroke-linejoin="round" d=" M 547.747, 557.395 547.058, 547.418 546.370, 537.442 545.681, 527.466 545.311, 522.106 " />
            <path fill="#111131" stroke-width="0.0" stroke-linecap="butt" stroke-opacity="1.0" stroke="rgb(0, 0, 0)" stroke-linejoin="round" d=" M 515.458, 562.000 512.292, 552.514 509.126, 543.029 505.960, 533.543 504.258, 528.447 " />
            <path fill="#111131" stroke-width="0.0" stroke-linecap="butt" stroke-opacity="1.0" stroke="rgb(0, 0, 0)" stroke-linejoin="round" d=" M 488.609, 572.983 482.984, 564.714 477.359, 556.446 471.735, 548.178 468.713, 543.735 " />
            <path fill="#111131" stroke-width="0.0" stroke-linecap="butt" stroke-opacity="1.0" stroke="rgb(0, 0, 0)" stroke-linejoin="round" d=" M 468.580, 585.229 461.282, 578.392 453.985, 571.555 446.687, 564.718 442.766, 561.044 " />
            <path fill="#111131" stroke-width="0.0" stroke-linecap="butt" stroke-opacity="1.0" stroke="rgb(0, 0, 0)" stroke-linejoin="round" d=" M 439.994, 608.825 431.529, 603.501 426.057, 600.059 417.593, 594.735 410.052, 589.992 " />
            <path fill="#111131" stroke-width="0.0" stroke-linecap="butt" stroke-opacity="1.0" stroke="rgb(0, 0, 0)" stroke-linejoin="round" d=" M 425.236, 627.561 419.119, 624.764 410.024, 620.606 400.930, 616.448 393.066, 612.853 " />
            <path fill="#111131" stroke-width="0.0" stroke-linecap="butt" stroke-opacity="1.0" stroke="rgb(0, 0, 0)" stroke-linejoin="round" d=" M 53.055, 640.985 62.306, 644.784 71.556, 648.583 80.806, 652.382 85.762, 654.417 85.777, 654.423 83.978, 664.260 82.180, 674.097 80.522, 683.165 80.284, 693.163 80.045, 703.160 80.032, 703.722 81.695, 713.583 83.358, 723.444 85.022, 733.305 85.203, 734.379 89.790, 743.265 94.377, 752.151 98.964, 761.036 99.195, 761.483 104.920, 769.682 110.644, 777.881 116.369, 786.080 120.517, 792.021 127.507, 799.173 134.497, 806.324 136.495, 808.369 144.850, 813.864 153.205, 819.358 155.960, 821.170 164.546, 826.297 173.132, 831.423 174.393, 832.176 184.388, 832.478 194.384, 832.781 204.379, 833.083 214.375, 833.385 224.370, 833.687 234.365, 833.989 244.361, 834.291 254.356, 834.594 264.352, 834.896 268.636, 835.025 277.858, 831.160 287.243, 827.227 295.669, 821.843 303.957, 816.547 311.087, 809.536 318.218, 802.525 321.153, 799.639 327.524, 791.931 333.895, 784.223 335.971, 781.711 341.948, 773.694 347.925, 765.676 352.121, 760.047 356.911, 751.269 361.701, 742.490 363.597, 739.014 365.597, 729.216 367.596, 719.418 369.596, 709.619 369.724, 708.989 369.715, 698.989 369.707, 688.989 369.698, 678.989 369.694, 674.936 367.183, 665.257 364.672, 655.577 362.248, 646.231 358.491, 636.963 354.735, 627.696 350.978, 618.428 349.633, 615.110 342.525, 608.077 335.416, 601.043 328.307, 594.010 326.302, 592.026 318.487, 585.786 310.673, 579.547 302.858, 573.308 302.220, 572.798 293.155, 568.575 284.091, 564.353 277.481, 561.273 267.734, 559.037 257.987, 556.802 253.987, 555.884 244.001, 555.367 234.014, 554.851 224.027, 554.334 222.242, 554.242 212.343, 555.654 202.443, 557.066 192.543, 558.478 189.954, 558.847 180.698, 562.633 171.442, 566.419 163.104, 569.830 154.573, 575.047 146.041, 580.263 143.076, 582.077 135.364, 588.443 127.651, 594.808 119.877, 601.226 118.632, 602.253 114.490, 605.672 108.302, 613.528 102.114, 621.383 99.731, 624.408 95.511, 633.474 91.291, 642.540 87.070, 651.606 85.762, 654.417 84.954, 656.153 75.859, 651.995 66.765, 647.837 57.670, 643.679 52.958, 641.524 52.784, 641.445 57.004, 632.379 61.224, 623.313 65.444, 614.247 67.561, 609.700 73.525, 601.673 79.489, 593.646 84.547, 586.839 90.489, 581.582 97.978, 574.955 105.467, 568.328 112.957, 561.701 117.262, 557.892 125.581, 552.342 133.900, 546.793 142.219, 541.243 143.209, 540.583 152.395, 536.632 161.581, 532.680 164.623, 531.372 173.809, 527.421 178.754, 525.294 188.637, 523.768 198.520, 522.241 208.402, 520.715 218.285, 519.188 219.807, 518.953 229.793, 519.470 239.780, 519.986 249.767, 520.503 251.551, 520.595 261.386, 522.408 271.220, 524.221 281.054, 526.034 281.696, 526.152 290.947, 529.948 300.199, 533.743 309.451, 537.539 314.973, 539.804 322.982, 545.791 330.992, 551.778 339.002, 557.765 343.434, 561.078 350.712, 567.936 357.990, 574.793 365.269, 581.651 372.547, 588.509 377.024, 592.727 381.110, 601.854 385.196, 610.981 385.998, 612.773 389.481, 620.553 393.567, 629.680 393.965, 630.569 396.667, 640.197 399.369, 649.825 399.682, 650.943 400.788, 654.885 403.490, 664.513 404.033, 666.447 404.283, 676.444 404.531, 686.374 404.781, 696.371 405.031, 706.368 405.047, 706.994 405.097, 709.020 403.276, 718.852 401.455, 728.685 399.634, 738.518 399.148, 741.144 398.089, 746.863 393.578, 755.788 389.067, 764.713 387.184, 768.439 385.483, 771.805 379.836, 780.058 374.190, 788.312 368.543, 796.565 366.604, 799.400 360.365, 807.215 354.126, 815.030 348.583, 821.974 341.394, 828.925 334.205, 835.877 327.016, 842.828 324.182, 845.568 315.643, 850.772 307.104, 855.976 300.394, 860.065 291.065, 863.665 281.735, 867.265 275.216, 869.781 265.219, 869.534 255.222, 869.286 245.225, 869.039 235.228, 868.792 225.231, 868.545 215.234, 868.297 205.237, 868.050 195.240, 867.803 185.243, 867.555 175.246, 867.308 169.138, 867.157 160.175, 862.722 151.213, 858.287 142.250, 853.852 140.501, 852.986 132.093, 847.573 123.685, 842.159 116.180, 837.327 109.047, 830.318 101.914, 823.309 94.940, 816.456 89.147, 808.304 83.355, 800.153 77.563, 792.001 71.771, 783.849 69.193, 780.221 64.699, 771.288 60.205, 762.354 55.711, 753.421 51.440, 744.930 49.707, 735.081 47.975, 725.232 46.242, 715.384 45.664, 712.097 45.487, 702.099 45.309, 692.100 45.174, 684.489 46.956, 674.650 48.739, 664.810 50.522, 654.970 52.304, 645.130 52.958, 641.524 53.055, 640.985 " />
            <path fill="#111131" stroke-width="0.0" stroke-linecap="butt" stroke-opacity="1.0" stroke="rgb(0, 0, 0)" stroke-linejoin="round" d=" M 80.522, 683.165 70.529, 683.540 60.536, 683.914 50.543, 684.288 45.174, 684.489 " />
            <path fill="#111131" stroke-width="0.0" stroke-linecap="butt" stroke-opacity="1.0" stroke="rgb(0, 0, 0)" stroke-linejoin="round" d=" M 80.032, 703.722 70.316, 706.090 60.600, 708.457 50.885, 710.825 45.664, 712.097 " />
            <path fill="#111131" stroke-width="0.0" stroke-linecap="butt" stroke-opacity="1.0" stroke="rgb(0, 0, 0)" stroke-linejoin="round" d=" M 85.203, 734.379 75.658, 737.362 66.113, 740.345 56.568, 743.327 51.440, 744.930 " />
            <path fill="#111131" stroke-width="0.0" stroke-linecap="butt" stroke-opacity="1.0" stroke="rgb(0, 0, 0)" stroke-linejoin="round" d=" M 99.195, 761.483 90.713, 766.780 82.232, 772.077 73.750, 777.375 69.193, 780.221 " />
            <path fill="#111131" stroke-width="0.0" stroke-linecap="butt" stroke-opacity="1.0" stroke="rgb(0, 0, 0)" stroke-linejoin="round" d=" M 120.517, 792.021 113.287, 798.929 106.056, 805.837 98.825, 812.744 94.940, 816.456 " />
            <path fill="#111131" stroke-width="0.0" stroke-linecap="butt" stroke-opacity="1.0" stroke="rgb(0, 0, 0)" stroke-linejoin="round" d=" M 136.495, 808.369 130.752, 816.555 125.009, 824.742 119.266, 832.928 116.180, 837.327 " />
            <path fill="#111131" stroke-width="0.0" stroke-linecap="butt" stroke-opacity="1.0" stroke="rgb(0, 0, 0)" stroke-linejoin="round" d=" M 155.960, 821.170 151.590, 830.164 147.220, 839.159 142.849, 848.153 140.501, 852.986 " />
            <path fill="#111131" stroke-width="0.0" stroke-linecap="butt" stroke-opacity="1.0" stroke="rgb(0, 0, 0)" stroke-linejoin="round" d=" M 174.393, 832.176 172.907, 842.065 171.422, 851.954 169.936, 861.843 169.138, 867.157 " />
            <path fill="#111131" stroke-width="0.0" stroke-linecap="butt" stroke-opacity="1.0" stroke="rgb(0, 0, 0)" stroke-linejoin="round" d=" M 268.636, 835.025 270.496, 844.851 272.356, 854.676 274.216, 864.502 275.216, 869.781 " />
            <path fill="#111131" stroke-width="0.0" stroke-linecap="butt" stroke-opacity="1.0" stroke="rgb(0, 0, 0)" stroke-linejoin="round" d=" M 287.243, 827.227 290.961, 836.510 294.679, 845.794 298.397, 855.077 300.394, 860.065 " />
            <path fill="#111131" stroke-width="0.0" stroke-linecap="butt" stroke-opacity="1.0" stroke="rgb(0, 0, 0)" stroke-linejoin="round" d=" M 303.957, 816.547 309.674, 824.751 315.392, 832.956 321.110, 841.160 324.182, 845.568 " />
            <path fill="#111131" stroke-width="0.0" stroke-linecap="butt" stroke-opacity="1.0" stroke="rgb(0, 0, 0)" stroke-linejoin="round" d=" M 321.153, 799.639 328.907, 805.953 336.662, 812.267 344.416, 818.581 348.583, 821.974 " />
            <path fill="#111131" stroke-width="0.0" stroke-linecap="butt" stroke-opacity="1.0" stroke="rgb(0, 0, 0)" stroke-linejoin="round" d=" M 335.971, 781.711 344.631, 786.712 353.291, 791.713 361.951, 796.713 366.604, 799.400 " />
            <path fill="#111131" stroke-width="0.0" stroke-linecap="butt" stroke-opacity="1.0" stroke="rgb(0, 0, 0)" stroke-linejoin="round" d=" M 352.121, 760.047 361.552, 763.371 370.984, 766.695 380.415, 770.019 385.483, 771.805 " />
            <path fill="#111131" stroke-width="0.0" stroke-linecap="butt" stroke-opacity="1.0" stroke="rgb(0, 0, 0)" stroke-linejoin="round" d=" M 363.597, 739.014 373.348, 741.233 375.839, 741.800 385.590, 744.019 395.340, 746.238 398.089, 746.863 " />
            <path fill="#111131" stroke-width="0.0" stroke-linecap="butt" stroke-opacity="1.0" stroke="rgb(0, 0, 0)" stroke-linejoin="round" d=" M 369.724, 708.989 371.057, 708.990 381.057, 708.999 391.057, 709.008 401.057, 709.016 405.097, 709.020 " />
            <path fill="#111131" stroke-width="0.0" stroke-linecap="butt" stroke-opacity="1.0" stroke="rgb(0, 0, 0)" stroke-linejoin="round" d=" M 369.694, 674.936 372.581, 674.223 382.289, 671.823 391.997, 669.423 401.704, 667.023 404.033, 666.447 " />
            <path fill="#111131" stroke-width="0.0" stroke-linecap="butt" stroke-opacity="1.0" stroke="rgb(0, 0, 0)" stroke-linejoin="round" d=" M 362.248, 646.231 371.214, 641.803 379.118, 637.900 382.088, 636.433 391.055, 632.006 393.965, 630.569 " />
            <path fill="#111131" stroke-width="0.0" stroke-linecap="butt" stroke-opacity="1.0" stroke="rgb(0, 0, 0)" stroke-linejoin="round" d=" M 349.633, 615.110 357.377, 608.782 365.120, 602.454 372.864, 596.127 377.024, 592.727 " />
            <path fill="#111131" stroke-width="0.0" stroke-linecap="butt" stroke-opacity="1.0" stroke="rgb(0, 0, 0)" stroke-linejoin="round" d=" M 326.302, 592.026 331.145, 583.277 335.988, 574.528 340.831, 565.779 343.434, 561.078 " />
            <path fill="#111131" stroke-width="0.0" stroke-linecap="butt" stroke-opacity="1.0" stroke="rgb(0, 0, 0)" stroke-linejoin="round" d=" M 302.220, 572.798 305.825, 563.471 309.430, 554.143 313.036, 544.816 314.973, 539.804 " />
            <path fill="#111131" stroke-width="0.0" stroke-linecap="butt" stroke-opacity="1.0" stroke="rgb(0, 0, 0)" stroke-linejoin="round" d=" M 277.481, 561.273 278.672, 551.344 279.864, 541.416 281.055, 531.487 281.696, 526.152 " />
            <path fill="#111131" stroke-width="0.0" stroke-linecap="butt" stroke-opacity="1.0" stroke="rgb(0, 0, 0)" stroke-linejoin="round" d=" M 253.987, 555.884 253.299, 545.908 252.610, 535.931 251.921, 525.955 251.551, 520.595 " />
            <path fill="#111131" stroke-width="0.0" stroke-linecap="butt" stroke-opacity="1.0" stroke="rgb(0, 0, 0)" stroke-linejoin="round" d=" M 222.242, 554.242 221.554, 544.266 220.865, 534.289 220.177, 524.313 219.807, 518.953 " />
            <path fill="#111131" stroke-width="0.0" stroke-linecap="butt" stroke-opacity="1.0" stroke="rgb(0, 0, 0)" stroke-linejoin="round" d=" M 189.954, 558.847 186.788, 549.362 183.621, 539.876 180.455, 530.391 178.754, 525.294 " />
            <path fill="#111131" stroke-width="0.0" stroke-linecap="butt" stroke-opacity="1.0" stroke="rgb(0, 0, 0)" stroke-linejoin="round" d=" M 163.104, 569.830 157.480, 561.562 151.855, 553.294 151.199, 552.329 145.574, 544.061 143.209, 540.583 " />
            <path fill="#111131" stroke-width="0.0" stroke-linecap="butt" stroke-opacity="1.0" stroke="rgb(0, 0, 0)" stroke-linejoin="round" d=" M 143.076, 582.077 136.244, 575.676 128.946, 568.839 121.649, 562.002 117.262, 557.892 " />
            <path fill="#111131" stroke-width="0.0" stroke-linecap="butt" stroke-opacity="1.0" stroke="rgb(0, 0, 0)" stroke-linejoin="round" d=" M 114.490, 605.672 106.025, 600.348 97.560, 595.024 89.096, 589.700 84.547, 586.839 " />
            <path fill="#111131" stroke-width="0.0" stroke-linecap="butt" stroke-opacity="1.0" stroke="rgb(0, 0, 0)" stroke-linejoin="round" d=" M 99.731, 624.408 90.637, 620.250 81.542, 616.092 72.448, 611.934 67.561, 609.700 " />
            <path fill="#111131" stroke-width="0.0" stroke-linecap="butt" stroke-opacity="1.0" stroke="rgb(0, 0, 0)" stroke-linejoin="round" d=" M 702.236, 644.390 711.486, 648.189 720.736, 651.988 725.098, 653.779 734.348, 657.578 734.942, 657.822 734.957, 657.828 733.159, 667.665 731.360, 677.502 729.931, 685.323 729.703, 686.570 729.464, 696.567 729.226, 706.565 729.212, 707.127 730.063, 712.172 730.320, 713.694 731.983, 723.555 733.646, 733.416 734.383, 737.784 738.970, 746.670 743.557, 755.555 748.145, 764.441 748.375, 764.887 754.100, 773.087 759.825, 781.286 765.549, 789.485 769.698, 795.426 776.687, 802.578 783.677, 809.729 785.675, 811.774 794.031, 817.268 802.386, 822.763 805.140, 824.575 813.726, 829.701 822.312, 834.828 823.573, 835.581 833.569, 835.883 843.564, 836.185 853.559, 836.488 863.555, 836.790 873.550, 837.092 883.546, 837.394 893.541, 837.696 903.537, 837.998 913.532, 838.301 917.816, 838.430 927.039, 834.565 936.423, 830.632 944.850, 825.248 953.137, 819.952 960.267, 812.941 967.398, 805.930 970.333, 803.044 976.704, 795.336 983.075, 787.628 985.152, 785.116 991.128, 777.098 997.105, 769.081 1001.301, 763.452 1006.091, 754.673 1010.881, 745.895 1012.778, 742.419 1014.777, 732.620 1016.777, 722.822 1018.776, 713.024 1018.905, 712.394 1018.896, 702.394 1018.887, 692.394 1018.878, 682.394 1018.874, 678.341 1016.363, 668.661 1013.853, 658.982 1011.428, 649.635 1007.672, 640.368 1003.915, 631.100 1001.389, 624.867 998.814, 618.515 993.673, 613.428 986.564, 606.395 979.455, 599.362 975.482, 595.431 967.668, 589.191 959.853, 582.952 952.038, 576.712 951.400, 576.203 942.336, 571.980 933.271, 567.757 926.661, 564.678 916.914, 562.442 907.167, 560.206 903.167, 559.289 893.181, 558.772 883.194, 558.256 873.208, 557.739 871.423, 557.647 861.523, 559.059 851.623, 560.471 841.723, 561.883 839.134, 562.252 829.878, 566.038 820.623, 569.824 812.285, 573.235 803.753, 578.452 795.221, 583.668 792.256, 585.481 784.544, 591.847 776.832, 598.213 769.120, 604.579 763.670, 609.077 757.482, 616.933 751.294, 624.788 748.912, 627.813 744.691, 636.879 740.471, 645.945 736.251, 655.010 734.942, 657.822 734.134, 659.558 725.628, 655.669 716.534, 651.511 707.439, 647.353 702.138, 644.929 701.964, 644.850 703.465, 641.624 707.686, 632.558 711.906, 623.492 713.427, 620.225 716.742, 613.105 722.706, 605.078 728.670, 597.051 733.728, 590.244 741.217, 583.617 748.706, 576.991 756.195, 570.364 763.684, 563.737 766.442, 561.297 774.761, 555.747 783.080, 550.198 791.399, 544.648 792.389, 543.988 801.575, 540.036 810.761, 536.085 819.948, 532.134 827.934, 528.699 837.817, 527.172 847.700, 525.646 857.583, 524.119 867.465, 522.593 868.987, 522.358 878.974, 522.874 888.960, 523.391 898.947, 523.907 900.732, 524.000 910.566, 525.813 920.400, 527.626 930.234, 529.439 930.876, 529.557 939.481, 533.087 948.733, 536.883 957.984, 540.678 964.153, 543.209 972.162, 549.196 980.172, 555.183 988.182, 561.170 992.614, 564.483 999.892, 571.341 1007.171, 578.198 1014.449, 585.056 1021.727, 591.913 1022.080, 592.246 1026.204, 596.132 1029.200, 602.823 1033.286, 611.950 1033.940, 613.412 1038.026, 622.540 1042.112, 631.667 1043.145, 633.973 1045.847, 643.602 1048.549, 653.230 1051.251, 662.858 1053.214, 669.852 1053.463, 679.849 1053.713, 689.846 1053.963, 699.843 1054.213, 709.840 1054.278, 712.424 1052.457, 722.257 1050.635, 732.090 1048.814, 741.923 1047.269, 750.268 1042.758, 759.193 1038.247, 768.118 1034.663, 775.210 1029.016, 783.463 1023.370, 791.717 1017.724, 799.970 1015.784, 802.805 1009.545, 810.620 1003.306, 818.435 997.763, 825.379 990.574, 832.330 983.385, 839.281 976.196, 846.232 973.363, 848.972 964.823, 854.176 956.284, 859.380 949.575, 863.469 940.245, 867.070 930.916, 870.670 924.396, 873.186 914.399, 872.939 904.402, 872.691 894.405, 872.444 884.408, 872.197 874.411, 871.949 864.414, 871.702 854.417, 871.455 844.420, 871.207 834.423, 870.960 824.426, 870.713 818.318, 870.562 809.356, 866.127 800.393, 861.692 791.430, 857.256 789.681, 856.391 781.273, 850.977 772.866, 845.564 765.360, 840.731 758.227, 833.723 751.094, 826.714 744.120, 819.861 738.328, 811.709 732.535, 803.557 726.743, 795.406 720.951, 787.254 718.373, 783.626 713.879, 774.693 712.503, 771.958 708.009, 763.024 703.516, 754.091 700.620, 748.335 699.970, 744.640 698.238, 734.791 696.505, 724.942 694.845, 715.502 694.820, 714.143 694.643, 704.144 694.465, 694.146 694.354, 687.894 695.203, 683.209 696.174, 677.848 697.957, 668.008 699.739, 658.168 701.522, 648.328 702.138, 644.929 702.236, 644.390 " />
            <path fill="#111131" stroke-width="0.0" stroke-linecap="butt" stroke-opacity="1.0" stroke="rgb(0, 0, 0)" stroke-linejoin="round" d=" M 729.703, 686.570 719.710, 686.945 709.717, 687.319 699.724, 687.693 695.207, 687.862 694.354, 687.894 " />
            <path fill="#111131" stroke-width="0.0" stroke-linecap="butt" stroke-opacity="1.0" stroke="rgb(0, 0, 0)" stroke-linejoin="round" d=" M 729.212, 707.127 719.496, 709.495 709.781, 711.862 700.065, 714.230 694.845, 715.502 " />
            <path fill="#111131" stroke-width="0.0" stroke-linecap="butt" stroke-opacity="1.0" stroke="rgb(0, 0, 0)" stroke-linejoin="round" d=" M 734.383, 737.784 725.335, 740.611 715.790, 743.594 706.245, 746.577 700.620, 748.335 " />
            <path fill="#111131" stroke-width="0.0" stroke-linecap="butt" stroke-opacity="1.0" stroke="rgb(0, 0, 0)" stroke-linejoin="round" d=" M 748.375, 764.887 739.893, 770.185 731.412, 775.482 722.930, 780.780 718.373, 783.626 " />
            <path fill="#111131" stroke-width="0.0" stroke-linecap="butt" stroke-opacity="1.0" stroke="rgb(0, 0, 0)" stroke-linejoin="round" d=" M 769.698, 795.426 762.467, 802.334 755.236, 809.241 748.005, 816.149 744.120, 819.861 " />
            <path fill="#111131" stroke-width="0.0" stroke-linecap="butt" stroke-opacity="1.0" stroke="rgb(0, 0, 0)" stroke-linejoin="round" d=" M 785.675, 811.774 779.932, 819.960 774.189, 828.146 768.446, 836.333 765.360, 840.731 " />
            <path fill="#111131" stroke-width="0.0" stroke-linecap="butt" stroke-opacity="1.0" stroke="rgb(0, 0, 0)" stroke-linejoin="round" d=" M 805.140, 824.575 800.770, 833.569 796.400, 842.564 792.030, 851.558 789.681, 856.391 " />
            <path fill="#111131" stroke-width="0.0" stroke-linecap="butt" stroke-opacity="1.0" stroke="rgb(0, 0, 0)" stroke-linejoin="round" d=" M 823.573, 835.581 822.088, 845.470 820.602, 855.359 819.117, 865.248 818.318, 870.562 " />
            <path fill="#111131" stroke-width="0.0" stroke-linecap="butt" stroke-opacity="1.0" stroke="rgb(0, 0, 0)" stroke-linejoin="round" d=" M 917.816, 838.430 919.676, 848.256 921.536, 858.081 923.396, 867.906 924.396, 873.186 " />
            <path fill="#111131" stroke-width="0.0" stroke-linecap="butt" stroke-opacity="1.0" stroke="rgb(0, 0, 0)" stroke-linejoin="round" d=" M 936.423, 830.632 940.141, 839.915 943.859, 849.198 947.577, 858.482 949.575, 863.469 " />
            <path fill="#111131" stroke-width="0.0" stroke-linecap="butt" stroke-opacity="1.0" stroke="rgb(0, 0, 0)" stroke-linejoin="round" d=" M 953.137, 819.952 958.855, 828.156 964.573, 836.360 970.291, 844.564 973.363, 848.972 " />
            <path fill="#111131" stroke-width="0.0" stroke-linecap="butt" stroke-opacity="1.0" stroke="rgb(0, 0, 0)" stroke-linejoin="round" d=" M 970.333, 803.044 978.088, 809.358 985.842, 815.672 993.597, 821.986 997.763, 825.379 " />
            <path fill="#111131" stroke-width="0.0" stroke-linecap="butt" stroke-opacity="1.0" stroke="rgb(0, 0, 0)" stroke-linejoin="round" d=" M 985.152, 785.116 993.811, 790.117 1002.471, 795.117 1011.131, 800.118 1015.784, 802.805 " />
            <path fill="#111131" stroke-width="0.0" stroke-linecap="butt" stroke-opacity="1.0" stroke="rgb(0, 0, 0)" stroke-linejoin="round" d=" M 1001.301, 763.452 1010.733, 766.776 1020.164, 770.100 1029.595, 773.424 1034.663, 775.210 " />
            <path fill="#111131" stroke-width="0.0" stroke-linecap="butt" stroke-opacity="1.0" stroke="rgb(0, 0, 0)" stroke-linejoin="round" d=" M 1012.778, 742.419 1022.528, 744.638 1032.279, 746.857 1042.030, 749.076 1047.269, 750.268 " />
            <path fill="#111131" stroke-width="0.0" stroke-linecap="butt" stroke-opacity="1.0" stroke="rgb(0, 0, 0)" stroke-linejoin="round" d=" M 1018.905, 712.394 1028.905, 712.403 1038.905, 712.411 1048.905, 712.420 1054.278, 712.424 " />
            <path fill="#111131" stroke-width="0.0" stroke-linecap="butt" stroke-opacity="1.0" stroke="rgb(0, 0, 0)" stroke-linejoin="round" d=" M 1018.874, 678.341 1028.582, 675.941 1038.290, 673.541 1047.998, 671.142 1053.214, 669.852 " />
            <path fill="#111131" stroke-width="0.0" stroke-linecap="butt" stroke-opacity="1.0" stroke="rgb(0, 0, 0)" stroke-linejoin="round" d=" M 1011.428, 649.635 1020.395, 645.208 1029.361, 640.780 1038.327, 636.352 1043.145, 633.973 " />
            <path fill="#111131" stroke-width="0.0" stroke-linecap="butt" stroke-opacity="1.0" stroke="rgb(0, 0, 0)" stroke-linejoin="round" d=" M 998.814, 618.515 1006.557, 612.187 1014.300, 605.859 1022.044, 599.531 1025.231, 596.927 1026.204, 596.132 " />
            <path fill="#111131" stroke-width="0.0" stroke-linecap="butt" stroke-opacity="1.0" stroke="rgb(0, 0, 0)" stroke-linejoin="round" d=" M 975.482, 595.431 978.210, 590.504 983.053, 581.755 987.896, 573.006 992.614, 564.483 " />
            <path fill="#111131" stroke-width="0.0" stroke-linecap="butt" stroke-opacity="1.0" stroke="rgb(0, 0, 0)" stroke-linejoin="round" d=" M 951.400, 576.203 955.005, 566.876 957.652, 560.027 961.258, 550.700 964.153, 543.209 " />
            <path fill="#111131" stroke-width="0.0" stroke-linecap="butt" stroke-opacity="1.0" stroke="rgb(0, 0, 0)" stroke-linejoin="round" d=" M 926.661, 564.678 927.853, 554.749 929.044, 544.820 930.236, 534.892 930.876, 529.557 " />
            <path fill="#111131" stroke-width="0.0" stroke-linecap="butt" stroke-opacity="1.0" stroke="rgb(0, 0, 0)" stroke-linejoin="round" d=" M 903.167, 559.289 902.479, 549.312 901.790, 539.336 901.102, 529.360 900.732, 524.000 " />
            <path fill="#111131" stroke-width="0.0" stroke-linecap="butt" stroke-opacity="1.0" stroke="rgb(0, 0, 0)" stroke-linejoin="round" d=" M 871.423, 557.647 870.734, 547.671 870.045, 537.694 869.357, 527.718 868.987, 522.358 " />
            <path fill="#111131" stroke-width="0.0" stroke-linecap="butt" stroke-opacity="1.0" stroke="rgb(0, 0, 0)" stroke-linejoin="round" d=" M 839.134, 562.252 835.968, 552.767 832.802, 543.281 829.635, 533.795 827.934, 528.699 " />
            <path fill="#111131" stroke-width="0.0" stroke-linecap="butt" stroke-opacity="1.0" stroke="rgb(0, 0, 0)" stroke-linejoin="round" d=" M 812.285, 573.235 806.660, 564.967 801.035, 556.698 795.411, 548.430 792.389, 543.988 " />
            <path fill="#111131" stroke-width="0.0" stroke-linecap="butt" stroke-opacity="1.0" stroke="rgb(0, 0, 0)" stroke-linejoin="round" d=" M 792.256, 585.481 784.958, 578.644 777.661, 571.807 770.363, 564.970 766.442, 561.297 " />
            <path fill="#111131" stroke-width="0.0" stroke-linecap="butt" stroke-opacity="1.0" stroke="rgb(0, 0, 0)" stroke-linejoin="round" d=" M 763.670, 609.077 755.205, 603.753 746.741, 598.429 738.276, 593.105 733.728, 590.244 " />
            <path fill="#111131" stroke-width="0.0" stroke-linecap="butt" stroke-opacity="1.0" stroke="rgb(0, 0, 0)" stroke-linejoin="round" d=" M 748.912, 627.813 739.817, 623.655 730.723, 619.497 721.628, 615.339 716.742, 613.105 " />
            <path fill="#111131" stroke-width="0.0" stroke-linecap="butt" stroke-opacity="1.0" stroke="rgb(0, 0, 0)" stroke-linejoin="round" d=" M 534.278, 586.016 534.289, 586.215 534.848, 596.199 535.407, 606.184 535.965, 616.168 536.254, 621.333 535.205, 621.573 525.455, 623.796 515.705, 626.019 513.594, 626.500 505.374, 632.196 497.029, 637.979 490.306, 645.382 483.583, 652.785 483.145, 653.267 478.816, 662.281 474.486, 671.296 473.959, 672.392 472.631, 682.304 471.770, 688.725 472.776, 698.674 473.781, 708.624 474.093, 711.712 477.596, 721.079 481.098, 730.445 483.888, 737.908 490.071, 745.767 495.042, 752.087 503.966, 756.599 512.890, 761.111 518.469, 763.932 528.085, 766.676 532.961, 768.067 542.961, 767.965 553.143, 767.860 563.143, 767.832 573.143, 767.804 576.462, 767.794 585.668, 763.891 594.875, 759.987 596.445, 759.321 603.617, 752.352 610.789, 745.384 613.930, 742.331 619.237, 733.855 624.071, 726.133 626.084, 716.337 628.096, 706.542 628.786, 703.186 628.323, 693.196 627.857, 683.133 625.374, 673.446 622.891, 663.759 622.544, 662.409 615.991, 654.856 609.438, 647.302 609.014, 646.814 601.418, 640.309 597.015, 636.539 588.138, 631.935 581.015, 628.241 571.429, 625.393 564.798, 623.422 554.818, 622.798 544.837, 622.175 535.205, 621.573 534.391, 621.522 534.121, 611.525 533.851, 601.529 533.580, 591.533 533.437, 586.221 533.435, 586.162 533.629, 586.174 534.289, 586.215 544.270, 586.839 554.250, 587.463 563.842, 588.062 573.593, 590.281 583.344, 592.499 589.434, 593.885 598.484, 598.141 607.533, 602.396 612.203, 604.592 620.116, 610.706 628.029, 616.820 631.371, 619.403 637.927, 626.954 644.482, 634.506 651.038, 642.057 652.809, 644.097 655.753, 653.653 658.698, 663.210 661.179, 671.264 662.005, 681.230 662.830, 691.196 663.655, 701.162 664.051, 705.943 662.135, 715.758 660.218, 725.573 658.883, 732.408 654.259, 741.274 649.634, 750.140 645.009, 759.007 643.939, 761.059 636.835, 768.096 629.730, 775.134 622.626, 782.172 615.814, 788.919 606.588, 792.776 597.361, 796.633 588.135, 800.489 583.345, 802.491 573.348, 802.736 563.351, 802.980 554.972, 803.186 544.973, 803.111 534.973, 803.036 527.263, 802.978 517.715, 800.007 508.166, 797.036 501.466, 794.951 492.849, 789.878 484.231, 784.805 475.613, 779.733 468.641, 775.629 462.629, 767.638 456.617, 759.647 452.428, 754.080 448.977, 744.695 445.525, 735.309 442.074, 725.924 439.418, 718.702 438.379, 708.756 437.340, 698.810 436.420, 689.997 437.772, 680.089 439.124, 670.181 440.312, 661.480 444.568, 652.431 448.824, 643.381 452.411, 635.755 458.915, 628.159 465.419, 620.563 471.215, 613.794 479.352, 607.982 487.489, 602.169 495.626, 596.356 497.584, 594.958 507.300, 592.590 517.016, 590.222 526.731, 587.855 533.437, 586.221 533.629, 586.174 534.278, 586.016 " />
            <path fill="#111131" stroke-width="0.0" stroke-linecap="butt" stroke-opacity="1.0" stroke="rgb(0, 0, 0)" stroke-linejoin="round" d=" M 513.594, 626.500 509.068, 617.583 504.542, 608.666 500.016, 599.749 497.584, 594.958 " />
            <path fill="#111131" stroke-width="0.0" stroke-linecap="butt" stroke-opacity="1.0" stroke="rgb(0, 0, 0)" stroke-linejoin="round" d=" M 497.029, 637.979 489.731, 631.142 482.434, 624.305 475.136, 617.468 471.215, 613.794 " />
            <path fill="#111131" stroke-width="0.0" stroke-linecap="butt" stroke-opacity="1.0" stroke="rgb(0, 0, 0)" stroke-linejoin="round" d=" M 483.145, 653.267 474.456, 648.316 465.768, 643.365 457.080, 638.415 452.411, 635.755 " />
            <path fill="#111131" stroke-width="0.0" stroke-linecap="butt" stroke-opacity="1.0" stroke="rgb(0, 0, 0)" stroke-linejoin="round" d=" M 473.959, 672.392 464.447, 669.307 454.935, 666.222 445.423, 663.137 440.312, 661.480 " />
            <path fill="#111131" stroke-width="0.0" stroke-linecap="butt" stroke-opacity="1.0" stroke="rgb(0, 0, 0)" stroke-linejoin="round" d=" M 471.770, 688.725 461.777, 689.085 451.783, 689.444 441.789, 689.804 436.420, 689.997 " />
            <path fill="#111131" stroke-width="0.0" stroke-linecap="butt" stroke-opacity="1.0" stroke="rgb(0, 0, 0)" stroke-linejoin="round" d=" M 474.093, 711.712 464.291, 713.688 454.488, 715.664 444.685, 717.640 439.418, 718.702 " />
            <path fill="#111131" stroke-width="0.0" stroke-linecap="butt" stroke-opacity="1.0" stroke="rgb(0, 0, 0)" stroke-linejoin="round" d=" M 483.888, 737.908 474.994, 742.480 466.101, 747.052 457.207, 751.624 452.428, 754.080 " />
            <path fill="#111131" stroke-width="0.0" stroke-linecap="butt" stroke-opacity="1.0" stroke="rgb(0, 0, 0)" stroke-linejoin="round" d=" M 495.042, 752.087 487.578, 758.742 480.115, 765.398 472.651, 772.053 468.641, 775.629 " />
            <path fill="#111131" stroke-width="0.0" stroke-linecap="butt" stroke-opacity="1.0" stroke="rgb(0, 0, 0)" stroke-linejoin="round" d=" M 518.469, 763.932 513.662, 772.701 508.856, 781.470 504.049, 790.239 501.466, 794.951 " />
            <path fill="#111131" stroke-width="0.0" stroke-linecap="butt" stroke-opacity="1.0" stroke="rgb(0, 0, 0)" stroke-linejoin="round" d=" M 532.961, 768.067 531.350, 777.937 529.740, 787.806 528.129, 797.675 527.263, 802.978 " />
            <path fill="#111131" stroke-width="0.0" stroke-linecap="butt" stroke-opacity="1.0" stroke="rgb(0, 0, 0)" stroke-linejoin="round" d=" M 553.143, 767.860 553.660, 777.847 554.177, 787.833 554.695, 797.820 554.972, 803.186 " />
            <path fill="#111131" stroke-width="0.0" stroke-linecap="butt" stroke-opacity="1.0" stroke="rgb(0, 0, 0)" stroke-linejoin="round" d=" M 576.462, 767.794 578.408, 777.603 580.354, 787.412 582.300, 797.221 583.345, 802.491 " />
            <path fill="#111131" stroke-width="0.0" stroke-linecap="butt" stroke-opacity="1.0" stroke="rgb(0, 0, 0)" stroke-linejoin="round" d=" M 596.445, 759.321 601.920, 767.688 607.396, 776.056 612.872, 784.424 615.814, 788.919 " />
            <path fill="#111131" stroke-width="0.0" stroke-linecap="butt" stroke-opacity="1.0" stroke="rgb(0, 0, 0)" stroke-linejoin="round" d=" M 613.930, 742.331 622.414, 747.626 630.897, 752.920 639.381, 758.214 643.939, 761.059 " />
            <path fill="#111131" stroke-width="0.0" stroke-linecap="butt" stroke-opacity="1.0" stroke="rgb(0, 0, 0)" stroke-linejoin="round" d=" M 624.071, 726.133 633.913, 727.907 643.754, 729.680 653.596, 731.454 658.883, 732.408 " />
            <path fill="#111131" stroke-width="0.0" stroke-linecap="butt" stroke-opacity="1.0" stroke="rgb(0, 0, 0)" stroke-linejoin="round" d=" M 628.786, 703.186 638.755, 703.965 648.725, 704.745 658.695, 705.524 664.051, 705.943 " />
            <path fill="#111131" stroke-width="0.0" stroke-linecap="butt" stroke-opacity="1.0" stroke="rgb(0, 0, 0)" stroke-linejoin="round" d=" M 627.857, 683.133 637.277, 679.777 646.698, 676.422 656.118, 673.067 661.179, 671.264 " />
            <path fill="#111131" stroke-width="0.0" stroke-linecap="butt" stroke-opacity="1.0" stroke="rgb(0, 0, 0)" stroke-linejoin="round" d=" M 622.544, 662.409 631.100, 657.232 639.656, 652.055 648.212, 646.878 652.809, 644.097 " />
            <path fill="#111131" stroke-width="0.0" stroke-linecap="butt" stroke-opacity="1.0" stroke="rgb(0, 0, 0)" stroke-linejoin="round" d=" M 609.014, 646.814 615.334, 639.065 621.655, 631.315 627.975, 623.566 631.371, 619.403 " />
            <path fill="#111131" stroke-width="0.0" stroke-linecap="butt" stroke-opacity="1.0" stroke="rgb(0, 0, 0)" stroke-linejoin="round" d=" M 597.015, 636.539 601.309, 627.507 605.602, 618.476 609.896, 609.445 612.203, 604.592 " />
            <path fill="#111131" stroke-width="0.0" stroke-linecap="butt" stroke-opacity="1.0" stroke="rgb(0, 0, 0)" stroke-linejoin="round" d=" M 581.015, 628.241 583.395, 618.529 585.775, 608.816 588.156, 599.104 589.434, 593.885 " />
            <path fill="#111131" stroke-width="0.0" stroke-linecap="butt" stroke-opacity="1.0" stroke="rgb(0, 0, 0)" stroke-linejoin="round" d=" M 564.798, 623.422 564.528, 613.426 564.257, 603.429 563.987, 593.433 563.842, 588.062 " />
            <path fill="#111131" stroke-width="0.0" stroke-linecap="butt" stroke-opacity="1.0" stroke="rgb(0, 0, 0)" stroke-linejoin="round" d=" M 210.823, 586.016 210.834, 586.215 211.393, 596.199 211.951, 606.184 212.510, 616.168 212.799, 621.333 211.750, 621.573 202.000, 623.796 192.250, 626.019 190.139, 626.500 181.919, 632.196 173.573, 637.979 166.851, 645.382 160.128, 652.785 159.690, 653.267 155.360, 662.281 151.031, 671.296 150.504, 672.392 149.176, 682.304 148.315, 688.725 149.320, 698.674 150.326, 708.624 150.638, 711.712 154.140, 721.079 157.643, 730.445 160.433, 737.908 166.615, 745.767 171.587, 752.087 180.511, 756.599 189.435, 761.111 195.014, 763.932 204.630, 766.676 209.506, 768.067 219.506, 767.965 229.688, 767.860 239.688, 767.832 249.688, 767.804 253.006, 767.794 262.213, 763.891 271.419, 759.987 272.990, 759.321 280.162, 752.352 287.334, 745.384 290.475, 742.331 295.781, 733.855 300.616, 726.133 302.629, 716.337 304.641, 706.542 305.331, 703.186 304.868, 693.196 304.402, 683.133 301.919, 673.446 299.435, 663.759 299.089, 662.409 292.536, 654.856 285.982, 647.302 285.559, 646.814 277.963, 640.309 273.560, 636.539 264.683, 631.935 257.560, 628.242 247.974, 625.393 241.343, 623.422 231.362, 622.798 221.382, 622.175 211.750, 621.573 210.936, 621.522 210.666, 611.525 210.395, 601.529 210.125, 591.533 209.982, 586.221 209.980, 586.162 210.174, 586.174 210.834, 586.215 220.815, 586.839 230.795, 587.463 240.387, 588.062 250.138, 590.281 259.888, 592.499 265.979, 593.885 275.029, 598.141 284.078, 602.396 288.748, 604.592 296.661, 610.706 304.574, 616.820 307.916, 619.403 314.472, 626.954 321.027, 634.506 327.583, 642.057 329.353, 644.097 332.298, 653.654 335.243, 663.210 337.724, 671.264 338.549, 681.230 339.375, 691.196 340.200, 701.162 340.596, 705.943 338.679, 715.758 336.763, 725.573 335.428, 732.408 330.804, 741.274 326.179, 750.140 321.554, 759.007 320.484, 761.059 313.379, 768.096 306.275, 775.134 299.171, 782.172 292.359, 788.919 283.133, 792.776 273.906, 796.632 264.680, 800.489 259.890, 802.491 249.893, 802.736 239.896, 802.980 231.517, 803.186 221.517, 803.111 211.518, 803.036 203.808, 802.978 194.259, 800.007 184.711, 797.036 178.011, 794.951 169.393, 789.878 160.775, 784.805 152.158, 779.733 145.186, 775.629 139.174, 767.638 133.162, 759.647 128.973, 754.080 125.522, 744.695 122.070, 735.309 118.619, 725.924 115.963, 718.702 114.924, 708.756 113.885, 698.810 112.965, 689.997 114.317, 680.089 115.669, 670.181 116.857, 661.480 121.113, 652.431 125.369, 643.381 128.956, 635.755 135.460, 628.159 141.964, 620.563 147.760, 613.794 155.897, 607.982 164.034, 602.169 172.171, 596.356 174.129, 594.958 183.845, 592.590 193.560, 590.222 203.276, 587.855 209.982, 586.221 210.174, 586.174 210.823, 586.016 " />
            <path fill="#111131" stroke-width="0.0" stroke-linecap="butt" stroke-opacity="1.0" stroke="rgb(0, 0, 0)" stroke-linejoin="round" d=" M 190.139, 626.500 185.613, 617.583 181.087, 608.666 176.561, 599.749 174.129, 594.958 " />
            <path fill="#111131" stroke-width="0.0" stroke-linecap="butt" stroke-opacity="1.0" stroke="rgb(0, 0, 0)" stroke-linejoin="round" d=" M 173.573, 637.979 166.276, 631.142 158.978, 624.305 151.681, 617.468 147.760, 613.794 " />
            <path fill="#111131" stroke-width="0.0" stroke-linecap="butt" stroke-opacity="1.0" stroke="rgb(0, 0, 0)" stroke-linejoin="round" d=" M 159.690, 653.267 151.001, 648.316 142.313, 643.366 133.624, 638.415 128.956, 635.755 " />
            <path fill="#111131" stroke-width="0.0" stroke-linecap="butt" stroke-opacity="1.0" stroke="rgb(0, 0, 0)" stroke-linejoin="round" d=" M 150.504, 672.392 140.992, 669.307 131.480, 666.222 121.968, 663.137 116.857, 661.480 " />
            <path fill="#111131" stroke-width="0.0" stroke-linecap="butt" stroke-opacity="1.0" stroke="rgb(0, 0, 0)" stroke-linejoin="round" d=" M 148.315, 688.725 138.321, 689.085 128.328, 689.444 118.334, 689.804 112.965, 689.997 " />
            <path fill="#111131" stroke-width="0.0" stroke-linecap="butt" stroke-opacity="1.0" stroke="rgb(0, 0, 0)" stroke-linejoin="round" d=" M 150.638, 711.712 140.835, 713.688 131.033, 715.664 121.230, 717.640 115.963, 718.702 " />
            <path fill="#111131" stroke-width="0.0" stroke-linecap="butt" stroke-opacity="1.0" stroke="rgb(0, 0, 0)" stroke-linejoin="round" d=" M 160.433, 737.908 151.539, 742.480 142.645, 747.052 133.752, 751.624 128.973, 754.080 " />
            <path fill="#111131" stroke-width="0.0" stroke-linecap="butt" stroke-opacity="1.0" stroke="rgb(0, 0, 0)" stroke-linejoin="round" d=" M 171.587, 752.087 164.123, 758.742 156.659, 765.398 149.196, 772.053 145.186, 775.629 " />
            <path fill="#111131" stroke-width="0.0" stroke-linecap="butt" stroke-opacity="1.0" stroke="rgb(0, 0, 0)" stroke-linejoin="round" d=" M 195.014, 763.932 190.207, 772.701 185.400, 781.470 180.594, 790.239 178.011, 794.951 " />
            <path fill="#111131" stroke-width="0.0" stroke-linecap="butt" stroke-opacity="1.0" stroke="rgb(0, 0, 0)" stroke-linejoin="round" d=" M 209.506, 768.067 207.895, 777.937 206.284, 787.806 204.673, 797.675 203.808, 802.978 " />
            <path fill="#111131" stroke-width="0.0" stroke-linecap="butt" stroke-opacity="1.0" stroke="rgb(0, 0, 0)" stroke-linejoin="round" d=" M 229.688, 767.860 230.205, 777.847 230.722, 787.833 231.239, 797.820 231.517, 803.186 " />
            <path fill="#111131" stroke-width="0.0" stroke-linecap="butt" stroke-opacity="1.0" stroke="rgb(0, 0, 0)" stroke-linejoin="round" d=" M 253.006, 767.794 254.952, 777.603 256.899, 787.412 258.845, 797.221 259.890, 802.491 " />
            <path fill="#111131" stroke-width="0.0" stroke-linecap="butt" stroke-opacity="1.0" stroke="rgb(0, 0, 0)" stroke-linejoin="round" d=" M 272.990, 759.321 278.465, 767.689 283.941, 776.056 289.417, 784.424 292.359, 788.919 " />
            <path fill="#111131" stroke-width="0.0" stroke-linecap="butt" stroke-opacity="1.0" stroke="rgb(0, 0, 0)" stroke-linejoin="round" d=" M 290.475, 742.331 298.959, 747.626 307.442, 752.920 315.926, 758.214 320.484, 761.059 " />
            <path fill="#111131" stroke-width="0.0" stroke-linecap="butt" stroke-opacity="1.0" stroke="rgb(0, 0, 0)" stroke-linejoin="round" d=" M 300.616, 726.133 310.458, 727.907 320.299, 729.680 330.140, 731.454 335.428, 732.408 " />
            <path fill="#111131" stroke-width="0.0" stroke-linecap="butt" stroke-opacity="1.0" stroke="rgb(0, 0, 0)" stroke-linejoin="round" d=" M 305.331, 703.186 315.300, 703.965 325.270, 704.745 335.239, 705.524 340.596, 705.943 " />
            <path fill="#111131" stroke-width="0.0" stroke-linecap="butt" stroke-opacity="1.0" stroke="rgb(0, 0, 0)" stroke-linejoin="round" d=" M 304.402, 683.133 313.822, 679.777 323.242, 676.422 332.663, 673.067 337.724, 671.264 " />
            <path fill="#111131" stroke-width="0.0" stroke-linecap="butt" stroke-opacity="1.0" stroke="rgb(0, 0, 0)" stroke-linejoin="round" d=" M 299.089, 662.409 307.645, 657.232 316.201, 652.055 324.756, 646.878 329.353, 644.097 " />
            <path fill="#111131" stroke-width="0.0" stroke-linecap="butt" stroke-opacity="1.0" stroke="rgb(0, 0, 0)" stroke-linejoin="round" d=" M 285.559, 646.814 291.879, 639.065 298.200, 631.315 304.520, 623.566 307.916, 619.403 " />
            <path fill="#111131" stroke-width="0.0" stroke-linecap="butt" stroke-opacity="1.0" stroke="rgb(0, 0, 0)" stroke-linejoin="round" d=" M 273.560, 636.539 277.854, 627.507 282.147, 618.476 286.441, 609.445 288.748, 604.592 " />
            <path fill="#111131" stroke-width="0.0" stroke-linecap="butt" stroke-opacity="1.0" stroke="rgb(0, 0, 0)" stroke-linejoin="round" d=" M 257.560, 628.242 259.940, 618.529 262.320, 608.816 264.700, 599.104 265.979, 593.885 " />
            <path fill="#111131" stroke-width="0.0" stroke-linecap="butt" stroke-opacity="1.0" stroke="rgb(0, 0, 0)" stroke-linejoin="round" d=" M 241.343, 623.422 241.073, 613.426 240.802, 603.429 240.532, 593.433 240.387, 588.062 " />
            <path fill="#111131" stroke-width="0.0" stroke-linecap="butt" stroke-opacity="1.0" stroke="rgb(0, 0, 0)" stroke-linejoin="round" d=" M 859.625, 590.744 859.636, 590.944 860.195, 600.928 860.753, 610.913 861.312, 620.897 861.601, 626.062 860.552, 626.301 850.802, 628.525 841.052, 630.748 838.941, 631.229 830.721, 636.925 822.375, 642.708 815.652, 650.111 808.930, 657.514 808.492, 657.996 804.162, 667.010 799.833, 676.025 799.306, 677.121 797.978, 687.033 797.117, 693.454 798.122, 703.403 799.128, 713.353 799.440, 716.441 802.942, 725.808 806.445, 735.174 809.235, 742.637 815.417, 750.496 820.388, 756.816 829.312, 761.328 838.237, 765.840 843.816, 768.661 853.432, 771.405 858.308, 772.796 868.308, 772.693 878.490, 772.589 888.490, 772.561 898.490, 772.533 901.808, 772.523 911.015, 768.619 920.221, 764.716 921.791, 764.050 928.963, 757.081 936.135, 750.113 939.277, 747.060 944.583, 738.584 949.418, 730.861 951.431, 721.066 953.443, 711.271 954.133, 707.914 953.670, 697.925 953.204, 687.862 950.720, 678.175 948.237, 668.488 947.891, 667.138 941.338, 659.585 934.784, 652.031 934.361, 651.543 926.765, 645.038 922.362, 641.268 913.485, 636.664 906.362, 632.970 896.776, 630.122 890.145, 628.151 880.164, 627.527 870.184, 626.903 860.552, 626.301 859.738, 626.251 859.468, 616.254 859.197, 606.258 858.927, 596.262 858.783, 590.949 858.782, 590.891 858.975, 590.903 859.636, 590.944 869.617, 591.568 879.597, 592.192 889.189, 592.791 898.939, 595.010 908.690, 597.228 914.781, 598.614 923.831, 602.870 932.880, 607.125 937.550, 609.321 945.463, 615.435 953.376, 621.549 956.718, 624.132 963.274, 631.683 969.829, 639.235 976.385, 646.786 978.155, 648.826 981.100, 658.382 984.044, 667.939 986.526, 675.993 987.351, 685.959 988.177, 695.925 989.002, 705.890 989.398, 710.672 987.481, 720.487 985.565, 730.301 984.230, 737.136 979.605, 746.003 974.981, 754.869 970.356, 763.736 969.286, 765.788 962.181, 772.825 955.077, 779.863 947.973, 786.900 941.161, 793.648 931.934, 797.505 922.708, 801.361 913.482, 805.218 908.692, 807.220 898.695, 807.465 888.698, 807.709 880.319, 807.914 870.319, 807.840 860.320, 807.765 852.610, 807.707 843.061, 804.736 833.513, 801.764 826.813, 799.680 818.195, 794.607 809.577, 789.534 800.959, 784.462 793.988, 780.358 787.976, 772.367 781.964, 764.376 777.775, 758.809 774.324, 749.423 770.872, 740.038 767.420, 730.653 764.765, 723.431 763.726, 713.485 762.687, 703.539 761.767, 694.726 763.119, 684.818 764.471, 674.910 765.659, 666.208 769.915, 657.159 774.171, 648.110 777.758, 640.483 784.262, 632.888 790.766, 625.292 796.562, 618.523 804.699, 612.710 812.836, 606.898 820.973, 601.085 822.931, 599.686 832.647, 597.319 842.362, 594.951 852.078, 592.584 858.783, 590.949 858.975, 590.903 859.625, 590.744 " />
            <path fill="#111131" stroke-width="0.0" stroke-linecap="butt" stroke-opacity="1.0" stroke="rgb(0, 0, 0)" stroke-linejoin="round" d=" M 838.941, 631.229 834.415, 622.312 829.889, 613.395 825.363, 604.478 822.931, 599.686 " />
            <path fill="#111131" stroke-width="0.0" stroke-linecap="butt" stroke-opacity="1.0" stroke="rgb(0, 0, 0)" stroke-linejoin="round" d=" M 822.375, 642.708 815.078, 635.871 807.780, 629.034 800.483, 622.197 796.562, 618.523 " />
            <path fill="#111131" stroke-width="0.0" stroke-linecap="butt" stroke-opacity="1.0" stroke="rgb(0, 0, 0)" stroke-linejoin="round" d=" M 808.492, 657.996 799.803, 653.045 791.115, 648.094 782.426, 643.144 777.758, 640.483 " />
            <path fill="#111131" stroke-width="0.0" stroke-linecap="butt" stroke-opacity="1.0" stroke="rgb(0, 0, 0)" stroke-linejoin="round" d=" M 799.306, 677.121 789.794, 674.036 780.282, 670.951 770.770, 667.866 765.659, 666.208 " />
            <path fill="#111131" stroke-width="0.0" stroke-linecap="butt" stroke-opacity="1.0" stroke="rgb(0, 0, 0)" stroke-linejoin="round" d=" M 797.117, 693.454 787.123, 693.814 777.130, 694.173 767.136, 694.533 761.767, 694.726 " />
            <path fill="#111131" stroke-width="0.0" stroke-linecap="butt" stroke-opacity="1.0" stroke="rgb(0, 0, 0)" stroke-linejoin="round" d=" M 799.440, 716.441 789.637, 718.417 779.834, 720.393 770.032, 722.369 764.765, 723.431 " />
            <path fill="#111131" stroke-width="0.0" stroke-linecap="butt" stroke-opacity="1.0" stroke="rgb(0, 0, 0)" stroke-linejoin="round" d=" M 809.235, 742.637 800.341, 747.208 791.447, 751.780 782.554, 756.352 777.775, 758.809 " />
            <path fill="#111131" stroke-width="0.0" stroke-linecap="butt" stroke-opacity="1.0" stroke="rgb(0, 0, 0)" stroke-linejoin="round" d=" M 820.388, 756.816 812.925, 763.471 805.461, 770.126 797.998, 776.782 793.988, 780.358 " />
            <path fill="#111131" stroke-width="0.0" stroke-linecap="butt" stroke-opacity="1.0" stroke="rgb(0, 0, 0)" stroke-linejoin="round" d=" M 843.816, 768.661 839.009, 777.430 834.202, 786.199 829.396, 794.968 826.813, 799.680 " />
            <path fill="#111131" stroke-width="0.0" stroke-linecap="butt" stroke-opacity="1.0" stroke="rgb(0, 0, 0)" stroke-linejoin="round" d=" M 858.308, 772.796 856.697, 782.666 855.086, 792.535 853.475, 802.404 852.610, 807.707 " />
            <path fill="#111131" stroke-width="0.0" stroke-linecap="butt" stroke-opacity="1.0" stroke="rgb(0, 0, 0)" stroke-linejoin="round" d=" M 878.490, 772.589 879.007, 782.575 879.524, 792.562 880.041, 802.549 880.319, 807.914 " />
            <path fill="#111131" stroke-width="0.0" stroke-linecap="butt" stroke-opacity="1.0" stroke="rgb(0, 0, 0)" stroke-linejoin="round" d=" M 901.808, 772.523 903.754, 782.332 905.700, 792.141 907.646, 801.950 908.692, 807.220 " />
            <path fill="#111131" stroke-width="0.0" stroke-linecap="butt" stroke-opacity="1.0" stroke="rgb(0, 0, 0)" stroke-linejoin="round" d=" M 921.791, 764.050 927.267, 772.417 932.743, 780.785 938.219, 789.152 941.161, 793.648 " />
            <path fill="#111131" stroke-width="0.0" stroke-linecap="butt" stroke-opacity="1.0" stroke="rgb(0, 0, 0)" stroke-linejoin="round" d=" M 939.277, 747.060 947.760, 752.355 956.244, 757.649 964.728, 762.943 969.286, 765.788 " />
            <path fill="#111131" stroke-width="0.0" stroke-linecap="butt" stroke-opacity="1.0" stroke="rgb(0, 0, 0)" stroke-linejoin="round" d=" M 949.418, 730.861 959.260, 732.635 969.101, 734.409 978.942, 736.183 984.230, 737.136 " />
            <path fill="#111131" stroke-width="0.0" stroke-linecap="butt" stroke-opacity="1.0" stroke="rgb(0, 0, 0)" stroke-linejoin="round" d=" M 954.133, 707.914 964.102, 708.694 974.072, 709.474 984.041, 710.253 989.398, 710.672 " />
            <path fill="#111131" stroke-width="0.0" stroke-linecap="butt" stroke-opacity="1.0" stroke="rgb(0, 0, 0)" stroke-linejoin="round" d=" M 953.204, 687.862 962.624, 684.506 972.044, 681.151 981.464, 677.796 986.526, 675.993 " />
            <path fill="#111131" stroke-width="0.0" stroke-linecap="butt" stroke-opacity="1.0" stroke="rgb(0, 0, 0)" stroke-linejoin="round" d=" M 947.891, 667.138 956.447, 661.961 965.003, 656.784 973.558, 651.607 978.155, 648.826 " />
            <path fill="#111131" stroke-width="0.0" stroke-linecap="butt" stroke-opacity="1.0" stroke="rgb(0, 0, 0)" stroke-linejoin="round" d=" M 934.361, 651.543 940.681, 643.794 947.002, 636.044 953.322, 628.295 956.718, 624.132 " />
            <path fill="#111131" stroke-width="0.0" stroke-linecap="butt" stroke-opacity="1.0" stroke="rgb(0, 0, 0)" stroke-linejoin="round" d=" M 922.362, 641.268 926.656, 632.236 930.949, 623.205 935.243, 614.174 937.550, 609.321 " />
            <path fill="#111131" stroke-width="0.0" stroke-linecap="butt" stroke-opacity="1.0" stroke="rgb(0, 0, 0)" stroke-linejoin="round" d=" M 906.362, 632.970 908.742, 623.258 911.122, 613.545 913.502, 603.833 914.781, 598.614 " />
            <path fill="#111131" stroke-width="0.0" stroke-linecap="butt" stroke-opacity="1.0" stroke="rgb(0, 0, 0)" stroke-linejoin="round" d=" M 890.145, 628.151 889.874, 618.155 889.604, 608.158 889.334, 598.162 889.189, 592.791 " />
            <path fill="#111131" stroke-width="0.0" stroke-linecap="butt" stroke-opacity="1.0" stroke="rgb(0, 0, 0)" stroke-linejoin="round" d=" M 308.708, 306.439 303.314, 314.860 297.920, 323.280 292.526, 331.701 287.133, 340.121 281.739, 348.542 276.345, 356.962 270.951, 365.383 265.557, 373.803 260.163, 382.224 254.769, 390.644 249.375, 399.065 243.981, 407.486 238.587, 415.906 233.193, 424.327 227.799, 432.747 222.405, 441.168 217.011, 449.588 211.617, 458.009 206.224, 466.429 200.830, 474.850 195.436, 483.270 190.042, 491.691 184.648, 500.111 179.254, 508.532 173.860, 516.953 168.466, 525.373 164.623, 531.372 159.229, 539.793 153.835, 548.213 151.199, 552.329 145.805, 560.749 140.411, 569.170 136.244, 575.676 130.850, 584.096 125.456, 592.517 120.062, 600.937 119.877, 601.226 119.049, 602.518 118.632, 602.253 110.184, 596.902 101.737, 591.550 93.289, 586.199 89.168, 583.588 90.489, 581.582 95.990, 573.231 101.492, 564.880 106.993, 556.529 112.494, 548.178 117.995, 539.827 123.496, 531.476 128.998, 523.126 134.499, 514.775 140.000, 506.424 145.501, 498.073 151.002, 489.722 156.504, 481.371 162.005, 473.020 167.506, 464.669 173.007, 456.319 178.508, 447.968 184.009, 439.617 189.511, 431.266 195.012, 422.915 200.513, 414.564 206.014, 406.213 211.515, 397.863 217.017, 389.512 222.518, 381.161 228.019, 372.810 233.520, 364.459 239.021, 356.108 244.523, 347.757 250.024, 339.407 255.525, 331.056 261.026, 322.705 266.527, 314.354 268.595, 311.215 268.662, 311.113 267.649, 311.846 266.636, 312.578 256.636, 312.613 246.636, 312.647 236.636, 312.682 226.636, 312.716 216.636, 312.751 206.636, 312.786 196.636, 312.820 186.637, 312.855 176.637, 312.889 166.637, 312.924 156.637, 312.958 146.637, 312.993 136.637, 313.027 126.637, 313.062 116.637, 313.096 106.637, 313.131 96.637, 313.165 86.637, 313.200 76.637, 313.234 66.637, 313.269 56.952, 313.302 56.993, 303.302 57.034, 293.302 57.075, 283.302 57.093, 278.785 67.093, 278.783 77.093, 278.781 87.093, 278.780 97.093, 278.778 107.093, 278.777 117.093, 278.775 127.093, 278.774 137.093, 278.772 147.093, 278.770 157.093, 278.769 167.093, 278.767 177.093, 278.766 187.093, 278.764 197.093, 278.763 207.093, 278.761 217.093, 278.759 227.093, 278.758 237.093, 278.756 247.093, 278.755 257.093, 278.753 267.093, 278.752 277.093, 278.750 288.309, 278.748 297.126, 283.467 304.590, 287.462 306.711, 297.235 308.708, 306.439 " />
            <path fill="#111131" stroke-width="0.0" stroke-linecap="butt" stroke-opacity="1.0" stroke="rgb(0, 0, 0)" stroke-linejoin="round" d=" M 268.662, 311.113 268.786, 311.087 278.574, 309.040 288.362, 306.992 289.825, 306.686 " />
            <path fill="#111131" stroke-width="0.0" stroke-linecap="butt" stroke-opacity="1.0" stroke="rgb(0, 0, 0)" stroke-linejoin="round" d=" M 283.649, 301.175 289.825, 306.686 299.825, 306.555 308.708, 306.439 " />
            <path fill="#111131" stroke-width="0.0" stroke-linecap="butt" stroke-opacity="1.0" stroke="rgb(0, 0, 0)" stroke-linejoin="round" d=" M 267.649, 311.846 268.595, 311.215 268.786, 311.087 277.106, 305.539 283.649, 301.175 275.315, 306.701 268.662, 311.113 " />
            <path fill="#111131" stroke-width="0.0" stroke-linecap="butt" stroke-opacity="1.0" stroke="rgb(0, 0, 0)" stroke-linejoin="round" d=" M 277.473, 295.663 283.649, 301.175 292.015, 295.697 300.381, 290.219 304.590, 287.462 " />
            <path fill="#111131" stroke-width="0.0" stroke-linecap="butt" stroke-opacity="1.0" stroke="rgb(0, 0, 0)" stroke-linejoin="round" d=" M 266.636, 312.578 272.030, 304.158 277.473, 295.663 282.867, 287.243 288.309, 278.748 " />
            <path fill="#111131" stroke-width="0.0" stroke-linecap="butt" stroke-opacity="1.0" stroke="rgb(0, 0, 0)" stroke-linejoin="round" d=" M 701.576, 595.785 691.759, 597.690 681.942, 599.594 672.125, 601.499 666.850, 602.522 665.228, 592.655 663.606, 582.787 662.475, 575.907 660.852, 566.039 659.381, 557.087 657.758, 547.219 656.136, 537.352 654.514, 527.484 652.892, 517.617 651.269, 507.749 649.647, 497.882 648.025, 488.014 646.403, 478.147 644.780, 468.279 643.158, 458.411 641.536, 448.544 639.914, 438.676 638.291, 428.809 636.669, 418.941 635.047, 409.074 633.424, 399.206 631.802, 389.339 630.180, 379.471 628.558, 369.604 626.935, 359.736 625.313, 349.869 623.691, 340.001 622.069, 330.133 620.446, 320.266 618.824, 310.398 617.202, 300.531 615.580, 290.663 613.957, 280.796 612.335, 270.928 610.713, 261.061 609.091, 251.193 607.468, 241.326 605.846, 231.458 604.729, 224.663 605.727, 214.713 606.725, 204.763 606.958, 202.440 611.354, 193.459 612.065, 192.006 613.475, 189.126 619.868, 181.437 622.814, 177.892 630.923, 172.040 637.486, 167.303 647.121, 164.627 656.757, 161.951 662.116, 160.462 667.742, 168.729 673.368, 176.996 678.995, 185.263 682.018, 189.705 674.803, 191.709 665.168, 194.386 657.388, 196.547 648.983, 201.965 648.343, 202.378 643.087, 208.476 639.570, 216.142 639.920, 226.136 639.974, 227.671 641.625, 237.534 643.275, 247.397 644.926, 257.260 646.576, 267.123 648.227, 276.986 649.877, 286.849 651.528, 296.711 653.178, 306.574 654.829, 316.437 656.479, 326.300 658.130, 336.163 659.780, 346.026 661.431, 355.888 663.081, 365.751 664.732, 375.614 666.382, 385.477 668.033, 395.340 669.683, 405.203 671.333, 415.066 672.984, 424.928 674.635, 434.791 676.285, 444.654 677.935, 454.517 679.586, 464.380 681.237, 474.243 682.887, 484.106 684.537, 493.968 686.188, 503.831 687.839, 513.694 689.489, 523.557 691.139, 533.420 692.790, 543.283 694.440, 553.146 696.091, 563.008 697.741, 572.871 699.392, 582.734 701.416, 594.832 701.576, 595.785 " />
            <path fill="#111131" stroke-width="0.0" stroke-linecap="butt" stroke-opacity="1.0" stroke="rgb(0, 0, 0)" stroke-linejoin="round" d=" M 604.729, 224.663 614.693, 225.513 624.657, 226.364 634.620, 227.214 639.974, 227.671 " />
            <path fill="#111131" stroke-width="0.0" stroke-linecap="butt" stroke-opacity="1.0" stroke="rgb(0, 0, 0)" stroke-linejoin="round" d=" M 606.958, 202.440 616.177, 206.314 625.397, 210.188 634.616, 214.061 639.570, 216.142 " />
            <path fill="#111131" stroke-width="0.0" stroke-linecap="butt" stroke-opacity="1.0" stroke="rgb(0, 0, 0)" stroke-linejoin="round" d=" M 613.475, 189.126 617.841, 191.979 626.212, 197.449 634.583, 202.919 643.087, 208.476 " />
            <path fill="#111131" stroke-width="0.0" stroke-linecap="butt" stroke-opacity="1.0" stroke="rgb(0, 0, 0)" stroke-linejoin="round" d=" M 622.814, 177.892 630.031, 184.814 637.248, 191.736 637.405, 191.886 644.622, 198.808 648.343, 202.378 " />
            <path fill="#111131" stroke-width="0.0" stroke-linecap="butt" stroke-opacity="1.0" stroke="rgb(0, 0, 0)" stroke-linejoin="round" d=" M 637.486, 167.303 643.113, 175.571 648.739, 183.838 654.162, 191.807 657.388, 196.547 " />
            <path fill="#111131" stroke-width="0.0" stroke-linecap="butt" stroke-opacity="1.0" stroke="rgb(0, 0, 0)" stroke-linejoin="round" d=" M 832.236, 310.208 837.820, 318.504 843.404, 326.799 848.988, 335.095 854.572, 343.391 860.156, 351.687 865.740, 359.982 871.324, 368.278 876.908, 376.574 882.492, 384.870 888.076, 393.165 893.660, 401.461 899.244, 409.757 904.828, 418.052 910.412, 426.348 915.996, 434.644 921.580, 442.940 927.164, 451.235 932.748, 459.531 938.332, 467.827 943.916, 476.123 949.500, 484.418 955.084, 492.714 960.668, 501.010 966.252, 509.305 971.836, 517.601 977.420, 525.897 983.004, 534.193 988.588, 542.488 994.172, 550.784 999.756, 559.080 1005.340, 567.376 1010.924, 575.671 1016.508, 583.967 1022.080, 592.246 1025.231, 596.927 1029.200, 602.823 1034.784, 611.119 1035.589, 612.315 1033.940, 613.412 1025.617, 618.954 1017.293, 624.496 1008.969, 630.038 1006.145, 631.919 1001.389, 624.867 995.797, 616.577 993.673, 613.428 988.081, 605.138 982.489, 596.848 978.210, 590.504 972.618, 582.214 967.026, 573.923 961.434, 565.633 957.652, 560.027 952.060, 551.737 946.468, 543.446 940.876, 535.156 939.481, 533.087 933.889, 524.797 928.297, 516.507 922.705, 508.216 917.113, 499.926 911.521, 491.636 905.929, 483.345 900.337, 475.055 894.745, 466.765 889.153, 458.474 883.561, 450.184 877.969, 441.894 872.377, 433.603 866.785, 425.313 861.193, 417.023 855.601, 408.732 850.009, 400.442 844.417, 392.152 838.825, 383.861 833.233, 375.571 827.641, 367.281 822.049, 358.990 816.457, 350.700 810.865, 342.410 805.273, 334.120 799.681, 325.829 794.089, 317.539 790.885, 312.789 790.244, 302.810 789.604, 292.830 789.586, 292.550 797.129, 285.984 802.882, 280.977 812.881, 281.141 822.879, 281.306 832.878, 281.470 839.508, 281.579 849.507, 281.724 859.506, 281.869 869.505, 282.014 879.504, 282.160 889.503, 282.305 899.502, 282.450 909.501, 282.595 919.500, 282.740 929.499, 282.885 939.497, 283.030 949.496, 283.176 959.495, 283.321 969.494, 283.466 979.493, 283.611 989.492, 283.756 999.491, 283.901 1009.490, 284.047 1019.489, 284.192 1029.488, 284.337 1039.487, 284.482 1043.935, 284.547 1044.135, 294.544 1044.335, 304.542 1044.535, 314.541 1044.563, 315.950 1034.567, 315.677 1024.571, 315.405 1014.574, 315.132 1004.578, 314.860 994.582, 314.587 984.586, 314.315 974.589, 314.042 964.593, 313.770 954.597, 313.497 944.600, 313.225 934.604, 312.952 924.608, 312.680 914.612, 312.408 904.615, 312.135 894.619, 311.863 884.623, 311.590 874.626, 311.318 864.630, 311.045 854.634, 310.773 844.638, 310.500 841.082, 310.403 834.834, 309.637 833.535, 309.923 832.236, 310.208 " />
            <path fill="#111131" stroke-width="0.0" stroke-linecap="butt" stroke-opacity="1.0" stroke="rgb(0, 0, 0)" stroke-linejoin="round" d=" M 790.885, 312.789 800.402, 309.720 809.736, 306.710 " />
            <path fill="#111131" stroke-width="0.0" stroke-linecap="butt" stroke-opacity="1.0" stroke="rgb(0, 0, 0)" stroke-linejoin="round" d=" M 814.297, 301.008 809.736, 306.710 819.617, 308.246 829.499, 309.782 832.236, 310.208 " />
            <path fill="#111131" stroke-width="0.0" stroke-linecap="butt" stroke-opacity="1.0" stroke="rgb(0, 0, 0)" stroke-linejoin="round" d=" M 814.297, 301.008 804.836, 297.770 795.375, 294.531 789.586, 292.550 " />
            <path fill="#111131" stroke-width="0.0" stroke-linecap="butt" stroke-opacity="1.0" stroke="rgb(0, 0, 0)" stroke-linejoin="round" d=" M 802.882, 280.977 810.326, 287.654 817.770, 294.331 818.858, 295.307 " />
            <path fill="#111131" stroke-width="0.0" stroke-linecap="butt" stroke-opacity="1.0" stroke="rgb(0, 0, 0)" stroke-linejoin="round" d=" M 834.834, 309.637 827.390, 302.960 819.946, 296.283 818.858, 295.307 814.297, 301.008 823.370, 305.213 832.444, 309.417 833.535, 309.923 " />
            <path fill="#111131" stroke-width="0.0" stroke-linecap="butt" stroke-opacity="1.0" stroke="rgb(0, 0, 0)" stroke-linejoin="round" d=" M 839.508, 281.579 840.053, 291.564 840.598, 301.549 841.082, 310.403 " />
            <path fill="#111131" stroke-width="0.0" stroke-linecap="butt" stroke-opacity="1.0" stroke="rgb(0, 0, 0)" stroke-linejoin="round" d=" M 433.367, 156.247 430.981, 165.958 428.595, 175.669 426.208, 185.380 424.926, 190.598 " />
            <path fill="#111131" stroke-width="0.0" stroke-linecap="butt" stroke-opacity="1.0" stroke="rgb(0, 0, 0)" stroke-linejoin="round" d=" M 424.926, 190.598 414.926, 190.636 404.926, 190.674 394.926, 190.712 384.927, 190.750 374.927, 190.788 364.927, 190.826 354.927, 190.864 344.927, 190.902 334.927, 190.940 324.927, 190.978 314.927, 191.016 304.927, 191.054 294.927, 191.092 284.927, 191.130 274.927, 191.168 264.927, 191.206 254.927, 191.244 244.928, 191.282 234.928, 191.320 224.928, 191.358 214.928, 191.396 204.928, 191.434 194.928, 191.472 184.928, 191.510 174.928, 191.548 164.928, 191.586 154.928, 191.624 144.928, 191.662 134.928, 191.700 124.928, 191.738 114.929, 191.776 104.929, 191.814 94.929, 191.852 84.929, 191.890 74.929, 191.928 64.929, 191.966 54.336, 192.006 54.312, 182.006 54.288, 172.006 54.264, 162.006 54.252, 156.633 64.252, 156.623 74.252, 156.612 84.252, 156.602 94.252, 156.592 104.252, 156.582 114.252, 156.572 124.252, 156.562 134.252, 156.551 144.252, 156.541 154.252, 156.531 164.252, 156.521 174.252, 156.511 184.251, 156.500 194.251, 156.490 204.251, 156.480 214.251, 156.470 224.251, 156.460 234.251, 156.450 244.251, 156.439 254.251, 156.429 264.251, 156.419 274.251, 156.409 284.251, 156.399 294.251, 156.388 304.251, 156.378 314.251, 156.368 324.251, 156.358 334.251, 156.348 344.251, 156.338 354.251, 156.327 364.251, 156.317 374.251, 156.307 384.251, 156.297 394.251, 156.287 404.251, 156.277 414.251, 156.266 424.251, 156.256 433.367, 156.247 442.505, 160.309 449.951, 163.619 457.931, 169.646 460.677, 171.721 467.517, 179.016 473.102, 184.974 479.098, 192.977 481.169, 195.741 487.021, 203.551 490.828, 212.798 491.180, 213.653 494.988, 222.900 496.599, 226.812 489.407, 233.761 482.215, 240.709 475.023, 247.657 471.159, 251.391 467.352, 242.144 466.018, 238.905 462.211, 229.659 461.581, 228.129 456.293, 219.642 452.695, 213.867 446.298, 206.181 443.227, 202.490 435.708, 195.997 426.766, 191.520 424.926, 190.598 " />
            <path fill="#111131" stroke-width="0.0" stroke-linecap="butt" stroke-opacity="1.0" stroke="rgb(0, 0, 0)" stroke-linejoin="round" d=" M 449.951, 163.619 445.925, 172.772 441.898, 181.926 437.872, 191.079 435.708, 195.997 " />
            <path fill="#111131" stroke-width="0.0" stroke-linecap="butt" stroke-opacity="1.0" stroke="rgb(0, 0, 0)" stroke-linejoin="round" d=" M 460.677, 171.721 455.744, 180.420 450.811, 189.118 445.877, 197.816 443.227, 202.490 " />
            <path fill="#111131" stroke-width="0.0" stroke-linecap="butt" stroke-opacity="1.0" stroke="rgb(0, 0, 0)" stroke-linejoin="round" d=" M 473.102, 184.974 467.333, 193.142 461.564, 201.310 455.795, 209.478 452.695, 213.867 " />
            <path fill="#111131" stroke-width="0.0" stroke-linecap="butt" stroke-opacity="1.0" stroke="rgb(0, 0, 0)" stroke-linejoin="round" d=" M 487.021, 203.551 479.829, 210.499 472.637, 217.448 469.997, 219.998 462.805, 226.947 461.581, 228.129 " />
        </g>
    </g>
</svg>
