<?xml version='1.0' encoding='ascii'?>
<svg xmlns="http://www.w3.org/2000/svg" version="1.1" width="2080" height="2080">
    <g id="ViewLayer_LineSet" xmlns:inkscape="http://www.inkscape.org/namespaces/inkscape" inkscape:groupmode="lineset" inkscape:label="ViewLayer_LineSet">
        <g xmlns:inkscape="http://www.inkscape.org/namespaces/inkscape" inkscape:groupmode="layer" id="strokes" inkscape:label="strokes">
            <path fill="black" stroke-width="3.0" stroke-linecap="butt" stroke-opacity="1.0" stroke="rgb(0, 0, 0)" stroke-linejoin="round" d=" M 2057.794, 511.394 2057.794, 521.394 2057.794, 531.394 2057.794, 541.394 2057.794, 551.394 2057.794, 561.394 2057.794, 571.394 2057.794, 581.394 2057.794, 591.394 2057.794, 601.394 2057.794, 611.394 2057.794, 621.394 2057.794, 631.394 2057.794, 641.394 2057.794, 651.394 2057.794, 655.719 2047.794, 655.719 2037.794, 655.719 2027.794, 655.719 2017.794, 655.719 2007.794, 655.719 1997.794, 655.719 1987.794, 655.719 1977.794, 655.719 1967.794, 655.719 1957.794, 655.719 1947.794, 655.719 1937.794, 655.719 1931.759, 655.719 1921.759, 655.719 1911.759, 655.719 1901.759, 655.719 1891.759, 655.719 1881.759, 655.719 1871.759, 655.719 1861.759, 655.719 1851.759, 655.719 1841.759, 655.719 1831.759, 655.719 1821.759, 655.719 1811.759, 655.719 1801.759, 655.719 1791.759, 655.719 1787.435, 655.719 1777.435, 655.719 1767.435, 655.719 1757.435, 655.719 1747.435, 655.719 1737.435, 655.719 1727.435, 655.719 1717.435, 655.719 1707.435, 655.719 1697.435, 655.719 1687.435, 655.719 1677.435, 655.719 1667.435, 655.719 1657.435, 655.719 1655.105, 655.719 1655.105, 645.719 1655.105, 635.719 1655.105, 625.719 1655.105, 615.719 1655.105, 605.719 1655.105, 595.719 1655.105, 585.719 1655.105, 575.719 1655.105, 565.719 1655.105, 555.719 1655.105, 545.719 1655.105, 535.719 1655.105, 525.719 1655.105, 515.719 1655.105, 511.394 1665.105, 511.394 1675.105, 511.394 1685.105, 511.394 1695.105, 511.394 1705.105, 511.394 1715.105, 511.394 1725.105, 511.394 1735.105, 511.394 1745.105, 511.394 1755.105, 511.394 1765.105, 511.394 1775.105, 511.394 1785.105, 511.394 1787.435, 511.394 1797.435, 511.394 1807.435, 511.394 1817.435, 511.394 1827.435, 511.394 1837.435, 511.394 1847.435, 511.394 1857.435, 511.394 1867.435, 511.394 1877.435, 511.394 1887.435, 511.394 1897.435, 511.394 1907.435, 511.394 1917.435, 511.394 1927.435, 511.394 1931.760, 511.394 1941.760, 511.394 1951.760, 511.394 1961.760, 511.394 1971.760, 511.394 1981.760, 511.394 1991.760, 511.394 2001.760, 511.394 2011.760, 511.394 2021.760, 511.394 2031.760, 511.394 2041.760, 511.394 2051.760, 511.394 2057.794, 511.394 " />
            <path fill="black" stroke-width="3.0" stroke-linecap="butt" stroke-opacity="1.0" stroke="rgb(0, 0, 0)" stroke-linejoin="round" d=" M 174.237, 1472.910 174.240, 1462.910 174.243, 1452.910 174.246, 1442.910 174.250, 1432.910 174.253, 1422.910 174.256, 1412.910 174.259, 1402.910 174.262, 1392.910 174.265, 1382.910 174.268, 1372.910 174.271, 1362.910 174.274, 1352.910 174.277, 1345.163 174.280, 1335.163 174.282, 1328.495 " />
            <path fill="black" stroke-width="3.0" stroke-linecap="butt" stroke-opacity="1.0" stroke="rgb(0, 0, 0)" stroke-linejoin="round" d=" M 174.282, 1328.495 177.951, 1328.495 187.951, 1328.495 197.951, 1328.495 207.951, 1328.495 217.951, 1328.495 227.951, 1328.495 237.951, 1328.495 247.951, 1328.495 257.951, 1328.495 267.951, 1328.495 277.951, 1328.495 287.951, 1328.495 297.951, 1328.495 307.951, 1328.495 317.951, 1328.495 327.951, 1328.495 337.951, 1328.495 347.951, 1328.495 357.951, 1328.495 367.951, 1328.495 377.951, 1328.495 387.951, 1328.495 397.951, 1328.495 407.951, 1328.495 417.951, 1328.495 427.951, 1328.495 437.951, 1328.495 447.951, 1328.495 457.951, 1328.495 467.951, 1328.495 477.951, 1328.495 487.951, 1328.495 497.951, 1328.495 507.951, 1328.495 517.951, 1328.495 524.642, 1328.495 534.642, 1328.495 544.642, 1328.495 554.642, 1328.495 564.642, 1328.495 574.642, 1328.495 584.642, 1328.495 594.642, 1328.495 604.642, 1328.495 614.642, 1328.495 624.642, 1328.495 634.642, 1328.495 644.642, 1328.495 654.642, 1328.495 664.642, 1328.495 668.966, 1328.495 678.966, 1328.495 688.966, 1328.495 698.966, 1328.495 708.966, 1328.495 718.966, 1328.495 728.966, 1328.495 738.966, 1328.495 748.966, 1328.495 758.966, 1328.495 768.966, 1328.495 778.966, 1328.495 788.966, 1328.495 798.966, 1328.495 808.966, 1328.495 818.966, 1328.495 828.966, 1328.495 838.966, 1328.495 848.966, 1328.495 858.966, 1328.495 868.966, 1328.495 878.966, 1328.495 888.966, 1328.495 898.966, 1328.495 908.966, 1328.495 918.966, 1328.495 928.966, 1328.495 938.966, 1328.495 948.966, 1328.495 958.966, 1328.495 968.966, 1328.495 978.966, 1328.495 988.966, 1328.495 998.966, 1328.495 1008.966, 1328.495 1018.966, 1328.495 1028.966, 1328.495 1038.320, 1328.495 1048.320, 1328.495 1058.320, 1328.495 1068.320, 1328.495 1078.320, 1328.495 1088.320, 1328.495 1098.320, 1328.495 1108.320, 1328.495 1118.320, 1328.495 1128.320, 1328.495 1138.320, 1328.495 1148.320, 1328.495 1158.320, 1328.495 1168.320, 1328.495 1178.320, 1328.495 1182.645, 1328.495 1192.645, 1328.495 1202.645, 1328.495 1212.645, 1328.495 1222.645, 1328.495 1232.645, 1328.495 1242.645, 1328.495 1252.645, 1328.495 1262.645, 1328.495 1272.645, 1328.495 1282.645, 1328.495 1292.645, 1328.495 1302.645, 1328.495 1312.645, 1328.495 1322.645, 1328.495 1332.645, 1328.495 1342.645, 1328.495 1352.645, 1328.495 1362.645, 1328.495 1372.645, 1328.495 1382.645, 1328.495 1392.645, 1328.495 1402.645, 1328.495 1412.645, 1328.495 1422.645, 1328.495 1432.645, 1328.496 1442.645, 1328.496 1452.645, 1328.496 1462.645, 1328.496 1472.645, 1328.496 1482.645, 1328.496 1492.645, 1328.496 1502.645, 1328.496 1512.645, 1328.496 1522.645, 1328.496 1529.336, 1328.496 1533.005, 1328.496 1533.005, 1332.304 1533.005, 1342.304 1533.005, 1343.629 1533.005, 1345.163 1533.005, 1355.163 1533.005, 1365.163 1533.005, 1375.163 1533.005, 1385.163 1533.005, 1395.163 1533.005, 1405.163 1533.005, 1415.163 1533.005, 1425.163 1533.005, 1435.163 1533.005, 1445.163 1533.005, 1455.163 1533.005, 1465.163 1533.005, 1472.479 1533.005, 1472.820 1523.005, 1472.821 1513.005, 1472.821 1503.005, 1472.822 1493.005, 1472.823 1483.005, 1472.823 1473.005, 1472.824 1463.005, 1472.825 1453.005, 1472.825 1443.005, 1472.826 1433.005, 1472.827 1423.005, 1472.827 1413.005, 1472.828 1403.005, 1472.828 1393.005, 1472.829 1383.005, 1472.830 1373.005, 1472.831 1363.005, 1472.831 1353.005, 1472.832 1343.005, 1472.832 1333.005, 1472.833 1323.005, 1472.834 1313.005, 1472.834 1303.005, 1472.835 1293.005, 1472.836 1283.005, 1472.836 1273.005, 1472.837 1263.005, 1472.838 1253.005, 1472.838 1243.005, 1472.839 1233.005, 1472.840 1223.005, 1472.840 1213.005, 1472.841 1203.005, 1472.842 1193.005, 1472.842 1183.005, 1472.843 1173.005, 1472.844 1163.005, 1472.844 1153.005, 1472.845 1143.005, 1472.846 1133.005, 1472.846 1123.005, 1472.847 1113.005, 1472.848 1103.005, 1472.848 1093.005, 1472.849 1083.005, 1472.850 1073.005, 1472.850 1063.005, 1472.851 1053.005, 1472.852 1043.005, 1472.852 1033.005, 1472.853 1023.005, 1472.854 1013.005, 1472.854 1003.005, 1472.855 993.005, 1472.856 983.005, 1472.856 973.005, 1472.857 963.005, 1472.858 953.005, 1472.858 943.005, 1472.859 933.005, 1472.860 923.005, 1472.860 913.005, 1472.861 903.005, 1472.862 893.005, 1472.862 883.005, 1472.863 873.005, 1472.864 863.005, 1472.864 853.005, 1472.865 843.005, 1472.865 833.005, 1472.866 823.005, 1472.867 813.005, 1472.867 803.005, 1472.868 793.005, 1472.869 783.005, 1472.869 773.005, 1472.870 763.005, 1472.871 753.005, 1472.871 743.005, 1472.872 733.005, 1472.873 723.005, 1472.873 713.005, 1472.874 703.005, 1472.875 693.005, 1472.875 683.005, 1472.876 673.005, 1472.877 663.005, 1472.877 653.005, 1472.878 643.005, 1472.879 633.005, 1472.879 623.005, 1472.880 613.005, 1472.881 603.005, 1472.881 593.005, 1472.882 583.005, 1472.883 573.005, 1472.883 563.005, 1472.884 553.005, 1472.885 543.005, 1472.885 533.005, 1472.886 523.005, 1472.887 513.005, 1472.887 503.005, 1472.888 493.005, 1472.889 483.005, 1472.889 473.005, 1472.890 463.005, 1472.891 453.005, 1472.891 443.005, 1472.892 433.005, 1472.893 423.005, 1472.893 413.005, 1472.894 403.005, 1472.895 393.005, 1472.895 383.005, 1472.896 373.005, 1472.897 363.005, 1472.897 353.005, 1472.898 343.005, 1472.899 333.005, 1472.899 323.005, 1472.900 313.005, 1472.901 303.005, 1472.901 293.005, 1472.902 283.005, 1472.903 273.005, 1472.903 263.005, 1472.904 253.005, 1472.904 243.005, 1472.905 233.005, 1472.906 223.005, 1472.906 213.005, 1472.907 203.005, 1472.908 193.005, 1472.908 174.237, 1472.910 164.240, 1472.677 162.693, 1472.641 152.702, 1473.065 150.763, 1473.147 140.768, 1473.453 138.904, 1473.510 128.922, 1472.900 127.572, 1472.818 117.668, 1471.433 116.657, 1471.292 106.900, 1469.100 106.159, 1468.933 97.309, 1464.278 96.188, 1463.688 88.119, 1459.522 80.154, 1453.476 78.896, 1452.520 71.634, 1445.645 70.470, 1444.543 63.453, 1437.419 62.398, 1436.349 56.634, 1428.177 55.737, 1426.906 51.210, 1417.989 50.426, 1416.446 46.175, 1407.395 45.460, 1405.872 41.491, 1396.693 40.838, 1395.182 38.208, 1385.534 37.641, 1383.452 36.390, 1373.530 35.998, 1370.425 35.013, 1360.473 34.791, 1358.227 33.424, 1348.321 32.844, 1344.125 33.626, 1344.070 43.601, 1343.363 53.576, 1342.656 63.551, 1341.950 73.526, 1341.243 83.501, 1340.536 93.476, 1339.830 103.451, 1339.123 113.426, 1338.416 123.401, 1337.710 133.376, 1337.003 143.460, 1336.289 153.455, 1335.976 162.739, 1335.685 171.227, 1330.398 174.282, 1328.495 " />
            <path fill="black" stroke-width="3.0" stroke-linecap="butt" stroke-opacity="1.0" stroke="rgb(0, 0, 0)" stroke-linejoin="round" d=" M 88.119, 1459.522 93.280, 1450.957 98.441, 1442.392 103.602, 1433.827 108.763, 1425.261 113.925, 1416.696 119.086, 1408.131 124.247, 1399.566 129.408, 1391.001 134.569, 1382.435 139.730, 1373.870 144.891, 1365.305 150.053, 1356.740 155.214, 1348.175 157.028, 1345.163 162.189, 1336.598 162.739, 1335.685 " />
            <path fill="black" stroke-width="3.0" stroke-linecap="butt" stroke-opacity="1.0" stroke="rgb(0, 0, 0)" stroke-linejoin="round" d=" M 175.971, 952.203 177.951, 961.871 178.415, 964.141 177.951, 964.114 174.282, 963.901 164.299, 963.320 154.316, 962.740 144.332, 962.159 134.349, 961.578 124.366, 960.998 114.383, 960.417 104.400, 959.837 94.417, 959.256 84.434, 958.676 74.451, 958.095 64.467, 957.515 54.484, 956.934 44.501, 956.353 34.245, 955.757 33.683, 945.773 33.654, 945.265 33.697, 942.474 33.839, 933.325 34.110, 923.329 34.161, 921.464 35.346, 911.535 35.506, 910.192 37.460, 900.385 37.660, 899.383 40.412, 889.769 40.621, 889.039 45.780, 880.472 46.433, 879.388 51.058, 871.572 57.834, 864.218 60.106, 861.752 67.389, 854.899 68.556, 853.801 76.073, 847.207 77.203, 846.216 85.694, 840.934 87.015, 840.112 96.178, 836.106 97.764, 835.413 107.045, 831.692 108.607, 831.066 118.000, 827.634 119.546, 827.069 129.330, 825.001 131.441, 824.554 141.419, 823.878 144.541, 823.667 154.533, 823.258 156.788, 823.166 166.769, 822.549 175.046, 822.037 175.050, 822.371 175.180, 832.370 175.309, 842.370 175.439, 852.369 175.568, 862.368 175.698, 872.367 175.827, 882.366 175.957, 892.365 176.086, 902.365 176.216, 912.364 176.345, 922.363 176.482, 932.920 176.229, 942.474 175.971, 952.203 " />
            <path fill="black" stroke-width="3.0" stroke-linecap="butt" stroke-opacity="1.0" stroke="rgb(0, 0, 0)" stroke-linejoin="round" d=" M 51.058, 871.572 59.460, 876.995 67.861, 882.419 76.263, 887.842 84.665, 893.265 93.066, 898.688 101.468, 904.111 109.870, 909.535 118.271, 914.958 126.673, 920.381 135.075, 925.804 143.477, 931.228 151.878, 936.651 160.899, 942.474 169.301, 947.897 174.282, 951.112 175.971, 952.203 " />
            <path fill="black" stroke-width="3.0" stroke-linecap="butt" stroke-opacity="1.0" stroke="rgb(0, 0, 0)" stroke-linejoin="round" d=" M 1530.447, 1341.979 1529.842, 1332.182 1533.005, 1332.304 1542.998, 1332.691 1552.990, 1333.077 1562.983, 1333.464 1572.975, 1333.851 1582.968, 1334.237 1592.960, 1334.624 1602.953, 1335.011 1612.945, 1335.397 1622.938, 1335.784 1632.930, 1336.171 1642.923, 1336.557 1652.915, 1336.944 1662.908, 1337.330 1672.605, 1337.706 1673.088, 1345.163 1673.384, 1349.737 1673.392, 1359.737 1673.394, 1361.678 1673.286, 1371.677 1673.266, 1373.542 1672.242, 1383.489 1672.104, 1384.835 1670.310, 1394.673 1670.127, 1395.677 1667.532, 1405.335 1667.335, 1406.069 1662.317, 1414.718 1661.681, 1415.813 1657.184, 1423.703 1650.812, 1431.410 1649.806, 1432.628 1642.635, 1439.599 1641.486, 1440.716 1634.077, 1447.432 1632.964, 1448.441 1624.560, 1453.861 1623.253, 1454.704 1614.157, 1458.859 1612.583, 1459.578 1603.363, 1463.450 1601.811, 1464.101 1592.475, 1467.686 1590.939, 1468.275 1581.190, 1470.503 1579.086, 1470.984 1569.121, 1471.823 1566.002, 1472.085 1556.018, 1472.657 1553.766, 1472.786 1543.767, 1472.638 1533.768, 1472.490 1533.005, 1472.479 1532.082, 1472.466 1531.917, 1462.467 1531.753, 1452.468 1531.588, 1442.470 1531.423, 1432.471 1531.259, 1422.472 1531.094, 1412.474 1530.929, 1402.475 1530.765, 1392.476 1530.600, 1382.478 1530.435, 1372.479 1530.271, 1362.480 1530.251, 1361.267 1530.352, 1351.268 1530.415, 1345.163 1530.447, 1341.979 " />
            <path fill="black" stroke-width="3.0" stroke-linecap="butt" stroke-opacity="1.0" stroke="rgb(0, 0, 0)" stroke-linejoin="round" d=" M 1657.184, 1423.703 1648.780, 1418.284 1640.375, 1412.864 1631.971, 1407.445 1623.567, 1402.026 1615.163, 1396.607 1606.759, 1391.187 1598.354, 1385.768 1589.950, 1380.349 1581.546, 1374.929 1573.142, 1369.510 1564.737, 1364.091 1556.333, 1358.671 1547.929, 1353.252 1539.525, 1347.833 1535.385, 1345.163 1533.005, 1343.629 1530.447, 1341.979 " />
            <path fill="black" stroke-width="3.0" stroke-linecap="butt" stroke-opacity="1.0" stroke="rgb(0, 0, 0)" stroke-linejoin="round" d=" M 1537.319, 965.731 1533.005, 965.998 1529.336, 966.224 1527.522, 966.336 1527.877, 956.342 1528.232, 946.349 1528.587, 936.355 1528.942, 926.361 1529.296, 916.368 1529.651, 906.374 1530.006, 896.380 1530.361, 886.387 1530.716, 876.393 1531.071, 866.399 1531.426, 856.405 1531.781, 846.412 1532.136, 836.418 1532.491, 826.424 1532.622, 822.726 1533.005, 822.701 1542.984, 822.055 1544.653, 821.947 1554.653, 821.939 1556.594, 821.937 1566.593, 822.045 1568.458, 822.066 1578.406, 823.089 1579.751, 823.227 1589.589, 825.021 1590.594, 825.204 1600.251, 827.799 1600.985, 827.996 1610.151, 831.995 1612.001, 832.802 1619.890, 837.300 1628.131, 842.964 1634.323, 847.220 1641.081, 854.590 1641.563, 855.115 1648.279, 862.525 1649.288, 863.638 1654.708, 872.042 1655.551, 873.349 1659.706, 882.445 1660.425, 884.020 1664.297, 893.239 1664.948, 894.791 1668.533, 904.126 1669.123, 905.663 1671.350, 915.411 1671.831, 917.516 1672.670, 927.481 1672.932, 930.600 1673.504, 940.583 1673.612, 942.474 1673.632, 942.836 1673.485, 952.835 1673.338, 962.834 1673.313, 964.520 1663.313, 964.640 1653.314, 964.761 1643.315, 964.882 1633.316, 965.002 1623.316, 965.123 1613.317, 965.244 1603.318, 965.364 1593.318, 965.485 1583.319, 965.605 1573.320, 965.726 1563.321, 965.847 1556.607, 965.928 1546.608, 965.826 1537.319, 965.731 " />
            <path fill="black" stroke-width="3.0" stroke-linecap="butt" stroke-opacity="1.0" stroke="rgb(0, 0, 0)" stroke-linejoin="round" d=" M 1619.890, 837.300 1614.482, 845.711 1609.074, 854.123 1603.667, 862.534 1598.259, 870.946 1592.851, 879.358 1587.443, 887.769 1582.035, 896.181 1576.627, 904.592 1571.219, 913.004 1565.811, 921.415 1560.403, 929.827 1554.995, 938.238 1552.272, 942.474 1546.864, 950.885 1541.456, 959.297 1537.319, 965.731 " />
            <path fill="black" stroke-width="3.0" stroke-linecap="butt" stroke-opacity="1.0" stroke="rgb(0, 0, 0)" stroke-linejoin="round" d=" M 174.282, 966.696 174.282, 963.901 174.282, 953.901 174.282, 951.112 174.282, 942.474 174.282, 932.474 174.282, 922.474 174.282, 912.474 174.282, 902.474 174.282, 892.474 174.282, 882.474 174.282, 872.474 174.282, 862.474 174.282, 852.474 174.282, 842.474 174.282, 832.474 174.282, 822.371 175.050, 822.371 185.050, 822.371 195.050, 822.371 205.050, 822.371 215.050, 822.371 225.050, 822.371 235.050, 822.371 245.050, 822.371 255.050, 822.371 265.050, 822.371 275.050, 822.371 285.050, 822.371 295.050, 822.371 305.050, 822.371 315.050, 822.371 325.050, 822.371 335.050, 822.371 345.050, 822.371 355.050, 822.371 365.050, 822.371 375.050, 822.371 385.050, 822.371 395.050, 822.371 405.050, 822.371 415.050, 822.371 425.050, 822.371 435.050, 822.371 445.050, 822.371 455.050, 822.371 465.050, 822.371 475.050, 822.371 485.050, 822.371 495.050, 822.371 505.050, 822.371 515.050, 822.371 525.050, 822.371 535.050, 822.371 545.050, 822.371 555.050, 822.371 565.050, 822.371 575.050, 822.371 585.050, 822.371 595.050, 822.371 605.050, 822.371 615.050, 822.371 625.050, 822.371 635.050, 822.371 645.050, 822.371 655.050, 822.371 665.050, 822.371 675.050, 822.371 685.050, 822.371 695.050, 822.371 705.050, 822.371 715.050, 822.371 725.050, 822.371 735.050, 822.371 745.050, 822.371 755.050, 822.371 765.050, 822.371 775.050, 822.371 785.050, 822.371 795.050, 822.371 805.050, 822.371 815.050, 822.371 825.050, 822.371 835.050, 822.371 845.050, 822.371 855.050, 822.371 865.050, 822.371 875.050, 822.371 885.050, 822.371 895.050, 822.371 905.050, 822.371 915.050, 822.371 925.050, 822.371 935.050, 822.371 945.050, 822.371 955.050, 822.371 965.050, 822.371 975.050, 822.371 985.050, 822.371 995.050, 822.371 1005.050, 822.371 1015.050, 822.371 1025.050, 822.371 1035.050, 822.371 1045.050, 822.371 1055.050, 822.371 1065.050, 822.371 1075.050, 822.371 1085.050, 822.371 1095.050, 822.371 1105.050, 822.371 1115.050, 822.371 1125.050, 822.371 1135.050, 822.371 1145.050, 822.371 1155.050, 822.371 1165.050, 822.371 1175.050, 822.371 1185.050, 822.371 1195.050, 822.371 1205.050, 822.371 1215.050, 822.371 1225.050, 822.371 1235.050, 822.371 1245.050, 822.371 1255.050, 822.371 1265.050, 822.371 1275.050, 822.371 1285.050, 822.371 1295.050, 822.371 1305.050, 822.371 1315.050, 822.371 1325.050, 822.371 1335.050, 822.371 1345.050, 822.371 1355.050, 822.371 1365.050, 822.371 1375.050, 822.371 1385.050, 822.371 1395.050, 822.371 1405.050, 822.371 1415.050, 822.371 1425.050, 822.371 1435.050, 822.371 1445.050, 822.371 1455.050, 822.371 1465.050, 822.371 1475.050, 822.371 1485.050, 822.371 1495.050, 822.371 1505.050, 822.371 1515.050, 822.371 1533.005, 822.371 1533.005, 822.701 1533.005, 832.701 1533.005, 842.701 1533.005, 852.701 1533.005, 862.701 1533.005, 872.701 1533.005, 882.701 1533.005, 892.701 1533.005, 902.701 1533.005, 912.701 1533.005, 922.701 1533.005, 932.701 1533.005, 942.474 1533.005, 952.474 1533.005, 962.474 1533.005, 965.998 1533.005, 966.696 1529.336, 966.696 1519.336, 966.696 1509.336, 966.696 1499.336, 966.696 1489.336, 966.696 1479.336, 966.696 1469.336, 966.696 1459.336, 966.696 1449.336, 966.696 1439.336, 966.696 1429.336, 966.696 1419.336, 966.696 1409.336, 966.696 1399.336, 966.696 1389.336, 966.696 1379.336, 966.696 1369.336, 966.696 1359.336, 966.696 1349.336, 966.696 1339.336, 966.696 1329.336, 966.696 1319.336, 966.696 1309.336, 966.696 1299.336, 966.696 1289.336, 966.696 1279.336, 966.696 1269.336, 966.696 1259.336, 966.696 1249.336, 966.696 1239.336, 966.696 1229.336, 966.696 1219.336, 966.696 1209.336, 966.696 1199.336, 966.696 1189.336, 966.696 1182.645, 966.696 1172.645, 966.696 1162.645, 966.696 1152.645, 966.696 1142.645, 966.696 1132.645, 966.696 1122.645, 966.696 1112.645, 966.696 1102.645, 966.696 1092.645, 966.696 1082.645, 966.696 1072.645, 966.696 1062.645, 966.696 1052.645, 966.696 1042.645, 966.696 1038.320, 966.696 1028.320, 966.696 1018.320, 966.696 1008.320, 966.696 998.320, 966.696 988.320, 966.696 978.320, 966.696 968.320, 966.696 958.320, 966.696 948.320, 966.696 938.320, 966.696 928.320, 966.696 918.320, 966.696 908.320, 966.696 898.320, 966.696 888.320, 966.696 878.320, 966.696 868.320, 966.696 858.320, 966.696 848.320, 966.696 838.320, 966.696 828.320, 966.696 818.320, 966.696 808.320, 966.696 798.320, 966.696 788.320, 966.696 778.320, 966.696 768.320, 966.696 758.320, 966.696 748.320, 966.696 738.320, 966.696 728.320, 966.696 718.320, 966.696 708.320, 966.696 698.320, 966.696 688.320, 966.696 678.320, 966.696 668.967, 966.696 658.967, 966.696 648.967, 966.696 638.967, 966.696 628.967, 966.696 618.967, 966.696 608.967, 966.696 598.967, 966.696 588.967, 966.696 578.967, 966.696 568.967, 966.696 558.967, 966.696 548.967, 966.696 538.967, 966.696 528.967, 966.696 524.642, 966.696 514.642, 966.696 504.642, 966.696 494.642, 966.696 484.642, 966.696 474.642, 966.696 464.642, 966.696 454.642, 966.696 444.642, 966.696 434.642, 966.696 424.642, 966.696 414.642, 966.696 404.642, 966.696 394.642, 966.696 384.642, 966.696 374.642, 966.696 364.642, 966.696 354.642, 966.696 344.642, 966.696 334.642, 966.696 324.642, 966.696 314.642, 966.696 304.642, 966.696 294.642, 966.696 284.642, 966.696 274.642, 966.696 264.642, 966.696 254.642, 966.696 244.642, 966.696 234.642, 966.696 224.642, 966.696 214.642, 966.696 204.642, 966.696 194.642, 966.696 184.642, 966.696 177.951, 966.696 174.282, 966.696 " />
            <path fill="black" stroke-width="3.0" stroke-linecap="butt" stroke-opacity="1.0" stroke="rgb(0, 0, 0)" stroke-linejoin="round" d=" M 33.626, 942.474 33.697, 942.474 43.697, 942.474 53.697, 942.474 63.697, 942.474 73.697, 942.474 83.697, 942.474 93.697, 942.474 103.697, 942.474 113.697, 942.474 123.697, 942.474 133.697, 942.474 143.697, 942.474 153.697, 942.474 160.899, 942.474 170.899, 942.474 174.282, 942.474 176.229, 942.474 177.951, 942.474 177.951, 952.474 177.951, 961.871 177.951, 964.114 177.951, 966.696 177.951, 976.696 177.951, 986.696 177.951, 996.696 177.951, 1006.696 177.951, 1016.696 177.951, 1026.696 177.951, 1036.696 177.951, 1046.696 177.951, 1056.696 177.951, 1066.696 177.951, 1076.696 177.951, 1086.696 177.951, 1096.696 177.951, 1106.696 177.951, 1116.696 177.951, 1126.696 177.951, 1136.696 177.951, 1146.696 177.951, 1156.696 177.951, 1166.696 177.951, 1176.696 177.951, 1186.696 177.951, 1196.696 177.951, 1206.696 177.951, 1216.696 177.951, 1226.696 177.951, 1236.696 177.951, 1246.696 177.951, 1256.696 177.951, 1266.696 177.951, 1276.696 177.951, 1286.696 177.951, 1296.696 177.951, 1306.696 177.951, 1316.696 177.951, 1328.495 177.951, 1338.495 177.951, 1345.163 174.277, 1345.163 164.277, 1345.163 157.028, 1345.163 147.028, 1345.163 137.028, 1345.163 127.028, 1345.163 117.028, 1345.163 107.028, 1345.163 97.028, 1345.163 87.028, 1345.163 77.028, 1345.163 67.028, 1345.163 57.028, 1345.163 47.028, 1345.163 37.028, 1345.163 33.626, 1345.163 33.626, 1344.070 33.626, 1334.070 33.626, 1324.070 33.626, 1314.070 33.626, 1304.070 33.626, 1294.070 33.626, 1284.070 33.626, 1274.070 33.626, 1264.070 33.626, 1254.070 33.626, 1244.070 33.626, 1234.070 33.626, 1224.070 33.626, 1214.070 33.626, 1204.070 33.626, 1194.070 33.626, 1184.070 33.626, 1174.070 33.626, 1164.070 33.626, 1154.070 33.626, 1144.070 33.626, 1134.070 33.626, 1124.070 33.626, 1114.070 33.626, 1104.070 33.626, 1094.070 33.626, 1084.070 33.626, 1074.070 33.626, 1064.070 33.626, 1054.070 33.626, 1044.070 33.626, 1034.070 33.626, 1024.070 33.626, 1014.070 33.626, 1004.070 33.626, 994.070 33.626, 984.070 33.626, 974.070 33.626, 964.070 33.626, 954.070 33.626, 942.474 " />
            <path fill="black" stroke-width="3.0" stroke-linecap="butt" stroke-opacity="1.0" stroke="rgb(0, 0, 0)" stroke-linejoin="round" d=" M 524.642, 942.474 534.642, 942.474 544.642, 942.474 554.642, 942.474 564.642, 942.474 574.642, 942.474 584.642, 942.474 594.642, 942.474 604.642, 942.474 614.642, 942.474 624.642, 942.474 634.642, 942.474 644.642, 942.474 654.642, 942.474 664.642, 942.474 668.967, 942.474 668.967, 952.474 668.967, 962.474 668.967, 966.696 668.967, 976.696 668.967, 986.696 668.967, 996.696 668.967, 1006.696 668.967, 1016.696 668.967, 1026.696 668.967, 1036.696 668.967, 1046.696 668.967, 1056.696 668.967, 1066.696 668.967, 1076.696 668.967, 1086.696 668.967, 1096.696 668.966, 1106.696 668.966, 1116.696 668.966, 1126.696 668.966, 1136.696 668.966, 1146.696 668.966, 1156.696 668.966, 1166.696 668.966, 1176.696 668.966, 1186.696 668.966, 1196.696 668.966, 1206.696 668.966, 1216.696 668.966, 1226.696 668.966, 1236.696 668.966, 1246.696 668.966, 1256.696 668.966, 1266.696 668.966, 1276.696 668.966, 1286.696 668.966, 1296.696 668.966, 1306.696 668.966, 1316.696 668.966, 1328.495 668.966, 1338.495 668.966, 1345.163 658.966, 1345.163 648.966, 1345.163 638.966, 1345.163 628.966, 1345.163 618.966, 1345.163 608.966, 1345.163 598.966, 1345.163 588.966, 1345.163 578.966, 1345.163 568.966, 1345.163 558.966, 1345.163 548.966, 1345.163 538.966, 1345.163 528.966, 1345.163 524.642, 1345.163 524.642, 1335.163 524.642, 1328.495 524.642, 1318.495 524.642, 1308.495 524.642, 1298.495 524.642, 1288.495 524.642, 1278.495 524.642, 1268.495 524.642, 1258.495 524.642, 1248.495 524.642, 1238.495 524.642, 1228.495 524.642, 1218.495 524.642, 1208.495 524.642, 1198.495 524.642, 1188.495 524.642, 1178.495 524.642, 1168.495 524.642, 1158.495 524.642, 1148.495 524.642, 1138.495 524.642, 1128.495 524.642, 1118.495 524.642, 1108.495 524.642, 1098.495 524.642, 1088.495 524.642, 1078.495 524.642, 1068.495 524.642, 1058.495 524.642, 1048.495 524.642, 1038.495 524.642, 1028.495 524.642, 1018.495 524.642, 1008.495 524.642, 998.495 524.642, 988.495 524.642, 978.495 524.642, 966.696 524.642, 956.696 524.642, 946.696 524.642, 942.474 " />
            <path fill="black" stroke-width="3.0" stroke-linecap="butt" stroke-opacity="1.0" stroke="rgb(0, 0, 0)" stroke-linejoin="round" d=" M 1038.320, 942.474 1048.320, 942.474 1058.320, 942.474 1068.320, 942.474 1078.320, 942.474 1088.320, 942.474 1098.320, 942.474 1108.320, 942.474 1118.320, 942.474 1128.320, 942.474 1138.320, 942.474 1148.320, 942.474 1158.320, 942.474 1168.320, 942.474 1178.320, 942.474 1182.645, 942.474 1182.645, 952.474 1182.645, 962.474 1182.645, 966.696 1182.645, 976.696 1182.645, 986.696 1182.645, 996.696 1182.645, 1006.696 1182.645, 1016.696 1182.645, 1026.696 1182.645, 1036.696 1182.645, 1046.696 1182.645, 1056.696 1182.645, 1066.696 1182.645, 1076.696 1182.645, 1086.696 1182.645, 1096.696 1182.645, 1106.696 1182.645, 1116.696 1182.645, 1126.696 1182.645, 1136.696 1182.645, 1146.696 1182.645, 1156.696 1182.645, 1166.696 1182.645, 1176.696 1182.645, 1186.696 1182.645, 1196.696 1182.645, 1206.696 1182.645, 1216.696 1182.645, 1226.696 1182.645, 1236.696 1182.645, 1246.696 1182.645, 1256.696 1182.645, 1266.696 1182.645, 1276.696 1182.645, 1286.696 1182.645, 1296.696 1182.645, 1306.696 1182.645, 1316.696 1182.645, 1328.495 1182.645, 1338.495 1182.645, 1345.163 1172.645, 1345.163 1162.645, 1345.163 1152.645, 1345.163 1142.645, 1345.163 1132.645, 1345.163 1122.645, 1345.163 1112.645, 1345.163 1102.645, 1345.163 1092.645, 1345.163 1082.645, 1345.163 1072.645, 1345.163 1062.645, 1345.163 1052.645, 1345.163 1042.645, 1345.163 1038.320, 1345.163 1038.320, 1335.163 1038.320, 1328.495 1038.320, 1318.495 1038.320, 1308.495 1038.320, 1298.495 1038.320, 1288.495 1038.320, 1278.495 1038.320, 1268.495 1038.320, 1258.495 1038.320, 1248.495 1038.320, 1238.495 1038.320, 1228.495 1038.320, 1218.495 1038.320, 1208.495 1038.320, 1198.495 1038.320, 1188.495 1038.320, 1178.495 1038.320, 1168.495 1038.320, 1158.495 1038.320, 1148.495 1038.320, 1138.495 1038.320, 1128.495 1038.320, 1118.495 1038.320, 1108.495 1038.320, 1098.495 1038.320, 1088.495 1038.320, 1078.495 1038.320, 1068.495 1038.320, 1058.495 1038.320, 1048.495 1038.320, 1038.495 1038.320, 1028.495 1038.320, 1018.495 1038.320, 1008.495 1038.320, 998.495 1038.320, 988.495 1038.320, 978.495 1038.320, 966.696 1038.320, 956.696 1038.320, 946.696 1038.320, 942.474 " />
            <path fill="black" stroke-width="3.0" stroke-linecap="butt" stroke-opacity="1.0" stroke="rgb(0, 0, 0)" stroke-linejoin="round" d=" M 1529.336, 942.474 1533.005, 942.474 1543.005, 942.474 1552.272, 942.474 1562.272, 942.474 1572.272, 942.474 1582.272, 942.474 1592.272, 942.474 1602.272, 942.474 1612.272, 942.474 1622.272, 942.474 1632.272, 942.474 1642.272, 942.474 1652.272, 942.474 1662.272, 942.474 1672.272, 942.474 1673.612, 942.474 1673.661, 942.474 1673.661, 952.474 1673.661, 962.474 1673.661, 972.474 1673.661, 982.474 1673.661, 992.474 1673.661, 1002.474 1673.661, 1012.474 1673.661, 1022.474 1673.661, 1032.474 1673.661, 1042.474 1673.661, 1052.474 1673.661, 1062.474 1673.661, 1072.474 1673.661, 1082.474 1673.661, 1092.474 1673.661, 1102.474 1673.661, 1112.474 1673.661, 1122.474 1673.661, 1132.474 1673.661, 1142.474 1673.661, 1152.474 1673.661, 1162.474 1673.661, 1172.474 1673.661, 1182.474 1673.661, 1192.474 1673.661, 1202.474 1673.661, 1212.474 1673.661, 1222.474 1673.661, 1232.474 1673.661, 1242.474 1673.661, 1252.474 1673.661, 1262.474 1673.661, 1272.474 1673.661, 1282.474 1673.661, 1292.474 1673.661, 1302.474 1673.661, 1312.474 1673.661, 1322.474 1673.661, 1332.474 1673.661, 1345.163 1673.088, 1345.163 1663.088, 1345.163 1653.088, 1345.163 1643.088, 1345.163 1633.088, 1345.163 1623.088, 1345.163 1613.088, 1345.163 1603.088, 1345.163 1593.088, 1345.163 1583.088, 1345.163 1573.088, 1345.163 1563.088, 1345.163 1553.088, 1345.163 1543.088, 1345.163 1535.385, 1345.163 1533.005, 1345.163 1530.415, 1345.163 1529.336, 1345.163 1529.336, 1335.163 1529.336, 1328.496 1529.336, 1318.496 1529.336, 1308.496 1529.336, 1298.496 1529.336, 1288.496 1529.336, 1278.496 1529.336, 1268.496 1529.336, 1258.496 1529.336, 1248.496 1529.336, 1238.496 1529.336, 1228.496 1529.336, 1218.496 1529.336, 1208.496 1529.336, 1198.496 1529.336, 1188.496 1529.336, 1178.496 1529.336, 1168.496 1529.336, 1158.496 1529.336, 1148.496 1529.336, 1138.496 1529.336, 1128.496 1529.336, 1118.496 1529.336, 1108.496 1529.336, 1098.496 1529.336, 1088.496 1529.336, 1078.496 1529.336, 1068.496 1529.336, 1058.496 1529.336, 1048.495 1529.336, 1038.495 1529.336, 1028.495 1529.336, 1018.495 1529.336, 1008.495 1529.336, 998.495 1529.336, 988.495 1529.336, 978.495 1529.336, 966.696 1529.336, 966.224 1529.336, 956.224 1529.336, 946.224 1529.336, 942.474 " />
            <path fill="black" stroke-width="3.0" stroke-linecap="butt" stroke-opacity="1.0" stroke="rgb(0, 0, 0)" stroke-linejoin="round" d=" M 1787.435, 388.507 1797.435, 388.507 1807.435, 388.507 1817.435, 388.507 1827.435, 388.507 1837.435, 388.507 1847.435, 388.507 1857.435, 388.507 1867.435, 388.507 1877.435, 388.507 1887.435, 388.507 1897.435, 388.507 1907.435, 388.507 1917.435, 388.507 1927.435, 388.507 1931.760, 388.507 1931.760, 398.507 1931.760, 408.507 1931.760, 418.507 1931.760, 428.507 1931.760, 438.507 1931.760, 448.507 1931.760, 458.507 1931.760, 468.507 1931.760, 478.507 1931.760, 488.507 1931.760, 498.507 1931.760, 508.507 1931.760, 511.394 1931.760, 521.394 1931.760, 531.394 1931.759, 541.394 1931.759, 551.394 1931.759, 561.394 1931.759, 571.394 1931.759, 581.394 1931.759, 591.394 1931.759, 601.394 1931.759, 611.394 1931.759, 621.394 1931.759, 631.394 1931.759, 641.394 1931.759, 651.394 1931.759, 655.719 1931.759, 665.719 1931.759, 675.719 1931.759, 685.719 1931.759, 695.719 1931.759, 705.719 1931.759, 715.719 1931.759, 725.719 1931.759, 735.719 1931.759, 745.719 1931.759, 755.719 1931.759, 765.719 1931.759, 775.719 1931.759, 785.719 1931.759, 791.196 1921.759, 791.196 1911.759, 791.196 1901.759, 791.196 1891.759, 791.196 1881.759, 791.196 1871.759, 791.196 1861.759, 791.196 1851.759, 791.196 1841.759, 791.196 1831.759, 791.196 1821.759, 791.196 1811.759, 791.196 1801.759, 791.196 1791.759, 791.196 1787.435, 791.196 1787.435, 781.196 1787.435, 771.196 1787.435, 761.196 1787.435, 751.196 1787.435, 741.196 1787.435, 731.196 1787.435, 721.196 1787.435, 711.196 1787.435, 701.196 1787.435, 691.196 1787.435, 681.196 1787.435, 671.196 1787.435, 661.196 1787.435, 655.719 1787.435, 645.719 1787.435, 635.719 1787.435, 625.719 1787.435, 615.719 1787.435, 605.719 1787.435, 595.719 1787.435, 585.719 1787.435, 575.719 1787.435, 565.719 1787.435, 555.719 1787.435, 545.719 1787.435, 535.719 1787.435, 525.719 1787.435, 515.719 1787.435, 511.394 1787.435, 501.394 1787.435, 491.394 1787.435, 481.394 1787.435, 471.394 1787.435, 461.394 1787.435, 451.394 1787.435, 441.394 1787.435, 431.394 1787.435, 421.394 1787.435, 411.394 1787.435, 401.394 1787.435, 391.394 1787.435, 388.507 " />
        </g>
    </g>
</svg>
