<?xml version='1.0' encoding='ascii'?>
<svg xmlns="http://www.w3.org/2000/svg" version="1.1" width="1080" height="1080">
    <g id="ViewLayer_LineSet" xmlns:inkscape="http://www.inkscape.org/namespaces/inkscape" inkscape:groupmode="lineset" inkscape:label="ViewLayer_LineSet">
        <g xmlns:inkscape="http://www.inkscape.org/namespaces/inkscape" inkscape:groupmode="layer" id="strokes" inkscape:label="strokes">
            <path fill="black" stroke-width="3.0" stroke-linecap="butt" stroke-opacity="1.0" stroke="rgb(0, 0, 0)" stroke-linejoin="round" d=" M 852.983, 792.559 852.981, 795.086 852.977, 805.086 852.972, 815.086 852.969, 822.406 862.969, 822.411 872.969, 822.415 879.283, 822.418 889.283, 822.423 899.283, 822.427 909.283, 822.432 919.283, 822.437 929.283, 822.441 939.283, 822.446 949.283, 822.451 959.283, 822.455 969.283, 822.460 979.283, 822.464 989.283, 822.469 995.166, 822.472 995.171, 812.472 995.175, 802.472 995.180, 793.004 995.180, 792.625 985.180, 792.620 975.180, 792.615 965.715, 792.611 955.715, 792.606 945.715, 792.602 935.715, 792.597 925.715, 792.592 915.715, 792.588 905.715, 792.583 895.715, 792.578 885.715, 792.574 879.855, 792.571 869.855, 792.566 859.855, 792.562 852.983, 792.559 " />
            <path fill="black" stroke-width="3.0" stroke-linecap="butt" stroke-opacity="1.0" stroke="rgb(0, 0, 0)" stroke-linejoin="round" d=" M 208.710, 787.241 218.710, 787.241 228.710, 787.241 238.557, 787.241 238.557, 784.705 238.557, 774.705 238.557, 764.705 238.557, 754.705 238.557, 744.705 238.557, 734.705 238.557, 724.705 238.557, 714.705 238.557, 704.705 238.557, 694.705 238.557, 684.705 238.557, 674.705 238.557, 664.705 238.557, 654.705 238.557, 644.705 238.557, 634.705 238.557, 624.705 238.557, 614.705 238.557, 604.705 238.557, 594.705 238.557, 584.705 238.557, 574.705 238.557, 564.705 238.557, 554.705 238.557, 544.705 238.557, 534.705 238.557, 524.705 238.557, 514.705 238.557, 504.705 238.557, 494.705 238.557, 484.705 238.557, 474.705 238.557, 464.705 238.557, 454.705 238.557, 444.705 238.557, 434.705 238.557, 424.705 238.557, 414.705 238.557, 404.705 238.557, 394.705 238.557, 384.705 238.557, 374.705 238.557, 364.705 238.557, 354.705 238.557, 344.705 238.557, 334.705 238.557, 324.705 238.557, 314.705 238.557, 304.705 238.557, 294.705 238.557, 284.705 238.557, 274.705 238.557, 264.705 238.557, 254.705 238.557, 244.705 238.557, 234.705 238.557, 224.705 238.557, 214.705 238.557, 204.705 238.557, 194.705 238.557, 184.705 238.557, 174.705 238.557, 167.272 238.557, 160.997 228.557, 160.997 218.557, 160.997 208.710, 160.997 208.710, 167.258 208.710, 177.258 208.710, 187.258 208.710, 197.258 208.710, 207.258 208.710, 217.258 208.710, 227.258 208.710, 237.258 208.710, 247.258 208.710, 257.258 208.710, 267.258 208.710, 277.258 208.710, 287.258 208.710, 297.258 208.710, 307.258 208.710, 317.258 208.710, 327.258 208.710, 337.258 208.710, 347.258 208.710, 357.258 208.710, 367.258 208.710, 377.258 208.710, 387.258 208.710, 397.258 208.710, 407.258 208.710, 417.258 208.710, 427.258 208.710, 437.258 208.710, 447.258 208.710, 457.258 208.710, 467.258 208.710, 477.258 208.710, 487.258 208.710, 497.258 208.710, 507.258 208.710, 517.258 208.710, 527.258 208.710, 537.258 208.710, 547.258 208.710, 557.258 208.710, 567.258 208.710, 577.258 208.710, 587.258 208.710, 597.258 208.710, 607.258 208.710, 617.258 208.710, 627.258 208.710, 637.258 208.710, 647.258 208.710, 657.258 208.710, 667.258 208.710, 677.258 208.710, 687.258 208.710, 697.258 208.710, 707.258 208.710, 717.258 208.710, 727.258 208.710, 737.258 208.710, 747.258 208.710, 757.258 208.710, 767.258 208.710, 777.258 208.710, 784.691 208.710, 787.241 " />
            <path fill="black" stroke-width="3.0" stroke-linecap="butt" stroke-opacity="1.0" stroke="rgb(0, 0, 0)" stroke-linejoin="round" d=" M 850.007, 795.086 852.981, 795.086 862.981, 795.086 872.981, 795.086 879.855, 795.086 " />
            <path fill="black" stroke-width="3.0" stroke-linecap="butt" stroke-opacity="1.0" stroke="rgb(0, 0, 0)" stroke-linejoin="round" d=" M 879.855, 795.086 879.855, 792.571 879.855, 782.571 879.855, 772.571 879.855, 762.571 879.855, 752.571 879.855, 742.571 879.855, 732.571 879.855, 722.571 879.855, 712.571 879.855, 702.571 879.855, 692.571 879.855, 682.571 879.855, 672.571 879.855, 662.571 879.855, 652.571 879.855, 642.571 879.855, 632.571 879.855, 622.571 879.855, 612.571 879.855, 602.571 879.855, 592.571 879.855, 582.571 879.855, 572.571 879.855, 562.571 879.855, 552.571 879.855, 542.571 879.855, 532.571 879.855, 522.571 879.855, 512.571 879.855, 502.571 879.855, 492.571 879.855, 482.571 879.855, 472.571 879.855, 462.571 879.855, 452.571 879.855, 442.571 879.855, 432.571 879.855, 422.571 879.855, 412.571 879.855, 402.571 879.855, 392.571 879.855, 382.571 879.855, 372.571 879.855, 362.571 879.855, 352.571 879.855, 342.571 879.855, 332.571 879.855, 322.571 879.855, 312.571 879.855, 302.571 879.855, 292.571 879.855, 282.571 879.855, 272.571 879.855, 262.571 879.855, 252.571 879.855, 242.571 879.855, 232.571 879.855, 222.571 879.855, 212.571 879.855, 202.571 879.855, 192.571 879.855, 182.571 879.855, 168.842 869.855, 168.842 859.855, 168.842 850.007, 168.842 850.007, 178.842 850.007, 188.842 850.007, 198.842 850.007, 208.842 850.007, 218.842 850.007, 228.842 850.007, 238.842 850.007, 248.842 850.007, 258.842 850.007, 268.842 850.007, 278.842 850.007, 288.842 850.007, 298.842 850.007, 308.842 850.007, 318.842 850.007, 328.842 850.007, 338.842 850.007, 348.842 850.007, 358.842 850.007, 368.842 850.007, 378.842 850.007, 388.842 850.007, 398.842 850.007, 408.842 850.007, 418.842 850.007, 428.842 850.007, 438.842 850.007, 448.842 850.007, 458.842 850.007, 468.842 850.007, 478.842 850.007, 488.842 850.007, 498.842 850.007, 508.842 850.007, 518.842 850.007, 528.842 850.007, 538.842 850.007, 548.842 850.007, 558.842 850.007, 568.842 850.007, 578.842 850.007, 588.842 850.007, 598.842 850.007, 608.842 850.007, 618.842 850.007, 628.842 850.007, 638.842 850.007, 648.842 850.007, 658.842 850.007, 668.842 850.007, 678.842 850.007, 688.842 850.007, 698.842 850.007, 708.842 850.007, 718.842 850.007, 728.842 850.007, 738.842 850.007, 748.842 850.007, 758.842 850.007, 768.842 850.007, 778.842 850.007, 795.086 849.991, 805.086 849.975, 815.086 849.959, 825.086 849.943, 835.086 849.927, 845.086 849.912, 855.086 849.909, 856.806 847.434, 866.495 844.959, 876.184 842.484, 885.873 840.009, 895.562 838.926, 899.804 832.828, 907.730 826.731, 915.656 820.633, 923.582 814.535, 931.508 809.032, 938.661 800.536, 943.935 792.040, 949.209 783.544, 954.483 778.846, 957.400 769.229, 960.138 759.611, 962.877 749.993, 965.616 740.375, 968.354 739.371, 968.640 729.371, 968.598 719.371, 968.556 709.371, 968.513 704.896, 968.494 694.896, 968.452 684.896, 968.409 674.896, 968.367 664.896, 968.325 654.896, 968.282 646.676, 968.247 636.676, 968.205 632.525, 968.187 622.525, 968.145 612.525, 968.103 602.525, 968.060 592.526, 968.018 582.526, 967.975 572.526, 967.933 562.526, 967.891 552.526, 967.848 542.526, 967.806 532.526, 967.763 522.526, 967.721 512.526, 967.679 502.526, 967.636 492.526, 967.594 482.527, 967.552 472.527, 967.509 462.527, 967.467 452.527, 967.424 442.527, 967.382 432.527, 967.340 422.527, 967.297 412.527, 967.255 402.527, 967.212 392.527, 967.170 382.527, 967.128 372.528, 967.085 362.528, 967.043 352.528, 967.000 342.528, 966.958 332.528, 966.916 322.528, 966.873 312.528, 966.831 302.528, 966.789 292.528, 966.746 282.528, 966.704 272.528, 966.661 262.529, 966.619 252.529, 966.577 242.529, 966.534 232.529, 966.492 222.529, 966.449 212.529, 966.407 202.529, 966.365 192.529, 966.322 182.529, 966.280 176.139, 966.253 166.818, 962.630 157.498, 959.006 148.177, 955.383 138.857, 951.760 129.536, 948.137 126.962, 947.136 119.922, 940.033 112.883, 932.931 105.843, 925.828 98.804, 918.725 91.654, 911.511 87.921, 902.234 84.187, 892.957 80.454, 883.680 76.721, 874.403 75.109, 870.396 75.807, 860.421 76.505, 850.445 77.204, 840.469 77.902, 830.494 78.600, 820.518 79.023, 814.478 79.721, 804.503 80.420, 794.527 80.626, 791.582 70.660, 790.761 60.693, 789.940 51.381, 789.174 50.879, 789.132 50.181, 799.108 49.483, 809.084 48.784, 819.059 48.086, 829.035 47.388, 839.010 46.689, 848.986 45.991, 858.962 45.362, 867.947 48.574, 877.417 51.786, 886.887 54.998, 896.357 58.210, 905.827 61.422, 915.297 63.495, 921.409 70.218, 928.813 76.940, 936.217 83.662, 943.620 90.384, 951.024 97.106, 958.428 103.828, 965.831 107.002, 969.328 116.275, 973.071 125.548, 976.813 134.821, 980.556 144.095, 984.299 153.368, 988.042 162.641, 991.785 171.914, 995.528 172.894, 995.923 182.894, 995.964 192.894, 996.005 202.893, 996.046 212.893, 996.087 222.893, 996.128 232.893, 996.170 242.893, 996.211 252.893, 996.252 262.893, 996.293 272.893, 996.334 282.893, 996.375 292.893, 996.416 302.893, 996.457 312.893, 996.498 322.892, 996.539 332.892, 996.580 342.892, 996.621 352.892, 996.662 362.892, 996.703 372.892, 996.744 382.892, 996.786 392.892, 996.827 402.892, 996.868 412.892, 996.909 422.892, 996.950 432.892, 996.991 442.891, 997.032 452.891, 997.073 462.891, 997.114 472.891, 997.155 482.891, 997.196 492.891, 997.237 502.891, 997.278 512.891, 997.319 522.891, 997.360 532.891, 997.402 542.891, 997.443 552.891, 997.484 562.890, 997.525 572.890, 997.566 582.890, 997.607 592.890, 997.648 602.890, 997.689 612.890, 997.730 622.890, 997.771 632.890, 997.812 642.890, 997.853 652.890, 997.894 662.890, 997.935 672.890, 997.976 682.889, 998.018 692.889, 998.059 702.606, 998.099 707.358, 998.118 717.358, 998.159 727.358, 998.200 737.358, 998.241 743.014, 998.264 752.627, 995.510 762.240, 992.756 771.854, 990.002 781.467, 987.248 791.080, 984.494 791.811, 984.284 800.201, 978.844 808.592, 973.404 816.983, 967.964 825.373, 962.523 830.981, 958.887 837.078, 950.961 843.175, 943.034 849.271, 935.108 855.368, 927.181 861.465, 919.254 864.139, 915.777 866.878, 906.159 869.616, 896.541 872.355, 886.924 875.093, 877.306 877.832, 867.688 878.377, 865.774 878.586, 855.776 878.795, 845.778 879.004, 835.780 879.213, 825.783 879.283, 822.418 879.492, 812.420 879.701, 802.422 879.855, 795.086 " />
            <path fill="black" stroke-width="3.0" stroke-linecap="butt" stroke-opacity="1.0" stroke="rgb(0, 0, 0)" stroke-linejoin="round" d=" M 849.909, 856.806 859.447, 859.811 868.985, 862.815 878.377, 865.774 " />
            <path fill="black" stroke-width="3.0" stroke-linecap="butt" stroke-opacity="1.0" stroke="rgb(0, 0, 0)" stroke-linejoin="round" d=" M 838.926, 899.804 847.373, 905.156 855.821, 910.507 864.139, 915.777 " />
            <path fill="black" stroke-width="3.0" stroke-linecap="butt" stroke-opacity="1.0" stroke="rgb(0, 0, 0)" stroke-linejoin="round" d=" M 809.032, 938.661 816.386, 945.437 823.740, 952.214 830.981, 958.887 " />
            <path fill="black" stroke-width="3.0" stroke-linecap="butt" stroke-opacity="1.0" stroke="rgb(0, 0, 0)" stroke-linejoin="round" d=" M 778.846, 957.400 783.190, 966.407 787.533, 975.415 791.811, 984.284 " />
            <path fill="black" stroke-width="3.0" stroke-linecap="butt" stroke-opacity="1.0" stroke="rgb(0, 0, 0)" stroke-linejoin="round" d=" M 739.371, 968.640 740.591, 978.566 741.812, 988.491 743.014, 998.264 " />
            <path fill="black" stroke-width="3.0" stroke-linecap="butt" stroke-opacity="1.0" stroke="rgb(0, 0, 0)" stroke-linejoin="round" d=" M 176.139, 966.253 175.052, 976.194 173.964, 986.134 172.894, 995.923 " />
            <path fill="black" stroke-width="3.0" stroke-linecap="butt" stroke-opacity="1.0" stroke="rgb(0, 0, 0)" stroke-linejoin="round" d=" M 126.962, 947.136 120.274, 954.571 113.587, 962.006 107.002, 969.328 " />
            <path fill="black" stroke-width="3.0" stroke-linecap="butt" stroke-opacity="1.0" stroke="rgb(0, 0, 0)" stroke-linejoin="round" d=" M 91.654, 911.511 82.220, 914.827 72.786, 918.144 63.495, 921.409 " />
            <path fill="black" stroke-width="3.0" stroke-linecap="butt" stroke-opacity="1.0" stroke="rgb(0, 0, 0)" stroke-linejoin="round" d=" M 75.109, 870.396 65.142, 869.576 55.176, 868.755 45.362, 867.947 " />
            <path fill="black" stroke-width="3.0" stroke-linecap="butt" stroke-opacity="1.0" stroke="rgb(0, 0, 0)" stroke-linejoin="round" d=" M 707.251, 999.744 707.358, 998.118 708.015, 988.140 708.673, 978.161 709.213, 969.962 704.896, 968.494 695.428, 965.276 685.960, 962.058 676.492, 958.840 667.023, 955.622 659.257, 952.983 651.918, 946.191 644.579, 939.398 637.240, 932.606 629.901, 925.813 622.446, 918.914 618.317, 909.806 614.187, 900.699 610.057, 891.592 605.927, 882.484 604.144, 878.551 604.411, 868.554 604.679, 858.558 604.946, 848.561 605.214, 838.565 605.481, 828.568 605.749, 818.572 605.852, 814.722 606.119, 804.726 606.257, 799.571 596.265, 799.181 586.272, 798.791 576.433, 798.407 576.165, 808.404 575.996, 814.708 575.729, 824.705 575.461, 834.701 575.194, 844.698 574.926, 854.694 574.659, 864.690 574.391, 874.687 574.319, 877.386 577.937, 886.709 581.554, 896.032 585.172, 905.355 588.789, 914.677 592.406, 924.000 594.741, 930.017 601.776, 937.124 608.811, 944.231 615.846, 951.338 622.881, 958.445 629.916, 965.552 632.525, 968.187 639.560, 975.294 640.273, 976.015 649.699, 979.354 659.125, 982.694 668.551, 986.033 677.977, 989.373 687.403, 992.712 696.829, 996.052 702.606, 998.099 707.251, 999.744 " />
            <path fill="black" stroke-width="3.0" stroke-linecap="butt" stroke-opacity="1.0" stroke="rgb(0, 0, 0)" stroke-linejoin="round" d=" M 659.257, 952.983 652.897, 960.700 646.676, 968.247 640.273, 976.015 " />
            <path fill="black" stroke-width="3.0" stroke-linecap="butt" stroke-opacity="1.0" stroke="rgb(0, 0, 0)" stroke-linejoin="round" d=" M 622.446, 918.914 613.164, 922.634 603.882, 926.354 594.741, 930.017 " />
            <path fill="black" stroke-width="3.0" stroke-linecap="butt" stroke-opacity="1.0" stroke="rgb(0, 0, 0)" stroke-linejoin="round" d=" M 604.144, 878.551 594.151, 878.161 584.159, 877.770 574.319, 877.386 " />
            <path fill="black" stroke-width="3.0" stroke-linecap="butt" stroke-opacity="1.0" stroke="rgb(0, 0, 0)" stroke-linejoin="round" d=" M 208.711, 137.411 208.706, 147.411 208.702, 157.411 208.697, 167.258 208.710, 167.258 218.710, 167.263 228.710, 167.267 238.557, 167.272 248.557, 167.276 258.557, 167.281 268.557, 167.286 278.557, 167.290 288.557, 167.295 298.557, 167.299 308.557, 167.304 318.557, 167.309 328.557, 167.313 338.557, 167.318 348.557, 167.323 358.557, 167.327 368.557, 167.332 378.557, 167.337 388.557, 167.341 398.557, 167.346 408.557, 167.350 418.557, 167.355 428.557, 167.360 438.557, 167.364 448.557, 167.369 458.557, 167.374 468.557, 167.378 478.557, 167.383 488.557, 167.388 498.557, 167.392 508.557, 167.397 518.557, 167.401 528.557, 167.406 538.557, 167.411 548.557, 167.415 558.557, 167.420 568.557, 167.424 578.557, 167.429 588.557, 167.434 598.557, 167.438 608.557, 167.443 618.557, 167.448 628.557, 167.452 638.557, 167.457 648.557, 167.462 658.557, 167.466 668.557, 167.471 678.557, 167.475 688.557, 167.480 698.557, 167.485 708.557, 167.489 718.557, 167.494 728.557, 167.499 738.557, 167.503 748.557, 167.508 758.557, 167.513 768.557, 167.517 778.557, 167.522 788.557, 167.526 798.557, 167.531 808.557, 167.536 818.557, 167.540 828.557, 167.545 838.557, 167.550 848.557, 167.554 858.557, 167.559 868.557, 167.563 881.815, 167.570 881.820, 157.570 881.824, 147.570 881.829, 137.722 871.829, 137.718 861.829, 137.713 851.829, 137.708 841.829, 137.704 831.829, 137.699 821.829, 137.695 811.829, 137.690 801.829, 137.685 791.829, 137.681 781.829, 137.676 771.829, 137.671 761.829, 137.667 751.829, 137.662 741.829, 137.657 731.829, 137.653 721.829, 137.648 711.829, 137.644 701.829, 137.639 691.829, 137.634 681.829, 137.630 671.829, 137.625 661.829, 137.620 651.829, 137.616 641.829, 137.611 631.829, 137.607 621.829, 137.602 611.829, 137.597 601.829, 137.593 591.829, 137.588 581.829, 137.583 571.829, 137.579 561.829, 137.574 551.829, 137.570 541.829, 137.565 531.829, 137.560 521.829, 137.556 511.829, 137.551 501.829, 137.546 491.829, 137.542 481.829, 137.537 471.829, 137.532 461.829, 137.528 451.829, 137.523 441.829, 137.519 431.829, 137.514 421.829, 137.509 411.829, 137.505 401.829, 137.500 391.829, 137.495 383.683, 137.492 373.683, 137.487 363.683, 137.482 353.836, 137.478 343.836, 137.473 333.836, 137.469 323.836, 137.464 313.836, 137.459 303.836, 137.455 293.836, 137.450 283.836, 137.445 273.836, 137.441 263.836, 137.436 253.836, 137.432 243.836, 137.427 233.836, 137.422 223.836, 137.418 213.836, 137.413 208.711, 137.411 " />
            <path fill="black" stroke-width="3.0" stroke-linecap="butt" stroke-opacity="1.0" stroke="rgb(0, 0, 0)" stroke-linejoin="round" d=" M 364.778, 31.518 364.777, 33.475 364.772, 43.475 364.768, 53.475 364.764, 61.365 374.764, 61.370 383.683, 61.374 393.683, 61.379 403.683, 61.383 413.683, 61.388 423.683, 61.392 433.683, 61.397 443.683, 61.402 453.683, 61.406 463.683, 61.411 473.683, 61.416 483.683, 61.420 493.683, 61.425 503.683, 61.430 513.683, 61.434 523.683, 61.439 533.683, 61.443 543.683, 61.448 553.683, 61.453 563.683, 61.457 573.683, 61.462 583.683, 61.467 593.683, 61.471 603.683, 61.476 613.683, 61.480 623.683, 61.485 633.683, 61.490 643.683, 61.494 653.683, 61.499 663.683, 61.504 673.683, 61.508 683.683, 61.513 693.683, 61.518 703.683, 61.522 713.683, 61.527 723.683, 61.531 733.683, 61.536 743.683, 61.541 753.683, 61.545 763.683, 61.550 773.683, 61.555 783.683, 61.559 793.683, 61.564 803.683, 61.568 813.683, 61.573 823.683, 61.578 833.683, 61.582 843.683, 61.587 853.683, 61.592 863.683, 61.596 873.683, 61.601 883.683, 61.605 893.683, 61.610 903.683, 61.615 913.683, 61.619 923.683, 61.624 933.683, 61.629 943.683, 61.633 953.683, 61.638 965.715, 61.643 975.715, 61.648 985.715, 61.653 995.563, 61.657 996.387, 61.658 996.392, 51.658 996.397, 41.658 996.401, 31.810 986.401, 31.806 976.401, 31.801 966.401, 31.797 956.401, 31.792 946.401, 31.787 936.401, 31.783 926.401, 31.778 916.401, 31.773 906.401, 31.769 896.401, 31.764 886.401, 31.759 876.401, 31.755 866.401, 31.750 856.401, 31.746 846.401, 31.741 836.401, 31.736 826.401, 31.732 816.401, 31.727 806.401, 31.722 796.401, 31.718 786.401, 31.713 776.401, 31.708 766.401, 31.704 756.401, 31.699 746.401, 31.695 736.401, 31.690 726.401, 31.685 716.401, 31.681 706.401, 31.676 696.401, 31.672 686.401, 31.667 676.401, 31.662 666.401, 31.658 656.401, 31.653 646.401, 31.648 636.401, 31.644 626.401, 31.639 616.401, 31.634 606.401, 31.630 596.401, 31.625 586.401, 31.620 576.401, 31.616 566.401, 31.611 556.401, 31.607 546.401, 31.602 536.401, 31.597 526.401, 31.593 516.401, 31.588 506.401, 31.583 496.401, 31.579 486.401, 31.574 476.401, 31.570 466.401, 31.565 456.401, 31.560 446.401, 31.556 436.401, 31.551 426.401, 31.546 416.401, 31.542 406.401, 31.537 396.401, 31.533 386.401, 31.528 376.401, 31.523 364.778, 31.518 " />
            <path fill="black" stroke-width="3.0" stroke-linecap="butt" stroke-opacity="1.0" stroke="rgb(0, 0, 0)" stroke-linejoin="round" d=" M 353.836, 142.069 363.836, 142.069 373.836, 142.069 383.683, 142.069 383.683, 137.492 383.683, 127.492 383.683, 117.492 383.683, 107.492 383.683, 97.492 383.683, 87.492 383.683, 77.492 383.683, 67.492 383.683, 61.374 383.683, 51.374 383.683, 41.374 383.683, 33.475 373.683, 33.475 364.777, 33.475 354.777, 33.475 353.835, 33.475 353.835, 43.475 353.835, 53.475 353.835, 63.475 353.836, 73.475 353.836, 83.475 353.836, 93.475 353.836, 103.475 353.836, 113.475 353.836, 123.475 353.836, 133.475 353.836, 137.478 353.836, 142.069 " />
            <path fill="black" stroke-width="3.0" stroke-linecap="butt" stroke-opacity="1.0" stroke="rgb(0, 0, 0)" stroke-linejoin="round" d=" M 965.715, 793.004 975.715, 793.004 985.715, 793.004 995.180, 793.004 995.563, 793.004 995.563, 783.004 995.563, 773.004 995.563, 763.004 995.563, 753.004 995.563, 743.004 995.563, 733.004 995.563, 723.004 995.563, 713.004 995.563, 703.004 995.563, 693.004 995.563, 683.004 995.563, 673.004 995.563, 663.004 995.563, 653.004 995.563, 643.004 995.563, 633.004 995.563, 623.004 995.563, 613.004 995.563, 603.004 995.563, 593.004 995.563, 583.004 995.563, 573.004 995.563, 563.004 995.563, 553.004 995.563, 543.004 995.563, 533.004 995.563, 523.004 995.563, 513.004 995.563, 503.004 995.563, 493.004 995.563, 483.004 995.563, 473.004 995.563, 463.004 995.563, 453.004 995.563, 443.004 995.563, 433.004 995.563, 423.004 995.563, 413.004 995.563, 403.004 995.563, 393.004 995.563, 383.004 995.563, 373.004 995.563, 363.004 995.563, 353.004 995.563, 343.004 995.563, 333.004 995.563, 323.004 995.563, 313.004 995.563, 303.004 995.563, 293.004 995.563, 283.004 995.563, 273.004 995.563, 263.004 995.563, 253.004 995.563, 243.004 995.563, 233.004 995.563, 223.004 995.563, 213.004 995.563, 203.004 995.563, 193.004 995.563, 183.004 995.563, 173.004 995.563, 163.004 995.563, 153.004 995.563, 143.004 995.563, 133.004 995.563, 123.004 995.563, 113.004 995.563, 103.004 995.563, 93.004 995.563, 83.004 995.563, 73.004 995.563, 61.657 995.563, 51.657 995.563, 41.657 995.563, 33.643 985.563, 33.643 975.563, 33.643 965.715, 33.643 965.715, 43.643 965.715, 53.643 965.715, 61.643 965.715, 71.643 965.715, 81.643 965.715, 91.643 965.715, 101.643 965.715, 111.643 965.715, 121.643 965.715, 131.643 965.715, 141.643 965.715, 151.643 965.715, 161.643 965.715, 171.643 965.715, 181.643 965.715, 191.643 965.715, 201.643 965.715, 211.643 965.715, 221.643 965.715, 231.643 965.715, 241.643 965.715, 251.643 965.715, 261.643 965.715, 271.643 965.715, 281.643 965.715, 291.643 965.715, 301.643 965.715, 311.643 965.715, 321.643 965.715, 331.643 965.715, 341.643 965.715, 351.643 965.715, 361.643 965.715, 371.643 965.715, 381.643 965.715, 391.643 965.715, 401.643 965.715, 411.643 965.715, 421.643 965.715, 431.643 965.715, 441.643 965.715, 451.643 965.715, 461.643 965.715, 471.643 965.715, 481.643 965.715, 491.643 965.715, 501.643 965.715, 511.643 965.715, 521.643 965.715, 531.643 965.715, 541.643 965.715, 551.643 965.715, 561.643 965.715, 571.643 965.715, 581.643 965.715, 591.643 965.715, 601.643 965.715, 611.643 965.715, 621.643 965.715, 631.643 965.715, 641.643 965.715, 651.643 965.715, 661.643 965.715, 671.643 965.715, 681.643 965.715, 691.643 965.715, 701.643 965.715, 711.643 965.715, 721.643 965.715, 731.643 965.715, 741.643 965.715, 751.643 965.715, 761.643 965.715, 771.643 965.715, 781.643 965.715, 792.611 965.715, 793.004 " />
            <path fill="black" stroke-width="3.0" stroke-linecap="butt" stroke-opacity="1.0" stroke="rgb(0, 0, 0)" stroke-linejoin="round" d=" M 536.311, 715.228 526.311, 715.191 516.311, 715.153 506.311, 715.116 496.311, 715.079 486.311, 715.041 476.311, 715.004 466.311, 714.966 456.311, 714.929 446.312, 714.891 436.312, 714.854 426.312, 714.817 416.312, 714.779 406.312, 714.742 396.312, 714.704 386.312, 714.667 376.312, 714.630 366.312, 714.592 356.312, 714.555 346.312, 714.517 336.312, 714.480 326.312, 714.442 316.312, 714.405 305.898, 714.366 302.430, 716.913 299.805, 719.675 297.713, 722.437 296.436, 725.150 296.057, 727.864 296.056, 730.577 296.432, 733.291 297.706, 736.004 299.753, 738.669 302.437, 741.330 306.072, 744.223 316.072, 744.260 326.072, 744.297 336.072, 744.334 346.072, 744.371 356.072, 744.408 366.072, 744.445 376.072, 744.482 386.072, 744.519 396.072, 744.556 406.072, 744.593 416.071, 744.630 426.071, 744.667 436.071, 744.704 446.071, 744.741 456.071, 744.778 466.071, 744.815 476.071, 744.852 486.071, 744.889 496.071, 744.926 506.071, 744.963 516.071, 745.000 526.071, 745.037 536.367, 745.075 541.822, 742.410 545.253, 739.772 547.690, 737.230 549.086, 734.661 549.527, 731.996 549.529, 729.283 549.090, 726.521 547.666, 723.660 545.246, 720.777 541.834, 717.990 536.311, 715.228 " />
            <path fill="black" stroke-width="3.0" stroke-linecap="butt" stroke-opacity="1.0" stroke="rgb(0, 0, 0)" stroke-linejoin="round" d=" M 51.383, 784.618 51.381, 789.174 51.377, 799.174 51.372, 809.174 51.370, 814.465 61.370, 814.470 71.370, 814.475 79.023, 814.478 89.023, 814.483 99.023, 814.488 109.023, 814.492 119.023, 814.497 129.023, 814.501 139.023, 814.506 149.023, 814.511 159.023, 814.515 169.023, 814.520 179.023, 814.525 189.023, 814.529 199.023, 814.534 209.023, 814.538 219.023, 814.543 229.023, 814.548 239.023, 814.552 249.023, 814.557 259.023, 814.562 269.023, 814.566 279.023, 814.571 289.023, 814.576 299.023, 814.580 309.023, 814.585 319.023, 814.589 329.023, 814.594 339.023, 814.599 349.023, 814.603 359.023, 814.608 369.023, 814.613 379.023, 814.617 389.023, 814.622 399.023, 814.626 409.023, 814.631 419.023, 814.636 429.023, 814.640 439.023, 814.645 449.023, 814.650 459.023, 814.654 469.023, 814.659 479.023, 814.663 489.023, 814.668 499.023, 814.673 509.023, 814.677 519.023, 814.682 529.023, 814.687 539.023, 814.691 549.023, 814.696 559.023, 814.701 569.023, 814.705 575.996, 814.708 585.996, 814.713 595.996, 814.718 605.852, 814.722 607.689, 814.723 607.693, 804.723 607.698, 794.723 607.702, 784.876 597.702, 784.871 587.702, 784.867 577.702, 784.862 567.702, 784.857 557.702, 784.853 547.702, 784.848 537.702, 784.843 527.702, 784.839 517.702, 784.834 507.702, 784.829 497.702, 784.825 487.702, 784.820 477.702, 784.816 467.702, 784.811 457.702, 784.806 447.702, 784.802 437.702, 784.797 427.702, 784.792 417.702, 784.788 407.702, 784.783 397.702, 784.779 387.702, 784.774 377.702, 784.769 367.702, 784.765 357.702, 784.760 347.702, 784.755 337.702, 784.751 327.702, 784.746 317.702, 784.742 307.702, 784.737 297.702, 784.732 287.702, 784.728 277.702, 784.723 267.702, 784.718 257.702, 784.714 247.702, 784.709 238.557, 784.705 228.557, 784.700 218.557, 784.696 208.710, 784.691 198.710, 784.686 188.710, 784.682 178.710, 784.677 168.710, 784.673 158.710, 784.668 148.710, 784.663 138.710, 784.659 128.710, 784.654 118.710, 784.649 108.710, 784.645 98.710, 784.640 88.710, 784.635 78.710, 784.631 68.710, 784.626 58.710, 784.622 51.383, 784.618 " />
            <path fill="black" stroke-width="3.0" stroke-linecap="butt" stroke-opacity="1.0" stroke="rgb(0, 0, 0)" stroke-linejoin="round" d=" M 787.466, 649.922 777.466, 649.929 767.466, 649.937 757.466, 649.944 747.466, 649.952 737.466, 649.960 727.466, 649.967 717.466, 649.975 707.466, 649.982 697.466, 649.990 687.466, 649.997 677.466, 650.005 667.466, 650.013 657.466, 650.020 647.466, 650.028 637.466, 650.035 627.466, 650.043 617.466, 650.050 607.466, 650.058 597.466, 650.066 587.466, 650.073 577.466, 650.081 567.466, 650.088 557.466, 650.096 547.466, 650.103 537.466, 650.111 527.466, 650.118 517.466, 650.126 507.466, 650.134 497.466, 650.141 487.466, 650.149 477.466, 650.156 467.466, 650.164 457.466, 650.171 447.466, 650.179 437.466, 650.187 427.466, 650.194 417.466, 650.202 407.466, 650.209 397.466, 650.217 387.466, 650.224 377.466, 650.232 367.466, 650.240 357.466, 650.247 347.466, 650.255 337.466, 650.262 327.466, 650.270 317.466, 650.277 309.227, 650.284 305.760, 652.830 303.135, 655.593 301.042, 658.355 299.765, 661.068 299.386, 663.781 299.385, 666.495 299.761, 669.208 301.036, 671.922 303.083, 674.586 305.767, 677.248 309.402, 680.140 319.402, 680.133 329.402, 680.125 339.402, 680.117 349.402, 680.109 359.402, 680.102 369.402, 680.094 379.402, 680.086 389.402, 680.078 399.402, 680.070 409.402, 680.063 419.402, 680.055 429.402, 680.047 439.402, 680.039 449.402, 680.032 459.402, 680.024 469.402, 680.016 479.402, 680.008 489.402, 680.001 499.402, 679.993 509.402, 679.985 519.402, 679.977 529.402, 679.969 539.402, 679.962 549.402, 679.954 559.402, 679.946 569.402, 679.938 579.402, 679.931 589.402, 679.923 599.402, 679.915 609.402, 679.907 619.402, 679.900 629.402, 679.892 639.402, 679.884 649.402, 679.876 659.402, 679.868 669.402, 679.861 679.402, 679.853 689.402, 679.845 699.402, 679.837 709.402, 679.830 719.402, 679.822 729.402, 679.814 739.402, 679.806 749.402, 679.799 759.402, 679.791 769.402, 679.783 779.402, 679.775 787.523, 679.769 792.977, 677.104 796.408, 674.466 798.846, 671.924 800.242, 669.355 800.683, 666.690 800.684, 663.976 800.246, 661.215 798.821, 658.354 796.401, 655.470 792.989, 652.683 787.466, 649.922 " />
            <path fill="black" stroke-width="3.0" stroke-linecap="butt" stroke-opacity="1.0" stroke="rgb(0, 0, 0)" stroke-linejoin="round" d=" M 787.466, 586.870 777.466, 586.878 767.466, 586.885 757.466, 586.893 747.466, 586.900 737.466, 586.908 727.466, 586.916 717.466, 586.923 707.466, 586.931 697.466, 586.938 687.466, 586.946 677.466, 586.953 667.466, 586.961 657.466, 586.969 647.466, 586.976 637.466, 586.984 627.466, 586.991 617.466, 586.999 607.466, 587.006 597.466, 587.014 587.466, 587.022 577.466, 587.029 567.466, 587.037 557.466, 587.044 547.466, 587.052 537.466, 587.059 527.466, 587.067 517.466, 587.074 507.466, 587.082 497.466, 587.090 487.466, 587.097 477.466, 587.105 467.466, 587.112 457.466, 587.120 447.466, 587.127 437.466, 587.135 427.466, 587.143 417.466, 587.150 407.466, 587.158 397.466, 587.165 387.466, 587.173 377.466, 587.180 367.466, 587.188 357.466, 587.196 347.466, 587.203 337.466, 587.211 327.466, 587.218 317.466, 587.226 309.227, 587.232 305.760, 589.779 303.135, 592.541 301.042, 595.303 299.765, 598.016 299.386, 600.730 299.385, 603.443 299.761, 606.157 301.036, 608.870 303.083, 611.535 305.767, 614.196 309.402, 617.089 319.402, 617.081 329.402, 617.073 339.402, 617.066 349.402, 617.058 359.402, 617.050 369.402, 617.042 379.402, 617.034 389.402, 617.027 399.402, 617.019 409.402, 617.011 419.402, 617.003 429.402, 616.996 439.402, 616.988 449.402, 616.980 459.402, 616.972 469.402, 616.965 479.402, 616.957 489.402, 616.949 499.402, 616.941 509.402, 616.933 519.402, 616.926 529.402, 616.918 539.402, 616.910 549.402, 616.902 559.402, 616.895 569.402, 616.887 579.402, 616.879 589.402, 616.871 599.402, 616.864 609.402, 616.856 619.402, 616.848 629.402, 616.840 639.402, 616.832 649.402, 616.825 659.402, 616.817 669.402, 616.809 679.402, 616.801 689.402, 616.794 699.402, 616.786 709.402, 616.778 719.402, 616.770 729.402, 616.763 739.402, 616.755 749.402, 616.747 759.402, 616.739 769.402, 616.731 779.402, 616.724 787.523, 616.717 792.977, 614.052 796.408, 611.414 798.846, 608.872 800.242, 606.303 800.683, 603.638 800.684, 600.925 800.246, 598.163 798.821, 595.302 796.401, 592.419 792.989, 589.632 787.466, 586.870 " />
            <path fill="black" stroke-width="3.0" stroke-linecap="butt" stroke-opacity="1.0" stroke="rgb(0, 0, 0)" stroke-linejoin="round" d=" M 787.466, 522.242 777.466, 522.250 767.466, 522.257 757.466, 522.265 747.466, 522.273 737.466, 522.280 727.466, 522.288 717.466, 522.295 707.466, 522.303 697.466, 522.310 687.466, 522.318 677.466, 522.326 667.466, 522.333 657.466, 522.341 647.466, 522.348 637.466, 522.356 627.466, 522.363 617.466, 522.371 607.466, 522.379 597.466, 522.386 587.466, 522.394 577.466, 522.401 567.466, 522.409 557.466, 522.416 547.466, 522.424 537.466, 522.432 527.466, 522.439 517.466, 522.447 507.466, 522.454 497.466, 522.462 487.466, 522.469 477.466, 522.477 467.466, 522.484 457.466, 522.492 447.466, 522.500 437.466, 522.507 427.466, 522.515 417.466, 522.522 407.466, 522.530 397.466, 522.537 387.466, 522.545 377.466, 522.553 367.466, 522.560 357.466, 522.568 347.466, 522.575 337.466, 522.583 327.466, 522.590 317.466, 522.598 309.227, 522.604 305.760, 525.151 303.135, 527.913 301.042, 530.675 299.765, 533.389 299.386, 536.102 299.385, 538.815 299.761, 541.529 301.036, 544.242 303.083, 546.907 305.767, 549.568 309.402, 552.461 319.402, 552.453 329.402, 552.445 339.402, 552.438 349.402, 552.430 359.402, 552.422 369.402, 552.414 379.402, 552.407 389.402, 552.399 399.402, 552.391 409.402, 552.383 419.402, 552.376 429.402, 552.368 439.402, 552.360 449.402, 552.352 459.402, 552.344 469.402, 552.337 479.402, 552.329 489.402, 552.321 499.402, 552.313 509.402, 552.306 519.402, 552.298 529.402, 552.290 539.402, 552.282 549.402, 552.275 559.402, 552.267 569.402, 552.259 579.402, 552.251 589.402, 552.243 599.402, 552.236 609.402, 552.228 619.402, 552.220 629.402, 552.212 639.402, 552.205 649.402, 552.197 659.402, 552.189 669.402, 552.181 679.402, 552.174 689.402, 552.166 699.402, 552.158 709.402, 552.150 719.402, 552.142 729.402, 552.135 739.402, 552.127 749.402, 552.119 759.402, 552.111 769.402, 552.104 779.402, 552.096 787.523, 552.090 792.977, 549.424 796.408, 546.786 798.846, 544.245 800.242, 541.675 800.683, 539.010 800.684, 536.297 800.246, 533.535 798.821, 530.674 796.401, 527.791 792.989, 525.004 787.466, 522.242 " />
            <path fill="black" stroke-width="3.0" stroke-linecap="butt" stroke-opacity="1.0" stroke="rgb(0, 0, 0)" stroke-linejoin="round" d=" M 518.693, 437.783 518.712, 427.783 518.731, 417.783 518.750, 407.783 518.751, 406.991 518.770, 396.991 518.789, 386.991 518.796, 382.812 518.815, 372.812 518.834, 362.812 518.835, 362.018 518.836, 361.930 518.854, 351.930 518.873, 341.930 518.885, 335.820 518.885, 335.734 518.903, 325.734 518.922, 315.734 518.941, 305.734 518.960, 295.734 518.978, 285.734 518.997, 275.734 519.016, 265.734 519.018, 264.717 519.037, 254.717 519.043, 251.461 516.634, 246.784 514.021, 243.242 511.408, 240.419 509.394, 239.066 508.841, 238.696 506.274, 238.184 503.706, 238.181 501.139, 238.688 498.571, 240.406 496.049, 243.166 493.529, 246.786 490.791, 251.687 490.773, 261.687 490.754, 271.687 490.736, 281.687 490.718, 291.687 490.699, 301.687 490.681, 311.687 490.663, 321.687 490.645, 331.687 490.637, 335.857 490.619, 345.857 490.600, 355.857 490.589, 362.136 490.571, 372.136 490.552, 382.136 490.551, 382.803 490.533, 392.803 490.515, 402.803 490.507, 406.982 490.489, 416.982 490.470, 426.982 490.452, 436.982 490.451, 437.850 492.971, 445.208 495.466, 449.836 497.870, 453.124 500.301, 455.008 502.822, 455.604 505.390, 455.606 508.003, 455.016 510.711, 453.096 513.440, 449.832 516.078, 445.232 518.693, 437.783 " />
            <path fill="black" stroke-width="3.0" stroke-linecap="butt" stroke-opacity="1.0" stroke="rgb(0, 0, 0)" stroke-linejoin="round" d=" M 481.903, 362.173 490.589, 362.136 500.589, 362.094 510.589, 362.052 518.835, 362.018 527.915, 361.980 537.915, 361.938 538.407, 361.936 543.067, 359.678 546.590, 357.235 549.396, 354.794 551.101, 352.400 551.595, 350.009 551.579, 347.620 551.055, 345.233 549.319, 342.850 546.541, 340.513 542.904, 338.182 538.520, 335.927 537.984, 335.651 527.984, 335.695 518.885, 335.734 508.885, 335.778 498.885, 335.821 490.637, 335.857 481.639, 335.896 474.299, 338.267 469.688, 340.604 466.417, 342.853 464.550, 345.121 463.972, 347.469 463.987, 349.858 464.596, 352.287 466.535, 354.800 469.817, 357.328 474.436, 359.766 481.903, 362.173 " />
            <path fill="black" stroke-width="3.0" stroke-linecap="butt" stroke-opacity="1.0" stroke="rgb(0, 0, 0)" stroke-linejoin="round" d=" M 573.505, 239.518 573.240, 249.514 572.976, 259.511 572.820, 265.416 " />
            <path fill="black" stroke-width="3.0" stroke-linecap="butt" stroke-opacity="1.0" stroke="rgb(0, 0, 0)" stroke-linejoin="round" d=" M 572.820, 265.416 562.820, 265.286 552.821, 265.156 542.822, 265.026 532.823, 264.896 522.824, 264.766 519.018, 264.717 509.019, 264.587 503.160, 264.511 502.822, 254.516 502.485, 244.522 502.299, 239.016 509.394, 239.066 519.393, 239.137 529.393, 239.207 539.393, 239.278 549.393, 239.348 559.392, 239.418 569.392, 239.489 573.505, 239.518 580.239, 239.987 586.831, 241.503 594.391, 244.350 602.111, 249.444 607.152, 254.012 611.756, 259.134 615.507, 265.444 619.554, 272.416 622.995, 281.805 623.723, 283.790 625.252, 293.673 625.386, 294.544 626.337, 301.195 626.024, 311.191 626.020, 311.331 623.679, 321.053 622.789, 324.751 619.695, 332.578 615.389, 341.604 613.087, 346.428 605.540, 352.989 602.670, 355.483 593.322, 359.034 590.572, 360.079 580.651, 361.335 576.498, 361.860 573.582, 362.229 572.789, 362.330 572.784, 362.225 572.339, 352.235 571.893, 342.245 571.635, 336.448 577.049, 336.261 579.825, 336.165 586.730, 335.060 591.517, 332.078 594.412, 326.924 597.019, 322.081 599.978, 312.529 600.123, 312.063 600.435, 302.068 600.439, 301.928 599.489, 295.276 598.619, 290.193 597.720, 286.363 596.065, 282.567 594.115, 278.108 591.117, 274.361 587.290, 270.694 584.241, 268.186 580.398, 266.599 576.221, 265.581 572.820, 265.416 " />
            <path fill="black" stroke-width="3.0" stroke-linecap="butt" stroke-opacity="1.0" stroke="rgb(0, 0, 0)" stroke-linejoin="round" d=" M 577.052, 336.138 577.049, 336.261 576.834, 346.258 576.618, 356.256 576.498, 361.860 576.489, 362.245 573.582, 362.229 572.784, 362.225 562.784, 362.170 552.785, 362.116 542.785, 362.061 532.785, 362.006 527.915, 361.980 518.836, 361.930 509.739, 361.880 509.954, 351.883 510.170, 341.885 510.301, 335.773 518.885, 335.820 528.884, 335.875 538.520, 335.927 548.520, 335.982 558.520, 336.037 568.520, 336.091 577.052, 336.138 " />
            <path fill="black" stroke-width="3.0" stroke-linecap="butt" stroke-opacity="1.0" stroke="rgb(0, 0, 0)" stroke-linejoin="round" d=" M 481.868, 406.979 490.507, 406.982 500.507, 406.985 510.507, 406.989 518.751, 406.991 528.751, 406.995 538.751, 406.998 548.751, 407.001 558.751, 407.004 566.162, 407.007 571.439, 404.895 574.961, 402.644 577.764, 400.397 579.468, 398.193 579.960, 395.993 579.943, 393.795 579.417, 391.598 577.679, 389.406 574.900, 387.257 571.261, 385.114 565.626, 382.826 555.626, 382.823 545.626, 382.820 535.626, 382.817 525.626, 382.814 518.796, 382.812 508.796, 382.809 498.796, 382.806 490.551, 382.803 481.586, 382.801 474.247, 384.985 469.638, 387.139 466.368, 389.210 464.503, 391.298 463.927, 393.458 463.944, 395.656 464.554, 397.892 466.494, 400.203 469.779, 402.527 474.400, 404.768 481.868, 406.979 " />
            <path fill="black" stroke-width="3.0" stroke-linecap="butt" stroke-opacity="1.0" stroke="rgb(0, 0, 0)" stroke-linejoin="round" d=" M 580.239, 239.987 578.688, 249.866 577.137, 259.745 576.221, 265.581 " />
            <path fill="black" stroke-width="3.0" stroke-linecap="butt" stroke-opacity="1.0" stroke="rgb(0, 0, 0)" stroke-linejoin="round" d=" M 586.831, 241.503 584.348, 251.190 581.865, 260.876 580.398, 266.599 " />
            <path fill="black" stroke-width="3.0" stroke-linecap="butt" stroke-opacity="1.0" stroke="rgb(0, 0, 0)" stroke-linejoin="round" d=" M 594.391, 244.350 590.473, 253.550 586.555, 262.751 584.241, 268.186 " />
            <path fill="black" stroke-width="3.0" stroke-linecap="butt" stroke-opacity="1.0" stroke="rgb(0, 0, 0)" stroke-linejoin="round" d=" M 602.111, 249.444 596.390, 257.646 590.670, 265.848 587.290, 270.694 " />
            <path fill="black" stroke-width="3.0" stroke-linecap="butt" stroke-opacity="1.0" stroke="rgb(0, 0, 0)" stroke-linejoin="round" d=" M 607.152, 254.012 600.963, 261.866 594.774, 269.721 591.117, 274.361 " />
            <path fill="black" stroke-width="3.0" stroke-linecap="butt" stroke-opacity="1.0" stroke="rgb(0, 0, 0)" stroke-linejoin="round" d=" M 611.756, 259.134 604.947, 266.458 598.138, 273.781 594.115, 278.108 " />
            <path fill="black" stroke-width="3.0" stroke-linecap="butt" stroke-opacity="1.0" stroke="rgb(0, 0, 0)" stroke-linejoin="round" d=" M 615.507, 265.444 608.003, 272.053 600.499, 278.662 596.065, 282.567 " />
            <path fill="black" stroke-width="3.0" stroke-linecap="butt" stroke-opacity="1.0" stroke="rgb(0, 0, 0)" stroke-linejoin="round" d=" M 619.554, 272.416 611.126, 277.800 602.699, 283.183 597.720, 286.363 " />
            <path fill="black" stroke-width="3.0" stroke-linecap="butt" stroke-opacity="1.0" stroke="rgb(0, 0, 0)" stroke-linejoin="round" d=" M 623.723, 283.790 614.033, 286.262 604.343, 288.733 598.619, 290.193 " />
            <path fill="black" stroke-width="3.0" stroke-linecap="butt" stroke-opacity="1.0" stroke="rgb(0, 0, 0)" stroke-linejoin="round" d=" M 625.386, 294.544 615.390, 294.827 605.394, 295.109 599.489, 295.276 " />
            <path fill="black" stroke-width="3.0" stroke-linecap="butt" stroke-opacity="1.0" stroke="rgb(0, 0, 0)" stroke-linejoin="round" d=" M 626.337, 301.195 616.341, 301.478 606.345, 301.761 600.439, 301.928 " />
            <path fill="black" stroke-width="3.0" stroke-linecap="butt" stroke-opacity="1.0" stroke="rgb(0, 0, 0)" stroke-linejoin="round" d=" M 626.020, 311.331 616.024, 311.614 606.028, 311.896 600.123, 312.063 " />
            <path fill="black" stroke-width="3.0" stroke-linecap="butt" stroke-opacity="1.0" stroke="rgb(0, 0, 0)" stroke-linejoin="round" d=" M 622.789, 324.751 612.842, 323.721 602.895, 322.690 597.019, 322.081 " />
            <path fill="black" stroke-width="3.0" stroke-linecap="butt" stroke-opacity="1.0" stroke="rgb(0, 0, 0)" stroke-linejoin="round" d=" M 619.695, 332.578 609.936, 330.396 600.177, 328.213 594.412, 326.924 " />
            <path fill="black" stroke-width="3.0" stroke-linecap="butt" stroke-opacity="1.0" stroke="rgb(0, 0, 0)" stroke-linejoin="round" d=" M 613.087, 346.428 604.761, 340.889 596.435, 335.351 591.517, 332.078 " />
            <path fill="black" stroke-width="3.0" stroke-linecap="butt" stroke-opacity="1.0" stroke="rgb(0, 0, 0)" stroke-linejoin="round" d=" M 602.670, 355.483 596.518, 347.600 590.365, 339.717 586.730, 335.060 " />
            <path fill="black" stroke-width="3.0" stroke-linecap="butt" stroke-opacity="1.0" stroke="rgb(0, 0, 0)" stroke-linejoin="round" d=" M 590.572, 360.079 586.473, 350.958 582.374, 341.837 579.825, 336.165 " />
        </g>
    </g>
</svg>
