<?xml version='1.0' encoding='ascii'?>
<svg xmlns="http://www.w3.org/2000/svg" version="1.1" width="2080" height="2080">
    <g id="ViewLayer_LineSet" xmlns:inkscape="http://www.inkscape.org/namespaces/inkscape" inkscape:groupmode="lineset" inkscape:label="ViewLayer_LineSet">
        <g xmlns:inkscape="http://www.inkscape.org/namespaces/inkscape" inkscape:groupmode="layer" id="strokes" inkscape:label="strokes">
            <path fill="black" stroke-width="3.0" stroke-linecap="butt" stroke-opacity="1.0" stroke="rgb(0, 0, 0)" stroke-linejoin="round" d=" M 2065.631, 773.405 2065.631, 783.405 2065.631, 793.405 2065.631, 803.405 2065.631, 813.405 2065.631, 823.405 2065.631, 833.405 2065.631, 843.405 2065.631, 853.405 2065.631, 863.405 2065.631, 873.405 2065.631, 883.405 2065.631, 893.405 2065.631, 903.405 2065.631, 913.405 2065.631, 917.730 2055.631, 917.730 2045.631, 917.730 2035.631, 917.730 2025.631, 917.730 2015.631, 917.729 2005.631, 917.729 1995.631, 917.729 1985.631, 917.729 1975.631, 917.729 1965.631, 917.729 1955.631, 917.729 1945.631, 917.729 1939.596, 917.729 1929.596, 917.729 1919.596, 917.729 1909.596, 917.729 1899.596, 917.729 1889.596, 917.729 1879.596, 917.729 1869.596, 917.729 1859.596, 917.729 1849.596, 917.729 1839.596, 917.729 1829.596, 917.729 1819.596, 917.729 1809.596, 917.729 1799.596, 917.729 1795.272, 917.729 1785.272, 917.729 1775.272, 917.729 1765.272, 917.729 1755.272, 917.729 1745.272, 917.729 1735.272, 917.729 1725.272, 917.729 1715.272, 917.729 1705.272, 917.729 1695.272, 917.729 1685.272, 917.729 1675.272, 917.729 1665.272, 917.729 1662.942, 917.729 1662.942, 907.729 1662.942, 897.729 1662.942, 887.729 1662.942, 877.729 1662.942, 867.729 1662.942, 857.729 1662.942, 847.729 1662.942, 837.729 1662.942, 827.729 1662.942, 817.729 1662.942, 807.729 1662.942, 797.729 1662.942, 787.729 1662.942, 777.729 1662.942, 773.405 1672.942, 773.405 1682.942, 773.405 1692.942, 773.405 1702.942, 773.405 1712.942, 773.405 1722.942, 773.405 1732.942, 773.405 1742.942, 773.405 1752.942, 773.405 1762.942, 773.405 1772.942, 773.405 1782.942, 773.405 1792.942, 773.405 1795.272, 773.405 1805.272, 773.405 1815.272, 773.405 1825.272, 773.405 1835.272, 773.405 1845.272, 773.405 1855.272, 773.405 1865.272, 773.405 1875.272, 773.405 1885.272, 773.405 1895.272, 773.405 1905.272, 773.405 1915.272, 773.405 1925.272, 773.405 1935.272, 773.405 1939.596, 773.405 1949.596, 773.405 1959.596, 773.405 1969.596, 773.405 1979.596, 773.405 1989.596, 773.405 1999.596, 773.405 2009.596, 773.405 2019.596, 773.405 2029.596, 773.405 2039.596, 773.405 2049.596, 773.405 2059.596, 773.405 2065.631, 773.405 " />
            <path fill="black" stroke-width="3.0" stroke-linecap="butt" stroke-opacity="1.0" stroke="rgb(0, 0, 0)" stroke-linejoin="round" d=" M 182.075, 1734.920 182.078, 1724.920 182.081, 1714.920 182.084, 1704.920 182.087, 1694.920 182.090, 1684.920 182.093, 1674.920 182.096, 1664.920 182.100, 1654.920 182.103, 1644.920 182.106, 1634.920 182.109, 1624.920 182.112, 1614.920 182.114, 1608.532 182.117, 1598.532 182.119, 1590.506 " />
            <path fill="black" stroke-width="3.0" stroke-linecap="butt" stroke-opacity="1.0" stroke="rgb(0, 0, 0)" stroke-linejoin="round" d=" M 182.119, 1590.506 185.788, 1590.506 195.788, 1590.506 205.788, 1590.506 215.788, 1590.506 225.788, 1590.506 235.788, 1590.506 245.788, 1590.506 255.788, 1590.506 265.788, 1590.506 275.788, 1590.506 285.788, 1590.506 295.788, 1590.506 305.788, 1590.506 315.788, 1590.506 325.788, 1590.506 335.788, 1590.506 345.788, 1590.506 355.788, 1590.506 365.788, 1590.506 375.788, 1590.506 385.788, 1590.506 395.788, 1590.506 405.788, 1590.506 415.788, 1590.506 425.788, 1590.506 435.788, 1590.506 445.788, 1590.506 455.788, 1590.506 465.788, 1590.506 475.788, 1590.506 485.788, 1590.506 495.788, 1590.506 505.788, 1590.506 515.788, 1590.506 525.788, 1590.506 535.788, 1590.506 545.788, 1590.506 555.788, 1590.506 565.788, 1590.506 575.788, 1590.506 585.788, 1590.506 595.788, 1590.506 605.788, 1590.506 615.788, 1590.506 625.788, 1590.506 635.788, 1590.506 645.788, 1590.506 655.788, 1590.506 665.788, 1590.506 675.788, 1590.506 685.788, 1590.506 695.788, 1590.506 705.788, 1590.506 715.788, 1590.506 725.788, 1590.506 735.788, 1590.506 745.788, 1590.506 755.788, 1590.506 765.788, 1590.506 775.788, 1590.506 785.788, 1590.506 795.788, 1590.506 805.788, 1590.506 815.788, 1590.506 825.788, 1590.506 835.788, 1590.506 845.788, 1590.506 855.788, 1590.506 865.788, 1590.506 875.788, 1590.506 885.788, 1590.506 895.788, 1590.506 905.788, 1590.506 915.788, 1590.506 925.788, 1590.506 935.788, 1590.506 945.788, 1590.506 955.788, 1590.506 965.788, 1590.506 975.788, 1590.506 985.788, 1590.506 995.788, 1590.506 1005.788, 1590.506 1015.788, 1590.506 1025.788, 1590.506 1035.788, 1590.506 1045.788, 1590.506 1055.788, 1590.506 1065.788, 1590.506 1075.788, 1590.506 1085.788, 1590.506 1095.788, 1590.506 1105.788, 1590.506 1115.788, 1590.506 1125.788, 1590.506 1135.788, 1590.506 1145.788, 1590.506 1155.788, 1590.506 1165.788, 1590.506 1175.788, 1590.506 1185.788, 1590.506 1195.788, 1590.506 1205.788, 1590.506 1215.788, 1590.506 1225.788, 1590.506 1235.788, 1590.506 1245.788, 1590.506 1255.788, 1590.506 1265.788, 1590.506 1275.788, 1590.506 1285.788, 1590.506 1295.788, 1590.506 1305.788, 1590.506 1315.788, 1590.506 1325.788, 1590.506 1335.788, 1590.506 1345.788, 1590.506 1355.788, 1590.506 1365.788, 1590.506 1375.788, 1590.506 1385.788, 1590.506 1395.788, 1590.506 1405.788, 1590.506 1415.788, 1590.506 1425.788, 1590.506 1435.788, 1590.506 1445.788, 1590.506 1455.788, 1590.506 1465.788, 1590.506 1475.788, 1590.506 1485.788, 1590.506 1495.788, 1590.506 1505.788, 1590.506 1515.788, 1590.506 1537.173, 1590.506 1540.842, 1590.506 1540.842, 1594.315 1540.842, 1604.315 1540.842, 1605.639 1540.842, 1607.174 1540.842, 1617.174 1540.842, 1627.174 1540.842, 1637.174 1540.842, 1647.174 1540.842, 1657.174 1540.842, 1667.174 1540.842, 1677.174 1540.842, 1687.174 1540.842, 1697.174 1540.842, 1707.174 1540.842, 1717.174 1540.842, 1727.174 1540.842, 1734.490 1540.842, 1734.830 1530.842, 1734.831 1520.842, 1734.832 1510.842, 1734.832 1500.842, 1734.833 1490.842, 1734.834 1480.842, 1734.834 1470.842, 1734.835 1460.842, 1734.836 1450.842, 1734.836 1440.842, 1734.837 1430.842, 1734.838 1420.842, 1734.838 1410.842, 1734.839 1400.842, 1734.840 1390.842, 1734.840 1380.842, 1734.841 1370.842, 1734.842 1360.842, 1734.842 1350.842, 1734.843 1340.842, 1734.844 1330.842, 1734.844 1320.842, 1734.845 1310.842, 1734.845 1300.842, 1734.846 1290.842, 1734.847 1280.842, 1734.847 1270.842, 1734.848 1260.842, 1734.849 1250.842, 1734.849 1240.842, 1734.850 1230.842, 1734.851 1220.842, 1734.851 1210.842, 1734.852 1200.842, 1734.853 1190.842, 1734.853 1180.842, 1734.854 1170.842, 1734.855 1160.842, 1734.855 1150.842, 1734.856 1140.842, 1734.857 1130.842, 1734.857 1120.842, 1734.858 1110.842, 1734.859 1100.842, 1734.859 1090.842, 1734.860 1080.842, 1734.861 1070.842, 1734.861 1060.842, 1734.862 1050.842, 1734.863 1040.842, 1734.863 1030.842, 1734.864 1020.842, 1734.865 1010.842, 1734.865 1000.842, 1734.866 990.842, 1734.867 980.842, 1734.867 970.842, 1734.868 960.842, 1734.869 950.842, 1734.869 940.842, 1734.870 930.842, 1734.871 920.842, 1734.871 910.842, 1734.872 900.842, 1734.873 890.842, 1734.873 880.842, 1734.874 870.842, 1734.875 860.842, 1734.875 850.842, 1734.876 840.842, 1734.877 830.842, 1734.877 820.842, 1734.878 810.842, 1734.879 800.842, 1734.879 790.842, 1734.880 780.842, 1734.881 770.842, 1734.881 760.842, 1734.882 750.842, 1734.883 740.842, 1734.883 730.842, 1734.884 720.842, 1734.884 710.842, 1734.885 700.842, 1734.886 690.842, 1734.886 680.842, 1734.887 670.842, 1734.888 660.842, 1734.888 650.842, 1734.889 640.842, 1734.890 630.842, 1734.890 620.842, 1734.891 610.842, 1734.892 600.842, 1734.892 590.842, 1734.893 580.842, 1734.894 570.842, 1734.894 560.842, 1734.895 550.842, 1734.896 540.842, 1734.896 530.842, 1734.897 520.842, 1734.898 510.842, 1734.898 500.842, 1734.899 490.842, 1734.900 480.842, 1734.900 470.842, 1734.901 460.842, 1734.902 450.842, 1734.902 440.842, 1734.903 430.842, 1734.904 420.842, 1734.904 410.842, 1734.905 400.842, 1734.906 390.842, 1734.906 380.842, 1734.907 370.842, 1734.908 360.842, 1734.908 350.842, 1734.909 340.842, 1734.910 330.842, 1734.910 320.842, 1734.911 310.842, 1734.912 300.842, 1734.912 290.842, 1734.913 280.842, 1734.914 270.842, 1734.914 260.842, 1734.915 250.842, 1734.916 240.842, 1734.916 230.842, 1734.917 220.842, 1734.918 210.842, 1734.918 200.842, 1734.919 182.075, 1734.920 172.078, 1734.688 170.531, 1734.652 160.540, 1735.075 158.601, 1735.157 148.605, 1735.463 146.741, 1735.521 136.760, 1734.910 135.410, 1734.828 125.506, 1733.444 124.495, 1733.302 114.738, 1731.110 113.996, 1730.944 105.146, 1726.288 104.026, 1725.699 95.957, 1721.533 87.992, 1715.486 86.733, 1714.531 79.471, 1707.656 78.308, 1706.554 71.290, 1699.430 70.236, 1698.359 64.472, 1690.188 63.575, 1688.916 59.047, 1680.000 58.264, 1678.457 54.013, 1669.405 53.298, 1667.882 49.329, 1658.703 48.676, 1657.193 46.046, 1647.545 45.478, 1645.462 44.227, 1635.541 43.836, 1632.435 42.851, 1622.484 42.629, 1620.238 41.261, 1610.332 40.682, 1606.136 41.464, 1606.080 51.439, 1605.373 61.414, 1604.667 71.389, 1603.960 81.364, 1603.253 91.339, 1602.547 101.314, 1601.840 111.289, 1601.133 121.264, 1600.427 131.239, 1599.720 141.214, 1599.013 151.297, 1598.299 161.292, 1597.986 170.577, 1597.696 179.065, 1592.409 182.119, 1590.506 " />
            <path fill="black" stroke-width="3.0" stroke-linecap="butt" stroke-opacity="1.0" stroke="rgb(0, 0, 0)" stroke-linejoin="round" d=" M 95.957, 1721.533 101.118, 1712.967 106.279, 1704.402 111.440, 1695.837 116.601, 1687.272 121.762, 1678.707 126.923, 1670.141 132.085, 1661.576 137.246, 1653.011 142.407, 1644.446 147.568, 1635.881 152.729, 1627.315 157.890, 1618.750 163.051, 1610.185 164.047, 1608.532 169.208, 1599.967 170.577, 1597.696 " />
            <path fill="black" stroke-width="3.0" stroke-linecap="butt" stroke-opacity="1.0" stroke="rgb(0, 0, 0)" stroke-linejoin="round" d=" M 184.980, 968.904 185.788, 972.849 187.425, 980.843 185.788, 980.748 180.106, 980.417 170.123, 979.837 160.140, 979.256 150.157, 978.676 140.174, 978.095 130.191, 977.515 120.208, 976.934 110.225, 976.354 100.241, 975.773 90.258, 975.192 80.275, 974.612 70.292, 974.031 60.309, 973.451 50.326, 972.870 43.254, 972.459 42.692, 962.475 42.664, 961.967 42.818, 951.968 42.832, 951.080 42.848, 950.027 43.120, 940.031 43.170, 938.166 44.356, 928.237 44.516, 926.894 46.470, 917.087 46.669, 916.085 49.421, 906.471 49.630, 905.741 54.789, 897.174 55.442, 896.090 60.067, 888.274 66.843, 880.920 69.115, 878.454 76.398, 871.601 77.565, 870.503 85.083, 863.909 86.212, 862.918 94.703, 857.636 96.025, 856.814 105.187, 852.808 106.773, 852.115 116.055, 848.394 117.617, 847.768 127.010, 844.336 128.555, 843.771 138.339, 841.703 140.451, 841.256 150.428, 840.580 153.551, 840.369 163.543, 839.960 165.797, 839.868 175.778, 839.251 180.106, 838.983 184.056, 838.739 184.185, 848.738 184.315, 858.737 184.444, 868.736 184.574, 878.735 184.703, 888.735 184.833, 898.734 184.962, 908.733 185.092, 918.732 185.221, 928.731 185.351, 938.730 185.492, 949.622 185.453, 951.080 185.188, 961.076 184.980, 968.904 " />
            <path fill="black" stroke-width="3.0" stroke-linecap="butt" stroke-opacity="1.0" stroke="rgb(0, 0, 0)" stroke-linejoin="round" d=" M 60.067, 888.274 68.469, 893.697 76.871, 899.121 85.273, 904.544 93.674, 909.967 102.076, 915.390 110.478, 920.813 118.879, 926.237 127.281, 931.660 135.683, 937.083 144.084, 942.506 152.486, 947.930 157.367, 951.080 165.768, 956.503 174.170, 961.926 180.106, 965.758 184.980, 968.904 " />
            <path fill="black" stroke-width="3.0" stroke-linecap="butt" stroke-opacity="1.0" stroke="rgb(0, 0, 0)" stroke-linejoin="round" d=" M 1538.284, 1603.990 1537.679, 1594.192 1540.842, 1594.315 1550.834, 1594.701 1560.827, 1595.088 1570.819, 1595.475 1580.812, 1595.861 1590.805, 1596.248 1600.797, 1596.634 1610.790, 1597.021 1620.782, 1597.408 1630.775, 1597.794 1640.767, 1598.181 1650.760, 1598.568 1660.752, 1598.954 1670.745, 1599.341 1680.442, 1599.716 1680.925, 1607.174 1681.221, 1611.747 1681.229, 1621.747 1681.231, 1623.688 1681.122, 1633.687 1681.102, 1635.552 1680.079, 1645.500 1679.940, 1646.845 1678.147, 1656.683 1677.964, 1657.688 1675.369, 1667.345 1675.172, 1668.079 1670.153, 1676.729 1669.518, 1677.824 1665.021, 1685.713 1658.649, 1693.421 1657.642, 1694.639 1650.472, 1701.609 1649.323, 1702.726 1641.914, 1709.442 1640.801, 1710.451 1632.397, 1715.871 1631.090, 1716.715 1621.994, 1720.869 1620.419, 1721.588 1611.199, 1725.460 1609.648, 1726.112 1600.312, 1729.696 1598.776, 1730.286 1589.027, 1732.514 1586.923, 1732.994 1576.958, 1733.833 1573.839, 1734.096 1563.855, 1734.667 1561.602, 1734.796 1551.603, 1734.648 1541.604, 1734.501 1540.842, 1734.490 1539.919, 1734.476 1539.754, 1724.477 1539.590, 1714.479 1539.425, 1704.480 1539.260, 1694.481 1539.096, 1684.483 1538.931, 1674.484 1538.766, 1664.485 1538.601, 1654.487 1538.437, 1644.488 1538.272, 1634.489 1538.107, 1624.491 1538.087, 1623.278 1538.189, 1613.278 1538.251, 1607.174 1538.284, 1603.990 " />
            <path fill="black" stroke-width="3.0" stroke-linecap="butt" stroke-opacity="1.0" stroke="rgb(0, 0, 0)" stroke-linejoin="round" d=" M 1665.021, 1685.713 1656.616, 1680.294 1648.212, 1674.875 1639.808, 1669.456 1631.404, 1664.036 1623.000, 1658.617 1614.595, 1653.198 1606.191, 1647.778 1597.787, 1642.359 1589.383, 1636.940 1580.978, 1631.520 1572.574, 1626.101 1564.170, 1620.682 1555.766, 1615.262 1547.361, 1609.843 1543.222, 1607.174 1540.842, 1605.639 1538.284, 1603.990 " />
            <path fill="black" stroke-width="3.0" stroke-linecap="butt" stroke-opacity="1.0" stroke="rgb(0, 0, 0)" stroke-linejoin="round" d=" M 1545.156, 1227.742 1537.173, 1228.235 1535.359, 1228.347 1535.714, 1218.353 1536.068, 1208.359 1536.423, 1198.366 1536.778, 1188.372 1537.133, 1178.378 1537.488, 1168.385 1537.843, 1158.391 1538.198, 1148.397 1538.553, 1138.404 1538.908, 1128.410 1539.263, 1118.416 1539.618, 1108.422 1539.973, 1098.429 1540.328, 1088.435 1540.459, 1084.736 1545.936, 1084.382 1552.490, 1083.958 1562.490, 1083.950 1564.431, 1083.948 1574.430, 1084.056 1576.295, 1084.076 1586.243, 1085.100 1587.588, 1085.238 1597.426, 1087.032 1598.430, 1087.215 1608.088, 1089.810 1608.822, 1090.007 1617.988, 1094.006 1619.837, 1094.813 1627.727, 1099.311 1635.968, 1104.975 1642.159, 1109.231 1648.918, 1116.601 1649.400, 1117.126 1656.116, 1124.535 1657.125, 1125.649 1662.545, 1134.052 1663.388, 1135.360 1667.542, 1144.456 1668.261, 1146.030 1672.134, 1155.250 1672.785, 1156.802 1676.369, 1166.137 1676.959, 1167.673 1679.187, 1177.422 1679.668, 1179.527 1680.507, 1189.491 1680.769, 1192.610 1681.340, 1202.594 1681.448, 1204.485 1681.469, 1204.847 1681.322, 1214.846 1681.174, 1224.845 1681.149, 1226.530 1671.150, 1226.651 1661.151, 1226.772 1651.151, 1226.892 1641.152, 1227.013 1631.153, 1227.134 1621.154, 1227.254 1611.154, 1227.375 1601.155, 1227.495 1591.156, 1227.616 1581.157, 1227.737 1571.157, 1227.857 1564.444, 1227.938 1554.720, 1227.839 1545.156, 1227.742 " />
            <path fill="black" stroke-width="3.0" stroke-linecap="butt" stroke-opacity="1.0" stroke="rgb(0, 0, 0)" stroke-linejoin="round" d=" M 1627.727, 1099.311 1622.319, 1107.722 1616.911, 1116.134 1611.503, 1124.545 1606.095, 1132.957 1600.687, 1141.368 1595.279, 1149.780 1589.871, 1158.191 1584.464, 1166.603 1579.056, 1175.014 1573.648, 1183.426 1568.240, 1191.838 1562.832, 1200.249 1560.109, 1204.485 1554.720, 1212.865 1549.312, 1221.277 1545.156, 1227.742 " />
            <path fill="black" stroke-width="3.0" stroke-linecap="butt" stroke-opacity="1.0" stroke="rgb(0, 0, 0)" stroke-linejoin="round" d=" M 620.142, 1228.706 620.142, 1218.706 620.142, 1208.706 620.142, 1198.706 620.142, 1188.706 620.142, 1178.706 620.142, 1168.706 620.142, 1158.706 620.142, 1148.706 620.142, 1138.706 620.142, 1128.706 620.142, 1118.706 620.142, 1108.706 620.142, 1107.049 620.142, 1103.833 620.142, 1093.833 620.142, 1093.625 620.142, 1084.382 630.142, 1084.382 640.142, 1084.382 643.561, 1084.382 653.561, 1084.382 663.561, 1084.382 673.561, 1084.382 683.561, 1084.382 693.561, 1084.382 703.561, 1084.382 713.561, 1084.382 723.561, 1084.382 733.561, 1084.382 743.561, 1084.382 753.561, 1084.382 763.561, 1084.382 773.561, 1084.382 783.561, 1084.382 793.561, 1084.382 803.561, 1084.382 813.561, 1084.382 823.561, 1084.382 833.561, 1084.382 843.561, 1084.382 853.561, 1084.382 863.561, 1084.382 873.561, 1084.382 883.561, 1084.382 893.561, 1084.382 903.561, 1084.382 913.561, 1084.382 923.561, 1084.382 933.561, 1084.382 943.561, 1084.382 953.561, 1084.382 963.561, 1084.382 973.561, 1084.382 983.561, 1084.382 993.561, 1084.382 1003.561, 1084.382 1013.561, 1084.382 1023.561, 1084.382 1033.561, 1084.382 1043.561, 1084.382 1053.561, 1084.382 1063.561, 1084.382 1073.561, 1084.382 1083.561, 1084.382 1093.561, 1084.382 1103.561, 1084.382 1113.561, 1084.382 1123.561, 1084.382 1133.561, 1084.382 1143.561, 1084.382 1153.561, 1084.382 1163.561, 1084.382 1173.561, 1084.382 1183.561, 1084.382 1193.561, 1084.382 1203.561, 1084.382 1213.561, 1084.382 1223.561, 1084.382 1233.561, 1084.382 1243.561, 1084.382 1253.561, 1084.382 1263.561, 1084.382 1273.561, 1084.382 1283.561, 1084.382 1293.561, 1084.382 1303.561, 1084.382 1313.561, 1084.382 1323.561, 1084.382 1333.561, 1084.382 1343.561, 1084.382 1353.561, 1084.382 1363.561, 1084.382 1373.561, 1084.382 1383.561, 1084.382 1393.561, 1084.382 1403.561, 1084.382 1413.561, 1084.382 1423.561, 1084.382 1433.561, 1084.382 1443.561, 1084.382 1453.561, 1084.382 1463.561, 1084.382 1473.561, 1084.382 1483.561, 1084.382 1493.561, 1084.382 1503.561, 1084.382 1513.561, 1084.382 1523.561, 1084.382 1533.561, 1084.382 1545.936, 1084.382 1554.720, 1084.382 1554.720, 1094.382 1554.720, 1104.382 1554.720, 1114.382 1554.720, 1124.382 1554.720, 1134.382 1554.720, 1144.382 1554.720, 1154.382 1554.720, 1164.382 1554.720, 1174.382 1554.720, 1184.382 1554.720, 1194.382 1554.720, 1204.485 1554.720, 1212.865 1554.720, 1222.865 1554.720, 1227.839 1554.720, 1228.706 1544.720, 1228.706 1537.173, 1228.706 1527.173, 1228.706 1517.173, 1228.706 1507.173, 1228.706 1497.173, 1228.706 1487.173, 1228.706 1477.173, 1228.706 1467.173, 1228.706 1457.173, 1228.706 1447.173, 1228.706 1437.173, 1228.706 1427.173, 1228.706 1417.173, 1228.706 1407.173, 1228.706 1397.173, 1228.706 1387.173, 1228.706 1377.173, 1228.706 1367.173, 1228.706 1357.173, 1228.706 1347.173, 1228.706 1337.173, 1228.706 1327.173, 1228.706 1317.173, 1228.706 1307.173, 1228.706 1297.173, 1228.706 1287.173, 1228.706 1277.173, 1228.706 1267.173, 1228.706 1257.173, 1228.706 1247.173, 1228.706 1237.173, 1228.706 1227.173, 1228.706 1217.173, 1228.706 1207.173, 1228.706 1197.173, 1228.706 1187.173, 1228.706 1177.173, 1228.706 1167.173, 1228.706 1157.173, 1228.706 1147.173, 1228.706 1137.173, 1228.706 1127.173, 1228.706 1117.173, 1228.706 1107.173, 1228.706 1097.173, 1228.706 1087.173, 1228.706 1077.173, 1228.706 1067.173, 1228.706 1057.173, 1228.706 1047.173, 1228.706 1037.173, 1228.706 1027.173, 1228.706 1017.173, 1228.706 1007.173, 1228.706 997.173, 1228.706 987.173, 1228.706 977.173, 1228.706 967.173, 1228.706 957.173, 1228.706 947.173, 1228.706 937.173, 1228.706 927.173, 1228.706 917.173, 1228.706 907.173, 1228.706 897.173, 1228.706 887.173, 1228.706 877.173, 1228.706 867.173, 1228.706 857.173, 1228.706 847.173, 1228.706 837.173, 1228.706 827.173, 1228.706 817.173, 1228.706 807.173, 1228.706 797.173, 1228.706 787.173, 1228.706 777.173, 1228.706 767.173, 1228.706 757.173, 1228.706 747.173, 1228.706 737.173, 1228.706 727.173, 1228.706 717.173, 1228.706 707.173, 1228.706 697.173, 1228.706 687.173, 1228.706 677.173, 1228.706 667.173, 1228.706 657.173, 1228.706 639.884, 1228.706 629.884, 1228.706 620.142, 1228.706 " />
            <path fill="black" stroke-width="3.0" stroke-linecap="butt" stroke-opacity="1.0" stroke="rgb(0, 0, 0)" stroke-linejoin="round" d=" M 41.463, 951.080 42.832, 951.080 52.832, 951.080 62.832, 951.080 72.832, 951.080 82.832, 951.080 92.832, 951.080 102.832, 951.080 112.832, 951.080 122.832, 951.080 132.832, 951.080 142.832, 951.080 152.832, 951.080 157.367, 951.080 167.367, 951.080 177.367, 951.080 180.106, 951.080 185.453, 951.080 185.788, 951.080 185.788, 961.080 185.788, 971.080 185.788, 972.849 185.788, 980.748 185.788, 981.958 185.788, 991.958 185.788, 1001.958 185.788, 1011.958 185.788, 1021.958 185.788, 1031.958 185.788, 1041.958 185.788, 1051.958 185.788, 1061.958 185.788, 1071.958 185.788, 1081.958 185.788, 1091.958 185.788, 1101.958 185.788, 1111.958 185.788, 1121.958 185.788, 1131.958 185.788, 1141.958 185.788, 1151.958 185.788, 1161.958 185.788, 1171.958 185.788, 1181.958 185.788, 1191.958 185.788, 1201.958 185.788, 1211.958 185.788, 1221.958 185.788, 1231.958 185.788, 1241.958 185.788, 1251.958 185.788, 1261.958 185.788, 1271.958 185.788, 1281.958 185.788, 1291.958 185.788, 1301.958 185.788, 1311.958 185.788, 1321.958 185.788, 1331.958 185.788, 1341.958 185.788, 1351.958 185.788, 1361.958 185.788, 1371.958 185.788, 1381.958 185.788, 1391.958 185.788, 1401.958 185.788, 1411.958 185.788, 1421.958 185.788, 1431.958 185.788, 1441.958 185.788, 1451.958 185.788, 1461.958 185.788, 1471.958 185.788, 1481.958 185.788, 1491.958 185.788, 1501.958 185.788, 1511.958 185.788, 1521.958 185.788, 1531.958 185.788, 1541.958 185.788, 1551.958 185.788, 1561.958 185.788, 1571.958 185.788, 1581.958 185.788, 1590.506 185.788, 1600.506 185.788, 1608.532 182.114, 1608.532 172.114, 1608.532 164.047, 1608.532 154.047, 1608.532 144.047, 1608.532 134.047, 1608.532 124.047, 1608.532 114.047, 1608.532 104.047, 1608.532 94.047, 1608.532 84.047, 1608.532 74.047, 1608.532 64.047, 1608.532 54.047, 1608.532 44.047, 1608.532 41.464, 1608.532 41.464, 1606.080 41.464, 1596.080 41.464, 1586.080 41.464, 1576.080 41.464, 1566.080 41.464, 1556.080 41.464, 1546.080 41.464, 1536.080 41.464, 1526.080 41.464, 1516.080 41.464, 1506.080 41.464, 1496.080 41.464, 1486.080 41.464, 1476.080 41.464, 1466.080 41.464, 1456.080 41.464, 1446.080 41.464, 1436.080 41.464, 1426.080 41.464, 1416.080 41.464, 1406.080 41.464, 1396.080 41.464, 1386.080 41.464, 1376.080 41.464, 1366.080 41.464, 1356.080 41.464, 1346.080 41.464, 1336.080 41.464, 1326.080 41.464, 1316.080 41.464, 1306.080 41.464, 1296.080 41.464, 1286.080 41.464, 1276.080 41.464, 1266.080 41.464, 1256.080 41.464, 1246.080 41.464, 1236.080 41.464, 1226.080 41.464, 1216.080 41.464, 1206.080 41.464, 1196.080 41.464, 1186.080 41.464, 1176.080 41.464, 1166.080 41.464, 1156.080 41.464, 1146.080 41.464, 1136.080 41.464, 1126.080 41.464, 1116.080 41.464, 1106.080 41.464, 1096.080 41.463, 1086.080 41.463, 1076.080 41.463, 1066.080 41.463, 1056.080 41.463, 1046.080 41.463, 1036.080 41.463, 1026.080 41.463, 1016.080 41.463, 1006.080 41.463, 996.080 41.463, 986.080 41.463, 976.080 41.463, 966.080 41.463, 951.080 " />
            <path fill="black" stroke-width="3.0" stroke-linecap="butt" stroke-opacity="1.0" stroke="rgb(0, 0, 0)" stroke-linejoin="round" d=" M 1537.173, 1204.485 1547.173, 1204.485 1554.720, 1204.485 1560.109, 1204.485 1570.109, 1204.485 1580.109, 1204.485 1590.109, 1204.485 1600.109, 1204.485 1610.109, 1204.485 1620.109, 1204.485 1630.109, 1204.485 1640.109, 1204.485 1650.109, 1204.485 1660.109, 1204.485 1670.109, 1204.485 1680.109, 1204.485 1681.448, 1204.485 1681.498, 1204.485 1681.498, 1214.485 1681.498, 1224.485 1681.498, 1234.485 1681.498, 1244.485 1681.498, 1254.485 1681.498, 1264.485 1681.498, 1274.485 1681.498, 1284.485 1681.498, 1294.485 1681.498, 1304.485 1681.498, 1314.485 1681.498, 1324.485 1681.498, 1334.485 1681.498, 1344.485 1681.498, 1354.485 1681.498, 1364.485 1681.498, 1374.485 1681.498, 1384.485 1681.498, 1394.485 1681.497, 1404.485 1681.497, 1414.485 1681.497, 1424.485 1681.497, 1434.485 1681.497, 1444.485 1681.497, 1454.485 1681.497, 1464.485 1681.497, 1474.485 1681.497, 1484.485 1681.497, 1494.485 1681.497, 1504.485 1681.497, 1514.485 1681.497, 1524.485 1681.497, 1534.485 1681.497, 1544.485 1681.497, 1554.485 1681.497, 1564.485 1681.497, 1574.485 1681.497, 1584.485 1681.497, 1594.485 1681.497, 1607.174 1680.925, 1607.174 1670.925, 1607.174 1660.925, 1607.174 1650.925, 1607.174 1640.925, 1607.174 1630.925, 1607.174 1620.925, 1607.174 1610.925, 1607.174 1600.925, 1607.174 1590.925, 1607.174 1580.925, 1607.174 1570.925, 1607.174 1560.925, 1607.174 1550.925, 1607.174 1543.222, 1607.174 1540.842, 1607.174 1538.251, 1607.174 1537.173, 1607.174 1537.173, 1597.174 1537.173, 1590.506 1537.173, 1580.506 1537.173, 1570.506 1537.173, 1560.506 1537.173, 1550.506 1537.173, 1540.506 1537.173, 1530.506 1537.173, 1520.506 1537.173, 1510.506 1537.173, 1500.506 1537.173, 1490.506 1537.173, 1480.506 1537.173, 1470.506 1537.173, 1460.506 1537.173, 1450.506 1537.173, 1440.506 1537.173, 1430.506 1537.173, 1420.506 1537.173, 1410.506 1537.173, 1400.506 1537.173, 1390.506 1537.173, 1380.506 1537.173, 1370.506 1537.173, 1360.506 1537.173, 1350.506 1537.173, 1340.506 1537.173, 1330.506 1537.173, 1320.506 1537.173, 1310.506 1537.173, 1300.506 1537.173, 1290.506 1537.173, 1280.506 1537.173, 1270.506 1537.173, 1260.506 1537.173, 1250.506 1537.173, 1240.506 1537.173, 1228.706 1537.173, 1228.235 1537.173, 1218.235 1537.173, 1208.235 1537.173, 1204.485 " />
            <path fill="black" stroke-width="3.0" stroke-linecap="butt" stroke-opacity="1.0" stroke="rgb(0, 0, 0)" stroke-linejoin="round" d=" M 1795.272, 650.518 1805.272, 650.518 1815.272, 650.518 1825.272, 650.518 1835.272, 650.518 1845.272, 650.518 1855.272, 650.518 1865.272, 650.518 1875.272, 650.518 1885.272, 650.518 1895.272, 650.518 1905.272, 650.518 1915.272, 650.518 1925.272, 650.518 1935.272, 650.518 1939.596, 650.518 1939.596, 660.518 1939.596, 670.518 1939.596, 680.518 1939.596, 690.518 1939.596, 700.518 1939.596, 710.518 1939.596, 720.518 1939.596, 730.518 1939.596, 740.518 1939.596, 750.518 1939.596, 760.518 1939.596, 770.518 1939.596, 773.405 1939.596, 783.405 1939.596, 793.405 1939.596, 803.405 1939.596, 813.405 1939.596, 823.405 1939.596, 833.405 1939.596, 843.405 1939.596, 853.405 1939.596, 863.405 1939.596, 873.405 1939.596, 883.405 1939.596, 893.405 1939.596, 903.405 1939.596, 913.405 1939.596, 917.729 1939.596, 927.729 1939.596, 937.729 1939.596, 947.729 1939.596, 957.729 1939.596, 967.729 1939.596, 977.729 1939.596, 987.729 1939.596, 997.729 1939.596, 1007.729 1939.596, 1017.729 1939.596, 1027.729 1939.596, 1037.729 1939.596, 1047.729 1939.596, 1053.207 1929.596, 1053.207 1919.596, 1053.207 1909.596, 1053.207 1899.596, 1053.207 1889.596, 1053.207 1879.596, 1053.207 1869.596, 1053.207 1859.596, 1053.207 1849.596, 1053.207 1839.596, 1053.207 1829.596, 1053.207 1819.596, 1053.207 1809.596, 1053.207 1799.596, 1053.207 1795.272, 1053.207 1795.272, 1043.207 1795.272, 1033.207 1795.272, 1023.207 1795.272, 1013.207 1795.272, 1003.207 1795.272, 993.207 1795.272, 983.207 1795.272, 973.207 1795.272, 963.207 1795.272, 953.207 1795.272, 943.207 1795.272, 933.207 1795.272, 923.207 1795.272, 917.729 1795.272, 907.729 1795.272, 897.729 1795.272, 887.729 1795.272, 877.729 1795.272, 867.729 1795.272, 857.729 1795.272, 847.729 1795.272, 837.729 1795.272, 827.729 1795.272, 817.729 1795.272, 807.729 1795.272, 797.729 1795.272, 787.729 1795.272, 777.729 1795.272, 773.405 1795.272, 763.405 1795.272, 753.405 1795.272, 743.405 1795.272, 733.405 1795.272, 723.405 1795.272, 713.405 1795.272, 703.405 1795.272, 693.405 1795.272, 683.405 1795.272, 673.405 1795.272, 663.405 1795.272, 653.405 1795.272, 650.518 " />
            <path fill="black" stroke-width="3.0" stroke-linecap="butt" stroke-opacity="1.0" stroke="rgb(0, 0, 0)" stroke-linejoin="round" d=" M 547.391, 837.634 547.391, 837.748 547.391, 847.748 547.391, 857.748 547.391, 867.748 547.391, 877.748 547.391, 887.748 547.391, 897.748 547.391, 907.748 547.391, 917.480 547.391, 927.480 547.391, 937.480 547.391, 947.480 547.391, 957.480 547.391, 967.480 547.391, 975.057 547.391, 980.393 547.391, 981.958 537.391, 981.958 527.391, 981.958 517.391, 981.958 507.391, 981.958 499.237, 981.958 489.237, 981.958 479.237, 981.958 469.237, 981.958 459.237, 981.958 449.237, 981.958 439.237, 981.958 429.237, 981.958 419.237, 981.958 409.237, 981.958 399.237, 981.958 389.237, 981.958 379.237, 981.958 369.237, 981.958 359.237, 981.958 349.237, 981.958 339.237, 981.958 329.237, 981.958 319.237, 981.958 309.237, 981.958 299.237, 981.958 289.237, 981.958 279.237, 981.958 269.237, 981.958 259.237, 981.958 249.237, 981.958 239.237, 981.958 229.237, 981.958 219.237, 981.958 209.237, 981.958 199.237, 981.958 189.237, 981.958 185.788, 981.958 180.106, 981.958 180.106, 980.417 180.106, 970.417 180.106, 965.758 180.106, 955.758 180.106, 951.080 180.106, 941.080 180.106, 931.080 180.106, 921.080 180.106, 911.080 180.106, 901.080 180.106, 891.080 180.106, 881.080 180.106, 871.080 180.106, 861.080 180.106, 851.080 180.106, 841.080 180.106, 838.983 180.106, 837.633 190.106, 837.633 200.106, 837.633 210.106, 837.634 220.106, 837.634 230.106, 837.634 240.106, 837.634 250.106, 837.634 260.107, 837.634 270.107, 837.634 280.106, 837.634 290.107, 837.634 300.107, 837.634 310.107, 837.634 320.107, 837.634 330.107, 837.634 340.107, 837.634 350.107, 837.634 360.107, 837.634 370.107, 837.634 380.106, 837.634 390.107, 837.634 400.107, 837.634 410.107, 837.634 420.107, 837.634 430.107, 837.634 440.107, 837.634 450.107, 837.634 460.107, 837.634 470.106, 837.634 480.107, 837.634 490.107, 837.634 502.201, 837.634 512.201, 837.634 522.201, 837.634 532.201, 837.634 542.201, 837.634 546.283, 837.634 547.391, 837.634 " />
            <path fill="black" stroke-width="3.0" stroke-linecap="butt" stroke-opacity="1.0" stroke="rgb(0, 0, 0)" stroke-linejoin="round" d=" M 506.905, 980.452 499.237, 980.925 497.108, 981.057 497.463, 971.063 497.818, 961.069 498.172, 951.076 498.527, 941.082 498.882, 931.088 499.237, 921.094 499.592, 911.101 499.947, 901.107 500.302, 891.113 500.657, 881.120 501.012, 871.126 501.367, 861.132 501.722, 851.139 502.077, 841.145 502.201, 837.634 502.208, 837.446 512.187, 836.801 514.239, 836.668 524.239, 836.659 526.180, 836.658 536.179, 836.766 538.044, 836.786 546.283, 837.634 547.391, 837.748 549.337, 837.948 559.175, 839.742 560.180, 839.925 569.837, 842.519 570.571, 842.717 579.737, 846.716 581.586, 847.523 589.476, 852.021 597.717, 857.685 603.908, 861.941 610.667, 869.311 611.149, 869.836 617.865, 877.245 618.874, 878.358 624.294, 886.762 625.137, 888.069 629.292, 897.166 630.011, 898.740 633.883, 907.960 634.534, 909.511 638.119, 918.847 638.708, 920.383 640.936, 930.132 641.417, 932.236 642.256, 942.201 642.518, 945.320 643.089, 955.304 643.218, 957.557 643.071, 967.556 642.960, 975.057 642.898, 979.240 632.899, 979.361 622.900, 979.481 612.901, 979.602 602.901, 979.723 592.902, 979.843 582.903, 979.964 572.903, 980.085 562.904, 980.205 552.905, 980.326 547.391, 980.393 537.392, 980.513 527.392, 980.634 526.193, 980.648 516.194, 980.546 506.905, 980.452 " />
            <path fill="black" stroke-width="3.0" stroke-linecap="butt" stroke-opacity="1.0" stroke="rgb(0, 0, 0)" stroke-linejoin="round" d=" M 589.476, 852.021 584.068, 860.432 578.660, 868.844 573.252, 877.255 567.844, 885.667 562.436, 894.078 557.028, 902.490 551.620, 910.901 547.391, 917.480 541.983, 925.891 536.575, 934.303 531.167, 942.714 525.759, 951.126 520.351, 959.537 514.943, 967.949 510.373, 975.057 506.905, 980.452 " />
            <path fill="black" stroke-width="3.0" stroke-linecap="butt" stroke-opacity="1.0" stroke="rgb(0, 0, 0)" stroke-linejoin="round" d=" M 643.561, 1103.833 639.923, 1103.833 629.923, 1103.833 622.080, 1103.833 620.142, 1103.833 610.142, 1103.833 600.142, 1103.833 590.142, 1103.833 580.142, 1103.833 570.142, 1103.833 560.142, 1103.833 550.142, 1103.833 540.142, 1103.833 530.142, 1103.833 520.142, 1103.833 510.142, 1103.833 499.237, 1103.833 499.237, 1101.754 499.237, 1091.754 499.237, 1081.754 499.237, 1071.754 499.237, 1061.754 499.237, 1051.754 499.237, 1041.754 499.237, 1031.754 499.237, 1021.754 499.237, 1011.754 499.237, 1001.754 499.237, 991.754 499.237, 981.958 499.237, 980.925 499.237, 975.057 509.237, 975.057 510.373, 975.057 520.373, 975.057 530.373, 975.057 540.373, 975.057 547.391, 975.057 557.391, 975.057 567.391, 975.057 577.391, 975.057 587.391, 975.057 597.391, 975.057 607.391, 975.057 617.391, 975.057 627.391, 975.057 637.391, 975.057 642.960, 975.057 643.561, 975.057 643.561, 985.057 643.561, 995.057 643.561, 1005.057 643.561, 1015.057 643.561, 1025.057 643.561, 1035.057 643.561, 1045.057 643.561, 1055.057 643.561, 1065.057 643.561, 1075.057 643.561, 1084.382 643.561, 1094.382 643.561, 1103.833 " />
            <path fill="black" stroke-width="3.0" stroke-linecap="butt" stroke-opacity="1.0" stroke="rgb(0, 0, 0)" stroke-linejoin="round" d=" M 628.386, 1093.367 636.874, 1088.080 639.929, 1086.177 639.926, 1096.177 639.923, 1103.833 639.920, 1113.833 639.917, 1123.833 639.914, 1133.833 639.911, 1143.833 639.908, 1153.833 639.905, 1163.833 639.902, 1173.833 639.898, 1183.833 639.895, 1193.833 639.892, 1203.833 639.889, 1213.833 639.886, 1223.833 639.884, 1228.706 639.884, 1230.592 629.887, 1230.359 628.340, 1230.323 618.349, 1230.746 616.410, 1230.829 606.415, 1231.135 604.550, 1231.192 594.569, 1230.582 593.219, 1230.500 583.315, 1229.115 582.304, 1228.974 572.547, 1226.782 571.806, 1226.615 562.955, 1221.960 561.835, 1221.370 553.766, 1217.204 545.801, 1211.158 544.542, 1210.202 537.281, 1203.327 536.117, 1202.225 529.099, 1195.101 528.045, 1194.031 522.281, 1185.859 521.384, 1184.588 516.857, 1175.671 516.073, 1174.128 511.822, 1165.077 511.107, 1163.554 507.138, 1154.375 506.485, 1152.864 503.855, 1143.216 503.288, 1141.134 502.037, 1131.212 501.645, 1128.107 500.660, 1118.155 500.438, 1115.910 499.071, 1106.003 498.491, 1101.807 499.237, 1101.754 509.212, 1101.048 519.187, 1100.341 529.162, 1099.634 539.137, 1098.928 549.112, 1098.221 559.087, 1097.514 569.062, 1096.807 579.037, 1096.101 589.012, 1095.394 598.987, 1094.688 609.107, 1093.971 619.102, 1093.658 620.142, 1093.625 628.386, 1093.367 " />
            <path fill="black" stroke-width="3.0" stroke-linecap="butt" stroke-opacity="1.0" stroke="rgb(0, 0, 0)" stroke-linejoin="round" d=" M 553.766, 1217.204 558.927, 1208.639 564.088, 1200.074 569.249, 1191.509 574.410, 1182.943 579.571, 1174.378 584.733, 1165.813 589.894, 1157.248 595.055, 1148.682 600.216, 1140.117 605.377, 1131.552 610.538, 1122.987 615.699, 1114.422 620.142, 1107.049 622.080, 1103.833 627.241, 1095.268 628.386, 1093.367 " />
        </g>
    </g>
</svg>
