<?xml version='1.0' encoding='ascii'?>
<svg xmlns="http://www.w3.org/2000/svg" version="1.1" width="1080" height="1080">
    <g id="ViewLayer_LineSet" xmlns:inkscape="http://www.inkscape.org/namespaces/inkscape" inkscape:groupmode="lineset" inkscape:label="ViewLayer_LineSet">
        <g xmlns:inkscape="http://www.inkscape.org/namespaces/inkscape" inkscape:groupmode="layer" id="strokes" inkscape:label="strokes">
            <path fill="black" stroke-width="3.0" stroke-linecap="butt" stroke-opacity="1.0" stroke="rgb(0, 0, 0)" stroke-linejoin="round" d=" M 427.316, 658.304 437.316, 658.304 438.940, 658.304 448.940, 658.304 458.940, 658.304 468.940, 658.304 478.940, 658.304 488.940, 658.304 498.940, 658.304 508.940, 658.304 518.940, 658.304 528.940, 658.304 538.940, 658.304 548.940, 658.304 558.940, 658.304 568.940, 658.304 578.940, 658.304 588.940, 658.304 598.940, 658.304 608.940, 658.304 618.940, 658.304 628.940, 658.304 638.940, 658.304 648.940, 658.304 658.940, 658.304 668.940, 658.304 678.940, 658.304 688.940, 658.304 698.940, 658.304 708.940, 658.304 718.940, 658.304 728.940, 658.304 738.940, 658.304 748.940, 658.304 758.940, 658.304 768.940, 658.304 778.940, 658.304 788.940, 658.304 798.940, 658.304 811.078, 658.304 818.987, 658.304 818.987, 648.304 818.987, 638.304 818.987, 628.304 818.987, 618.304 818.987, 617.627 811.078, 617.627 801.078, 617.627 791.078, 617.627 781.078, 617.627 771.078, 617.627 761.078, 617.627 751.078, 617.627 741.078, 617.627 731.078, 617.627 721.078, 617.627 711.078, 617.627 701.078, 617.627 691.078, 617.627 681.078, 617.627 671.078, 617.627 661.078, 617.627 651.078, 617.627 641.078, 617.627 631.078, 617.627 621.078, 617.627 611.078, 617.627 601.078, 617.627 591.078, 617.627 581.078, 617.627 571.078, 617.627 561.078, 617.627 551.078, 617.627 541.078, 617.627 531.078, 617.627 521.078, 617.627 511.078, 617.627 501.078, 617.627 491.078, 617.627 481.078, 617.627 471.078, 617.627 461.078, 617.627 451.078, 617.627 438.940, 617.627 428.940, 617.627 427.316, 617.627 427.316, 627.627 427.316, 637.627 427.316, 647.627 427.316, 657.627 427.316, 658.304 " />
            <path fill="black" stroke-width="3.0" stroke-linecap="butt" stroke-opacity="1.0" stroke="rgb(0, 0, 0)" stroke-linejoin="round" d=" M 380.747, 312.721 390.747, 312.721 400.747, 312.721 410.747, 312.721 420.747, 312.721 430.747, 312.721 438.940, 312.721 448.940, 312.721 458.940, 312.721 468.940, 312.721 478.940, 312.721 488.940, 312.721 498.940, 312.721 508.940, 312.721 518.940, 312.721 528.940, 312.721 538.940, 312.721 548.940, 312.721 558.940, 312.721 568.940, 312.721 578.940, 312.721 588.940, 312.721 598.940, 312.721 608.940, 312.721 618.940, 312.721 628.940, 312.721 638.940, 312.721 648.940, 312.721 658.940, 312.721 668.940, 312.721 678.940, 312.721 688.940, 312.721 698.940, 312.721 708.195, 312.721 718.195, 312.721 726.819, 312.721 727.612, 312.721 727.612, 302.721 727.612, 292.721 727.612, 282.721 727.612, 272.721 727.612, 262.721 727.612, 252.721 727.612, 242.721 727.612, 236.873 717.612, 236.873 707.612, 236.873 697.612, 236.873 687.612, 236.873 677.612, 236.873 667.612, 236.873 657.612, 236.873 647.612, 236.873 637.612, 236.873 627.612, 236.873 617.612, 236.873 607.612, 236.873 597.612, 236.873 587.612, 236.873 577.612, 236.873 567.612, 236.873 557.612, 236.873 547.612, 236.873 537.612, 236.873 527.612, 236.873 517.612, 236.873 507.612, 236.873 497.612, 236.873 487.612, 236.873 477.612, 236.873 467.612, 236.873 457.612, 236.873 447.612, 236.873 437.612, 236.873 427.612, 236.873 417.612, 236.873 407.612, 236.873 397.612, 236.873 387.612, 236.873 380.747, 236.873 380.747, 246.873 380.747, 256.873 380.747, 266.873 380.747, 276.873 380.747, 286.873 380.747, 296.873 380.747, 297.578 380.747, 307.578 380.747, 312.721 " />
            <path fill="black" stroke-width="3.0" stroke-linecap="butt" stroke-opacity="1.0" stroke="rgb(0, 0, 0)" stroke-linejoin="round" d=" M 380.606, 297.578 380.606, 307.578 380.606, 317.578 380.606, 327.578 380.606, 337.578 380.606, 347.578 380.606, 357.578 380.606, 367.578 380.606, 377.578 380.606, 387.578 380.606, 397.578 380.606, 407.578 380.606, 417.578 380.606, 427.578 380.606, 437.578 380.606, 447.578 380.606, 457.578 380.606, 467.578 380.606, 477.578 380.606, 487.578 380.606, 497.578 380.606, 507.578 380.606, 517.578 380.606, 527.578 380.606, 537.578 380.606, 547.578 380.606, 557.578 380.606, 567.578 380.606, 577.578 380.606, 587.578 380.606, 597.578 380.606, 607.578 380.606, 617.578 380.606, 627.578 380.606, 637.578 380.606, 647.578 380.606, 657.578 380.606, 667.578 380.606, 677.578 380.606, 687.578 380.606, 697.578 380.606, 707.578 380.606, 717.578 380.606, 727.578 380.606, 737.578 380.606, 747.578 380.606, 757.578 380.606, 767.578 380.606, 777.578 380.606, 787.578 380.606, 797.578 380.606, 807.578 380.606, 817.578 380.606, 827.578 380.606, 837.578 380.606, 847.578 380.606, 857.578 380.606, 867.578 380.606, 877.578 380.606, 887.578 380.606, 897.578 380.606, 907.578 380.606, 917.578 380.606, 927.578 380.606, 937.578 380.606, 947.578 380.606, 962.320 390.606, 962.320 400.606, 962.320 410.606, 962.320 420.606, 962.320 430.606, 962.320 438.940, 962.320 438.940, 962.045 438.940, 952.045 438.940, 942.045 438.940, 932.045 438.940, 922.045 438.940, 918.126 438.940, 908.489 438.940, 898.489 438.940, 888.489 438.940, 878.489 438.940, 868.489 438.940, 858.489 438.940, 848.489 438.940, 838.489 438.940, 828.489 438.940, 818.489 438.940, 808.489 438.940, 800.530 438.940, 797.016 438.940, 787.016 438.940, 777.016 438.940, 767.016 438.940, 759.853 438.940, 749.853 438.940, 739.853 438.940, 729.864 438.940, 719.864 438.940, 709.864 438.940, 699.864 438.940, 689.864 438.940, 689.187 438.940, 679.187 438.940, 669.187 438.940, 659.187 438.940, 658.304 438.940, 648.304 438.940, 638.304 438.940, 628.304 438.940, 618.304 438.940, 617.627 438.940, 607.627 438.940, 597.627 438.940, 587.627 438.940, 583.165 438.940, 573.165 438.940, 563.165 438.940, 553.165 438.940, 543.165 438.940, 542.489 438.940, 532.489 438.940, 522.489 438.940, 512.489 438.940, 508.921 438.940, 498.921 438.940, 488.921 438.940, 478.921 438.940, 468.921 438.940, 468.245 438.940, 458.245 438.940, 448.245 438.940, 438.245 438.940, 437.361 438.940, 427.361 438.940, 417.361 438.940, 407.361 438.940, 397.361 438.940, 396.685 438.940, 386.685 438.940, 376.685 438.940, 366.685 438.940, 356.685 438.940, 346.685 438.940, 336.685 438.940, 326.685 438.940, 316.685 438.940, 312.721 438.940, 302.721 438.940, 297.578 428.940, 297.578 418.940, 297.578 408.940, 297.578 398.940, 297.578 388.940, 297.578 380.747, 297.578 380.606, 297.578 " />
            <path fill="black" stroke-width="3.0" stroke-linecap="butt" stroke-opacity="1.0" stroke="rgb(0, 0, 0)" stroke-linejoin="round" d=" M 464.048, 372.961 474.048, 372.961 484.048, 372.961 494.048, 372.961 504.048, 372.961 514.048, 372.961 524.048, 372.961 534.048, 372.961 544.048, 372.961 554.048, 372.961 564.048, 372.961 574.048, 372.961 584.048, 372.961 594.048, 372.961 604.048, 372.961 614.048, 372.961 624.048, 372.961 634.048, 372.961 644.048, 372.961 654.048, 372.961 664.048, 372.961 674.048, 372.961 678.492, 372.961 678.492, 362.961 678.492, 352.961 678.492, 342.961 678.492, 339.433 668.492, 339.433 658.492, 339.433 648.492, 339.433 638.492, 339.433 628.492, 339.433 618.492, 339.433 608.492, 339.433 598.492, 339.433 588.492, 339.433 578.492, 339.433 568.492, 339.433 558.492, 339.433 548.492, 339.433 538.492, 339.433 528.492, 339.433 518.492, 339.433 508.492, 339.433 498.492, 339.433 488.492, 339.433 478.492, 339.433 468.492, 339.433 464.048, 339.433 464.048, 349.433 464.048, 359.433 464.048, 369.433 464.048, 372.961 " />
            <path fill="black" stroke-width="3.0" stroke-linecap="butt" stroke-opacity="1.0" stroke="rgb(0, 0, 0)" stroke-linejoin="round" d=" M 435.282, 437.361 438.940, 437.361 448.940, 437.361 458.940, 437.361 468.940, 437.361 478.940, 437.361 488.940, 437.361 498.940, 437.361 508.940, 437.361 518.940, 437.361 528.940, 437.361 538.940, 437.361 548.940, 437.361 558.940, 437.361 568.940, 437.361 578.940, 437.361 588.940, 437.361 598.940, 437.361 608.940, 437.361 618.940, 437.361 628.940, 437.361 638.940, 437.361 648.940, 437.361 658.940, 437.361 668.940, 437.361 678.940, 437.361 688.940, 437.361 698.940, 437.361 708.674, 437.361 709.047, 437.361 709.047, 427.361 709.047, 417.361 709.047, 407.361 709.047, 405.837 709.047, 396.685 708.674, 396.685 708.195, 396.685 698.195, 396.685 688.195, 396.685 678.195, 396.685 668.195, 396.685 658.195, 396.685 648.195, 396.685 638.195, 396.685 628.195, 396.685 618.195, 396.685 608.195, 396.685 598.195, 396.685 588.195, 396.685 578.195, 396.685 568.195, 396.685 558.195, 396.685 548.195, 396.685 538.195, 396.685 528.195, 396.685 518.195, 396.685 508.195, 396.685 498.195, 396.685 488.195, 396.685 478.195, 396.685 468.195, 396.685 458.195, 396.685 448.195, 396.685 438.940, 396.685 435.282, 396.685 435.282, 406.685 435.282, 416.685 435.282, 426.685 435.282, 436.685 435.282, 437.361 " />
            <path fill="black" stroke-width="3.0" stroke-linecap="butt" stroke-opacity="1.0" stroke="rgb(0, 0, 0)" stroke-linejoin="round" d=" M 427.316, 508.921 437.316, 508.921 438.940, 508.921 448.940, 508.921 458.940, 508.921 468.940, 508.921 478.940, 508.921 488.940, 508.921 498.940, 508.921 508.940, 508.921 518.940, 508.921 528.940, 508.921 538.940, 508.921 548.940, 508.921 558.940, 508.921 568.940, 508.921 578.940, 508.921 588.940, 508.921 598.940, 508.921 608.940, 508.921 618.940, 508.921 628.940, 508.921 638.940, 508.921 648.940, 508.921 658.940, 508.921 668.940, 508.921 678.940, 508.921 688.940, 508.921 698.940, 508.921 708.940, 508.921 718.940, 508.921 728.940, 508.921 738.940, 508.921 748.940, 508.921 758.940, 508.921 768.940, 508.921 778.940, 508.921 788.940, 508.921 798.940, 508.921 811.078, 508.921 818.987, 508.921 818.987, 498.921 818.987, 488.921 818.987, 478.921 818.987, 468.921 818.987, 468.245 811.078, 468.245 801.078, 468.245 791.078, 468.245 781.078, 468.245 771.078, 468.245 761.078, 468.245 751.078, 468.245 741.078, 468.245 731.078, 468.245 721.078, 468.245 711.078, 468.245 701.078, 468.245 691.078, 468.245 681.078, 468.245 671.078, 468.245 661.078, 468.245 651.078, 468.245 641.078, 468.245 631.078, 468.245 621.078, 468.245 611.078, 468.245 601.078, 468.245 591.078, 468.245 581.078, 468.245 571.078, 468.245 561.078, 468.245 551.078, 468.245 541.078, 468.245 531.078, 468.245 521.078, 468.245 511.078, 468.245 501.078, 468.245 491.078, 468.245 481.078, 468.245 471.078, 468.245 461.078, 468.245 451.078, 468.245 438.940, 468.245 428.940, 468.245 427.316, 468.245 427.316, 478.245 427.316, 488.245 427.316, 498.245 427.316, 508.245 427.316, 508.921 " />
            <path fill="black" stroke-width="3.0" stroke-linecap="butt" stroke-opacity="1.0" stroke="rgb(0, 0, 0)" stroke-linejoin="round" d=" M 708.674, 437.794 718.674, 437.794 728.674, 437.794 738.674, 437.794 748.674, 437.794 758.674, 437.794 768.674, 437.794 778.674, 437.794 788.674, 437.794 798.674, 437.794 808.674, 437.794 811.078, 437.794 821.078, 437.794 831.078, 437.794 841.078, 437.794 851.078, 437.794 861.078, 437.794 868.164, 437.794 869.013, 437.794 869.013, 427.794 869.013, 417.794 869.013, 407.794 869.013, 397.794 869.013, 387.794 869.013, 377.794 869.013, 374.399 859.013, 374.399 849.013, 374.399 839.013, 374.399 829.013, 374.399 819.013, 374.399 809.013, 374.399 799.013, 374.399 789.013, 374.399 779.013, 374.399 769.013, 374.399 759.013, 374.399 749.013, 374.399 739.013, 374.399 729.013, 374.399 726.819, 374.399 716.819, 374.399 708.674, 374.399 708.674, 384.399 708.674, 394.399 708.674, 396.685 708.674, 405.837 708.674, 415.837 708.674, 425.837 708.674, 435.837 708.674, 437.361 708.674, 437.794 " />
            <path fill="black" stroke-width="3.0" stroke-linecap="butt" stroke-opacity="1.0" stroke="rgb(0, 0, 0)" stroke-linejoin="round" d=" M 708.195, 286.713 708.195, 296.713 708.195, 306.713 708.195, 312.721 708.195, 322.721 708.195, 332.721 708.195, 342.721 708.195, 352.721 708.195, 362.721 708.195, 372.721 708.195, 382.721 708.195, 392.721 708.195, 396.685 708.195, 405.837 708.674, 405.837 709.047, 405.837 719.047, 405.837 726.819, 405.837 726.819, 395.837 726.819, 385.837 726.819, 375.837 726.819, 374.399 726.819, 364.399 726.819, 354.399 726.819, 344.399 726.819, 334.399 726.819, 324.399 726.819, 314.399 726.819, 312.721 726.819, 302.721 726.819, 292.721 726.819, 286.713 716.819, 286.713 708.195, 286.713 " />
            <path fill="black" stroke-width="3.0" stroke-linecap="butt" stroke-opacity="1.0" stroke="rgb(0, 0, 0)" stroke-linejoin="round" d=" M 811.078, 418.048 811.078, 428.048 811.078, 437.794 811.078, 447.794 811.078, 457.794 811.078, 467.794 811.078, 468.245 811.078, 478.245 811.078, 488.245 811.078, 498.245 811.078, 508.245 811.078, 508.921 811.078, 518.921 811.078, 528.921 811.078, 538.921 811.078, 542.489 811.078, 552.489 811.078, 562.489 811.078, 572.489 811.078, 582.489 811.078, 583.165 811.078, 593.165 811.078, 603.165 811.078, 613.165 811.078, 617.627 811.078, 627.627 811.078, 637.627 811.078, 647.627 811.078, 657.627 811.078, 658.304 811.078, 668.304 811.078, 678.304 811.078, 688.304 811.078, 689.187 811.078, 699.187 811.078, 709.187 811.078, 715.391 811.078, 725.391 811.078, 729.864 811.078, 738.020 821.078, 738.020 831.078, 738.020 841.078, 738.020 851.078, 738.020 861.078, 738.020 867.925, 738.020 868.164, 738.020 868.164, 728.020 868.164, 718.020 868.164, 708.020 868.164, 698.020 868.164, 688.020 868.164, 678.020 868.164, 668.020 868.164, 658.020 868.164, 648.020 868.164, 638.020 868.164, 628.020 868.164, 618.020 868.164, 608.020 868.164, 598.020 868.164, 588.020 868.164, 578.020 868.164, 568.020 868.164, 558.020 868.164, 548.020 868.164, 538.020 868.164, 528.020 868.164, 518.020 868.164, 508.020 868.164, 498.020 868.164, 488.020 868.164, 478.020 868.164, 468.020 868.164, 458.020 868.164, 448.020 868.164, 437.794 868.164, 427.794 868.164, 418.048 858.164, 418.048 848.164, 418.048 838.164, 418.048 828.164, 418.048 818.164, 418.048 811.078, 418.048 " />
            <path fill="black" stroke-width="3.0" stroke-linecap="butt" stroke-opacity="1.0" stroke="rgb(0, 0, 0)" stroke-linejoin="round" d=" M 427.316, 583.165 437.316, 583.165 438.940, 583.165 448.940, 583.165 458.940, 583.165 468.940, 583.165 478.940, 583.165 488.940, 583.165 498.940, 583.165 508.940, 583.165 518.940, 583.165 528.940, 583.165 538.940, 583.165 548.940, 583.165 558.940, 583.165 568.940, 583.165 578.940, 583.165 588.940, 583.165 598.940, 583.165 608.940, 583.165 618.940, 583.165 628.940, 583.165 638.940, 583.165 648.940, 583.165 658.940, 583.165 668.940, 583.165 678.940, 583.165 688.940, 583.165 698.940, 583.165 708.940, 583.165 718.940, 583.165 728.940, 583.165 738.940, 583.165 748.940, 583.165 758.940, 583.165 768.940, 583.165 778.940, 583.165 788.940, 583.165 798.940, 583.165 811.078, 583.165 818.987, 583.165 818.987, 573.165 818.987, 563.165 818.987, 553.165 818.987, 543.165 818.987, 542.489 811.078, 542.489 801.078, 542.489 791.078, 542.489 781.078, 542.489 771.078, 542.489 761.078, 542.489 751.078, 542.489 741.078, 542.489 731.078, 542.489 721.078, 542.489 711.078, 542.489 701.078, 542.489 691.078, 542.489 681.078, 542.489 671.078, 542.489 661.078, 542.489 651.078, 542.489 641.078, 542.489 631.078, 542.489 621.078, 542.489 611.078, 542.489 601.078, 542.489 591.078, 542.489 581.078, 542.489 571.078, 542.489 561.078, 542.489 551.078, 542.489 541.078, 542.489 531.078, 542.489 521.078, 542.489 511.078, 542.489 501.078, 542.489 491.078, 542.489 481.078, 542.489 471.078, 542.489 461.078, 542.489 451.078, 542.489 438.940, 542.489 428.940, 542.489 427.316, 542.489 427.316, 552.489 427.316, 562.489 427.316, 572.489 427.316, 582.489 427.316, 583.165 " />
            <path fill="black" stroke-width="3.0" stroke-linecap="butt" stroke-opacity="1.0" stroke="rgb(0, 0, 0)" stroke-linejoin="round" d=" M 427.316, 729.864 437.316, 729.864 438.940, 729.864 448.940, 729.864 458.940, 729.864 468.940, 729.864 478.940, 729.864 488.940, 729.864 498.940, 729.864 508.940, 729.864 518.940, 729.864 528.940, 729.864 538.940, 729.864 548.940, 729.864 558.940, 729.864 568.940, 729.864 578.940, 729.864 588.940, 729.864 598.940, 729.864 608.940, 729.864 618.940, 729.864 628.940, 729.864 638.940, 729.864 648.940, 729.864 658.940, 729.864 668.940, 729.864 678.940, 729.864 688.940, 729.864 698.940, 729.864 708.940, 729.864 718.940, 729.864 728.940, 729.864 738.940, 729.864 748.940, 729.864 752.698, 729.864 762.698, 729.864 772.698, 729.864 782.698, 729.864 792.698, 729.864 802.698, 729.864 811.078, 729.864 818.987, 729.864 818.987, 719.864 818.987, 715.391 818.987, 705.391 818.987, 695.391 818.987, 689.187 811.078, 689.187 801.078, 689.187 791.078, 689.187 781.078, 689.187 771.078, 689.187 761.078, 689.187 751.078, 689.187 741.078, 689.187 731.078, 689.187 721.078, 689.187 711.078, 689.187 701.078, 689.187 691.078, 689.187 681.078, 689.187 671.078, 689.187 661.078, 689.187 651.078, 689.187 641.078, 689.187 631.078, 689.187 621.078, 689.187 611.078, 689.187 601.078, 689.187 591.078, 689.187 581.078, 689.187 571.078, 689.187 561.078, 689.187 551.078, 689.187 541.078, 689.187 531.078, 689.187 521.078, 689.187 511.078, 689.187 501.078, 689.187 491.078, 689.187 481.078, 689.187 471.078, 689.187 461.078, 689.187 451.078, 689.187 438.940, 689.187 428.940, 689.187 427.316, 689.187 427.316, 699.187 427.316, 709.187 427.316, 719.187 427.316, 729.187 427.316, 729.864 " />
            <path fill="black" stroke-width="3.0" stroke-linecap="butt" stroke-opacity="1.0" stroke="rgb(0, 0, 0)" stroke-linejoin="round" d=" M 752.698, 715.391 752.698, 725.391 752.698, 729.864 752.698, 739.864 752.698, 749.864 752.698, 759.853 752.698, 769.853 752.698, 779.853 752.698, 789.853 752.698, 796.986 752.698, 800.530 752.698, 810.530 752.698, 820.530 752.698, 830.530 752.698, 840.530 752.698, 850.530 752.698, 860.530 752.698, 870.530 752.698, 880.801 752.698, 890.801 752.698, 900.801 752.698, 908.489 752.698, 918.489 752.698, 928.489 752.698, 938.489 752.698, 948.489 752.698, 958.489 752.698, 962.045 752.698, 962.135 762.698, 962.135 772.698, 962.135 782.698, 962.135 792.698, 962.135 802.698, 962.135 812.698, 962.135 822.698, 962.135 832.698, 962.135 842.698, 962.135 852.698, 962.135 862.698, 962.135 867.925, 962.135 867.925, 952.135 867.925, 942.135 867.925, 932.135 867.925, 922.135 867.925, 912.135 867.925, 902.135 867.925, 892.135 867.925, 882.135 867.925, 872.135 867.925, 862.135 867.925, 852.135 867.925, 842.135 867.925, 832.135 867.925, 822.135 867.925, 812.135 867.925, 802.135 867.925, 792.135 867.925, 782.135 867.925, 772.135 867.925, 762.135 867.925, 752.135 867.925, 742.135 867.925, 738.020 867.925, 728.020 867.925, 718.020 867.925, 715.391 857.925, 715.391 847.925, 715.391 837.925, 715.391 827.925, 715.391 818.987, 715.391 811.078, 715.391 801.078, 715.391 791.078, 715.391 781.078, 715.391 771.078, 715.391 761.078, 715.391 752.698, 715.391 " />
            <path fill="black" stroke-width="3.0" stroke-linecap="butt" stroke-opacity="1.0" stroke="rgb(0, 0, 0)" stroke-linejoin="round" d=" M 427.316, 800.530 434.040, 800.530 438.940, 800.530 448.940, 800.530 458.940, 800.530 467.020, 800.530 471.501, 800.530 481.501, 800.530 491.501, 800.530 491.913, 800.530 501.913, 800.530 511.913, 800.530 521.667, 800.530 531.667, 800.530 541.667, 800.530 551.667, 800.530 561.667, 800.530 571.667, 800.530 581.667, 800.530 591.667, 800.530 601.667, 800.530 611.667, 800.530 621.667, 800.530 631.667, 800.530 641.667, 800.530 651.667, 800.530 657.150, 800.530 663.227, 800.530 673.227, 800.530 683.227, 800.530 693.227, 800.530 703.227, 800.530 713.227, 800.530 723.227, 800.530 733.227, 800.530 743.227, 800.530 752.698, 800.530 762.698, 800.530 772.698, 800.530 782.698, 800.530 792.698, 800.530 802.698, 800.530 812.698, 800.530 817.490, 800.530 818.987, 800.530 818.987, 790.530 818.987, 780.530 818.987, 770.530 818.987, 760.530 818.987, 759.853 808.987, 759.853 798.987, 759.853 788.987, 759.853 778.987, 759.853 768.987, 759.853 758.987, 759.853 752.698, 759.853 742.698, 759.853 732.698, 759.853 722.698, 759.853 712.698, 759.853 702.698, 759.853 692.698, 759.853 682.698, 759.853 672.698, 759.853 662.698, 759.853 652.698, 759.853 642.698, 759.853 632.698, 759.853 622.698, 759.853 612.698, 759.853 602.698, 759.853 592.698, 759.853 582.698, 759.853 572.698, 759.853 562.698, 759.853 552.698, 759.853 542.698, 759.853 532.698, 759.853 522.698, 759.853 512.698, 759.853 502.698, 759.853 492.698, 759.853 482.698, 759.853 472.698, 759.853 462.698, 759.853 452.698, 759.853 442.698, 759.853 438.940, 759.853 428.940, 759.853 427.316, 759.853 427.316, 769.853 427.316, 779.853 427.316, 789.853 427.316, 799.853 427.316, 800.530 " />
            <path fill="black" stroke-width="3.0" stroke-linecap="butt" stroke-opacity="1.0" stroke="rgb(0, 0, 0)" stroke-linejoin="round" d=" M 180.269, 216.872 180.604, 216.866 190.602, 216.674 200.600, 216.482 210.598, 216.290 220.596, 216.098 230.594, 215.906 240.593, 215.715 250.591, 215.523 260.589, 215.331 270.587, 215.139 280.585, 214.947 290.583, 214.755 300.582, 214.564 310.580, 214.372 320.578, 214.180 330.576, 213.988 340.574, 213.796 350.747, 213.601 360.745, 213.409 370.743, 213.217 380.741, 213.026 390.739, 212.834 400.738, 212.642 410.736, 212.450 420.734, 212.258 430.732, 212.066 440.730, 211.874 450.728, 211.683 460.727, 211.491 470.725, 211.299 480.723, 211.107 490.721, 210.915 500.719, 210.723 510.717, 210.532 520.715, 210.340 530.714, 210.148 540.712, 209.956 550.710, 209.764 560.708, 209.572 570.706, 209.380 580.704, 209.189 590.703, 208.997 600.701, 208.805 610.699, 208.613 620.697, 208.421 630.695, 208.229 640.693, 208.038 650.692, 207.846 660.690, 207.654 670.688, 207.462 676.910, 207.343 674.841, 197.559 672.772, 187.775 670.704, 177.992 668.635, 168.208 666.566, 158.424 664.497, 148.641 662.429, 138.857 660.360, 129.073 658.291, 119.290 656.223, 109.506 654.996, 103.707 645.140, 105.395 635.283, 107.083 625.427, 108.771 615.570, 110.458 605.714, 112.146 595.857, 113.834 586.001, 115.522 576.144, 117.210 566.288, 118.898 556.431, 120.586 546.575, 122.274 536.718, 123.962 526.862, 125.649 517.005, 127.337 507.149, 129.025 497.292, 130.713 487.436, 132.401 477.579, 134.089 467.723, 135.777 457.866, 137.465 448.009, 139.153 438.153, 140.840 428.296, 142.528 418.440, 144.216 408.583, 145.904 398.727, 147.592 388.870, 149.280 379.014, 150.968 369.157, 152.656 359.301, 154.344 349.444, 156.031 339.588, 157.719 329.731, 159.407 319.875, 161.095 310.018, 162.783 300.162, 164.471 290.305, 166.159 280.449, 167.847 270.592, 169.535 260.736, 171.223 250.879, 172.910 241.023, 174.598 231.166, 176.286 221.309, 177.974 211.453, 179.662 201.596, 181.350 191.740, 183.038 181.883, 184.726 176.245, 185.691 177.525, 195.609 178.805, 205.527 179.054, 207.463 179.262, 209.068 180.269, 216.872 " />
            <path fill="black" stroke-width="3.0" stroke-linecap="butt" stroke-opacity="1.0" stroke="rgb(0, 0, 0)" stroke-linejoin="round" d=" M 754.293, 351.446 764.291, 351.684 774.288, 351.921 784.285, 352.159 794.282, 352.397 804.279, 352.634 814.277, 352.872 824.274, 353.109 834.271, 353.347 844.268, 353.584 854.265, 353.822 864.262, 354.059 867.224, 354.130 860.353, 346.865 853.482, 339.599 846.610, 332.334 839.739, 325.069 832.868, 317.803 825.996, 310.538 823.394, 307.787 816.402, 300.637 809.411, 293.487 802.419, 286.337 795.428, 279.187 788.437, 272.037 781.445, 264.888 774.454, 257.738 767.462, 250.588 760.471, 243.438 754.293, 237.121 754.293, 247.121 754.293, 257.121 754.293, 267.121 754.293, 277.121 754.293, 287.121 754.293, 297.121 754.293, 307.121 754.293, 317.121 754.293, 327.121 754.293, 337.121 754.293, 347.121 754.293, 351.446 " />
            <path fill="black" stroke-width="3.0" stroke-linecap="butt" stroke-opacity="1.0" stroke="rgb(0, 0, 0)" stroke-linejoin="round" d=" M 178.986, 207.467 179.262, 209.068 180.604, 216.866 182.300, 226.721 183.996, 236.576 185.692, 246.431 187.388, 256.286 189.084, 266.141 190.780, 275.996 192.477, 285.852 194.173, 295.707 195.869, 305.562 197.565, 315.417 199.261, 325.272 200.957, 335.127 202.653, 344.982 204.349, 354.837 206.045, 364.692 207.742, 374.547 209.438, 384.403 211.134, 394.258 212.830, 404.113 214.526, 413.968 216.222, 423.823 217.918, 433.678 219.614, 443.533 221.311, 453.388 223.007, 463.243 224.703, 473.099 226.399, 482.954 228.095, 492.809 229.791, 502.664 231.487, 512.519 233.183, 522.374 234.880, 532.229 236.576, 542.084 238.272, 551.939 239.968, 561.794 241.664, 571.650 243.360, 581.505 245.056, 591.360 246.752, 601.215 248.449, 611.070 250.145, 620.925 251.841, 630.780 253.537, 640.635 255.233, 650.491 256.929, 660.346 258.625, 670.201 260.321, 680.056 262.017, 689.911 263.714, 699.766 265.410, 709.621 267.106, 719.476 268.802, 729.331 270.498, 739.187 272.194, 749.042 273.890, 758.897 275.586, 768.752 277.283, 778.607 278.979, 788.462 280.675, 798.317 282.371, 808.172 284.067, 818.027 285.763, 827.882 287.459, 837.738 289.155, 847.593 290.852, 857.448 292.548, 867.303 294.244, 877.158 295.940, 887.013 298.772, 903.468 308.772, 903.468 318.772, 903.468 328.772, 903.468 338.772, 903.468 348.772, 903.468 350.747, 903.468 350.747, 893.468 350.747, 883.468 350.747, 873.468 350.747, 863.468 350.747, 853.468 350.747, 843.468 350.747, 833.468 350.747, 823.468 350.747, 813.468 350.747, 803.468 350.747, 793.468 350.747, 783.468 350.747, 773.468 350.747, 763.468 350.747, 753.468 350.747, 743.468 350.747, 733.468 350.747, 723.468 350.747, 713.468 350.747, 703.468 350.747, 693.468 350.747, 683.468 350.747, 673.468 350.747, 663.468 350.747, 653.468 350.747, 643.468 350.747, 633.468 350.747, 623.468 350.747, 613.468 350.747, 603.468 350.747, 593.468 350.747, 583.468 350.747, 573.468 350.747, 563.468 350.747, 553.468 350.747, 543.468 350.747, 533.468 350.747, 523.468 350.747, 513.468 350.747, 503.468 350.747, 493.468 350.747, 483.468 350.747, 473.468 350.747, 463.468 350.747, 453.468 350.747, 443.468 350.747, 433.468 350.747, 423.468 350.747, 413.468 350.747, 403.468 350.747, 393.468 350.747, 383.468 350.747, 373.468 350.747, 363.468 350.747, 353.468 350.747, 343.468 350.747, 333.468 350.747, 323.468 350.747, 313.468 350.747, 303.468 350.747, 293.468 350.747, 283.468 350.747, 273.468 350.747, 263.468 350.747, 253.468 350.747, 243.468 350.747, 233.468 350.747, 223.468 350.747, 213.601 350.747, 203.601 350.747, 196.707 340.766, 197.332 330.786, 197.957 320.805, 198.582 310.825, 199.208 300.845, 199.833 290.864, 200.458 280.884, 201.083 270.903, 201.709 260.923, 202.334 250.942, 202.959 240.962, 203.584 230.982, 204.210 221.001, 204.835 211.021, 205.460 201.040, 206.085 191.060, 206.711 181.079, 207.336 179.054, 207.463 178.986, 207.467 " />
            <path fill="black" stroke-width="3.0" stroke-linecap="butt" stroke-opacity="1.0" stroke="rgb(0, 0, 0)" stroke-linejoin="round" d=" M 657.150, 880.801 667.150, 880.801 677.150, 880.801 687.150, 880.801 697.150, 880.801 699.218, 880.801 709.218, 880.801 719.218, 880.801 724.694, 880.801 734.694, 880.801 744.694, 880.801 752.698, 880.801 762.698, 880.801 772.698, 880.801 782.698, 880.801 792.698, 880.801 802.698, 880.801 812.698, 880.801 817.490, 880.801 817.490, 870.801 817.490, 860.801 817.490, 850.801 817.490, 840.801 817.490, 830.801 817.490, 820.801 817.490, 810.801 817.490, 800.530 817.490, 796.986 807.490, 796.986 797.490, 796.986 787.490, 796.986 777.490, 796.986 767.490, 796.986 757.490, 796.986 752.698, 796.986 742.698, 796.986 732.698, 796.986 722.698, 796.986 712.698, 796.986 702.698, 796.986 692.698, 796.986 682.698, 796.986 672.698, 796.986 663.250, 796.986 657.150, 796.986 657.150, 800.530 657.150, 810.530 657.150, 820.530 657.150, 830.530 657.150, 840.530 657.150, 850.530 657.150, 860.530 657.150, 870.530 657.150, 877.718 657.150, 880.801 " />
            <path fill="black" stroke-width="3.0" stroke-linecap="butt" stroke-opacity="1.0" stroke="rgb(0, 0, 0)" stroke-linejoin="round" d=" M 416.582, 962.045 426.582, 962.045 436.582, 962.045 438.940, 962.045 448.940, 962.045 458.940, 962.045 468.940, 962.045 478.940, 962.045 488.940, 962.045 498.940, 962.045 508.940, 962.045 518.940, 962.045 528.940, 962.045 538.940, 962.045 548.940, 962.045 558.940, 962.045 568.940, 962.045 578.940, 962.045 588.940, 962.045 598.940, 962.045 608.940, 962.045 618.940, 962.045 628.940, 962.045 638.940, 962.045 648.940, 962.045 658.940, 962.045 668.940, 962.045 678.940, 962.045 688.940, 962.045 698.940, 962.045 708.940, 962.045 718.940, 962.045 728.940, 962.045 738.940, 962.045 748.940, 962.045 752.698, 962.045 762.698, 962.045 772.698, 962.045 782.698, 962.045 792.698, 962.045 802.698, 962.045 808.253, 962.045 808.253, 952.045 808.253, 942.045 808.253, 932.045 808.253, 922.045 808.253, 912.045 808.253, 908.489 798.253, 908.489 788.253, 908.489 778.253, 908.489 768.253, 908.489 758.253, 908.489 752.698, 908.489 742.698, 908.489 732.698, 908.489 724.694, 908.489 714.694, 908.489 704.694, 908.489 699.218, 908.489 689.218, 908.489 679.218, 908.489 669.218, 908.489 659.218, 908.489 649.218, 908.489 639.218, 908.489 635.820, 908.489 625.820, 908.489 615.820, 908.489 605.820, 908.489 595.820, 908.489 585.820, 908.489 575.820, 908.489 571.697, 908.489 561.697, 908.489 554.638, 908.489 544.638, 908.489 534.638, 908.489 524.638, 908.489 514.638, 908.489 504.638, 908.489 498.031, 908.489 488.031, 908.489 478.031, 908.489 471.501, 908.489 461.501, 908.489 451.501, 908.489 441.501, 908.489 438.940, 908.489 434.040, 908.489 424.040, 908.489 416.582, 908.489 416.582, 918.489 416.582, 928.489 416.582, 938.489 416.582, 948.489 416.582, 958.489 416.582, 962.045 " />
            <path fill="black" stroke-width="3.0" stroke-linecap="butt" stroke-opacity="1.0" stroke="rgb(0, 0, 0)" stroke-linejoin="round" d=" M 699.218, 920.122 699.218, 910.122 699.218, 908.489 699.218, 898.489 699.218, 888.489 699.218, 880.801 699.218, 872.668 709.218, 872.668 719.218, 872.668 724.694, 872.668 724.694, 880.801 724.694, 890.801 724.694, 900.801 724.694, 908.489 724.694, 918.489 724.694, 920.122 714.694, 920.122 704.694, 920.122 699.218, 920.122 " />
            <path fill="black" stroke-width="3.0" stroke-linecap="butt" stroke-opacity="1.0" stroke="rgb(0, 0, 0)" stroke-linejoin="round" d=" M 434.040, 918.126 434.040, 908.489 434.040, 898.489 434.040, 888.489 434.040, 878.489 434.040, 868.489 434.040, 858.489 434.040, 848.489 434.040, 838.489 434.040, 828.489 434.040, 818.489 434.040, 808.489 434.040, 800.530 434.040, 797.016 438.940, 797.016 448.940, 797.016 458.940, 797.016 467.046, 797.016 471.501, 797.016 471.501, 800.530 471.501, 810.530 471.501, 820.530 471.501, 830.530 471.501, 840.530 471.501, 850.530 471.501, 860.530 471.501, 870.530 471.501, 880.530 471.501, 882.318 471.501, 892.318 471.501, 902.318 471.501, 908.489 471.501, 918.126 461.501, 918.126 451.501, 918.126 441.501, 918.126 438.940, 918.126 434.040, 918.126 " />
            <path fill="black" stroke-width="3.0" stroke-linecap="butt" stroke-opacity="1.0" stroke="rgb(0, 0, 0)" stroke-linejoin="round" d=" M 524.943, 850.128 521.667, 850.069 521.667, 840.069 521.667, 830.069 521.667, 820.069 521.667, 810.069 521.667, 800.530 521.667, 795.189 531.667, 795.189 541.667, 795.189 551.667, 795.189 561.667, 795.189 571.667, 795.189 581.667, 795.189 591.667, 795.189 601.667, 795.189 611.667, 795.189 621.667, 795.189 631.667, 795.189 641.667, 795.189 651.667, 795.189 661.667, 795.189 663.262, 795.189 663.250, 796.986 663.227, 800.530 663.161, 810.530 663.095, 820.529 663.030, 830.529 662.964, 840.529 662.898, 850.529 662.832, 860.528 662.767, 870.528 662.707, 879.575 659.489, 879.575 657.831, 879.749 657.150, 877.718 654.960, 871.185 650.979, 866.296 647.490, 863.144 643.990, 860.156 641.462, 857.432 636.736, 854.341 633.467, 853.086 630.249, 851.526 627.351, 850.966 624.591, 850.164 621.427, 850.069 618.209, 850.069 614.991, 850.069 611.773, 850.069 608.555, 850.069 605.347, 850.059 602.177, 850.011 599.071, 850.037 596.272, 850.738 593.425, 851.622 590.287, 851.942 587.099, 852.354 584.061, 854.119 580.892, 856.075 577.856, 858.268 574.794, 859.457 572.047, 860.026 568.403, 861.666 565.135, 863.796 561.989, 864.544 558.544, 864.261 555.037, 861.128 551.839, 860.236 548.965, 858.485 545.810, 856.357 542.396, 853.674 539.034, 851.714 535.632, 851.163 532.064, 850.812 528.450, 850.416 524.943, 850.128 " />
            <path fill="black" stroke-width="3.0" stroke-linecap="butt" stroke-opacity="1.0" stroke="rgb(0, 0, 0)" stroke-linejoin="round" d=" M 468.016, 877.925 466.477, 874.289 466.551, 864.289 466.624, 854.290 466.698, 844.290 466.771, 834.290 466.845, 824.290 466.918, 814.291 466.992, 804.291 467.020, 800.530 467.046, 797.016 467.089, 791.046 477.089, 791.046 487.089, 791.046 491.874, 791.046 491.913, 800.530 491.954, 810.530 491.996, 820.530 492.037, 830.529 492.079, 840.529 492.120, 850.529 492.162, 860.529 492.179, 864.757 489.822, 869.982 487.211, 873.539 484.975, 876.144 482.859, 877.294 480.854, 878.348 477.316, 879.373 474.503, 880.039 471.501, 882.318 470.488, 883.087 469.915, 879.726 468.016, 877.925 " />
            <path fill="black" stroke-width="3.0" stroke-linecap="butt" stroke-opacity="1.0" stroke="rgb(0, 0, 0)" stroke-linejoin="round" d=" M 496.957, 912.028 498.031, 908.489 499.928, 902.238 503.695, 893.703 508.662, 892.797 513.031, 891.854 517.573, 887.019 521.710, 883.716 526.024, 883.356 530.338, 883.716 535.784, 887.434 539.127, 890.900 543.174, 892.797 548.461, 901.285 549.715, 903.298 554.638, 908.489 558.095, 912.134 548.095, 912.117 538.095, 912.100 528.095, 912.082 518.095, 912.065 508.095, 912.048 498.095, 912.030 496.957, 912.028 " />
            <path fill="black" stroke-width="3.0" stroke-linecap="butt" stroke-opacity="1.0" stroke="rgb(0, 0, 0)" stroke-linejoin="round" d=" M 581.125, 896.687 584.157, 891.850 589.117, 889.659 593.720, 885.927 598.324, 882.131 602.904, 880.394 607.464, 880.394 612.023, 880.394 616.563, 882.131 621.077, 885.927 628.648, 892.333 632.166, 901.693 634.208, 907.125 635.820, 908.489 640.063, 912.078 630.063, 912.042 620.063, 912.007 610.063, 911.971 600.063, 911.935 590.063, 911.899 580.063, 911.863 570.063, 911.827 569.032, 911.824 571.697, 908.489 577.938, 900.676 581.125, 896.687 " />
        </g>
    </g>
</svg>
