<?xml version='1.0' encoding='ascii'?>
<svg xmlns="http://www.w3.org/2000/svg" version="1.1" width="1080" height="1080">
    <g id="ViewLayer_LineSet" xmlns:inkscape="http://www.inkscape.org/namespaces/inkscape" inkscape:groupmode="lineset" inkscape:label="ViewLayer_LineSet">
        <g xmlns:inkscape="http://www.inkscape.org/namespaces/inkscape" inkscape:groupmode="layer" id="strokes" inkscape:label="strokes">
            <path fill="true" stroke-width="3.0" stroke-linecap="butt" stroke-opacity="1.0" stroke="rgb(0, 0, 0)" stroke-linejoin="round" d=" M 145.922, 406.794 155.922, 406.794 165.922, 406.794 175.922, 406.794 185.922, 406.794 195.922, 406.794 205.922, 406.794 215.922, 406.794 225.922, 406.794 235.922, 406.794 245.922, 406.794 255.922, 406.794 265.922, 406.794 275.922, 406.794 285.922, 406.794 295.922, 406.794 305.922, 406.794 315.922, 406.794 325.922, 406.794 335.922, 406.794 345.922, 406.794 355.922, 406.794 365.922, 406.794 375.922, 406.794 385.922, 406.794 395.922, 406.794 405.922, 406.794 415.922, 406.794 425.922, 406.794 435.922, 406.794 445.922, 406.794 455.922, 406.794 465.922, 406.794 475.922, 406.794 482.578, 406.794 482.578, 396.794 482.578, 390.845 472.578, 390.845 462.578, 390.845 452.578, 390.845 442.578, 390.845 432.578, 390.845 422.578, 390.845 412.578, 390.845 402.578, 390.845 392.578, 390.845 382.578, 390.845 372.578, 390.845 362.578, 390.845 352.578, 390.845 342.578, 390.845 332.578, 390.845 322.578, 390.845 312.578, 390.845 302.578, 390.845 292.578, 390.845 282.578, 390.845 272.578, 390.845 262.578, 390.845 252.578, 390.845 242.578, 390.845 232.578, 390.845 222.578, 390.845 212.578, 390.845 202.578, 390.845 192.578, 390.845 182.578, 390.845 172.578, 390.845 162.578, 390.845 152.578, 390.845 145.922, 390.845 145.922, 400.845 145.922, 406.794 " />
            <path fill="true" stroke-width="3.0" stroke-linecap="butt" stroke-opacity="1.0" stroke="rgb(0, 0, 0)" stroke-linejoin="round" d=" M 286.362, 342.434 296.362, 342.434 306.362, 342.434 316.362, 342.434 326.362, 342.434 336.362, 342.434 346.362, 342.434 356.362, 342.434 366.362, 342.434 376.362, 342.434 386.362, 342.434 396.362, 342.434 406.362, 342.434 416.362, 342.434 426.362, 342.434 436.362, 342.434 446.362, 342.434 456.362, 342.434 466.362, 342.434 476.362, 342.434 486.362, 342.434 496.362, 342.434 506.362, 342.434 516.362, 342.434 526.362, 342.434 536.362, 342.434 546.362, 342.434 556.362, 342.434 566.362, 342.434 576.362, 342.434 586.362, 342.434 596.362, 342.434 601.321, 342.434 601.321, 332.434 601.321, 326.485 591.321, 326.485 581.321, 326.485 571.321, 326.485 561.321, 326.485 551.321, 326.485 541.321, 326.485 531.321, 326.485 521.321, 326.485 511.321, 326.485 501.321, 326.485 491.321, 326.485 481.321, 326.485 471.321, 326.485 461.321, 326.485 451.321, 326.485 441.321, 326.485 431.321, 326.485 421.321, 326.485 411.321, 326.485 401.321, 326.485 391.321, 326.485 381.321, 326.485 371.321, 326.485 361.321, 326.485 351.321, 326.485 341.321, 326.485 331.321, 326.485 321.321, 326.485 311.321, 326.485 301.321, 326.485 291.321, 326.485 286.362, 326.485 286.362, 336.485 286.362, 342.434 " />
            <path fill="true" stroke-width="3.0" stroke-linecap="butt" stroke-opacity="1.0" stroke="rgb(0, 0, 0)" stroke-linejoin="round" d=" M 145.922, 279.647 155.922, 279.647 165.922, 279.647 175.922, 279.647 185.922, 279.647 195.922, 279.647 205.922, 279.647 215.922, 279.647 225.922, 279.647 235.922, 279.647 245.922, 279.647 255.922, 279.647 265.922, 279.647 275.922, 279.647 285.922, 279.647 295.922, 279.647 305.922, 279.647 315.922, 279.647 325.922, 279.647 335.922, 279.647 345.922, 279.647 355.922, 279.647 365.922, 279.647 375.922, 279.647 385.922, 279.647 395.922, 279.647 405.922, 279.647 415.922, 279.647 425.922, 279.647 435.922, 279.647 445.922, 279.647 455.922, 279.647 465.922, 279.647 475.922, 279.647 485.922, 279.647 495.922, 279.647 505.922, 279.647 515.922, 279.647 525.922, 279.647 535.922, 279.647 545.922, 279.647 555.922, 279.647 565.922, 279.647 575.922, 279.647 585.922, 279.647 595.922, 279.647 601.000, 279.647 601.000, 269.647 601.000, 263.698 591.000, 263.698 581.000, 263.698 571.000, 263.698 561.000, 263.698 551.000, 263.698 541.000, 263.698 531.000, 263.698 521.000, 263.698 511.000, 263.698 501.000, 263.698 491.000, 263.698 481.000, 263.698 471.000, 263.698 461.000, 263.698 451.000, 263.698 441.000, 263.698 431.000, 263.698 421.000, 263.698 411.000, 263.698 401.000, 263.698 391.000, 263.698 381.000, 263.698 371.000, 263.698 361.000, 263.698 351.000, 263.698 341.000, 263.698 331.000, 263.698 321.000, 263.698 311.000, 263.698 301.000, 263.698 291.000, 263.698 281.000, 263.698 271.000, 263.698 261.000, 263.698 251.000, 263.698 241.000, 263.698 231.000, 263.698 221.000, 263.698 211.000, 263.698 201.000, 263.698 191.000, 263.698 181.000, 263.698 171.000, 263.698 161.000, 263.698 151.000, 263.698 145.922, 263.698 145.922, 273.698 145.922, 279.647 " />
            <path fill="true" stroke-width="3.0" stroke-linecap="butt" stroke-opacity="1.0" stroke="rgb(0, 0, 0)" stroke-linejoin="round" d=" M 145.922, 216.623 155.922, 216.623 165.922, 216.623 175.922, 216.623 185.922, 216.623 195.922, 216.623 205.922, 216.623 215.922, 216.623 225.922, 216.623 235.922, 216.623 245.922, 216.623 255.922, 216.623 265.922, 216.623 275.922, 216.623 285.922, 216.623 295.922, 216.623 305.922, 216.623 315.922, 216.623 325.922, 216.623 335.922, 216.623 345.922, 216.623 355.922, 216.623 365.922, 216.623 375.922, 216.623 385.922, 216.623 395.922, 216.623 405.922, 216.623 415.922, 216.623 425.922, 216.623 435.922, 216.623 445.922, 216.623 455.922, 216.623 465.922, 216.623 475.922, 216.623 485.922, 216.623 495.922, 216.623 505.922, 216.623 511.785, 216.623 511.785, 206.623 511.785, 200.675 501.785, 200.675 491.785, 200.675 481.785, 200.675 471.785, 200.675 461.785, 200.675 451.785, 200.675 441.785, 200.675 431.785, 200.675 421.785, 200.675 411.785, 200.675 401.785, 200.675 391.785, 200.675 381.785, 200.675 371.785, 200.675 361.785, 200.675 351.785, 200.675 341.785, 200.675 331.785, 200.675 321.785, 200.675 311.785, 200.675 301.785, 200.675 291.785, 200.675 281.785, 200.675 271.785, 200.675 261.785, 200.675 251.785, 200.675 241.785, 200.675 231.785, 200.675 221.785, 200.675 211.785, 200.675 201.785, 200.675 191.785, 200.675 181.785, 200.675 171.785, 200.675 161.785, 200.675 151.785, 200.675 145.922, 200.675 145.922, 210.675 145.922, 216.623 " />
            <path fill="true" stroke-width="3.0" stroke-linecap="butt" stroke-opacity="1.0" stroke="rgb(0, 0, 0)" stroke-linejoin="round" d=" M 145.922, 342.350 155.922, 342.350 165.922, 342.350 175.922, 342.350 185.922, 342.350 195.922, 342.350 205.922, 342.350 215.922, 342.350 225.922, 342.350 235.922, 342.350 237.923, 342.350 237.923, 332.350 237.923, 326.402 227.923, 326.402 217.923, 326.402 207.923, 326.402 197.923, 326.402 187.923, 326.402 177.923, 326.402 167.923, 326.402 157.923, 326.402 147.923, 326.402 145.922, 326.402 145.922, 336.402 145.922, 342.350 " />
            <path fill="true" stroke-width="3.0" stroke-linecap="butt" stroke-opacity="1.0" stroke="rgb(0, 0, 0)" stroke-linejoin="round" d=" M 488.780, 563.665 488.408, 573.658 488.236, 578.255 495.881, 575.268 504.979, 572.250 512.550, 570.681 514.689, 571.284 513.297, 574.332 508.934, 580.609 505.531, 587.957 504.780, 590.952 504.812, 599.104 505.371, 603.995 506.872, 607.526 509.389, 609.971 513.634, 612.551 521.689, 613.400 529.473, 612.891 537.392, 608.444 544.320, 601.232 544.746, 600.788 548.695, 593.837 549.991, 584.115 549.718, 574.119 549.688, 573.007 546.549, 566.774 544.708, 564.473 537.327, 571.219 534.825, 573.506 535.114, 583.502 535.179, 585.764 533.455, 590.263 529.606, 595.500 524.693, 598.662 520.336, 598.885 520.194, 593.293 520.938, 589.275 524.026, 581.969 529.508, 575.193 537.270, 568.888 540.533, 566.238 548.830, 560.655 553.243, 557.686 562.599, 554.156 564.215, 553.546 573.001, 552.036 581.243, 552.970 585.548, 555.398 587.564, 558.920 587.736, 568.919 587.758, 570.187 589.959, 571.882 599.344, 571.915 601.660, 569.284 602.187, 559.298 602.274, 557.647 600.749, 554.206 598.220, 548.547 595.598, 544.902 592.161, 541.530 585.827, 538.950 575.842, 538.393 574.262, 538.305 564.352, 539.645 562.969, 539.832 553.307, 542.410 553.169, 542.446 544.252, 546.972 542.566, 547.827 534.172, 553.262 534.006, 553.370 529.997, 557.634 519.998, 557.509 515.906, 557.458 506.012, 558.909 502.615, 559.407 493.057, 562.348 488.780, 563.665 " />
            <path fill="true" stroke-width="3.0" stroke-linecap="butt" stroke-opacity="1.0" stroke="rgb(0, 0, 0)" stroke-linejoin="round" d=" M 630.942, 249.284 640.942, 249.292 650.942, 249.299 660.942, 249.306 670.942, 249.314 680.942, 249.321 690.942, 249.329 700.942, 249.336 710.942, 249.343 720.942, 249.351 730.942, 249.358 740.942, 249.366 750.942, 249.373 760.942, 249.380 764.077, 249.383 757.507, 241.844 753.986, 237.804 743.986, 237.783 733.986, 237.763 723.986, 237.743 713.986, 237.722 703.986, 237.702 693.986, 237.682 683.986, 237.661 673.986, 237.641 663.986, 237.621 653.986, 237.600 644.554, 237.581 644.592, 227.581 644.630, 217.581 644.667, 207.581 644.705, 197.581 644.743, 187.581 644.781, 177.581 644.818, 167.582 644.856, 157.582 644.894, 147.582 644.932, 137.582 644.969, 127.582 644.974, 126.442 652.000, 133.557 659.027, 140.673 666.053, 147.788 673.079, 154.903 680.106, 162.019 687.132, 169.134 694.159, 176.250 701.185, 183.365 708.212, 190.481 715.238, 197.596 722.264, 204.711 729.291, 211.827 736.317, 218.942 743.344, 226.058 750.370, 233.173 752.599, 235.430 759.239, 242.908 764.901, 249.284 764.896, 259.284 764.891, 269.284 764.887, 279.284 764.882, 289.284 764.877, 299.284 764.872, 309.284 764.868, 319.284 764.863, 329.284 764.858, 339.284 764.853, 349.284 764.849, 359.284 764.844, 369.284 764.839, 379.284 764.834, 389.284 764.830, 399.284 764.825, 409.284 764.820, 419.284 764.815, 429.284 764.811, 439.284 764.806, 449.284 764.801, 459.284 764.796, 469.284 764.792, 479.284 764.787, 489.284 764.782, 499.284 764.777, 509.284 764.772, 519.284 764.768, 529.284 764.763, 539.284 764.758, 549.284 764.753, 559.284 764.749, 569.284 764.744, 579.284 764.739, 589.284 764.734, 599.284 764.730, 609.284 764.725, 619.284 764.722, 624.336 774.722, 624.207 776.990, 624.178 776.994, 614.178 776.998, 604.178 777.002, 594.178 777.007, 584.178 777.011, 574.178 777.015, 564.178 777.019, 554.178 777.023, 544.178 777.028, 534.178 777.032, 524.178 777.036, 514.178 777.040, 504.178 777.044, 494.178 777.049, 484.178 777.053, 474.178 777.057, 464.178 777.061, 454.178 777.065, 444.178 777.069, 434.178 777.074, 424.178 777.078, 414.178 777.082, 404.178 777.086, 394.178 777.090, 384.178 777.095, 374.178 777.099, 364.178 777.103, 354.178 777.107, 344.178 777.111, 334.178 777.116, 324.178 777.120, 314.178 777.124, 304.178 777.128, 294.178 777.132, 284.178 777.137, 274.178 777.141, 264.178 777.145, 254.178 777.150, 241.226 770.116, 234.119 763.081, 227.012 756.046, 219.904 749.011, 212.797 741.976, 205.690 734.941, 198.583 727.907, 191.476 720.872, 184.369 713.837, 177.262 706.802, 170.155 699.767, 163.047 692.732, 155.940 685.698, 148.833 678.663, 141.726 671.628, 134.619 664.593, 127.512 657.558, 120.405 650.523, 113.298 643.489, 106.191 640.582, 103.254 630.582, 103.269 620.582, 103.283 610.582, 103.297 600.582, 103.312 590.582, 103.326 580.582, 103.341 570.582, 103.355 560.582, 103.369 550.582, 103.384 540.582, 103.398 530.582, 103.413 520.582, 103.427 510.582, 103.441 500.582, 103.456 490.582, 103.470 480.582, 103.485 470.582, 103.499 460.582, 103.513 450.582, 103.528 440.582, 103.542 430.582, 103.557 420.582, 103.571 410.582, 103.586 400.582, 103.600 390.582, 103.614 380.582, 103.629 370.582, 103.643 360.582, 103.658 350.582, 103.672 340.582, 103.686 330.582, 103.701 320.582, 103.715 310.582, 103.730 300.582, 103.744 290.582, 103.758 280.582, 103.773 270.582, 103.787 260.582, 103.802 250.582, 103.816 240.582, 103.830 230.582, 103.845 220.582, 103.859 210.582, 103.874 200.582, 103.888 190.582, 103.902 180.582, 103.917 170.582, 103.931 160.582, 103.946 150.582, 103.960 140.582, 103.974 130.583, 103.989 120.583, 104.003 110.582, 104.018 100.583, 104.032 90.583, 104.046 80.583, 104.061 73.940, 104.070 73.941, 114.070 73.942, 124.070 73.943, 134.070 73.943, 144.070 73.944, 154.070 73.945, 164.070 73.946, 174.070 73.947, 184.070 73.948, 194.070 73.949, 204.070 73.949, 214.070 73.950, 224.070 73.951, 234.070 73.952, 244.070 73.953, 254.070 73.954, 264.070 73.955, 274.070 73.955, 284.070 73.956, 294.070 73.957, 304.070 73.958, 314.070 73.959, 324.070 73.960, 334.070 73.961, 344.070 73.962, 354.070 73.962, 364.070 73.963, 374.070 73.964, 384.070 73.965, 394.070 73.966, 404.070 73.967, 414.070 73.968, 424.070 73.968, 434.070 73.969, 444.070 73.970, 454.070 73.971, 464.070 73.972, 474.070 73.973, 484.070 73.974, 494.070 73.974, 504.070 73.975, 514.070 73.976, 524.070 73.977, 534.070 73.978, 544.070 73.979, 554.070 73.980, 564.070 73.980, 574.070 73.981, 584.070 73.982, 594.070 73.983, 604.070 73.984, 614.070 73.985, 624.070 73.986, 634.070 73.986, 644.070 73.987, 654.070 73.988, 664.070 73.989, 674.070 73.990, 684.070 73.991, 694.070 73.992, 704.070 73.993, 714.070 73.993, 724.070 73.994, 734.070 73.995, 744.070 73.996, 754.070 73.997, 764.070 73.998, 774.070 73.999, 784.070 73.999, 794.070 74.000, 804.070 74.001, 814.070 74.002, 824.070 74.003, 834.070 74.004, 844.070 74.005, 854.070 74.005, 864.070 74.006, 874.070 74.007, 884.070 74.008, 894.070 74.009, 904.070 74.010, 914.070 74.011, 924.070 74.011, 934.070 74.012, 944.070 74.013, 954.070 74.014, 964.070 74.015, 974.070 74.016, 984.070 74.017, 994.070 74.017, 1004.070 74.018, 1014.070 74.019, 1024.070 74.020, 1039.095 84.020, 1039.084 94.020, 1039.073 104.020, 1039.063 114.020, 1039.052 124.020, 1039.041 134.020, 1039.030 144.020, 1039.019 154.020, 1039.008 164.020, 1038.997 174.020, 1038.986 184.020, 1038.975 194.020, 1038.965 204.020, 1038.954 214.020, 1038.943 224.020, 1038.932 234.020, 1038.921 244.020, 1038.910 254.020, 1038.899 264.020, 1038.888 274.020, 1038.877 284.020, 1038.866 294.020, 1038.856 304.020, 1038.845 314.020, 1038.834 324.020, 1038.823 334.020, 1038.812 344.020, 1038.801 354.020, 1038.790 364.020, 1038.779 374.020, 1038.768 384.020, 1038.758 394.020, 1038.747 404.020, 1038.736 414.020, 1038.725 424.020, 1038.714 434.020, 1038.703 444.020, 1038.692 454.020, 1038.681 464.020, 1038.670 474.020, 1038.660 484.020, 1038.649 494.020, 1038.638 504.020, 1038.627 514.020, 1038.616 524.020, 1038.605 530.799, 1038.598 530.732, 1028.598 530.713, 1025.766 520.713, 1025.772 510.713, 1025.778 500.713, 1025.784 490.713, 1025.790 480.713, 1025.796 470.713, 1025.802 460.713, 1025.808 450.713, 1025.814 440.713, 1025.820 430.713, 1025.826 420.713, 1025.832 410.713, 1025.838 400.713, 1025.843 390.713, 1025.849 380.713, 1025.855 370.713, 1025.861 360.713, 1025.867 350.713, 1025.873 340.713, 1025.879 330.713, 1025.885 320.713, 1025.891 310.713, 1025.897 300.713, 1025.903 290.713, 1025.909 280.713, 1025.915 270.713, 1025.921 260.713, 1025.927 250.713, 1025.933 240.713, 1025.939 230.713, 1025.945 220.713, 1025.951 210.713, 1025.957 200.713, 1025.963 190.713, 1025.969 180.713, 1025.975 170.713, 1025.981 160.713, 1025.987 150.713, 1025.993 140.713, 1025.999 130.713, 1026.005 120.713, 1026.011 110.713, 1026.017 100.713, 1026.023 86.521, 1026.032 86.518, 1016.032 86.515, 1006.032 86.512, 996.032 86.509, 986.032 86.506, 976.032 86.503, 966.032 86.500, 956.032 86.497, 946.032 86.494, 936.032 86.491, 926.032 86.488, 916.032 86.485, 906.032 86.482, 896.032 86.479, 886.032 86.476, 876.032 86.473, 866.032 86.470, 856.032 86.467, 846.032 86.464, 836.032 86.461, 826.032 86.458, 816.032 86.455, 806.032 86.452, 796.032 86.449, 786.032 86.446, 776.032 86.443, 766.032 86.440, 756.032 86.437, 746.032 86.434, 736.032 86.431, 726.032 86.428, 716.032 86.425, 706.032 86.422, 696.032 86.419, 686.032 86.416, 676.032 86.413, 666.032 86.410, 656.032 86.407, 646.032 86.404, 636.032 86.401, 626.032 86.398, 616.032 86.395, 606.032 86.392, 596.032 86.389, 586.032 86.386, 576.032 86.383, 566.032 86.380, 556.032 86.377, 546.032 86.374, 536.032 86.371, 526.032 86.368, 516.032 86.365, 506.032 86.362, 496.032 86.359, 486.032 86.356, 476.032 86.353, 466.032 86.350, 456.032 86.347, 446.032 86.344, 436.032 86.341, 426.032 86.338, 416.032 86.335, 406.032 86.332, 396.032 86.329, 386.032 86.326, 376.032 86.323, 366.032 86.320, 356.032 86.317, 346.032 86.314, 336.032 86.311, 326.032 86.308, 316.032 86.305, 306.032 86.302, 296.032 86.299, 286.032 86.296, 276.032 86.293, 266.032 86.290, 256.032 86.287, 246.032 86.284, 236.032 86.281, 226.032 86.278, 216.032 86.275, 206.032 86.272, 196.032 86.269, 186.032 86.266, 176.032 86.263, 166.032 86.260, 156.032 86.257, 146.032 86.254, 136.032 86.248, 117.624 96.248, 117.622 106.248, 117.621 116.248, 117.619 126.248, 117.617 136.248, 117.615 146.248, 117.613 156.248, 117.612 166.248, 117.610 176.248, 117.608 186.248, 117.606 196.248, 117.604 206.248, 117.603 216.248, 117.601 226.248, 117.599 236.248, 117.597 246.248, 117.595 256.248, 117.594 266.248, 117.592 276.248, 117.590 286.248, 117.588 296.248, 117.586 306.248, 117.584 316.248, 117.583 326.248, 117.581 336.248, 117.579 346.248, 117.577 356.248, 117.575 366.248, 117.574 376.248, 117.572 386.248, 117.570 396.248, 117.568 406.248, 117.566 416.248, 117.564 426.248, 117.563 436.248, 117.561 446.248, 117.559 456.248, 117.557 466.248, 117.555 476.248, 117.554 486.248, 117.552 496.248, 117.550 506.248, 117.548 516.248, 117.546 526.248, 117.544 536.248, 117.543 546.248, 117.541 556.248, 117.539 566.248, 117.537 576.248, 117.535 586.248, 117.534 596.248, 117.532 606.248, 117.530 616.248, 117.528 630.942, 117.526 630.942, 127.526 630.942, 137.526 630.942, 147.526 630.942, 157.526 630.942, 167.526 630.942, 177.526 630.942, 187.526 630.942, 197.526 630.942, 207.526 630.942, 217.526 630.942, 227.526 630.942, 237.526 630.942, 247.526 630.942, 249.284 " />
            <path fill="true" stroke-width="3.0" stroke-linecap="butt" stroke-opacity="1.0" stroke="rgb(0, 0, 0)" stroke-linejoin="round" d=" M 468.275, 591.717 471.307, 589.667 471.795, 579.679 472.214, 571.092 464.086, 576.918 458.822, 580.690 451.720, 587.731 444.619, 594.772 444.300, 595.087 438.868, 603.484 434.987, 609.484 434.042, 617.776 434.636, 624.588 437.066, 628.794 440.296, 632.467 443.738, 634.921 451.690, 638.228 461.687, 637.974 464.128, 637.912 469.808, 633.546 474.503, 629.614 479.627, 620.950 481.343, 614.819 483.335, 605.020 485.242, 595.633 486.421, 585.702 486.881, 581.826 487.303, 571.835 487.698, 562.464 487.876, 552.465 488.053, 542.467 488.230, 532.468 488.389, 523.501 485.685, 521.384 480.895, 520.811 476.105, 521.532 473.771, 523.768 473.794, 533.768 473.817, 543.768 473.839, 553.768 473.862, 563.768 473.876, 570.026 473.388, 580.014 472.939, 589.189 470.898, 598.978 469.675, 604.845 466.031, 614.157 464.294, 618.595 459.882, 623.656 450.424, 623.617 449.824, 617.936 451.341, 612.678 456.491, 604.068 461.854, 597.364 468.275, 591.717 " />
            <path fill="true" stroke-width="3.0" stroke-linecap="butt" stroke-opacity="1.0" stroke="rgb(0, 0, 0)" stroke-linejoin="round" d=" M 194.006, 617.352 196.986, 622.884 204.119, 615.875 211.253, 608.867 218.386, 601.859 225.520, 594.851 232.653, 587.843 239.787, 580.835 246.920, 573.827 254.054, 566.819 261.187, 559.811 268.321, 552.803 275.454, 545.795 282.588, 538.786 289.721, 531.778 296.855, 524.770 303.988, 517.762 305.482, 516.294 298.864, 512.734 290.490, 510.345 283.441, 517.438 276.392, 524.530 269.343, 531.623 262.293, 538.716 255.244, 545.809 248.195, 552.902 241.146, 559.995 234.097, 567.087 227.047, 574.180 219.998, 581.273 212.949, 588.366 205.900, 595.459 198.850, 602.552 191.764, 609.682 194.006, 617.352 " />
            <path fill="true" stroke-width="3.0" stroke-linecap="butt" stroke-opacity="1.0" stroke="rgb(0, 0, 0)" stroke-linejoin="round" d=" M 545.153, 406.794 555.153, 406.794 565.153, 406.794 575.153, 406.794 585.153, 406.794 595.153, 406.794 605.153, 406.794 615.153, 406.794 625.153, 406.794 635.153, 406.794 645.153, 406.794 655.153, 406.794 661.164, 406.794 661.164, 396.794 661.164, 390.845 651.164, 390.845 641.164, 390.845 631.164, 390.845 621.164, 390.845 611.164, 390.845 601.164, 390.845 591.164, 390.845 581.164, 390.845 571.164, 390.845 561.164, 390.845 551.164, 390.845 545.153, 390.845 545.153, 400.845 545.153, 406.794 " />
            <path fill="true" stroke-width="3.0" stroke-linecap="butt" stroke-opacity="1.0" stroke="rgb(0, 0, 0)" stroke-linejoin="round" d=" M 342.162, 556.328 340.264, 552.911 333.120, 559.909 325.977, 566.907 318.833, 573.905 311.690, 580.903 304.547, 587.901 297.403, 594.899 290.260, 601.897 283.116, 608.895 275.973, 615.893 268.830, 622.891 261.686, 629.889 254.543, 636.887 247.399, 643.885 240.256, 650.883 232.766, 658.220 237.672, 660.952 247.230, 663.890 248.193, 664.186 255.245, 657.096 262.298, 650.007 269.350, 642.917 276.403, 635.827 283.455, 628.738 290.507, 621.648 297.560, 614.558 304.612, 607.468 311.665, 600.379 318.717, 593.289 325.769, 586.199 332.822, 579.110 339.874, 572.020 345.360, 566.505 342.362, 556.965 342.162, 556.328 " />
            <path fill="true" stroke-width="3.0" stroke-linecap="butt" stroke-opacity="1.0" stroke="rgb(0, 0, 0)" stroke-linejoin="round" d=" M 271.303, 588.857 265.666, 588.798 258.646, 595.920 251.625, 603.041 244.605, 610.162 237.584, 617.284 230.564, 624.405 223.543, 631.526 221.627, 633.470 221.493, 638.840 225.651, 642.664 231.908, 642.757 238.971, 635.678 246.034, 628.599 253.098, 621.520 260.161, 614.441 267.224, 607.362 274.715, 599.854 275.895, 593.748 271.303, 588.857 " />
            <path fill="true" stroke-width="3.0" stroke-linecap="butt" stroke-opacity="1.0" stroke="rgb(0, 0, 0)" stroke-linejoin="round" d=" M 268.205, 492.861 258.253, 493.842 249.879, 494.666 240.309, 497.569 232.257, 500.012 223.438, 504.726 216.018, 508.692 208.287, 515.036 201.783, 520.374 195.439, 528.104 190.101, 534.609 185.387, 543.428 181.421, 550.849 178.518, 560.418 176.075, 568.470 175.095, 578.422 174.270, 586.796 175.251, 596.747 176.075, 605.121 178.978, 614.691 181.421, 622.743 186.135, 631.562 190.101, 638.983 196.445, 646.713 201.783, 653.217 209.513, 659.561 216.018, 664.899 224.837, 669.613 232.257, 673.579 241.827, 676.482 249.150, 678.704 251.280, 668.933 251.980, 665.720 242.411, 662.817 237.351, 661.282 228.532, 656.568 223.412, 653.832 215.682, 647.488 211.195, 643.805 204.851, 636.075 201.168, 631.588 196.454, 622.768 193.718, 617.649 190.815, 608.079 189.130, 602.524 188.150, 592.573 187.581, 586.796 188.561, 576.844 189.130, 571.067 192.033, 561.497 193.718, 555.942 198.432, 547.123 201.168, 542.003 207.512, 534.273 211.195, 529.786 218.925, 523.442 223.412, 519.759 232.232, 515.045 237.351, 512.309 246.921, 509.406 252.476, 507.721 262.427, 506.741 268.205, 506.172 278.156, 507.152 283.933, 507.721 293.503, 510.624 299.058, 512.309 307.877, 517.023 312.997, 519.759 320.727, 526.103 325.214, 529.786 331.558, 537.516 335.241, 542.003 339.955, 550.823 342.691, 555.942 345.594, 565.512 347.279, 571.067 348.259, 581.018 348.828, 586.796 347.848, 596.747 347.279, 602.524 344.376, 612.094 342.691, 617.649 337.977, 626.468 335.241, 631.588 328.897, 639.318 325.214, 643.805 317.484, 650.149 312.997, 653.832 304.177, 658.546 299.058, 661.282 289.488, 664.185 283.933, 665.870 273.982, 666.850 268.205, 667.419 258.253, 666.439 252.476, 665.870 250.525, 675.678 249.879, 678.925 259.831, 679.905 268.205, 680.730 278.156, 679.749 286.530, 678.925 296.100, 676.022 304.152, 673.579 312.971, 668.865 320.392, 664.899 328.122, 658.555 334.626, 653.217 340.970, 645.487 346.308, 638.983 351.022, 630.163 354.988, 622.743 357.891, 613.173 360.334, 605.121 361.314, 595.169 362.139, 586.796 361.158, 576.844 360.334, 568.470 357.431, 558.900 354.988, 550.849 350.274, 542.029 346.308, 534.609 339.964, 526.878 334.626, 520.374 326.896, 514.030 320.392, 508.692 311.572, 503.978 304.152, 500.012 294.582, 497.109 286.530, 494.666 276.578, 493.686 268.205, 492.861 " />
            <path fill="true" stroke-width="3.0" stroke-linecap="butt" stroke-opacity="1.0" stroke="rgb(0, 0, 0)" stroke-linejoin="round" d=" M 268.204, 454.117 258.253, 455.097 248.301, 456.077 242.320, 456.666 232.751, 459.569 223.181, 462.472 217.430, 464.216 208.611, 468.930 199.792, 473.644 194.492, 476.477 186.762, 482.821 179.032, 489.165 174.386, 492.977 168.042, 500.708 161.699, 508.438 157.886, 513.083 153.172, 521.902 148.458, 530.722 145.625, 536.022 142.722, 545.591 139.820, 555.160 138.075, 560.911 137.095, 570.863 136.115, 580.815 135.526, 586.796 136.506, 596.747 137.486, 606.699 138.075, 612.680 140.978, 622.249 143.881, 631.819 145.625, 637.569 150.339, 646.389 155.053, 655.208 157.886, 660.508 164.230, 668.238 170.574, 675.968 174.386, 680.614 182.117, 686.958 189.847, 693.301 194.492, 697.114 203.311, 701.828 212.130, 706.542 217.430, 709.375 226.995, 712.295 236.559, 715.215 241.938, 716.857 243.851, 707.042 244.825, 702.043 235.269, 699.097 225.713, 696.151 223.225, 695.384 214.406, 690.670 205.587, 685.956 202.905, 684.523 195.175, 678.179 187.445, 671.835 185.094, 669.906 178.750, 662.176 172.406, 654.446 170.477, 652.095 165.763, 643.276 161.049, 634.456 159.616, 631.775 156.713, 622.205 153.810, 612.636 152.927, 609.726 151.947, 599.774 150.967, 589.822 150.669, 586.796 151.649, 576.844 152.629, 566.892 152.927, 563.867 152.927, 563.865 155.830, 554.296 158.733, 544.727 159.616, 541.817 164.330, 532.997 169.044, 524.178 170.477, 521.496 176.821, 513.766 183.165, 506.036 185.094, 503.685 192.824, 497.341 200.554, 490.997 202.905, 489.068 211.724, 484.354 220.544, 479.640 223.225, 478.207 232.795, 475.304 242.364, 472.401 245.274, 471.518 255.226, 470.538 265.178, 469.558 268.204, 469.260 278.156, 470.240 288.108, 471.220 291.135, 471.518 300.704, 474.421 310.273, 477.324 313.183, 478.207 322.003, 482.921 330.822, 487.635 333.504, 489.068 341.234, 495.412 348.964, 501.756 351.315, 503.685 357.659, 511.415 364.003, 519.145 365.932, 521.496 370.646, 530.315 375.360, 539.135 376.793, 541.817 379.697, 551.386 382.601, 560.955 383.484, 563.865 383.482, 563.865 384.462, 573.817 385.442, 583.769 385.740, 586.796 384.760, 596.747 383.780, 606.699 383.482, 609.726 380.579, 619.295 377.676, 628.864 376.793, 631.775 372.079, 640.594 367.365, 649.413 365.932, 652.095 359.588, 659.825 353.244, 667.555 351.315, 669.906 343.585, 676.250 335.855, 682.594 333.504, 684.523 324.685, 689.237 315.865, 693.951 313.183, 695.384 303.614, 698.288 294.045, 701.192 291.135, 702.075 291.135, 702.073 281.183, 703.053 271.231, 704.033 268.204, 704.331 258.253, 703.351 248.301, 702.371 245.274, 702.073 243.323, 711.881 242.320, 716.925 252.272, 717.905 262.224, 718.885 268.204, 719.474 278.156, 718.494 288.108, 717.514 294.089, 716.925 303.658, 714.022 313.228, 711.119 318.978, 709.375 327.798, 704.661 336.617, 699.947 341.917, 697.114 349.647, 690.770 357.377, 684.426 362.023, 680.614 368.366, 672.883 374.710, 665.153 378.523, 660.508 383.237, 651.689 387.951, 642.869 390.784, 637.569 393.687, 628.000 396.589, 618.431 398.334, 612.680 399.314, 602.728 400.294, 592.776 400.883, 586.796 399.903, 576.844 398.923, 566.892 398.334, 560.911 395.431, 551.342 392.528, 541.772 390.784, 536.022 386.070, 527.202 381.356, 518.383 378.523, 513.083 372.179, 505.353 365.835, 497.623 362.023, 492.977 354.292, 486.634 346.562, 480.290 341.917, 476.477 333.098, 471.763 324.278, 467.049 318.978, 464.216 309.409, 461.313 299.840, 458.411 294.089, 456.666 284.137, 455.686 274.185, 454.706 268.204, 454.117 " />
            <path fill="true" stroke-width="3.0" stroke-linecap="butt" stroke-opacity="1.0" stroke="rgb(0, 0, 0)" stroke-linejoin="round" d=" M 493.886, 683.839 502.217, 689.369 504.639, 690.978 512.971, 696.508 521.302, 702.039 529.633, 707.570 534.257, 710.640 542.589, 716.171 544.258, 717.279 549.789, 708.948 551.405, 706.514 543.074, 700.983 541.458, 699.911 533.127, 694.380 524.796, 688.849 516.464, 683.318 510.217, 679.171 501.886, 673.640 501.075, 673.102 501.032, 673.074 495.501, 681.405 495.406, 681.549 493.886, 683.839 " />
            <path fill="true" stroke-width="3.0" stroke-linecap="butt" stroke-opacity="1.0" stroke="rgb(0, 0, 0)" stroke-linejoin="round" d=" M 388.849, 863.506 394.422, 855.202 394.976, 854.378 400.548, 846.074 406.121, 837.771 411.694, 829.468 417.266, 821.164 422.839, 812.861 428.412, 804.558 433.984, 796.254 439.557, 787.951 445.130, 779.648 450.702, 771.344 456.275, 763.041 461.848, 754.738 467.420, 746.434 472.993, 738.131 478.566, 729.828 484.138, 721.524 489.711, 713.221 495.284, 704.918 500.856, 696.614 504.639, 690.978 510.212, 682.674 511.835, 680.257 510.217, 679.171 501.914, 673.599 501.106, 673.056 501.075, 673.102 495.502, 681.405 495.406, 681.549 489.833, 689.852 484.260, 698.156 478.688, 706.459 473.115, 714.762 467.542, 723.066 461.970, 731.369 456.397, 739.672 450.824, 747.976 445.251, 756.279 439.679, 764.582 434.106, 772.886 428.533, 781.189 422.961, 789.492 417.388, 797.796 411.815, 806.099 406.243, 814.402 400.670, 822.706 395.097, 831.009 389.525, 839.312 383.952, 847.616 378.120, 856.305 378.999, 856.895 387.302, 862.468 388.849, 863.506 " />
            <path fill="true" stroke-width="3.0" stroke-linecap="butt" stroke-opacity="1.0" stroke="rgb(0, 0, 0)" stroke-linejoin="round" d=" M 428.356, 891.621 433.929, 883.318 435.359, 881.187 440.931, 872.883 446.504, 864.580 449.430, 860.221 455.002, 851.918 456.354, 849.904 461.926, 841.601 467.499, 833.298 473.072, 824.994 478.644, 816.691 484.217, 808.388 489.790, 800.084 495.362, 791.781 500.935, 783.478 506.508, 775.174 512.080, 766.871 517.653, 758.568 523.226, 750.264 529.049, 741.587 534.622, 733.283 536.148, 731.010 541.720, 722.707 547.293, 714.404 552.284, 706.968 543.980, 701.395 541.555, 699.767 541.458, 699.911 535.885, 708.214 534.257, 710.640 528.685, 718.943 523.112, 727.247 517.539, 735.550 511.967, 743.853 506.394, 752.157 500.821, 760.460 495.249, 768.763 489.676, 777.067 484.103, 785.370 478.531, 793.673 472.958, 801.977 467.385, 810.280 461.813, 818.583 456.240, 826.887 450.667, 835.190 445.095, 843.493 439.522, 851.797 433.949, 860.100 428.377, 868.403 424.594, 874.040 419.021, 882.343 417.627, 884.421 425.930, 889.993 428.356, 891.621 " />
            <path fill="true" stroke-width="3.0" stroke-linecap="butt" stroke-opacity="1.0" stroke="rgb(0, 0, 0)" stroke-linejoin="round" d=" M 377.900, 858.551 386.231, 864.082 394.562, 869.613 402.894, 875.143 411.225, 880.674 419.556, 886.205 428.273, 891.992 433.803, 883.661 435.419, 881.227 435.359, 881.187 427.028, 875.656 424.594, 874.040 416.262, 868.509 407.931, 862.978 399.600, 857.448 394.976, 854.378 386.644, 848.847 385.046, 847.786 379.516, 856.117 378.999, 856.895 377.900, 858.551 " />
            <path fill="true" stroke-width="3.0" stroke-linecap="butt" stroke-opacity="1.0" stroke="rgb(0, 0, 0)" stroke-linejoin="round" d=" M 446.788, 858.476 449.430, 860.221 457.773, 865.733 466.117, 871.245 474.461, 876.757 482.805, 882.269 491.149, 887.781 499.492, 893.293 507.836, 898.805 512.073, 901.604 515.050, 903.570 520.583, 895.240 521.924, 893.221 520.231, 892.102 511.888, 886.590 503.544, 881.079 495.200, 875.567 486.856, 870.055 478.513, 864.543 470.169, 859.031 461.825, 853.519 456.354, 849.904 453.662, 848.126 448.129, 856.456 446.788, 858.476 " />
            <path fill="true" stroke-width="3.0" stroke-linecap="butt" stroke-opacity="1.0" stroke="rgb(0, 0, 0)" stroke-linejoin="round" d=" M 525.625, 739.152 529.049, 741.587 537.200, 747.381 545.350, 753.175 553.501, 758.969 556.577, 761.155 561.933, 763.472 567.086, 762.747 576.173, 758.573 585.261, 754.400 594.348, 750.227 603.436, 746.053 612.523, 741.880 621.611, 737.707 630.698, 733.533 632.254, 732.819 641.257, 728.466 642.326, 727.949 652.028, 725.523 652.952, 725.292 662.680, 724.243 671.244, 724.905 679.850, 727.081 689.057, 730.984 693.310, 732.788 702.269, 737.230 711.228, 741.673 720.187, 746.116 722.895, 747.458 730.469, 753.988 733.453, 756.562 739.573, 764.249 744.035, 773.199 748.496, 782.149 752.957, 791.098 757.419, 800.048 761.880, 808.998 763.722, 812.694 765.438, 817.094 765.630, 820.959 765.082, 825.288 763.234, 830.356 760.924, 834.137 757.001, 837.880 754.229, 839.368 751.033, 840.549 745.635, 841.182 742.221, 840.824 739.036, 840.026 736.104, 838.714 733.022, 836.912 730.826, 834.304 725.541, 825.815 720.256, 817.326 714.928, 808.766 711.591, 805.366 702.732, 800.726 693.874, 796.087 685.015, 791.447 680.974, 789.330 675.669, 788.390 667.535, 788.596 658.555, 792.996 649.574, 797.395 640.594, 801.795 631.614, 806.195 622.634, 810.594 613.654, 814.994 604.674, 819.393 595.693, 823.793 586.713, 828.193 577.733, 832.592 567.949, 837.386 566.213, 838.549 559.698, 846.136 553.184, 853.723 546.670, 861.310 540.155, 868.897 533.641, 876.484 527.127, 884.071 520.231, 892.102 513.717, 899.690 512.073, 901.604 506.939, 907.584 503.395, 915.197 501.531, 923.201 502.063, 930.521 503.320, 937.027 506.158, 942.537 509.421, 947.333 514.257, 951.966 518.756, 955.221 523.693, 957.561 528.696, 959.141 533.934, 959.855 538.654, 959.780 544.208, 958.043 547.446, 956.735 549.061, 956.082 550.940, 954.770 555.254, 951.755 557.711, 949.070 562.004, 944.379 568.754, 937.001 575.505, 929.624 582.256, 922.246 589.007, 914.869 595.757, 907.491 602.508, 900.114 607.492, 894.667 609.272, 891.649 609.621, 889.818 609.592, 888.222 608.923, 886.523 607.691, 885.096 606.035, 884.249 603.608, 884.145 600.597, 885.275 593.917, 892.717 587.238, 900.159 580.558, 907.601 573.879, 915.043 567.199, 922.486 560.520, 929.928 553.840, 937.370 548.414, 943.416 544.547, 946.114 541.259, 947.545 537.950, 948.103 534.867, 948.206 531.824, 947.703 528.405, 946.828 524.780, 945.637 521.015, 942.923 517.271, 939.135 515.325, 935.669 513.413, 931.678 512.853, 928.545 512.627, 925.371 513.976, 918.922 516.399, 913.682 522.873, 906.060 529.346, 898.438 535.820, 890.816 542.293, 883.195 548.767, 875.573 555.240, 867.951 561.714, 860.329 568.188, 852.707 573.331, 846.651 574.054, 846.277 583.052, 841.912 592.049, 837.547 601.046, 833.183 610.043, 828.818 619.040, 824.453 628.038, 820.089 637.035, 815.724 646.032, 811.359 655.029, 806.995 664.026, 802.630 670.842, 799.324 675.436, 799.622 678.064, 799.973 686.871, 804.710 695.678, 809.446 704.485, 814.182 705.188, 814.560 707.200, 816.879 712.379, 825.434 717.557, 833.989 721.556, 840.596 725.079, 844.814 729.560, 847.808 733.269, 849.631 738.570, 851.416 744.749, 852.350 753.371, 851.507 758.476, 849.736 763.268, 847.166 769.675, 841.132 773.453, 834.951 776.032, 827.659 776.775, 819.813 776.230, 814.085 773.702, 807.602 769.217, 798.664 764.732, 789.726 760.247, 780.789 755.761, 771.851 751.276, 762.913 748.652, 757.684 742.649, 749.686 742.044, 748.880 734.327, 742.520 728.915, 738.060 720.011, 733.509 716.787, 731.861 707.883, 727.310 704.228, 725.442 698.066, 722.292 688.882, 718.337 683.302, 715.934 673.533, 713.462 663.566, 712.651 662.618, 712.574 652.670, 713.599 651.315, 713.738 641.614, 716.164 640.689, 716.395 631.686, 720.748 630.617, 721.265 621.523, 725.423 612.428, 729.581 603.334, 733.740 594.239, 737.898 585.145, 742.056 576.050, 746.214 567.809, 749.982 566.167, 750.705 563.920, 750.915 563.886, 750.918 563.997, 750.808 555.846, 745.014 547.696, 739.220 539.545, 733.426 536.148, 731.010 533.045, 728.804 527.217, 736.931 525.625, 739.152 " />
            <path fill="true" stroke-width="3.0" stroke-linecap="butt" stroke-opacity="1.0" stroke="rgb(0, 0, 0)" stroke-linejoin="round" d=" M 563.886, 750.918 558.075, 759.057 556.577, 761.155 562.404, 753.029 563.920, 750.915 563.997, 750.808 " />
            <path fill="true" stroke-width="3.0" stroke-linecap="butt" stroke-opacity="1.0" stroke="rgb(0, 0, 0)" stroke-linejoin="round" d=" M 562.119, 944.529 562.004, 944.379 556.865, 937.656 550.078, 945.001 549.885, 945.210 549.115, 946.044 547.552, 952.751 547.250, 954.048 547.446, 956.735 547.782, 961.368 549.040, 967.874 551.878, 973.384 555.140, 978.180 559.977, 982.813 564.475, 986.067 569.412, 988.408 574.415, 989.988 579.654, 990.702 584.374, 990.627 589.927, 988.890 594.765, 987.056 596.591, 986.036 600.150, 984.050 601.703, 983.182 606.280, 978.236 613.072, 970.897 619.864, 963.557 626.656, 956.217 628.275, 954.468 635.067, 947.128 641.859, 939.789 648.651, 932.449 655.443, 925.110 657.017, 923.410 658.423, 920.725 658.772, 918.894 658.743, 917.298 658.074, 915.599 656.842, 914.172 655.186, 913.325 652.759, 913.221 649.836, 914.401 643.085, 921.778 636.334, 929.156 629.584, 936.534 622.833, 943.911 616.082, 951.289 609.332, 958.666 602.581, 966.044 595.831, 973.422 594.648, 974.713 590.267, 976.961 586.979, 978.392 583.670, 978.950 580.587, 979.053 577.543, 978.550 574.125, 977.675 570.499, 976.484 566.735, 973.770 562.990, 969.982 561.044, 966.516 559.132, 962.525 558.573, 959.392 558.346, 956.218 559.695, 949.769 562.119, 944.529 " />
            <path fill="true" stroke-width="3.0" stroke-linecap="butt" stroke-opacity="1.0" stroke="rgb(0, 0, 0)" stroke-linejoin="round" d=" M 630.208, 951.988 621.639, 957.142 613.070, 962.297 606.019, 966.537 599.266, 973.912 598.258, 975.013 597.528, 978.170 596.379, 983.138 596.591, 986.036 596.914, 990.434 598.172, 996.934 600.963, 1002.815 604.203, 1007.799 609.039, 1012.432 613.538, 1015.686 618.496, 1017.858 623.538, 1019.122 628.806, 1019.604 633.529, 1019.508 639.082, 1017.771 643.935, 1015.810 645.152, 1014.926 650.107, 1011.323 651.382, 1010.396 655.790, 1005.508 662.488, 998.083 663.965, 996.446 670.663, 989.021 677.361, 981.595 684.059, 974.170 690.757, 966.745 697.455, 959.319 704.153, 951.894 705.865, 949.995 706.813, 948.458 707.161, 946.627 707.132, 945.031 706.464, 943.332 705.232, 941.906 703.576, 941.058 701.148, 940.954 698.225, 942.134 691.595, 949.620 684.966, 957.107 678.336, 964.593 671.706, 972.080 665.076, 979.566 658.447, 987.053 656.423, 989.338 653.868, 992.224 647.238, 999.710 643.804, 1003.587 639.422, 1005.841 636.133, 1007.272 632.825, 1007.831 629.741, 1007.934 626.693, 1007.473 623.262, 1006.692 619.627, 1005.581 615.863, 1002.869 612.118, 999.077 610.167, 995.654 608.222, 991.926 607.643, 988.948 607.542, 985.837 608.919, 979.296 615.067, 971.410 621.216, 963.523 627.364, 955.637 628.275, 954.468 630.208, 951.988 " />
            <path fill="true" stroke-width="3.0" stroke-linecap="butt" stroke-opacity="1.0" stroke="rgb(0, 0, 0)" stroke-linejoin="round" d=" M 645.228, 1009.992 645.152, 1014.926 645.108, 1017.744 646.620, 1023.835 649.240, 1029.795 652.333, 1034.870 657.033, 1039.642 661.435, 1043.025 666.328, 1045.340 671.332, 1046.749 676.583, 1047.384 681.307, 1047.425 686.908, 1045.850 691.816, 1044.031 699.527, 1039.499 705.344, 1034.724 713.546, 1029.003 721.748, 1023.282 729.949, 1017.561 738.151, 1011.840 746.353, 1006.119 750.202, 1003.434 751.560, 1002.487 745.049, 994.897 744.443, 994.191 743.642, 994.745 735.415, 1000.429 727.187, 1006.112 718.959, 1011.796 710.732, 1017.480 702.504, 1023.164 698.620, 1025.847 692.040, 1031.256 687.594, 1033.935 684.265, 1035.270 680.942, 1035.732 677.857, 1035.746 674.823, 1035.197 671.416, 1034.317 667.815, 1033.100 664.131, 1030.280 660.498, 1026.381 658.647, 1022.903 656.811, 1019.121 656.319, 1016.127 656.307, 1013.014 656.882, 1006.256 662.736, 998.148 663.965, 996.446 664.903, 995.146 656.653, 989.496 656.423, 989.338 656.370, 989.302 653.868, 992.224 647.407, 999.767 646.144, 1005.690 645.228, 1009.992 " />
            <path fill="true" stroke-width="3.0" stroke-linecap="butt" stroke-opacity="1.0" stroke="rgb(0, 0, 0)" stroke-linejoin="round" d=" M 800.999, 979.951 795.437, 983.200 791.443, 985.533 791.756, 986.100 791.903, 986.367 793.769, 989.754 794.221, 993.276 793.950, 997.402 792.455, 1001.159 790.688, 1003.965 787.084, 1007.130 784.299, 1008.608 781.113, 1010.060 776.507, 1011.137 773.836, 1010.723 771.095, 1009.950 768.591, 1008.217 765.832, 1005.870 763.601, 1003.040 757.575, 995.059 751.550, 987.078 745.525, 979.097 739.499, 971.116 738.364, 969.613 737.686, 967.349 737.208, 964.969 737.731, 959.979 738.739, 956.977 740.744, 954.308 745.327, 950.561 749.897, 947.937 754.283, 947.088 762.866, 949.680 769.141, 956.627 773.577, 961.538 768.730, 952.791 763.883, 944.045 763.285, 942.965 755.264, 936.992 754.295, 936.271 753.558, 936.334 751.067, 936.547 744.938, 938.096 737.996, 942.334 731.953, 947.664 728.867, 952.079 726.997, 957.489 726.192, 964.674 727.264, 970.928 728.799, 975.084 734.824, 983.064 740.849, 991.045 743.642, 994.745 749.668, 1002.726 750.202, 1003.434 754.035, 1008.510 757.191, 1012.753 760.878, 1016.658 764.367, 1018.873 769.880, 1020.946 776.133, 1022.089 783.440, 1021.189 788.878, 1019.419 793.338, 1016.406 799.765, 1010.372 803.206, 1004.664 804.873, 999.350 805.016, 994.206 805.092, 991.482 804.017, 986.217 803.995, 986.111 802.310, 982.646 800.999, 979.951 " />
            <path fill="true" stroke-width="3.0" stroke-linecap="butt" stroke-opacity="1.0" stroke="rgb(0, 0, 0)" stroke-linejoin="round" d=" M 837.769, 952.409 831.178, 955.778 828.505, 957.144 828.747, 957.896 829.042, 958.809 829.983, 961.731 830.460, 966.000 829.525, 969.860 828.030, 973.617 826.263, 976.423 822.659, 979.588 819.874, 981.066 816.688, 982.518 812.082, 983.595 809.145, 983.713 806.404, 982.673 803.369, 981.472 800.611, 979.125 798.379, 976.295 792.288, 968.363 786.198, 960.432 780.107, 952.501 774.017, 944.570 767.926, 936.638 761.835, 928.707 755.344, 920.254 753.907, 915.818 754.026, 911.338 755.662, 905.886 759.256, 902.148 765.863, 897.507 770.479, 895.727 771.858, 895.503 771.980, 895.483 770.575, 885.582 770.457, 884.750 770.186, 884.787 765.954, 885.355 759.477, 888.165 751.401, 894.063 751.165, 894.236 745.961, 899.869 743.007, 908.571 742.743, 917.671 745.513, 925.858 751.604, 933.789 753.558, 936.334 758.198, 942.377 764.289, 950.308 769.141, 956.627 775.232, 964.558 781.322, 972.490 787.413, 980.421 788.547, 981.898 791.703, 986.141 791.903, 986.367 794.627, 989.448 795.391, 990.312 799.279, 992.441 799.677, 992.660 805.016, 994.206 805.455, 994.333 811.709, 994.547 819.015, 993.647 824.453, 991.877 828.913, 988.864 835.340, 982.830 838.781, 977.122 840.580, 971.808 841.132, 966.979 841.253, 965.924 841.464, 964.073 840.766, 958.569 840.151, 957.306 838.799, 954.526 837.769, 952.409 " />
            <path fill="true" stroke-width="3.0" stroke-linecap="butt" stroke-opacity="1.0" stroke="rgb(0, 0, 0)" stroke-linejoin="round" d=" M 861.579, 931.346 863.903, 935.519 864.908, 939.695 864.462, 943.642 863.494, 946.255 861.727, 949.062 858.123, 952.226 855.337, 953.705 852.152, 955.157 847.545, 956.234 844.476, 955.820 841.735, 954.781 839.895, 953.314 837.004, 950.701 834.685, 947.584 828.564, 939.676 822.443, 931.768 816.323, 923.860 811.029, 917.020 809.560, 915.122 806.765, 911.510 803.098, 906.772 798.766, 901.175 792.645, 893.267 791.610, 891.929 786.475, 887.868 780.394, 885.477 774.408, 884.762 770.172, 884.694 770.186, 884.787 771.728, 894.667 771.858, 895.503 771.861, 895.517 774.265, 895.715 777.577, 896.063 781.060, 897.390 783.894, 899.705 790.004, 907.621 796.115, 915.537 801.673, 922.737 803.655, 925.305 809.765, 933.221 815.876, 941.137 821.986, 949.053 825.825, 954.027 828.495, 958.116 829.042, 958.809 831.090, 961.407 831.784, 962.286 835.030, 965.200 835.140, 965.298 840.918, 966.972 841.132, 966.979 847.172, 967.185 854.479, 966.286 859.916, 964.515 864.376, 961.503 870.803, 955.468 874.244, 949.761 875.674, 944.197 875.623, 939.695 875.587, 936.412 874.508, 932.210 874.207, 931.038 872.766, 928.562 870.944, 925.433 870.753, 925.105 869.171, 923.077 863.017, 915.195 860.273, 911.680 857.046, 907.546 854.005, 903.651 849.640, 898.060 847.567, 895.404 845.883, 893.246 845.311, 892.514 837.043, 898.139 836.137, 898.756 836.661, 899.428 842.815, 907.310 848.968, 915.193 855.122, 923.075 861.275, 930.958 861.579, 931.346 " />
            <path fill="true" stroke-width="3.0" stroke-linecap="butt" stroke-opacity="1.0" stroke="rgb(0, 0, 0)" stroke-linejoin="round" d=" M 900.884, 903.617 901.853, 907.505 902.253, 911.773 901.242, 915.480 899.440, 919.467 897.057, 921.889 893.453, 925.131 890.668, 926.609 887.483, 928.061 882.876, 929.138 879.785, 929.025 877.199, 928.216 874.163, 927.015 871.251, 925.206 869.171, 923.077 868.635, 922.529 859.794, 927.202 859.342, 927.441 862.022, 931.045 862.498, 931.684 865.337, 934.896 866.185, 935.855 870.216, 938.063 870.471, 938.202 875.623, 939.695 876.249, 939.876 882.503, 940.397 889.810, 939.190 895.247, 937.420 899.707, 934.407 906.134, 928.296 910.190, 922.972 912.297, 917.428 913.258, 909.847 912.636, 904.342 909.900, 897.483 908.716, 895.888 902.756, 887.858 901.302, 885.899 898.194, 881.712 897.398, 880.639 897.063, 880.189 897.012, 880.224 888.756, 885.867 888.201, 886.245 889.529, 888.064 895.426, 896.141 900.884, 903.617 " />
            <path fill="true" stroke-width="3.0" stroke-linecap="butt" stroke-opacity="1.0" stroke="rgb(0, 0, 0)" stroke-linejoin="round" d=" M 851.856, 917.372 860.139, 911.770 860.273, 911.680 860.474, 911.544 858.448, 906.940 857.686, 902.531 858.220, 898.508 859.323, 894.598 861.119, 891.828 864.234, 888.709 867.049, 886.441 870.034, 884.611 874.475, 882.982 877.375, 882.507 880.222, 883.205 883.766, 883.874 886.790, 885.867 889.529, 888.064 890.082, 888.508 897.748, 882.086 898.194, 881.712 898.307, 881.618 897.398, 880.639 897.012, 880.224 894.775, 877.818 890.608, 874.127 885.683, 872.473 879.744, 871.516 873.511, 872.066 866.368, 873.849 861.187, 876.269 856.897, 880.263 851.330, 886.575 848.225, 892.429 847.567, 895.404 847.010, 897.922 846.998, 905.784 848.132, 911.393 851.856, 917.372 " />
            <path fill="true" stroke-width="3.0" stroke-linecap="butt" stroke-opacity="1.0" stroke="rgb(0, 0, 0)" stroke-linejoin="round" d=" M 803.515, 925.404 803.655, 925.305 811.835, 919.553 812.354, 919.188 811.029, 917.020 809.800, 915.010 808.683, 910.863 809.022, 906.905 809.931, 902.966 811.065, 900.811 812.664, 898.767 815.248, 896.960 818.233, 895.131 822.674, 893.501 825.473, 893.105 828.149, 893.678 831.264, 894.656 834.185, 896.797 836.616, 899.458 836.661, 899.428 844.967, 893.859 845.883, 893.246 846.016, 893.157 842.560, 889.154 838.581, 885.261 834.136, 883.230 826.658, 881.846 820.435, 882.426 814.568, 884.368 809.387, 886.788 805.327, 890.322 801.128, 894.690 798.774, 901.129 798.766, 901.175 797.800, 906.654 798.097, 914.434 799.621, 919.768 801.673, 922.737 803.515, 925.404 " />
            <path fill="true" stroke-width="3.0" stroke-linecap="butt" stroke-opacity="1.0" stroke="rgb(0, 0, 0)" stroke-linejoin="round" d=" M 948.839, 854.125 946.920, 855.408 938.606, 860.965 930.292, 866.522 921.978, 872.079 913.664, 877.636 905.351, 883.193 901.302, 885.899 899.515, 887.093 905.043, 895.426 906.383, 897.447 908.716, 895.888 917.029, 890.331 925.343, 884.774 933.657, 879.217 941.971, 873.660 950.285, 868.103 953.854, 865.718 955.707, 864.479 950.180, 856.146 948.839, 854.125 " />
            <path fill="true" stroke-width="3.0" stroke-linecap="butt" stroke-opacity="1.0" stroke="rgb(0, 0, 0)" stroke-linejoin="round" d=" M 864.900, 731.877 864.140, 732.324 855.521, 737.394 846.902, 742.465 838.283, 747.536 833.320, 750.456 833.234, 750.561 833.144, 750.029 824.452, 745.086 815.759, 740.142 807.066, 735.199 798.374, 730.255 789.681, 725.311 780.989, 720.368 772.296, 715.424 766.962, 712.390 760.936, 710.771 755.232, 709.722 748.372, 709.430 738.392, 710.060 737.598, 710.111 733.250, 711.089 724.287, 715.522 715.323, 719.955 706.359, 724.388 704.228, 725.442 703.923, 725.593 707.655, 734.870 708.161, 736.127 716.787, 731.861 725.751, 727.428 734.715, 722.995 737.488, 721.623 740.790, 721.008 749.461, 720.732 755.353, 721.077 758.894, 721.941 762.160, 722.309 770.823, 727.303 779.487, 732.296 788.151, 737.290 796.815, 742.284 805.479, 747.278 814.143, 752.272 822.806, 757.266 829.607, 761.185 834.506, 761.844 838.882, 760.355 847.501, 755.285 856.120, 750.214 864.739, 745.143 870.461, 741.776 870.277, 741.448 865.379, 732.730 864.900, 731.877 " />
            <path fill="true" stroke-width="3.0" stroke-linecap="butt" stroke-opacity="1.0" stroke="rgb(0, 0, 0)" stroke-linejoin="round" d=" M 854.457, 717.900 862.727, 712.278 865.131, 710.643 873.401, 705.021 881.671, 699.399 889.940, 693.776 894.531, 690.655 902.800, 685.033 904.458, 683.906 898.835, 675.637 897.193, 673.221 888.923, 678.843 887.320, 679.933 879.050, 685.556 870.780, 691.178 862.510, 696.800 856.309, 701.017 848.039, 706.639 847.234, 707.186 847.192, 707.215 852.815, 715.485 852.911, 715.627 854.457, 717.900 " />
            <path fill="true" stroke-width="3.0" stroke-linecap="butt" stroke-opacity="1.0" stroke="rgb(0, 0, 0)" stroke-linejoin="round" d=" M 981.088, 883.059 975.508, 874.761 974.953, 873.937 969.372, 865.639 963.792, 857.341 958.211, 849.043 952.630, 840.745 947.050, 832.447 941.469, 824.149 935.888, 815.852 930.307, 807.554 924.727, 799.256 919.146, 790.958 913.565, 782.660 907.985, 774.362 902.404, 766.064 896.823, 757.766 891.242, 749.468 885.662, 741.170 880.081, 732.872 874.500, 724.574 868.920, 716.276 865.131, 710.643 859.550, 702.345 857.926, 699.929 856.309, 701.017 848.011, 706.597 847.204, 707.140 847.234, 707.186 852.815, 715.484 852.911, 715.627 858.492, 723.925 864.140, 732.324 869.721, 740.621 870.277, 741.448 875.858, 749.746 881.438, 758.044 887.019, 766.342 892.600, 774.640 898.180, 782.938 903.761, 791.235 909.342, 799.533 914.922, 807.831 920.503, 816.129 926.084, 824.427 931.665, 832.725 937.245, 841.023 942.826, 849.321 946.920, 855.408 952.501, 863.706 953.854, 865.718 959.434, 874.016 965.015, 882.314 970.366, 890.270 971.245, 889.680 979.542, 884.099 981.088, 883.059 " />
            <path fill="true" stroke-width="3.0" stroke-linecap="butt" stroke-opacity="1.0" stroke="rgb(0, 0, 0)" stroke-linejoin="round" d=" M 1022.051, 857.112 1016.471, 848.814 1015.038, 846.684 1009.458, 838.386 1003.877, 830.088 998.296, 821.790 992.716, 813.493 987.135, 805.195 981.554, 796.897 975.973, 788.599 970.393, 780.301 964.812, 772.003 959.231, 763.705 953.651, 755.407 948.070, 747.109 942.489, 738.811 936.908, 730.513 931.328, 722.215 925.747, 713.917 920.166, 705.619 914.586, 697.322 909.005, 689.024 903.424, 680.726 897.945, 672.579 889.647, 678.159 887.223, 679.790 887.320, 679.933 892.900, 688.231 894.531, 690.655 900.111, 698.953 905.692, 707.251 911.273, 715.549 916.854, 723.847 922.434, 732.145 928.015, 740.443 933.596, 748.741 939.176, 757.039 944.757, 765.337 950.338, 773.635 955.919, 781.933 961.499, 790.231 967.080, 798.529 972.661, 806.827 978.241, 815.124 983.822, 823.422 989.403, 831.720 994.983, 840.018 1000.564, 848.316 1004.353, 853.949 1009.933, 862.247 1011.329, 864.323 1019.627, 858.742 1022.051, 857.112 " />
            <path fill="true" stroke-width="3.0" stroke-linecap="butt" stroke-opacity="1.0" stroke="rgb(0, 0, 0)" stroke-linejoin="round" d=" M 972.362, 891.323 980.632, 885.701 988.902, 880.079 997.171, 874.456 1005.441, 868.834 1013.711, 863.211 1022.363, 857.329 1016.741, 849.059 1015.098, 846.644 1015.038, 846.684 1006.769, 852.307 1004.353, 853.949 996.083, 859.572 987.813, 865.194 979.543, 870.816 974.953, 873.937 966.683, 879.559 965.097, 880.638 970.720, 888.908 971.245, 889.680 972.362, 891.323 " />
        </g>
    </g>
</svg>
