<?xml version='1.0' encoding='ascii'?>
<svg xmlns="http://www.w3.org/2000/svg" version="1.1" width="1080" height="1080">
    <g id="ViewLayer_LineSet" xmlns:inkscape="http://www.inkscape.org/namespaces/inkscape" inkscape:groupmode="lineset" inkscape:label="ViewLayer_LineSet">
        <g xmlns:inkscape="http://www.inkscape.org/namespaces/inkscape" inkscape:groupmode="layer" id="strokes" inkscape:label="strokes">
            <path fill="black" stroke-width="1.0" stroke-linecap="butt" stroke-opacity="1.0" stroke="rgb(0, 0, 0)" stroke-linejoin="round" d=" M 245.422, 310.312 253.753, 315.843 261.155, 320.756 269.486, 326.287 277.817, 331.818 286.148, 337.349 294.480, 342.880 302.811, 348.411 304.486, 349.523 312.817, 355.053 319.117, 359.236 324.648, 350.905 329.573, 343.487 321.241, 337.956 315.021, 333.826 306.689, 328.295 298.358, 322.764 290.027, 317.233 281.695, 311.703 273.364, 306.172 269.315, 303.484 260.984, 297.953 255.940, 294.604 255.878, 294.563 250.347, 302.894 247.648, 306.960 245.422, 310.312 " />
            <path fill="black" stroke-width="1.0" stroke-linecap="butt" stroke-opacity="1.0" stroke="rgb(0, 0, 0)" stroke-linejoin="round" d=" M 91.754, 573.165 97.327, 564.861 100.717, 559.810 106.290, 551.507 111.862, 543.203 117.435, 534.900 123.008, 526.597 128.580, 518.293 134.153, 509.990 139.726, 501.687 145.298, 493.383 150.871, 485.080 156.444, 476.777 162.016, 468.473 167.589, 460.170 173.162, 451.867 178.734, 443.563 184.307, 435.260 189.880, 426.957 195.452, 418.653 201.025, 410.350 206.598, 402.047 212.170, 393.743 217.743, 385.440 223.316, 377.137 228.888, 368.833 234.461, 360.530 240.034, 352.227 245.606, 343.923 251.179, 335.620 256.752, 327.317 261.155, 320.756 266.727, 312.453 271.681, 305.072 269.315, 303.484 261.012, 297.911 255.985, 294.537 255.940, 294.604 250.367, 302.908 247.648, 306.960 242.075, 315.263 236.502, 323.567 230.930, 331.870 225.357, 340.173 219.784, 348.477 214.212, 356.780 208.639, 365.083 203.066, 373.386 197.494, 381.690 191.921, 389.993 186.348, 398.297 180.775, 406.600 175.203, 414.903 169.630, 423.206 164.057, 431.510 158.485, 439.813 152.912, 448.116 147.339, 456.420 141.767, 464.723 136.194, 473.026 130.621, 481.330 125.049, 489.633 119.476, 497.936 113.903, 506.240 108.331, 514.543 102.758, 522.846 97.185, 531.150 91.613, 539.453 86.040, 547.756 80.467, 556.060 76.058, 562.630 77.344, 563.493 85.647, 569.066 91.754, 573.165 " />
            <path fill="black" stroke-width="1.0" stroke-linecap="butt" stroke-opacity="1.0" stroke="rgb(0, 0, 0)" stroke-linejoin="round" d=" M 149.552, 614.297 155.125, 605.994 159.798, 599.032 165.370, 590.728 170.943, 582.425 176.516, 574.122 180.383, 568.359 185.956, 560.056 190.513, 553.266 196.085, 544.962 201.658, 536.659 207.231, 528.356 212.804, 520.052 218.376, 511.749 223.949, 503.446 229.522, 495.142 235.094, 486.839 240.667, 478.536 246.240, 470.232 251.812, 461.929 257.385, 453.626 262.958, 445.323 268.530, 437.019 274.103, 428.716 279.676, 420.412 285.248, 412.109 290.821, 403.806 296.867, 394.798 302.439, 386.494 307.252, 379.324 312.824, 371.021 318.397, 362.717 323.970, 354.414 329.542, 346.111 330.858, 344.150 322.555, 338.578 315.162, 333.616 315.021, 333.826 309.448, 342.129 304.486, 349.523 298.913, 357.826 293.341, 366.129 287.768, 374.433 282.195, 382.736 276.623, 391.039 271.050, 399.343 265.477, 407.646 259.905, 415.949 254.332, 424.253 248.759, 432.556 243.187, 440.859 237.614, 449.163 232.041, 457.466 226.468, 465.769 220.896, 474.073 215.323, 482.376 209.750, 490.679 204.178, 498.983 198.605, 507.286 193.032, 515.589 187.460, 523.893 181.887, 532.196 176.314, 540.499 170.742, 548.803 165.169, 557.106 159.596, 565.409 154.024, 573.713 148.451, 582.016 144.048, 588.576 138.476, 596.880 133.856, 603.763 142.159, 609.336 149.552, 614.297 " />
            <path fill="black" stroke-width="1.0" stroke-linecap="butt" stroke-opacity="1.0" stroke="rgb(0, 0, 0)" stroke-linejoin="round" d=" M 75.735, 565.916 84.067, 571.447 92.398, 576.977 100.729, 582.508 109.060, 588.039 117.392, 593.570 125.723, 599.101 134.054, 604.632 142.385, 610.162 149.430, 614.839 154.961, 606.508 159.886, 599.090 159.798, 599.032 151.466, 593.501 144.048, 588.576 135.717, 583.045 127.386, 577.515 119.054, 571.984 110.723, 566.453 102.392, 560.922 100.717, 559.810 92.386, 554.279 86.191, 550.167 80.660, 558.498 77.344, 563.493 75.735, 565.916 " />
            <path fill="black" stroke-width="1.0" stroke-linecap="butt" stroke-opacity="1.0" stroke="rgb(0, 0, 0)" stroke-linejoin="round" d=" M 176.518, 565.806 180.383, 568.359 188.727, 573.871 197.071, 579.383 205.415, 584.895 213.758, 590.407 222.102, 595.919 230.446, 601.431 238.790, 606.943 247.133, 612.454 255.477, 617.966 263.821, 623.478 272.031, 628.902 276.385, 631.778 281.918, 623.449 286.442, 616.637 283.966, 615.001 275.622, 609.489 267.278, 603.978 258.935, 598.466 250.591, 592.954 242.247, 587.442 233.903, 581.930 225.560, 576.418 217.216, 570.906 208.872, 565.394 200.528, 559.882 192.184, 554.370 190.513, 553.266 186.575, 550.665 181.042, 558.994 176.518, 565.806 " />
            <path fill="black" stroke-width="1.0" stroke-linecap="butt" stroke-opacity="1.0" stroke="rgb(0, 0, 0)" stroke-linejoin="round" d=" M 291.856, 391.236 296.867, 394.798 305.017, 400.592 313.168, 406.386 321.318, 412.180 329.468, 417.974 337.139, 423.426 344.975, 426.815 352.514, 425.754 361.601, 421.581 370.689, 417.408 379.776, 413.234 388.864, 409.061 397.951, 404.888 407.039, 400.714 416.126, 396.541 425.214, 392.368 434.301, 388.194 443.389, 384.021 447.855, 381.970 456.858, 377.617 462.591, 374.845 472.292, 372.420 478.136, 370.959 488.078, 369.886 492.367, 369.424 502.338, 370.194 504.898, 370.392 514.592, 372.844 517.487, 373.576 526.694, 377.479 535.901, 381.382 537.179, 381.924 546.138, 386.367 555.097, 390.810 564.056, 395.252 573.015, 399.695 580.462, 403.388 588.036, 409.918 595.609, 416.448 595.908, 416.706 602.137, 424.529 604.862, 427.953 609.324, 436.903 613.785, 445.852 618.247, 454.802 622.708, 463.752 627.169, 472.701 631.631, 481.651 636.092, 490.601 640.193, 498.826 642.702, 505.265 642.984, 510.918 642.182, 517.253 639.479, 524.667 636.098, 530.198 630.359, 535.674 626.304, 537.852 621.628, 539.580 613.730, 540.504 608.736, 539.981 604.077, 538.814 599.787, 536.894 595.277, 534.258 592.065, 530.443 586.780, 521.954 581.495, 513.464 576.210, 504.975 570.925, 496.486 568.806, 493.081 563.924, 488.107 555.065, 483.467 546.207, 478.827 537.349, 474.187 528.490, 469.547 519.632, 464.908 519.132, 464.646 511.371, 463.271 501.374, 463.524 499.470, 463.572 490.490, 467.972 481.510, 472.371 472.530, 476.771 463.550, 481.171 454.569, 485.570 445.589, 489.970 436.609, 494.369 427.629, 498.769 418.649, 503.169 409.669, 507.568 400.688, 511.968 391.708, 516.367 382.728, 520.767 373.748, 525.167 364.768, 529.566 355.787, 533.966 353.777, 534.951 351.236, 536.652 344.722, 544.239 338.208, 551.827 331.693, 559.414 325.179, 567.001 318.665, 574.588 312.151, 582.175 305.636, 589.762 299.122, 597.349 292.608, 604.936 286.094, 612.523 283.966, 615.001 277.452, 622.589 272.031, 628.902 265.517, 636.489 264.519, 637.651 260.299, 646.717 259.334, 648.788 257.066, 658.528 256.607, 660.498 257.332, 670.472 257.385, 671.208 259.225, 680.727 263.377, 688.787 268.150, 695.804 275.226, 702.582 281.807, 707.343 289.030, 710.768 296.349, 713.078 304.013, 714.124 310.919, 714.013 319.043, 711.473 323.780, 709.559 326.143, 708.604 328.892, 706.683 335.205, 702.272 338.798, 698.345 345.079, 691.481 351.829, 684.104 358.580, 676.726 365.331, 669.349 372.082, 661.971 378.832, 654.594 385.583, 647.217 392.334, 639.839 399.085, 632.462 405.835, 625.084 411.628, 618.753 414.232, 614.338 414.742, 611.659 414.700, 609.324 413.722, 606.839 411.919, 604.752 409.496, 603.512 405.945, 603.360 401.540, 605.013 394.861, 612.455 388.181, 619.897 381.502, 627.339 374.822, 634.781 368.143, 642.224 361.463, 649.666 354.784, 657.108 348.104, 664.550 341.425, 671.992 334.746, 679.434 328.066, 686.876 325.197, 690.073 319.540, 694.020 314.729, 696.113 309.889, 696.930 305.378, 697.081 300.926, 696.345 295.924, 695.064 290.620, 693.322 285.113, 689.352 279.634, 683.809 276.788, 678.738 273.990, 672.901 273.172, 668.317 272.840, 663.674 274.814, 654.239 278.359, 646.572 284.833, 638.951 291.306, 631.329 297.780, 623.707 304.253, 616.085 310.727, 608.463 317.201, 600.841 323.674, 593.219 330.148, 585.597 336.621, 577.976 343.095, 570.354 349.568, 562.732 356.042, 555.110 361.651, 548.506 362.709, 547.958 371.706, 543.594 380.703, 539.229 389.701, 534.864 398.698, 530.500 407.695, 526.135 416.692, 521.770 425.689, 517.406 434.687, 513.041 443.684, 508.676 452.681, 504.312 461.678, 499.947 470.675, 495.583 479.673, 491.218 488.670, 486.853 497.667, 482.489 504.309, 479.267 511.030, 479.703 514.874, 480.217 523.681, 484.953 532.489, 489.690 541.296, 494.426 550.103, 499.162 554.557, 501.557 557.501, 504.950 562.679, 513.504 567.857, 522.059 573.035, 530.614 578.214, 539.169 578.503, 539.647 583.657, 545.818 590.213, 550.198 595.639, 552.866 603.395, 555.478 612.434, 556.844 622.387, 555.870 625.048, 555.610 632.517, 553.019 639.528, 549.260 646.807, 542.404 648.901, 540.432 654.116, 531.899 654.428, 531.389 657.763, 521.962 658.202, 520.721 659.145, 510.765 659.289, 509.243 658.491, 500.862 654.859, 491.545 654.793, 491.377 650.308, 482.440 645.823, 473.502 641.337, 464.564 636.852, 455.626 632.367, 446.689 627.882, 437.751 623.397, 428.813 618.911, 419.876 618.145, 418.348 612.142, 410.350 608.477, 405.467 600.760, 399.107 593.043, 392.747 589.269, 389.638 580.365, 385.086 571.527, 380.569 562.622, 376.018 553.718, 371.466 553.153, 371.177 544.249, 366.626 544.138, 366.570 534.953, 362.614 525.768, 358.659 522.537, 357.268 512.843, 354.814 508.246, 353.651 498.279, 352.840 492.277, 352.352 482.329, 353.376 475.741, 354.055 466.039, 356.481 460.195, 357.942 451.193, 362.295 445.460, 365.067 436.365, 369.225 427.271, 373.383 418.176, 377.541 409.082, 381.700 399.987, 385.858 390.893, 390.016 381.799, 394.174 372.704, 398.333 363.610, 402.491 354.515, 406.649 353.572, 407.080 351.170, 408.137 347.882, 408.445 347.833, 408.450 347.994, 408.288 339.844, 402.494 331.694, 396.700 323.543, 390.906 315.393, 385.112 307.252, 379.324 302.712, 376.097 296.884, 384.223 291.856, 391.236 " />
            <path fill="black" stroke-width="1.0" stroke-linecap="butt" stroke-opacity="1.0" stroke="rgb(0, 0, 0)" stroke-linejoin="round" d=" M 347.833, 408.450 342.022, 416.588 337.139, 423.426 342.966, 415.300 347.882, 408.445 347.994, 408.288 " />
            <path fill="black" stroke-width="1.0" stroke-linecap="butt" stroke-opacity="1.0" stroke="rgb(0, 0, 0)" stroke-linejoin="round" d=" M 345.247, 691.701 345.079, 691.481 339.005, 683.537 337.560, 681.646 330.774, 688.991 327.350, 692.697 326.222, 693.918 323.936, 703.730 323.494, 705.627 323.780, 709.559 324.273, 716.337 326.113, 725.856 330.264, 733.916 335.038, 740.933 342.114, 747.711 348.695, 752.472 355.917, 755.897 363.237, 758.207 370.901, 759.253 377.807, 759.142 385.931, 756.602 393.008, 753.919 395.680, 752.426 400.886, 749.520 403.159, 748.251 409.855, 741.015 416.647, 733.675 423.439, 726.336 430.231, 718.996 437.023, 711.657 442.034, 706.242 448.826, 698.902 455.618, 691.563 462.410, 684.223 469.202, 676.884 475.994, 669.544 482.786, 662.205 484.082, 660.804 486.140, 656.876 486.650, 654.197 486.607, 651.862 485.629, 649.377 483.827, 647.290 481.404, 646.050 477.853, 645.898 473.576, 647.624 466.826, 655.001 460.075, 662.379 453.324, 669.757 446.574, 677.134 439.823, 684.512 433.073, 691.889 426.322, 699.267 419.571, 706.645 412.821, 714.022 406.070, 721.400 399.319, 728.777 392.838, 735.861 386.428, 739.149 381.617, 741.242 376.776, 742.059 372.265, 742.210 367.813, 741.474 362.811, 740.193 357.508, 738.451 352.001, 734.481 346.522, 728.938 343.675, 723.868 340.878, 718.030 340.060, 713.446 339.728, 708.803 341.701, 699.368 345.247, 691.701 " />
            <path fill="black" stroke-width="1.0" stroke-linecap="butt" stroke-opacity="1.0" stroke="rgb(0, 0, 0)" stroke-linejoin="round" d=" M 444.862, 702.614 436.293, 707.768 427.723, 712.923 419.154, 718.077 410.584, 723.231 409.474, 723.899 402.720, 731.274 398.119, 736.299 397.051, 740.918 395.369, 748.186 395.680, 752.426 396.152, 758.860 397.993, 768.370 402.077, 776.974 406.816, 784.265 413.892, 791.043 420.473, 795.804 427.727, 798.982 435.104, 800.830 442.810, 801.535 449.720, 801.395 457.844, 798.854 464.944, 795.986 466.724, 794.692 473.973, 789.421 475.838, 788.065 482.288, 780.914 488.986, 773.489 494.248, 767.656 500.946, 760.231 507.644, 752.805 514.342, 745.380 521.040, 737.955 527.738, 730.529 534.436, 723.104 541.134, 715.678 547.832, 708.253 554.530, 700.828 555.548, 699.699 556.934, 697.450 557.444, 694.771 557.401, 692.436 556.423, 689.951 554.621, 687.863 552.198, 686.624 548.647, 686.472 544.370, 688.197 537.741, 695.684 531.111, 703.170 524.481, 710.657 517.851, 718.143 511.222, 725.630 504.592, 733.116 497.962, 740.602 491.332, 748.089 484.703, 755.575 483.214, 757.257 479.475, 761.478 472.846, 768.964 466.216, 776.451 464.752, 778.104 458.341, 781.401 453.530, 783.495 448.690, 784.312 444.179, 784.463 439.719, 783.788 434.700, 782.646 429.382, 781.020 423.874, 777.052 418.396, 771.504 415.541, 766.497 412.696, 761.044 411.849, 756.686 411.701, 752.135 413.715, 742.566 419.864, 734.679 426.012, 726.793 432.161, 718.906 438.309, 711.020 442.034, 706.242 444.862, 702.614 " />
            <path fill="black" stroke-width="1.0" stroke-linecap="butt" stroke-opacity="1.0" stroke="rgb(0, 0, 0)" stroke-linejoin="round" d=" M 466.835, 787.474 466.724, 794.692 466.660, 798.814 468.872, 807.726 472.704, 816.445 477.230, 823.870 484.107, 830.851 490.547, 835.801 497.705, 839.188 505.026, 841.249 512.709, 842.177 519.619, 842.237 527.814, 839.933 534.994, 837.272 543.615, 832.205 546.275, 830.642 554.005, 824.297 554.785, 823.656 562.987, 817.935 571.189, 812.214 579.391, 806.493 587.592, 800.772 595.794, 795.051 603.996, 789.330 612.198, 783.609 620.413, 777.879 622.399, 776.494 615.887, 768.904 611.987, 764.357 610.815, 765.167 602.588, 770.851 594.360, 776.534 586.132, 782.218 577.905, 787.902 569.677, 793.586 561.450, 799.270 553.222, 804.954 544.947, 810.670 537.222, 817.020 535.321, 818.582 528.816, 822.502 523.947, 824.455 519.085, 825.132 514.571, 825.152 510.133, 824.348 505.149, 823.060 499.880, 821.281 494.490, 817.155 489.176, 811.451 486.467, 806.363 483.781, 800.829 483.061, 796.448 483.045, 791.895 483.886, 782.008 489.739, 773.900 494.248, 767.656 495.621, 765.754 487.370, 760.104 483.214, 757.257 483.136, 757.204 479.475, 761.478 472.970, 769.073 470.023, 772.514 468.176, 781.180 466.835, 787.474 " />
            <path fill="black" stroke-width="1.0" stroke-linecap="butt" stroke-opacity="1.0" stroke="rgb(0, 0, 0)" stroke-linejoin="round" d=" M 694.728, 743.524 686.591, 748.277 680.748, 751.690 681.205, 752.520 681.420, 752.910 684.151, 757.866 684.812, 763.018 684.416, 769.055 682.229, 774.551 679.643, 778.656 674.371, 783.286 670.296, 785.449 665.635, 787.573 658.896, 789.149 654.988, 788.543 650.979, 787.412 647.315, 784.877 643.280, 781.443 640.014, 777.302 633.989, 769.321 627.964, 761.340 621.938, 753.359 615.913, 745.379 609.888, 737.398 603.862, 729.417 603.094, 728.399 602.101, 725.086 601.402, 721.605 602.168, 714.305 603.641, 709.913 606.576, 706.008 613.280, 700.527 619.966, 696.687 626.382, 695.445 635.955, 698.336 638.940, 699.237 645.643, 706.658 648.120, 709.401 654.610, 716.586 649.763, 707.839 644.916, 699.092 640.069, 690.345 639.552, 689.413 631.532, 683.441 626.401, 679.620 625.322, 679.712 621.678, 680.024 612.711, 682.290 604.176, 687.501 602.555, 688.490 595.055, 695.105 593.714, 696.287 589.200, 702.747 586.463, 710.661 585.350, 720.599 585.286, 721.174 586.853, 730.323 589.099, 736.403 595.125, 744.383 601.150, 752.364 607.175, 760.345 610.815, 765.167 616.841, 773.148 620.413, 777.879 626.020, 785.306 630.637, 791.514 636.031, 797.226 641.136, 800.467 649.201, 803.499 658.350, 805.171 668.275, 803.949 669.040, 803.855 676.995, 801.265 683.519, 796.858 690.810, 790.013 692.922, 788.029 697.957, 779.678 700.395, 771.905 700.605, 764.379 700.717, 760.394 699.143, 752.691 699.111, 752.536 696.646, 747.466 694.728, 743.524 " />
            <path fill="black" stroke-width="1.0" stroke-linecap="butt" stroke-opacity="1.0" stroke="rgb(0, 0, 0)" stroke-linejoin="round" d=" M 748.523, 703.230 739.619, 707.781 738.880, 708.159 734.969, 710.157 735.324, 711.257 735.754, 712.592 737.132, 716.868 737.830, 723.113 736.462, 728.761 734.275, 734.257 731.689, 738.363 726.417, 742.992 722.342, 745.156 717.682, 747.280 710.942, 748.855 706.646, 749.027 702.636, 747.506 698.195, 745.749 694.160, 742.315 690.895, 738.174 684.804, 730.243 678.714, 722.312 672.623, 714.381 666.533, 706.449 660.442, 698.518 654.351, 690.587 648.261, 682.655 642.170, 674.724 636.080, 666.793 629.989, 658.862 627.936, 656.188 625.832, 649.697 626.006, 643.144 628.400, 635.167 633.658, 629.698 641.841, 623.950 643.324, 622.909 650.077, 620.305 652.095, 619.976 652.273, 619.947 650.868, 610.046 650.046, 604.245 649.649, 604.299 643.457, 605.130 634.283, 609.110 633.981, 609.241 625.906, 615.140 621.821, 618.123 615.035, 625.468 614.207, 626.364 610.992, 635.833 609.885, 639.094 609.596, 649.090 609.500, 652.408 612.705, 661.881 613.552, 664.386 619.643, 672.317 625.322, 679.712 631.412, 687.643 632.111, 688.553 638.201, 696.484 644.292, 704.415 648.120, 709.401 654.211, 717.332 660.302, 725.263 666.392, 733.195 672.483, 741.126 676.511, 746.372 681.129, 752.580 681.420, 752.910 685.406, 757.418 686.523, 758.681 692.211, 761.797 692.794, 762.116 700.605, 764.379 701.247, 764.565 710.396, 764.877 720.321, 763.655 721.086, 763.561 729.041, 760.971 735.566, 756.564 742.856, 749.719 744.969, 747.735 750.003, 739.385 752.636, 731.611 753.443, 724.546 753.619, 723.002 753.929, 720.294 752.906, 712.242 752.008, 710.395 750.029, 706.327 748.523, 703.230 " />
            <path fill="black" stroke-width="1.0" stroke-linecap="butt" stroke-opacity="1.0" stroke="rgb(0, 0, 0)" stroke-linejoin="round" d=" M 783.356, 672.415 786.757, 678.520 788.227, 684.629 787.574, 690.404 786.158, 694.227 783.572, 698.333 778.300, 702.962 774.225, 705.126 769.565, 707.250 762.825, 708.825 758.334, 708.220 754.325, 706.700 751.633, 704.553 747.403, 700.731 744.010, 696.171 737.889, 688.263 731.769, 680.354 725.648, 672.446 719.528, 664.538 713.407, 656.630 709.402, 651.455 707.253, 648.679 703.163, 643.395 697.799, 636.463 691.678, 628.555 691.461, 628.275 685.340, 620.367 680.992, 614.748 673.479, 608.807 664.583, 605.308 655.826, 604.262 649.628, 604.163 649.649, 604.299 651.191, 614.179 652.095, 619.976 652.099, 619.997 655.617, 620.287 660.461, 620.795 665.557, 622.738 669.703, 626.124 675.814, 634.040 681.924, 641.956 688.034, 649.872 694.145, 657.788 695.714, 659.821 698.614, 663.577 704.724, 671.493 710.835, 679.409 716.945, 687.325 723.055, 695.241 729.166, 703.157 731.049, 705.596 734.955, 711.579 735.754, 712.592 738.751, 716.393 739.766, 717.680 744.516, 721.942 744.677, 722.087 753.130, 724.535 753.443, 724.546 762.279, 724.848 772.204, 723.626 772.969, 723.532 780.924, 720.942 787.449, 716.534 794.739, 709.689 796.852, 707.706 801.886, 699.355 803.977, 691.216 803.903, 684.629 803.850, 679.826 802.272, 673.678 801.832, 671.964 799.723, 668.342 797.058, 663.764 796.778, 663.284 794.463, 660.318 788.310, 652.436 782.156, 644.553 781.446, 643.643 776.724, 637.595 772.276, 631.897 766.123, 624.015 765.890, 623.717 762.857, 619.831 760.393, 616.674 759.557, 615.604 751.289, 621.229 746.134, 624.735 746.902, 625.718 753.055, 633.601 759.209, 641.483 765.362, 649.366 771.516, 657.248 777.669, 665.131 783.356, 672.415 " />
            <path fill="black" stroke-width="1.0" stroke-linecap="butt" stroke-opacity="1.0" stroke="rgb(0, 0, 0)" stroke-linejoin="round" d=" M 840.860, 631.847 842.278, 637.535 842.863, 643.780 841.383, 649.203 838.746, 655.036 835.261, 658.580 829.989, 663.322 825.914, 665.485 821.253, 667.609 814.514, 669.184 809.992, 669.019 806.208, 667.836 801.767, 666.078 797.507, 663.431 794.463, 660.318 793.679, 659.516 784.838, 664.189 780.083, 666.702 784.005, 671.974 784.700, 672.909 788.854, 677.608 790.095, 679.011 795.993, 682.242 796.365, 682.446 803.903, 684.629 804.819, 684.895 813.968, 685.657 823.834, 684.027 824.658, 683.891 832.612, 681.301 839.137, 676.893 846.384, 670.002 848.540, 667.952 854.474, 660.164 857.557, 652.053 858.814, 642.132 858.962, 640.961 858.052, 632.909 854.347, 623.620 854.049, 622.874 852.317, 620.539 846.357, 612.509 841.471, 605.926 836.924, 599.801 835.759, 598.231 835.270, 597.572 835.194, 597.623 826.938, 603.266 822.305, 606.433 824.247, 609.094 830.144, 617.170 836.041, 625.247 840.860, 631.847 " />
            <path fill="black" stroke-width="1.0" stroke-linecap="butt" stroke-opacity="1.0" stroke="rgb(0, 0, 0)" stroke-linejoin="round" d=" M 769.132, 651.971 777.415, 646.369 781.446, 643.643 781.740, 643.444 778.776, 636.709 777.660, 630.259 778.442, 624.373 780.056, 618.652 782.684, 614.599 787.241, 610.037 791.359, 606.718 795.726, 604.042 802.223, 601.658 806.467, 600.963 810.631, 601.984 815.816, 602.963 820.239, 605.879 824.247, 609.094 825.057, 609.743 832.723, 603.321 836.924, 599.801 837.090, 599.663 835.759, 598.231 835.194, 597.623 831.923, 594.103 825.825, 588.704 818.621, 586.284 809.932, 584.883 800.813, 585.688 791.111, 588.110 790.363, 588.297 782.783, 591.837 776.506, 597.681 769.892, 605.180 768.362, 606.915 763.820, 615.479 762.857, 619.831 762.042, 623.515 762.027, 633.515 762.024, 635.018 763.683, 643.223 768.970, 651.711 769.132, 651.971 " />
            <path fill="black" stroke-width="1.0" stroke-linecap="butt" stroke-opacity="1.0" stroke="rgb(0, 0, 0)" stroke-linejoin="round" d=" M 698.409, 663.721 698.614, 663.577 706.794, 657.825 711.341, 654.627 709.402, 651.455 707.604, 648.515 705.969, 642.448 706.466, 636.658 707.796, 630.895 709.454, 627.742 711.794, 624.752 715.575, 622.108 719.942, 619.432 726.439, 617.048 730.534, 616.468 734.449, 617.306 739.005, 618.737 743.279, 621.870 746.836, 625.763 746.902, 625.718 755.208, 620.150 760.393, 616.674 760.587, 616.544 755.532, 610.687 749.710, 604.993 743.207, 602.021 733.374, 600.202 732.266, 599.997 723.163, 600.845 714.579, 603.687 706.999, 607.227 701.060, 612.396 694.917, 618.787 691.473, 628.207 691.461, 628.275 690.047, 636.290 690.429, 646.282 690.482, 647.672 692.712, 655.477 695.714, 659.821 698.409, 663.721 " />
            <path fill="black" stroke-width="1.0" stroke-linecap="butt" stroke-opacity="1.0" stroke="rgb(0, 0, 0)" stroke-linejoin="round" d=" M 911.018, 559.441 908.210, 561.318 899.896, 566.875 891.582, 572.432 883.268, 577.989 874.955, 583.546 866.641, 589.103 858.327, 594.659 850.013, 600.216 841.471, 605.926 838.857, 607.673 844.385, 616.006 848.905, 622.820 852.317, 620.539 860.631, 614.982 868.945, 609.426 877.259, 603.869 885.573, 598.312 893.887, 592.755 902.200, 587.198 910.514, 581.641 918.354, 576.401 921.066, 574.589 915.538, 566.255 911.018, 559.441 " />
            <path fill="black" stroke-width="1.0" stroke-linecap="butt" stroke-opacity="1.0" stroke="rgb(0, 0, 0)" stroke-linejoin="round" d=" M 788.214, 380.592 787.104, 381.245 778.485, 386.316 769.866, 391.387 761.247, 396.458 752.628, 401.529 744.009, 406.599 742.014, 407.773 741.888, 407.927 741.756, 407.149 733.064, 402.206 724.371, 397.262 715.679, 392.318 706.986, 387.375 698.294, 382.431 689.601, 377.487 680.908, 372.544 672.216, 367.600 663.523, 362.656 654.831, 357.713 646.138, 352.769 644.932, 352.083 636.115, 349.714 627.770, 348.180 617.735, 347.752 607.755, 348.382 601.973, 348.748 595.612, 350.179 586.648, 354.612 577.685, 359.045 568.721, 363.478 559.757, 367.911 553.153, 371.177 552.706, 371.398 556.438, 380.676 558.906, 386.811 567.870, 382.377 571.527, 380.569 580.490, 376.136 589.454, 371.703 598.418, 367.269 601.811, 365.591 606.643, 364.690 616.638, 364.373 619.329, 364.287 627.948, 364.791 633.128, 366.056 637.906, 366.594 646.570, 371.588 655.234, 376.582 663.898, 381.575 672.561, 386.569 681.225, 391.563 689.889, 396.557 698.553, 401.551 707.217, 406.544 715.881, 411.538 724.544, 416.532 733.208, 421.526 736.581, 423.470 743.749, 424.434 750.151, 422.256 758.770, 417.185 767.389, 412.114 776.008, 407.044 784.627, 401.973 793.246, 396.902 796.351, 395.075 796.081, 394.594 791.183, 385.876 788.214, 380.592 " />
            <path fill="black" stroke-width="1.0" stroke-linecap="butt" stroke-opacity="1.0" stroke="rgb(0, 0, 0)" stroke-linejoin="round" d=" M 772.937, 360.145 781.207, 354.522 788.553, 349.527 796.823, 343.905 805.093, 338.283 813.362, 332.660 821.632, 327.038 829.902, 321.416 831.565, 320.285 839.834, 314.663 846.088, 310.411 840.466, 302.141 835.460, 294.778 827.190, 300.401 821.015, 304.599 812.745, 310.221 804.475, 315.844 796.206, 321.466 787.936, 327.088 779.666, 332.711 775.649, 335.442 767.379, 341.064 762.370, 344.470 762.308, 344.512 767.931, 352.781 770.678, 356.822 772.937, 360.145 " />
            <path fill="black" stroke-width="1.0" stroke-linecap="butt" stroke-opacity="1.0" stroke="rgb(0, 0, 0)" stroke-linejoin="round" d=" M 958.198, 601.771 952.617, 593.474 949.222, 588.426 943.642, 580.128 938.061, 571.830 932.480, 563.532 926.900, 555.234 921.319, 546.936 915.738, 538.638 910.157, 530.340 904.577, 522.042 898.996, 513.744 893.415, 505.446 887.835, 497.148 882.254, 488.850 876.673, 480.552 871.092, 472.255 865.512, 463.957 859.931, 455.659 854.350, 447.361 848.770, 439.063 843.189, 430.765 837.608, 422.467 832.027, 414.169 826.447, 405.871 820.866, 397.573 815.285, 389.275 809.705, 380.977 804.124, 372.679 798.543, 364.381 792.962, 356.083 788.553, 349.527 782.973, 341.229 778.011, 333.853 775.649, 335.442 767.351, 341.022 762.325, 344.403 762.370, 344.470 767.951, 352.767 770.678, 356.822 776.259, 365.120 781.839, 373.418 787.104, 381.245 792.684, 389.543 796.081, 394.594 801.662, 402.892 807.243, 411.190 812.823, 419.488 818.404, 427.786 823.985, 436.084 829.565, 444.382 835.146, 452.680 840.727, 460.978 846.308, 469.275 851.888, 477.573 857.469, 485.871 863.050, 494.169 868.630, 502.467 874.211, 510.765 879.792, 519.063 885.373, 527.361 890.953, 535.659 896.534, 543.957 902.115, 552.255 908.210, 561.318 913.791, 569.616 918.354, 576.401 923.935, 584.699 929.516, 592.997 935.096, 601.295 940.677, 609.593 942.512, 612.321 943.797, 611.457 952.095, 605.876 958.198, 601.771 " />
            <path fill="black" stroke-width="1.0" stroke-linecap="butt" stroke-opacity="1.0" stroke="rgb(0, 0, 0)" stroke-linejoin="round" d=" M 1018.127, 563.811 1012.546, 555.513 1007.867, 548.555 1002.286, 540.257 996.706, 531.959 991.125, 523.661 985.544, 515.363 979.963, 507.065 974.383, 498.767 968.802, 490.469 963.221, 482.171 957.641, 473.873 952.060, 465.576 946.479, 457.278 940.898, 448.980 935.318, 440.682 929.737, 432.384 924.156, 424.086 918.576, 415.788 912.995, 407.490 907.414, 399.192 901.833, 390.894 896.253, 382.596 890.672, 374.298 885.091, 366.000 879.511, 357.702 873.930, 349.404 868.349, 341.107 862.768, 332.809 857.188, 324.511 851.607, 316.213 846.026, 307.915 840.446, 299.617 836.560, 293.839 828.262, 299.420 820.874, 304.389 821.015, 304.599 826.596, 312.897 831.565, 320.285 837.145, 328.583 842.726, 336.881 848.307, 345.179 853.888, 353.477 859.468, 361.775 865.049, 370.073 870.630, 378.371 876.210, 386.669 881.791, 394.967 887.372, 403.265 892.953, 411.562 898.533, 419.860 904.114, 428.158 909.695, 436.456 915.275, 444.754 920.856, 453.052 926.437, 461.350 932.017, 469.648 937.598, 477.946 943.179, 486.244 948.760, 494.542 954.340, 502.840 959.921, 511.138 965.502, 519.436 971.082, 527.733 976.663, 536.031 982.244, 544.329 987.825, 552.627 992.234, 559.183 997.815, 567.481 1002.441, 574.360 1010.739, 568.779 1018.127, 563.811 " />
            <path fill="black" stroke-width="1.0" stroke-linecap="butt" stroke-opacity="1.0" stroke="rgb(0, 0, 0)" stroke-linejoin="round" d=" M 945.432, 613.862 953.702, 608.239 961.971, 602.617 970.241, 596.995 978.511, 591.372 986.781, 585.750 995.050, 580.127 1003.320, 574.505 1011.590, 568.883 1018.583, 564.128 1012.961, 555.858 1007.955, 548.495 1007.867, 548.555 999.597, 554.177 992.234, 559.183 983.964, 564.806 975.694, 570.428 967.425, 576.050 959.155, 581.673 950.885, 587.295 949.222, 588.426 940.953, 594.048 934.803, 598.229 940.426, 606.498 943.797, 611.457 945.432, 613.862 " />
        </g>
    </g>
</svg>
