<?xml version='1.0' encoding='ascii'?>
<svg xmlns="http://www.w3.org/2000/svg" version="1.1" width="1080" height="1080">
    <g id="ViewLayer_LineSet" xmlns:inkscape="http://www.inkscape.org/namespaces/inkscape" inkscape:groupmode="lineset" inkscape:label="ViewLayer_LineSet">
        <g xmlns:inkscape="http://www.inkscape.org/namespaces/inkscape" inkscape:groupmode="layer" id="strokes" inkscape:label="strokes">
            <path fill="black" stroke-width="3.0" stroke-linecap="butt" stroke-opacity="1.0" stroke="rgb(0, 0, 0)" stroke-linejoin="round" d=" M 91.632, 537.369 99.976, 542.881 108.320, 548.393 116.663, 553.905 125.007, 559.417 133.351, 564.929 141.695, 570.441 150.039, 575.953 158.382, 581.465 166.726, 586.977 175.070, 592.489 183.414, 598.001 191.757, 603.513 200.101, 609.024 206.781, 613.437 212.030, 616.905 217.563, 608.575 223.096, 600.245 224.155, 598.651 221.169, 596.679 212.826, 591.167 204.482, 585.655 196.138, 580.143 187.794, 574.631 179.450, 569.119 171.107, 563.607 162.763, 558.095 154.419, 552.583 146.075, 547.071 137.732, 541.559 129.388, 536.047 121.436, 530.794 113.092, 525.282 104.748, 519.770 103.757, 519.116 98.224, 527.445 92.691, 535.775 92.202, 536.512 91.632, 537.369 " />
            <path fill="black" stroke-width="3.0" stroke-linecap="butt" stroke-opacity="1.0" stroke="rgb(0, 0, 0)" stroke-linejoin="round" d=" M 230.682, 326.911 231.200, 327.280 239.350, 333.074 247.501, 338.868 249.780, 340.488 257.930, 346.282 266.081, 352.076 274.231, 357.870 282.382, 363.664 285.274, 365.720 294.452, 369.690 294.720, 369.806 303.809, 368.526 312.896, 364.353 321.984, 360.180 331.071, 356.006 340.159, 351.833 349.246, 347.660 358.334, 343.486 367.422, 339.313 376.509, 335.140 385.597, 330.966 394.684, 326.793 403.772, 322.620 412.859, 318.447 418.750, 315.741 427.753, 311.388 436.515, 307.151 446.217, 304.726 455.257, 302.466 465.199, 301.394 472.414, 300.616 482.384, 301.386 487.520, 301.782 497.215, 304.234 502.698, 305.621 511.904, 309.525 521.111, 313.428 526.438, 315.686 535.397, 320.129 544.356, 324.571 553.315, 329.014 562.274, 333.457 571.233, 337.899 578.619, 341.562 586.192, 348.092 593.766, 354.622 597.240, 357.617 603.469, 365.441 608.035, 371.177 612.497, 380.127 616.958, 389.076 621.419, 398.026 625.881, 406.976 630.342, 415.925 634.804, 424.875 639.265, 433.825 643.726, 442.774 648.188, 451.724 650.629, 456.621 653.654, 464.383 653.994, 471.198 653.027, 478.835 649.768, 487.773 645.693, 494.441 638.773, 501.043 633.885, 503.669 628.247, 505.752 618.726, 506.867 612.705, 506.236 607.088, 504.829 601.917, 502.515 596.480, 499.336 592.608, 494.737 587.323, 486.247 582.038, 477.758 576.753, 469.269 571.468, 460.779 566.183, 452.290 564.566, 449.694 558.681, 443.697 549.822, 439.057 540.964, 434.418 532.105, 429.778 523.247, 425.138 514.388, 420.498 505.530, 415.858 504.680, 415.413 495.324, 413.756 485.327, 414.009 480.977, 414.119 471.997, 418.518 463.016, 422.918 454.036, 427.318 445.056, 431.717 436.076, 436.117 427.096, 440.517 418.116, 444.916 409.135, 449.316 400.155, 453.715 391.175, 458.115 382.195, 462.515 373.215, 466.914 364.234, 471.314 355.254, 475.713 346.274, 480.113 337.294, 484.513 328.314, 488.912 319.334, 493.312 310.353, 497.711 305.331, 500.172 302.269, 502.223 295.755, 509.810 289.240, 517.397 282.726, 524.984 276.212, 532.571 269.698, 540.158 263.183, 547.745 256.669, 555.333 250.155, 562.920 243.640, 570.507 237.126, 578.094 230.612, 585.681 224.098, 593.268 221.169, 596.679 214.655, 604.266 208.141, 611.853 206.781, 613.437 200.266, 621.024 197.725, 623.985 193.504, 633.050 191.474, 637.412 189.205, 647.151 188.186, 651.529 188.910, 661.502 189.124, 664.440 191.022, 674.258 191.342, 675.916 195.921, 684.806 196.347, 685.633 201.972, 693.901 202.102, 694.092 209.323, 701.010 210.632, 702.264 218.566, 708.004 227.274, 712.133 236.098, 714.918 245.338, 716.178 253.663, 716.045 263.207, 713.061 263.457, 712.982 269.168, 710.675 272.017, 709.524 275.332, 707.208 282.941, 701.891 287.710, 697.310 294.121, 691.151 301.333, 684.223 308.545, 677.296 315.756, 670.368 319.381, 666.886 322.521, 661.563 323.136, 658.333 323.084, 655.518 321.905, 652.522 319.732, 650.006 316.811, 648.511 312.530, 648.328 307.219, 650.321 300.198, 657.442 293.178, 664.563 286.157, 671.684 279.136, 678.805 272.116, 685.926 270.877, 687.183 264.056, 691.941 258.257, 694.465 252.421, 695.450 246.983, 695.632 241.616, 694.745 235.585, 693.201 229.191, 691.100 222.552, 686.315 215.947, 679.632 212.515, 673.519 209.143, 666.481 208.156, 660.955 207.756, 655.357 209.804, 645.569 210.136, 643.982 214.333, 634.906 214.410, 634.740 220.883, 627.118 227.357, 619.496 233.831, 611.874 240.304, 604.253 246.778, 596.631 253.251, 589.009 259.725, 581.387 266.198, 573.765 272.672, 566.143 279.146, 558.521 285.619, 550.899 292.093, 543.278 298.566, 535.656 305.040, 528.034 311.513, 520.412 314.824, 516.514 316.100, 515.853 325.097, 511.488 334.095, 507.124 343.092, 502.759 352.089, 498.395 361.086, 494.030 370.083, 489.665 379.081, 485.301 388.078, 480.936 397.075, 476.571 406.072, 472.207 415.069, 467.842 424.067, 463.477 433.064, 459.113 442.061, 454.748 451.058, 450.383 460.055, 446.019 469.053, 441.654 478.050, 437.289 486.810, 433.040 494.913, 433.566 499.547, 434.186 508.355, 438.922 517.162, 443.658 525.969, 448.395 534.776, 453.131 543.584, 457.867 547.388, 459.913 550.937, 464.003 556.116, 472.557 561.294, 481.112 566.472, 489.667 571.650, 498.222 576.257, 505.833 582.471, 513.273 590.374, 518.554 596.916, 521.770 606.266, 524.918 616.154, 526.413 617.164, 526.565 627.116, 525.592 632.371, 525.077 641.375, 521.955 649.827, 517.422 657.107, 510.566 661.128, 506.779 666.342, 498.247 667.790, 495.877 671.125, 486.450 672.340, 483.016 673.283, 473.060 673.651, 469.178 672.703, 459.224 672.688, 459.075 669.056, 449.758 668.231, 447.640 663.745, 438.702 659.260, 429.765 654.775, 420.827 650.290, 411.889 645.805, 402.952 641.319, 394.014 636.834, 385.076 632.349, 376.138 627.864, 367.201 624.048, 359.597 618.045, 351.599 612.393, 344.069 604.676, 337.709 596.959, 331.349 589.237, 324.985 580.332, 320.434 571.428, 315.882 567.846, 314.052 558.942, 309.500 550.038, 304.949 545.695, 302.730 536.791, 298.179 534.827, 297.175 525.642, 293.219 516.458, 289.264 508.786, 285.960 499.091, 283.507 491.557, 281.600 481.590, 280.789 472.304, 280.034 462.357, 281.059 452.369, 282.088 442.668, 284.513 433.628, 286.773 424.625, 291.126 415.863, 295.363 406.768, 299.521 397.674, 303.679 388.579, 307.837 379.485, 311.996 370.391, 316.154 361.296, 320.312 352.202, 324.470 343.107, 328.629 334.013, 332.787 324.918, 336.945 315.824, 341.103 306.729, 345.261 305.085, 346.014 302.189, 347.288 298.225, 347.659 298.166, 347.664 298.361, 347.469 290.210, 341.675 282.060, 335.881 273.909, 330.087 265.759, 324.293 257.609, 318.499 249.458, 312.705 243.769, 308.660 237.941, 316.787 232.114, 324.914 230.682, 326.911 " />
            <path fill="black" stroke-width="3.0" stroke-linecap="butt" stroke-opacity="1.0" stroke="rgb(0, 0, 0)" stroke-linejoin="round" d=" M 298.166, 347.664 292.355, 355.803 286.544, 363.941 285.274, 365.720 291.101, 357.593 296.928, 349.467 298.225, 347.659 298.361, 347.469 " />
            <path fill="black" stroke-width="3.0" stroke-linecap="butt" stroke-opacity="1.0" stroke="rgb(0, 0, 0)" stroke-linejoin="round" d=" M 295.048, 689.147 288.975, 681.202 285.781, 677.025 278.995, 684.369 273.472, 690.347 272.112, 691.818 269.844, 701.558 269.357, 703.648 268.824, 705.935 269.168, 710.675 269.762, 718.847 271.660, 728.665 271.981, 730.322 276.560, 739.212 276.986, 740.039 282.610, 748.308 282.740, 748.499 289.961, 755.417 291.271, 756.671 299.205, 762.410 307.912, 766.539 316.737, 769.325 325.976, 770.585 334.302, 770.452 343.846, 767.467 344.096, 767.389 352.628, 764.154 355.850, 762.355 362.126, 758.851 364.865, 757.322 372.013, 750.328 373.536, 748.837 380.683, 741.844 387.830, 734.850 394.978, 727.856 396.003, 726.853 403.150, 719.859 410.297, 712.865 412.736, 710.479 415.216, 705.744 415.831, 702.514 415.780, 699.699 414.601, 696.703 412.427, 694.186 409.507, 692.692 405.226, 692.509 400.070, 694.589 393.010, 701.671 385.950, 708.753 378.890, 715.835 371.830, 722.917 364.770, 729.999 357.710, 737.082 352.423, 742.384 344.695, 746.348 338.895, 748.872 333.059, 749.857 327.621, 750.039 322.254, 749.152 316.224, 747.608 309.830, 745.507 303.190, 740.721 296.586, 734.039 293.154, 727.925 289.781, 720.888 288.795, 715.361 288.395, 709.764 290.442, 699.976 290.774, 698.389 294.121, 691.151 295.048, 689.147 " />
            <path fill="black" stroke-width="3.0" stroke-linecap="butt" stroke-opacity="1.0" stroke="rgb(0, 0, 0)" stroke-linejoin="round" d=" M 415.142, 702.303 406.573, 707.457 398.003, 712.611 389.434, 717.765 380.865, 722.920 372.479, 727.963 365.725, 735.339 358.972, 742.714 358.790, 742.913 357.502, 748.482 355.475, 757.243 355.850, 762.355 356.419, 770.111 358.319, 779.929 358.638, 781.577 362.926, 790.611 363.561, 791.950 369.011, 800.334 369.275, 800.739 376.496, 807.657 377.805, 808.911 385.739, 814.651 394.484, 818.482 403.378, 820.710 412.669, 821.560 420.999, 821.391 430.543, 818.406 430.793, 818.328 439.353, 814.870 441.498, 813.310 449.586, 807.429 450.238, 806.955 452.487, 805.320 459.361, 798.058 460.496, 796.859 467.370, 789.597 471.158, 785.594 478.033, 778.332 484.907, 771.069 491.781, 763.807 498.370, 756.846 500.041, 754.135 500.656, 750.906 500.605, 748.090 499.425, 745.094 497.252, 742.578 494.331, 741.084 490.050, 740.900 484.895, 742.981 478.166, 750.379 471.438, 757.777 464.710, 765.175 461.748, 768.432 455.020, 775.830 449.129, 782.307 442.401, 789.706 439.122, 793.311 431.392, 797.287 425.592, 799.811 419.757, 800.796 414.318, 800.978 408.942, 800.164 402.891, 798.787 396.479, 796.827 389.840, 792.044 383.236, 785.355 379.794, 779.319 376.363, 772.744 375.343, 767.490 375.164, 762.004 377.224, 752.219 377.592, 750.467 383.741, 742.581 389.889, 734.694 396.003, 726.853 402.151, 718.966 408.300, 711.080 414.448, 703.193 415.142, 702.303 " />
            <path fill="black" stroke-width="3.0" stroke-linecap="butt" stroke-opacity="1.0" stroke="rgb(0, 0, 0)" stroke-linejoin="round" d=" M 441.632, 804.608 441.498, 813.310 441.422, 818.279 443.831, 827.985 444.088, 829.023 448.112, 838.178 448.708, 839.535 453.913, 848.074 454.164, 848.487 461.182, 855.611 462.455, 856.902 470.219, 862.870 478.849, 866.953 487.674, 869.438 496.936, 870.557 505.268, 870.629 514.895, 867.923 515.147, 867.852 523.804, 864.643 532.425, 859.576 537.404, 856.650 545.133, 850.305 547.663, 848.229 555.865, 842.508 564.067, 836.787 572.269, 831.066 580.470, 825.345 588.672, 819.623 596.874, 813.902 605.076, 808.181 613.278, 802.460 621.479, 796.739 626.782, 793.040 629.176, 791.370 622.665, 783.780 616.625, 776.739 615.212, 777.715 606.984, 783.399 598.757, 789.083 590.529, 794.766 582.301, 800.450 574.074, 806.134 565.846, 811.818 557.619, 817.502 549.391, 823.186 541.163, 828.869 535.803, 832.572 528.078, 838.922 524.198, 842.111 516.356, 846.837 510.486, 849.192 504.624, 850.007 499.182, 850.031 493.832, 849.062 487.823, 847.510 481.471, 845.365 474.973, 840.391 468.566, 833.514 465.301, 827.380 462.062, 820.709 461.195, 815.427 461.174, 809.938 462.022, 799.974 462.188, 798.018 468.042, 789.911 471.158, 785.594 476.336, 778.423 468.085, 772.773 461.748, 768.432 461.285, 768.115 454.780, 775.710 449.129, 782.307 445.476, 786.572 443.392, 796.353 443.249, 797.020 441.632, 804.608 " />
            <path fill="black" stroke-width="3.0" stroke-linecap="butt" stroke-opacity="1.0" stroke="rgb(0, 0, 0)" stroke-linejoin="round" d=" M 716.375, 751.622 707.741, 756.667 706.565, 757.353 699.522, 761.468 700.073, 762.468 700.332, 762.938 703.624, 768.913 704.421, 775.125 703.943, 782.403 701.306, 789.028 698.189, 793.978 691.833, 799.559 686.920, 802.167 681.302, 804.728 673.177, 806.627 668.466, 805.897 663.632, 804.533 659.215, 801.477 654.350, 797.337 650.414, 792.345 644.388, 784.364 638.363, 776.383 632.338, 768.402 626.312, 760.421 620.287, 752.440 614.262, 744.460 608.236, 736.479 605.903, 733.388 604.706, 729.395 603.863, 725.198 604.787, 716.397 606.563, 711.102 610.101, 706.395 617.843, 700.065 618.184, 699.786 626.243, 695.158 633.979, 693.659 643.552, 696.550 649.119, 698.231 655.821, 705.652 660.186, 710.485 666.889, 717.906 668.010, 719.147 663.163, 710.400 658.316, 701.653 653.469, 692.906 649.856, 686.388 641.836, 680.415 634.001, 674.581 632.701, 674.692 628.307, 675.069 618.612, 677.519 617.497, 677.801 608.962, 683.011 605.253, 685.275 597.753, 691.890 594.595, 694.675 589.153, 702.463 585.853, 712.004 584.740, 721.942 584.434, 724.678 586.123, 734.534 586.324, 735.708 589.032, 743.037 595.057, 751.018 601.082, 758.999 607.108, 766.980 613.133, 774.961 615.212, 777.715 621.237, 785.696 626.782, 793.040 632.808, 801.021 633.542, 801.994 639.109, 809.478 645.612, 816.365 651.766, 820.272 661.127, 823.791 661.489, 823.927 671.326, 825.725 672.519, 825.943 682.444, 824.722 685.406, 824.357 694.996, 821.234 702.862, 815.921 710.153, 809.076 714.198, 805.277 719.362, 796.713 720.268, 795.210 723.207, 785.838 723.461, 776.765 723.595, 771.961 721.698, 762.675 721.660, 762.487 718.687, 756.375 716.375, 751.622 " />
            <path fill="black" stroke-width="3.0" stroke-linecap="butt" stroke-opacity="1.0" stroke="rgb(0, 0, 0)" stroke-linejoin="round" d=" M 781.230, 703.045 772.325, 707.596 769.604, 708.987 764.890, 711.396 765.317, 712.723 765.836, 714.332 767.497, 719.487 768.338, 727.016 766.689, 733.825 764.052, 740.450 760.935, 745.400 754.579, 750.982 749.666, 753.590 744.048, 756.150 735.923, 758.049 730.743, 758.257 725.909, 756.424 720.556, 754.305 715.690, 750.165 711.754, 745.173 705.663, 737.242 699.573, 729.311 693.482, 721.380 687.392, 713.448 681.301, 705.517 675.211, 697.586 669.120, 689.655 663.030, 681.723 656.939, 673.792 650.848, 665.861 644.758, 657.929 638.667, 649.998 635.852, 646.332 633.316, 638.507 633.526, 630.606 636.412, 620.990 642.750, 614.396 650.934, 608.649 654.403, 606.212 662.545, 603.072 664.978, 602.676 665.192, 602.641 663.788, 592.741 662.507, 583.711 662.029, 583.776 654.564, 584.778 645.391, 588.758 643.140, 589.735 635.065, 595.633 628.480, 600.442 621.695, 607.787 619.301, 610.378 616.086, 619.847 614.091, 625.725 613.801, 635.720 613.626, 641.775 616.831, 651.248 618.512, 656.215 624.602, 664.147 630.693, 672.078 632.701, 674.692 638.791, 682.624 640.885, 685.351 646.976, 693.282 653.066, 701.213 659.157, 709.145 660.186, 710.485 666.277, 718.416 672.367, 726.347 678.458, 734.279 684.548, 742.210 690.639, 750.141 694.414, 755.057 699.980, 762.540 700.332, 762.938 705.138, 768.374 706.484, 769.896 713.341, 773.653 714.043, 774.037 723.461, 776.765 724.235, 776.989 734.229, 777.331 735.265, 777.366 745.190, 776.144 748.152, 775.779 757.742, 772.657 765.608, 767.343 772.898, 760.498 776.944, 756.700 782.107, 748.136 783.014, 746.633 786.188, 737.261 787.161, 728.743 787.374, 726.882 787.747, 723.617 786.514, 713.910 785.431, 711.683 783.046, 706.779 781.230, 703.045 " />
            <path fill="black" stroke-width="3.0" stroke-linecap="butt" stroke-opacity="1.0" stroke="rgb(0, 0, 0)" stroke-linejoin="round" d=" M 823.224, 665.896 827.323, 673.255 829.096, 680.620 828.308, 687.582 826.601, 692.192 823.484, 697.142 817.128, 702.723 812.215, 705.331 806.597, 707.892 798.472, 709.791 793.058, 709.061 788.224, 707.228 784.979, 704.640 779.879, 700.032 775.789, 694.535 769.668, 686.627 763.547, 678.719 757.427, 670.810 751.306, 662.902 745.186, 654.994 739.065, 647.086 734.066, 640.627 731.476, 637.280 726.545, 630.909 720.424, 623.001 720.077, 622.553 713.957, 614.645 712.437, 612.681 706.316, 604.773 700.195, 596.865 699.815, 596.373 691.971, 590.170 690.758, 589.210 681.452, 585.550 680.034, 584.993 670.104, 583.807 669.475, 583.732 662.004, 583.612 662.029, 583.776 663.571, 593.656 664.978, 602.676 664.982, 602.702 669.224, 603.051 675.064, 603.664 681.207, 606.006 686.206, 610.088 692.316, 618.004 698.427, 625.920 704.537, 633.836 710.648, 641.751 716.758, 649.668 717.564, 650.712 721.060, 655.241 727.170, 663.157 733.281, 671.073 739.391, 678.989 745.502, 686.905 751.612, 694.821 757.722, 702.737 760.163, 705.898 764.872, 713.110 765.836, 714.332 769.449, 718.915 770.672, 720.466 776.399, 725.604 776.592, 725.778 786.198, 728.561 786.784, 728.731 787.161, 728.743 797.155, 729.085 797.814, 729.107 807.739, 727.885 810.701, 727.521 820.291, 724.398 828.157, 719.085 835.447, 712.240 839.493, 708.441 844.656, 699.877 845.563, 698.374 848.051, 688.688 848.083, 688.561 847.995, 680.621 847.930, 674.830 846.028, 667.418 845.497, 665.352 842.956, 660.985 839.742, 655.465 839.405, 654.887 836.614, 651.311 830.461, 643.429 824.307, 635.546 820.921, 631.209 815.228, 623.917 809.866, 617.048 803.713, 609.166 802.167, 607.186 798.510, 602.501 795.539, 598.696 794.531, 597.405 786.263, 603.030 778.350, 608.414 779.275, 609.599 785.428, 617.481 791.582, 625.364 797.735, 633.246 803.889, 641.129 810.043, 649.011 816.196, 656.894 822.350, 664.776 823.224, 665.896 " />
            <path fill="black" stroke-width="3.0" stroke-linecap="butt" stroke-opacity="1.0" stroke="rgb(0, 0, 0)" stroke-linejoin="round" d=" M 892.549, 616.988 894.258, 623.845 894.964, 631.373 893.179, 637.912 890.001, 644.944 885.799, 649.216 879.443, 654.932 874.530, 657.541 868.912, 660.101 860.787, 662.000 855.336, 661.801 850.773, 660.375 845.419, 658.256 840.283, 655.065 836.614, 651.311 835.669, 650.344 826.828, 655.017 819.278, 659.008 824.005, 665.364 824.844, 666.491 829.852, 672.156 831.347, 673.847 838.458, 677.742 838.907, 677.988 847.995, 680.621 849.099, 680.940 859.064, 681.770 860.128, 681.859 869.995, 680.229 873.016, 679.730 882.606, 676.608 890.472, 671.294 897.719, 664.403 901.808, 660.515 907.868, 652.561 908.962, 651.126 912.514, 641.778 912.678, 641.347 913.935, 631.427 914.373, 627.975 913.276, 618.267 909.571, 608.979 908.450, 606.169 906.361, 603.355 900.401, 595.325 894.441, 587.295 893.285, 585.737 887.804, 578.353 886.399, 576.460 885.810, 575.666 885.719, 575.728 877.463, 581.371 870.179, 586.349 872.521, 589.556 878.418, 597.633 884.314, 605.709 890.211, 613.786 892.549, 616.988 " />
            <path fill="black" stroke-width="3.0" stroke-linecap="butt" stroke-opacity="1.0" stroke="rgb(0, 0, 0)" stroke-linejoin="round" d=" M 806.075, 641.249 814.358, 635.647 820.921, 631.209 821.275, 630.969 817.702, 622.849 816.357, 615.073 817.299, 607.977 819.245, 601.080 822.413, 596.194 827.907, 590.694 832.872, 586.693 838.136, 583.467 845.969, 580.592 851.085, 579.755 856.106, 580.985 862.356, 582.165 867.689, 585.681 872.521, 589.556 873.497, 590.339 881.163, 583.917 887.804, 578.353 888.003, 578.186 886.399, 576.460 885.719, 575.728 881.774, 571.484 874.424, 564.975 865.738, 562.057 855.865, 560.466 855.263, 560.369 845.301, 561.248 844.269, 561.339 834.567, 563.761 831.671, 564.484 822.533, 568.752 815.214, 575.566 814.966, 575.797 808.351, 583.297 805.147, 586.929 800.462, 595.764 799.671, 597.254 798.510, 602.501 797.527, 606.943 797.512, 616.943 797.506, 620.810 799.506, 630.702 804.793, 639.191 806.075, 641.249 " />
            <path fill="black" stroke-width="3.0" stroke-linecap="butt" stroke-opacity="1.0" stroke="rgb(0, 0, 0)" stroke-linejoin="round" d=" M 720.813, 655.414 721.060, 655.241 729.240, 649.488 736.403, 644.451 734.066, 640.627 731.899, 637.082 729.928, 629.768 730.527, 622.787 732.130, 615.839 734.129, 612.039 736.950, 608.434 741.508, 605.247 746.772, 602.020 754.605, 599.146 759.542, 598.447 764.262, 599.457 769.755, 601.183 774.907, 604.959 779.195, 609.652 779.275, 609.599 787.581, 604.031 795.539, 598.696 795.774, 598.538 789.679, 591.478 782.661, 584.613 774.820, 581.030 764.987, 579.211 761.631, 578.590 751.674, 579.517 750.656, 579.612 741.163, 582.754 740.307, 583.038 731.169, 587.306 724.009, 593.538 717.079, 600.747 716.603, 601.242 713.169, 610.634 712.451, 612.599 712.437, 612.681 710.732, 622.343 711.114, 632.336 711.257, 636.065 713.945, 645.475 717.564, 650.712 720.813, 655.414 " />
            <path fill="black" stroke-width="3.0" stroke-linecap="butt" stroke-opacity="1.0" stroke="rgb(0, 0, 0)" stroke-linejoin="round" d=" M 977.130, 529.697 975.394, 530.857 967.080, 536.414 958.766, 541.971 956.445, 543.522 948.131, 549.079 939.817, 554.636 931.503, 560.193 923.189, 565.750 914.875, 571.307 906.562, 576.864 898.248, 582.420 893.285, 585.737 890.134, 587.844 895.662, 596.177 901.190, 604.510 902.248, 606.105 906.361, 603.355 914.675, 597.798 922.989, 592.241 931.303, 586.684 939.617, 581.128 947.931, 575.571 956.245, 570.014 964.559, 564.457 972.872, 558.900 981.186, 553.343 989.243, 547.958 983.716, 539.625 978.188, 531.291 977.130, 529.697 " />
            <path fill="black" stroke-width="3.0" stroke-linecap="butt" stroke-opacity="1.0" stroke="rgb(0, 0, 0)" stroke-linejoin="round" d=" M 829.081, 314.080 820.462, 319.150 811.843, 324.221 803.224, 329.292 794.605, 334.363 785.986, 339.434 777.367, 344.505 773.383, 346.848 773.230, 347.034 773.072, 346.096 764.379, 341.153 755.687, 336.209 746.994, 331.266 738.301, 326.322 729.609, 321.378 720.916, 316.435 712.224, 311.491 703.531, 306.547 694.839, 301.604 686.146, 296.660 677.454, 291.716 668.761, 286.773 660.068, 281.829 656.343, 279.710 646.685, 277.115 645.713, 276.854 635.878, 275.046 635.653, 275.005 625.662, 274.578 623.555, 274.488 613.575, 275.119 604.552, 275.689 596.883, 277.414 587.919, 281.847 578.956, 286.280 569.992, 290.714 561.028, 295.147 552.065, 299.580 545.695, 302.730 545.157, 302.996 548.889, 312.274 552.631, 321.577 561.595, 317.144 567.846, 314.052 576.810, 309.619 585.774, 305.185 594.737, 300.752 603.701, 296.319 604.357, 295.995 610.182, 294.909 620.177, 294.591 625.476, 294.423 635.459, 295.007 635.867, 295.031 642.112, 296.555 647.872, 297.204 656.536, 302.198 665.200, 307.192 673.864, 312.185 682.527, 317.179 691.191, 322.173 699.855, 327.167 708.519, 332.161 717.183, 337.154 725.846, 342.148 734.510, 347.142 743.174, 352.136 751.838, 357.130 760.502, 362.124 766.832, 365.772 775.474, 366.935 783.192, 364.309 791.811, 359.238 800.430, 354.167 809.049, 349.097 817.668, 344.026 818.646, 343.450 827.265, 338.379 835.884, 333.309 838.339, 331.865 838.890, 331.540 833.992, 322.822 829.081, 314.080 " />
            <path fill="black" stroke-width="3.0" stroke-linecap="butt" stroke-opacity="1.0" stroke="rgb(0, 0, 0)" stroke-linejoin="round" d=" M 109.690, 548.210 115.282, 539.919 120.873, 531.628 121.436, 530.794 127.027, 522.503 132.618, 514.213 138.210, 505.922 143.801, 497.631 149.393, 489.340 154.984, 481.050 160.575, 472.759 166.167, 464.468 171.758, 456.177 177.349, 447.887 182.941, 439.596 188.532, 431.305 194.124, 423.014 199.715, 414.724 205.306, 406.433 210.898, 398.142 216.489, 389.851 222.080, 381.561 227.672, 373.270 233.263, 364.979 238.854, 356.688 244.446, 348.398 249.780, 340.488 255.371, 332.197 260.963, 323.907 261.139, 323.645 252.827, 318.085 244.515, 312.525 242.197, 310.974 236.605, 319.265 231.200, 327.280 225.608, 335.571 220.017, 343.861 214.426, 352.152 208.834, 360.443 203.243, 368.734 197.652, 377.024 192.060, 385.315 186.469, 393.606 180.878, 401.897 175.286, 410.187 169.695, 418.478 164.103, 426.769 158.512, 435.060 152.921, 443.350 147.329, 451.641 141.738, 459.932 136.147, 468.223 130.555, 476.513 124.964, 484.804 119.372, 493.095 113.781, 501.386 108.190, 509.676 102.598, 517.967 97.007, 526.258 90.747, 535.539 92.202, 536.512 100.514, 542.072 108.826, 547.631 109.690, 548.210 " />
            <path fill="black" stroke-width="3.0" stroke-linecap="butt" stroke-opacity="1.0" stroke="rgb(0, 0, 0)" stroke-linejoin="round" d=" M 983.378, 542.449 977.705, 534.213 975.394, 530.857 969.722, 522.621 964.049, 514.386 958.377, 506.150 952.705, 497.914 947.033, 489.679 941.360, 481.443 935.688, 473.208 930.016, 464.972 924.344, 456.736 918.672, 448.501 912.999, 440.265 907.327, 432.029 901.655, 423.794 895.982, 415.558 890.310, 407.323 884.638, 399.087 878.966, 390.851 873.294, 382.616 867.621, 374.380 861.949, 366.144 856.277, 357.909 850.604, 349.673 844.932, 341.438 838.339, 331.865 832.667, 323.629 829.738, 319.377 821.524, 325.080 813.310, 330.784 811.018, 332.375 816.691, 340.611 818.646, 343.450 824.319, 351.686 829.991, 359.922 835.663, 368.157 841.335, 376.393 847.008, 384.628 852.680, 392.864 858.352, 401.100 864.024, 409.335 869.697, 417.571 875.369, 425.807 881.041, 434.042 886.713, 442.278 892.386, 450.513 898.058, 458.749 903.730, 466.985 909.402, 475.220 915.075, 483.456 920.747, 491.692 926.419, 499.927 932.091, 508.163 937.764, 516.398 943.436, 524.634 949.108, 532.870 954.780, 541.105 956.445, 543.522 962.117, 551.758 964.658, 555.447 972.872, 549.743 981.086, 544.040 983.378, 542.449 " />
        </g>
    </g>
</svg>
